<?xml version="1.0" standalone="no"?>
 <!DOCTYPE svg PUBLIC "-//W3C//DTD SVG 1.1//EN" 
 "http://www.w3.org/Graphics/SVG/1.1/DTD/svg11.dtd"> 
<svg xmlns="http://www.w3.org/2000/svg" version="1.1" 
    width="5.09524cm" height="7.3025cm" viewBox="0 0 20060 28750 ">
<title>SVG Picture created as LED_7_seg_display_2013--brd.svg date 2015/06/30 13:16:21 </title>
  <desc>Picture generated by PCBNEW </desc>
<g style="fill:#000000; fill-opacity:1;stroke:#000000; stroke-opacity:1;
stroke-linecap:round; stroke-linejoin:round; "
 transform="translate(0 0) scale(1 1)">
</g>
<g style="fill:#FFFF00; fill-opacity:0.0; 
stroke:#FFFF00; stroke-width:150; stroke-opacity:1; 
stroke-linecap:round; stroke-linejoin:round;">
<path d="M17425 28500
L17425 27500
" />
<path d="M1925 28500
L17425 28500
" />
<path d="M1925 500
L1925 28500
" />
<path d="M17425 500
L1925 500
" />
<path d="M17425 28000
L17425 500
" />
</g>
<g style="fill:#009F9F; fill-opacity:0.0; 
stroke:#009F9F; stroke-width:120; stroke-opacity:1; 
stroke-linecap:round; stroke-linejoin:round;">
<path d="M16248 19850
L16248 20192
" />
<path d="M16248 20021
L15448 20021
L15563 20078
L15639 20135
L15677 20192
" />
<path d="M16248 19278
L16248 19621
" />
<path d="M16248 19450
L15448 19450
L15563 19507
L15639 19564
L15677 19621
" />
<path d="M15410 18592
L16439 19107
" />
<path d="M15448 18450
L15448 18078
L15753 18278
L15753 18192
L15791 18135
L15829 18107
L15905 18078
L16096 18078
L16172 18107
L16210 18135
L16248 18192
L16248 18364
L16210 18421
L16172 18450
" />
<path d="M15410 17392
L16439 17907
" />
<path d="M16248 16878
L16248 17221
" />
<path d="M16248 17050
L15448 17050
L15563 17107
L15639 17164
L15677 17221
" />
<path d="M15448 16678
L15448 16307
L15753 16507
L15753 16421
L15791 16364
L15829 16335
L15905 16307
L16096 16307
L16172 16335
L16210 16364
L16248 16421
L16248 16592
L16210 16649
L16172 16678
" />
<path d="M5360 24573
L5360 24040
" />
<path d="M5360 24192
L5389 24116
L5417 24078
L5475 24040
L5532 24040
" />
<path d="M5960 24535
L5903 24573
L5789 24573
L5732 24535
L5703 24459
L5703 24154
L5732 24078
L5789 24040
L5903 24040
L5960 24078
L5989 24154
L5989 24230
L5703 24307
" />
<path d="M6246 24269
L6703 24269
" />
<path d="M6989 24573
L6989 24040
" />
<path d="M6989 23773
L6960 23811
L6989 23850
L7017 23811
L6989 23773
L6989 23850
" />
<path d="M7275 24040
L7275 24573
" />
<path d="M7275 24116
L7303 24078
L7360 24040
L7446 24040
L7503 24078
L7532 24154
L7532 24573
" />
<path d="M7817 24040
L7817 24573
" />
<path d="M7817 24116
L7846 24078
L7903 24040
L7989 24040
L8046 24078
L8075 24154
L8075 24573
" />
<path d="M8446 24573
L8389 24535
L8360 24497
L8332 24421
L8332 24192
L8360 24116
L8389 24078
L8446 24040
L8532 24040
L8589 24078
L8617 24116
L8646 24192
L8646 24421
L8617 24497
L8589 24535
L8532 24573
L8446 24573
" />
<path d="M8846 24040
L8989 24573
L9132 24040
" />
<path d="M9617 24573
L9617 24154
L9589 24078
L9532 24040
L9417 24040
L9360 24078
" />
<path d="M9617 24535
L9560 24573
L9417 24573
L9360 24535
L9332 24459
L9332 24383
L9360 24307
L9417 24269
L9560 24269
L9617 24230
" />
<path d="M9817 24040
L10046 24040
" />
<path d="M9903 23773
L9903 24459
L9932 24535
L9989 24573
L10046 24573
" />
<path d="M10246 24573
L10246 24040
" />
<path d="M10246 23773
L10217 23811
L10246 23850
L10275 23811
L10246 23773
L10246 23850
" />
<path d="M10617 24573
L10560 24535
L10532 24497
L10503 24421
L10503 24192
L10532 24116
L10560 24078
L10617 24040
L10703 24040
L10760 24078
L10789 24116
L10817 24192
L10817 24421
L10789 24497
L10760 24535
L10703 24573
L10617 24573
" />
<path d="M11075 24040
L11075 24573
" />
<path d="M11075 24116
L11103 24078
L11160 24040
L11246 24040
L11303 24078
L11332 24154
L11332 24573
" />
<path d="M11617 24497
L11646 24535
L11617 24573
L11589 24535
L11617 24497
L11617 24573
" />
<path d="M12160 24535
L12103 24573
L11989 24573
L11932 24535
L11903 24497
L11875 24421
L11875 24192
L11903 24116
L11932 24078
L11989 24040
L12103 24040
L12160 24078
" />
<path d="M12503 24573
L12446 24535
L12417 24497
L12389 24421
L12389 24192
L12417 24116
L12446 24078
L12503 24040
L12589 24040
L12646 24078
L12675 24116
L12703 24192
L12703 24421
L12675 24497
L12646 24535
L12589 24573
L12503 24573
" />
<path d="M12960 24497
L12989 24535
L12960 24573
L12932 24535
L12960 24497
L12960 24573
" />
<path d="M13503 24040
L13503 24573
" />
<path d="M13246 24040
L13246 24459
L13275 24535
L13332 24573
L13417 24573
L13475 24535
L13503 24497
" />
<path d="M13789 24573
L13789 23773
" />
<path d="M13846 24269
L14017 24573
" />
<path d="M14017 24040
L13789 24345
" />
<path d="M5296 24773
L5696 24773
L5439 25573
" />
<path d="M6353 25535
L6439 25573
L6582 25573
L6639 25535
L6667 25497
L6696 25421
L6696 25345
L6667 25269
L6639 25230
L6582 25192
L6467 25154
L6410 25116
L6382 25078
L6353 25002
L6353 24926
L6382 24850
L6410 24811
L6467 24773
L6610 24773
L6696 24811
" />
<path d="M6953 25154
L7153 25154
" />
<path d="M7239 25573
L6953 25573
L6953 24773
L7239 24773
" />
<path d="M7810 24811
L7753 24773
L7667 24773
L7582 24811
L7525 24888
L7496 24964
L7467 25116
L7467 25230
L7496 25383
L7525 25459
L7582 25535
L7667 25573
L7725 25573
L7810 25535
L7839 25497
L7839 25230
L7725 25230
" />
<path d="M8839 25573
L8553 25573
L8553 24773
" />
<path d="M9039 25154
L9239 25154
" />
<path d="M9325 25573
L9039 25573
L9039 24773
L9325 24773
" />
<path d="M9582 25573
L9582 24773
L9725 24773
L9810 24811
L9867 24888
L9896 24964
L9925 25116
L9925 25230
L9896 25383
L9867 25459
L9810 25535
L9725 25573
L9582 25573
" />
<path d="M10639 25573
L10639 24773
L10782 24773
L10867 24811
L10925 24888
L10953 24964
L10982 25116
L10982 25230
L10953 25383
L10925 25459
L10867 25535
L10782 25573
L10639 25573
" />
<path d="M11582 25573
L11382 25192
" />
<path d="M11239 25573
L11239 24773
L11467 24773
L11525 24811
L11553 24850
L11582 24926
L11582 25040
L11553 25116
L11525 25154
L11467 25192
L11239 25192
" />
<path d="M11839 25573
L11839 24773
" />
<path d="M12039 24773
L12239 25573
L12439 24773
" />
<path d="M12639 25154
L12839 25154
" />
<path d="M12925 25573
L12639 25573
L12639 24773
L12925 24773
" />
<path d="M13525 25573
L13325 25192
" />
<path d="M13182 25573
L13182 24773
L13410 24773
L13467 24811
L13496 24850
L13525 24926
L13525 25040
L13496 25116
L13467 25154
L13410 25192
L13182 25192
" />
</g>
<g style="fill:#009F9F; fill-opacity:0.0; 
stroke:#009F9F; stroke-width:107; stroke-opacity:1; 
stroke-linecap:round; stroke-linejoin:round;">
<path d="M3450 22815
L2769 22815
L2769 22652
L2802 22612
L2834 22591
L2899 22571
L2996 22571
L3061 22591
L3093 22612
L3126 22652
L3126 22815
" />
<path d="M3450 22163
L3450 22408
" />
<path d="M3450 22286
L2769 22286
L2866 22326
L2931 22367
L2964 22408
" />
</g>
<g style="fill:#009F9F; fill-opacity:0.0; 
stroke:#009F9F; stroke-width:100; stroke-opacity:1; 
stroke-linecap:round; stroke-linejoin:round;">
<path d="M3417 26521
L2817 26521
" />
<path d="M3417 26330
L2817 26330
L3417 26102
L2817 26102
" />
<path d="M3417 25911
L2817 25911
L2817 25759
L2846 25721
L2875 25702
L2932 25683
L3017 25683
L3075 25702
L3103 25721
L3132 25759
L3132 25911
" />
<path d="M2817 25511
L3303 25511
L3360 25492
L3389 25473
L3417 25435
L3417 25359
L3389 25321
L3360 25302
L3303 25283
L2817 25283
" />
<path d="M2817 25149
L2817 24921
" />
<path d="M3417 25035
L2817 25035
" />
</g>
<g style="fill:#009F9F; fill-opacity:0.0; 
stroke:#009F9F; stroke-width:107; stroke-opacity:1; 
stroke-linecap:round; stroke-linejoin:round;">
<path d="M16450 22565
L15769 22565
L15769 22402
L15802 22362
L15834 22341
L15899 22321
L15996 22321
L16061 22341
L16093 22362
L16126 22402
L16126 22565
" />
<path d="M15834 22158
L15802 22137
L15769 22097
L15769 21995
L15802 21954
L15834 21934
L15899 21913
L15964 21913
L16061 21934
L16450 22178
L16450 21913
" />
</g>
<g style="fill:#009F9F; fill-opacity:0.0; 
stroke:#009F9F; stroke-width:100; stroke-opacity:1; 
stroke-linecap:round; stroke-linejoin:round;">
<path d="M15817 26961
L15817 26885
L15846 26847
L15903 26809
L16017 26790
L16217 26790
L16332 26809
L16389 26847
L16417 26885
L16417 26961
L16389 26999
L16332 27038
L16217 27057
L16017 27057
L15903 27038
L15846 26999
L15817 26961
" />
<path d="M15817 26619
L16303 26619
L16360 26599
L16389 26580
L16417 26542
L16417 26466
L16389 26428
L16360 26409
L16303 26390
L15817 26390
" />
<path d="M15817 26257
L15817 26028
" />
<path d="M16417 26142
L15817 26142
" />
<path d="M16417 25895
L15817 25895
L15817 25742
L15846 25704
L15875 25685
L15932 25666
L16017 25666
L16075 25685
L16103 25704
L16132 25742
L16132 25895
" />
<path d="M15817 25495
L16303 25495
L16360 25476
L16389 25457
L16417 25419
L16417 25342
L16389 25304
L16360 25285
L16303 25266
L15817 25266
" />
<path d="M15817 25133
L15817 24904
" />
<path d="M16417 25019
L15817 25019
" />
</g>
<g style="fill:#009F9F; fill-opacity:0.0; 
stroke:#009F9F; stroke-width:113; stroke-opacity:1; 
stroke-linecap:round; stroke-linejoin:round;">
</g>
<g style="fill:#009F9F; fill-opacity:0.0; 
stroke:#009F9F; stroke-width:112.5; stroke-opacity:1; 
stroke-linecap:round; stroke-linejoin:round;">
<path d="M4382 13992
L4382 14478
L4403 14535
L4425 14564
L4467 14592
L4553 14592
L4596 14564
L4617 14535
L4639 14478
L4639 13992
" />
<path d="M5089 14592
L4832 14592
" />
<path d="M4960 14592
L4960 13992
L4917 14078
L4875 14135
L4832 14164
" />
</g>
<g style="fill:#009F9F; fill-opacity:0.0; 
stroke:#009F9F; stroke-width:113; stroke-opacity:1; 
stroke-linecap:round; stroke-linejoin:round;">
</g>
<g style="fill:#009F9F; fill-opacity:0.0; 
stroke:#009F9F; stroke-width:112.5; stroke-opacity:1; 
stroke-linecap:round; stroke-linejoin:round;">
<path d="M5367 14135
L5367 13835
L5967 14028
" />
<path d="M5567 13471
L5967 13471
" />
<path d="M5339 13578
L5767 13685
L5767 13407
" />
<path d="M5967 13235
L5367 13235
" />
<path d="M5653 13235
L5653 12978
" />
<path d="M5967 12978
L5367 12978
" />
<path d="M5910 12507
L5939 12528
L5967 12592
L5967 12635
L5939 12699
L5882 12742
L5825 12764
L5710 12785
L5625 12785
L5510 12764
L5453 12742
L5396 12699
L5367 12635
L5367 12592
L5396 12528
L5425 12507
" />
<path d="M5367 12099
L5367 12314
L5653 12335
L5625 12314
L5596 12271
L5596 12164
L5625 12121
L5653 12099
L5710 12078
L5853 12078
L5910 12099
L5939 12121
L5967 12164
L5967 12271
L5939 12314
L5910 12335
" />
<path d="M5967 11864
L5967 11778
L5939 11735
L5910 11714
L5825 11671
L5710 11650
L5482 11650
L5425 11671
L5396 11692
L5367 11735
L5367 11821
L5396 11864
L5425 11885
L5482 11907
L5625 11907
L5682 11885
L5710 11864
L5739 11821
L5739 11735
L5710 11692
L5682 11671
L5625 11650
" />
<path d="M5367 11242
L5367 11457
L5653 11478
L5625 11457
L5596 11414
L5596 11307
L5625 11264
L5653 11242
L5710 11221
L5853 11221
L5910 11242
L5939 11264
L5967 11307
L5967 11414
L5939 11457
L5910 11478
" />
<path d="M6025 11135
L6025 10792
" />
<path d="M5967 10685
L5367 10685
L5367 10514
L5396 10471
L5425 10450
L5482 10428
L5567 10428
L5625 10450
L5653 10471
L5682 10514
L5682 10685
" />
<path d="M5367 10150
L5367 10064
L5396 10021
L5453 9978
L5567 9957
L5767 9957
L5882 9978
L5939 10021
L5967 10064
L5967 10150
L5939 10192
L5882 10235
L5767 10257
L5567 10257
L5453 10235
L5396 10192
L5367 10150
" />
<path d="M5367 9807
L5967 9700
L5539 9614
L5967 9528
L5367 9421
" />
<path d="M5653 9250
L5653 9100
" />
<path d="M5967 9035
L5967 9250
L5367 9250
L5367 9035
" />
<path d="M5967 8585
L5682 8735
" />
<path d="M5967 8842
L5367 8842
L5367 8671
L5396 8628
L5425 8607
L5482 8585
L5567 8585
L5625 8607
L5653 8628
L5682 8671
L5682 8842
" />
</g>
<g style="fill:#009F9F; fill-opacity:0.0; 
stroke:#009F9F; stroke-width:113; stroke-opacity:1; 
stroke-linecap:round; stroke-linejoin:round;">
</g>
<g style="fill:#009F9F; fill-opacity:0.0; 
stroke:#009F9F; stroke-width:80; stroke-opacity:1; 
stroke-linecap:round; stroke-linejoin:round;">
<path d="M4575 6638
L4555 6676
L4517 6714
L4460 6771
L4441 6809
L4441 6847
" />
<path d="M4536 6828
L4517 6866
L4479 6904
L4403 6923
L4270 6923
L4194 6904
L4155 6866
L4136 6828
L4136 6752
L4155 6714
L4194 6676
L4270 6657
L4403 6657
L4479 6676
L4517 6714
L4536 6752
L4536 6828
" />
<path d="M4536 6276
L4536 6504
" />
<path d="M4536 6390
L4136 6390
L4194 6428
L4232 6466
L4251 6504
" />
<path d="M6336 6073
L5936 6073
L6336 5845
L5936 5845
" />
<path d="M6336 5654
L5936 5654
L5936 5502
L5955 5464
L5975 5445
L6013 5426
L6070 5426
L6108 5445
L6127 5464
L6146 5502
L6146 5654
" />
<path d="M6336 5254
L5936 5254
L6336 5026
L5936 5026
" />
<path d="M3397 5583
L3135 5750
" />
<path d="M3397 5869
L2847 5869
L2847 5678
L2873 5630
L2900 5607
L2952 5583
L3030 5583
L3083 5607
L3109 5630
L3135 5678
L3135 5869
" />
<path d="M3397 5107
L3397 5392
" />
<path d="M3397 5250
L2847 5250
L2926 5297
L2978 5345
L3004 5392
" />
<path d="M5091 3472
L4925 3210
" />
<path d="M4805 3472
L4805 2922
L4996 2922
L5044 2948
L5067 2975
L5091 3027
L5091 3105
L5067 3158
L5044 3184
L4996 3210
L4805 3210
" />
<path d="M5282 2975
L5305 2948
L5353 2922
L5472 2922
L5520 2948
L5544 2975
L5567 3027
L5567 3079
L5544 3158
L5258 3472
L5567 3472
" />
<path d="M7248 18816
L7267 18835
L7286 18892
L7286 18930
L7267 18988
L7229 19026
L7191 19045
L7115 19064
L7058 19064
L6982 19045
L6944 19026
L6905 18988
L6886 18930
L6886 18892
L6905 18835
L6925 18816
" />
<path d="M7286 18435
L7286 18664
" />
<path d="M7286 18549
L6886 18549
L6944 18588
L6982 18626
L7001 18664
" />
<path d="M5286 19197
L5286 19426
" />
<path d="M5286 19311
L4886 19311
L4944 19349
L4982 19388
L5001 19426
" />
<path d="M4886 18949
L4886 18911
L4905 18873
L4925 18854
L4963 18835
L5039 18816
L5134 18816
L5210 18835
L5248 18854
L5267 18873
L5286 18911
L5286 18949
L5267 18988
L5248 19007
L5210 19026
L5134 19045
L5039 19045
L4963 19026
L4925 19007
L4905 18988
L4886 18949
" />
<path d="M4886 18569
L4886 18530
L4905 18492
L4925 18473
L4963 18454
L5039 18435
L5134 18435
L5210 18454
L5248 18473
L5267 18492
L5286 18530
L5286 18569
L5267 18607
L5248 18626
L5210 18645
L5134 18664
L5039 18664
L4963 18645
L4925 18626
L4905 18607
L4886 18569
" />
<path d="M5020 18092
L5286 18092
" />
<path d="M5020 18264
L5229 18264
L5267 18245
L5286 18207
L5286 18150
L5267 18111
L5248 18092
" />
<path d="M8533 6923
L8514 6942
L8457 6961
L8419 6961
L8361 6942
L8323 6904
L8304 6866
L8285 6790
L8285 6733
L8304 6657
L8323 6619
L8361 6580
L8419 6561
L8457 6561
L8514 6580
L8533 6600
" />
<path d="M8685 6600
L8704 6580
L8742 6561
L8838 6561
L8876 6580
L8895 6600
L8914 6638
L8914 6676
L8895 6733
L8666 6961
L8914 6961
" />
</g>
<g style="fill:#009F9F; fill-opacity:0.0; 
stroke:#009F9F; stroke-width:113; stroke-opacity:1; 
stroke-linecap:round; stroke-linejoin:round;">
</g>
<g style="fill:#009F9F; fill-opacity:0.0; 
stroke:#009F9F; stroke-width:112.5; stroke-opacity:1; 
stroke-linecap:round; stroke-linejoin:round;">
<path d="M10467 10789
L9867 10789
" />
<path d="M10410 10317
L10439 10339
L10467 10403
L10467 10446
L10439 10510
L10382 10553
L10325 10574
L10210 10596
L10125 10596
L10010 10574
L9953 10553
L9896 10510
L9867 10446
L9867 10403
L9896 10339
L9925 10317
" />
<path d="M10467 9889
L10467 10146
" />
<path d="M10467 10017
L9867 10017
L9953 10060
L10010 10103
L10039 10146
" />
</g>
<g style="fill:#009F9F; fill-opacity:0.0; 
stroke:#009F9F; stroke-width:113; stroke-opacity:1; 
stroke-linecap:round; stroke-linejoin:round;">
</g>
<g style="fill:#009F9F; fill-opacity:0.0; 
stroke:#009F9F; stroke-width:112.5; stroke-opacity:1; 
stroke-linecap:round; stroke-linejoin:round;">
<path d="M8867 15171
L9353 15171
L9410 15150
L9439 15128
L9467 15085
L9467 15000
L9439 14957
L9410 14935
L9353 14914
L8867 14914
" />
<path d="M9467 14485
L9467 14699
L8867 14699
" />
<path d="M9467 14335
L8867 14335
L9467 14078
L8867 14078
" />
<path d="M8925 13885
L8896 13864
L8867 13821
L8867 13714
L8896 13671
L8925 13649
L8982 13628
L9039 13628
L9125 13649
L9467 13907
L9467 13628
" />
<path d="M8867 13349
L8867 13307
L8896 13264
L8925 13242
L8982 13221
L9096 13199
L9239 13199
L9353 13221
L9410 13242
L9439 13264
L9467 13307
L9467 13349
L9439 13392
L9410 13414
L9353 13435
L9239 13457
L9096 13457
L8982 13435
L8925 13414
L8896 13392
L8867 13349
" />
<path d="M8867 12921
L8867 12878
L8896 12835
L8925 12814
L8982 12792
L9096 12771
L9239 12771
L9353 12792
L9410 12814
L9439 12835
L9467 12878
L9467 12921
L9439 12964
L9410 12985
L9353 13007
L9239 13028
L9096 13028
L8982 13007
L8925 12985
L8896 12964
L8867 12921
" />
<path d="M8867 12621
L8867 12342
L9096 12492
L9096 12428
L9125 12385
L9153 12364
L9210 12342
L9353 12342
L9410 12364
L9439 12385
L9467 12428
L9467 12557
L9439 12600
L9410 12621
" />
<path d="M9296 12171
L9296 11957
" />
<path d="M9467 12214
L8867 12064
L9467 11914
" />
<path d="M9467 11764
L8867 11764
L8867 11657
L8896 11592
L8953 11550
L9010 11528
L9125 11507
L9210 11507
L9325 11528
L9382 11550
L9439 11592
L9467 11657
L9467 11764
" />
</g>
<g style="fill:#009F9F; fill-opacity:0.0; 
stroke:#009F9F; stroke-width:113; stroke-opacity:1; 
stroke-linecap:round; stroke-linejoin:round;">
</g>
<g style="fill:#009F9F; fill-opacity:0.0; 
stroke:#009F9F; stroke-width:80; stroke-opacity:1; 
stroke-linecap:round; stroke-linejoin:round;">
<path d="M14091 9722
L13925 9460
" />
<path d="M13805 9722
L13805 9172
L13996 9172
L14044 9198
L14067 9225
L14091 9277
L14091 9355
L14067 9408
L14044 9434
L13996 9460
L13805 9460
" />
<path d="M14520 9172
L14425 9172
L14377 9198
L14353 9225
L14305 9303
L14282 9408
L14282 9617
L14305 9670
L14329 9696
L14377 9722
L14472 9722
L14520 9696
L14544 9670
L14567 9617
L14567 9486
L14544 9434
L14520 9408
L14472 9382
L14377 9382
L14329 9408
L14305 9434
L14282 9486
" />
<path d="M14091 10722
L13925 10460
" />
<path d="M13805 10722
L13805 10172
L13996 10172
L14044 10198
L14067 10225
L14091 10277
L14091 10355
L14067 10408
L14044 10434
L13996 10460
L13805 10460
" />
<path d="M14258 10172
L14591 10172
L14377 10722
" />
<path d="M14091 11722
L13925 11460
" />
<path d="M13805 11722
L13805 11172
L13996 11172
L14044 11198
L14067 11225
L14091 11277
L14091 11355
L14067 11408
L14044 11434
L13996 11460
L13805 11460
" />
<path d="M14377 11408
L14329 11382
L14305 11355
L14282 11303
L14282 11277
L14305 11225
L14329 11198
L14377 11172
L14472 11172
L14520 11198
L14544 11225
L14567 11277
L14567 11303
L14544 11355
L14520 11382
L14472 11408
L14377 11408
L14329 11434
L14305 11460
L14282 11513
L14282 11617
L14305 11670
L14329 11696
L14377 11722
L14472 11722
L14520 11696
L14544 11670
L14567 11617
L14567 11513
L14544 11460
L14520 11434
L14472 11408
" />
<path d="M14091 12722
L13925 12460
" />
<path d="M13805 12722
L13805 12172
L13996 12172
L14044 12198
L14067 12225
L14091 12277
L14091 12355
L14067 12408
L14044 12434
L13996 12460
L13805 12460
" />
<path d="M14329 12722
L14425 12722
L14472 12696
L14496 12670
L14544 12591
L14567 12486
L14567 12277
L14544 12225
L14520 12198
L14472 12172
L14377 12172
L14329 12198
L14305 12225
L14282 12277
L14282 12408
L14305 12460
L14329 12486
L14377 12513
L14472 12513
L14520 12486
L14544 12460
L14567 12408
" />
<path d="M13853 13722
L13686 13460
" />
<path d="M13567 13722
L13567 13172
L13758 13172
L13805 13198
L13829 13225
L13853 13277
L13853 13355
L13829 13408
L13805 13434
L13758 13460
L13567 13460
" />
<path d="M14329 13722
L14044 13722
" />
<path d="M14186 13722
L14186 13172
L14139 13251
L14091 13303
L14044 13329
" />
<path d="M14639 13172
L14686 13172
L14734 13198
L14758 13225
L14782 13277
L14805 13382
L14805 13513
L14782 13617
L14758 13670
L14734 13696
L14686 13722
L14639 13722
L14591 13696
L14567 13670
L14544 13617
L14520 13513
L14520 13382
L14544 13277
L14567 13225
L14591 13198
L14639 13172
" />
<path d="M13853 14722
L13686 14460
" />
<path d="M13567 14722
L13567 14172
L13758 14172
L13805 14198
L13829 14225
L13853 14277
L13853 14355
L13829 14408
L13805 14434
L13758 14460
L13567 14460
" />
<path d="M14329 14722
L14044 14722
" />
<path d="M14186 14722
L14186 14172
L14139 14251
L14091 14303
L14044 14329
" />
<path d="M14805 14722
L14520 14722
" />
<path d="M14663 14722
L14663 14172
L14615 14251
L14567 14303
L14520 14329
" />
<path d="M13853 15722
L13686 15460
" />
<path d="M13567 15722
L13567 15172
L13758 15172
L13805 15198
L13829 15225
L13853 15277
L13853 15355
L13829 15408
L13805 15434
L13758 15460
L13567 15460
" />
<path d="M14329 15722
L14044 15722
" />
<path d="M14186 15722
L14186 15172
L14139 15251
L14091 15303
L14044 15329
" />
<path d="M14520 15225
L14544 15198
L14591 15172
L14710 15172
L14758 15198
L14782 15225
L14805 15277
L14805 15329
L14782 15408
L14496 15722
L14805 15722
" />
<path d="M13748 22741
L13767 22760
L13786 22817
L13786 22855
L13767 22913
L13729 22951
L13691 22970
L13615 22989
L13558 22989
L13482 22970
L13444 22951
L13405 22913
L13386 22855
L13386 22817
L13405 22760
L13425 22741
" />
<path d="M13386 22608
L13386 22360
L13539 22494
L13539 22436
L13558 22398
L13577 22379
L13615 22360
L13710 22360
L13748 22379
L13767 22398
L13786 22436
L13786 22551
L13767 22589
L13748 22608
" />
</g>
<g style="fill:#009F00; fill-opacity:1.0; 
stroke:#009F00; stroke-width:1; stroke-opacity:1; 
stroke-linecap:round; stroke-linejoin:round;">
<polyline style="fill-rule:evenodd;"
points="11517,18871
11517,19091
11517,19125
11517,19156
11517,19183
11517,19207
11517,19228
11517,19247
11517,19263
11517,19277
11516,19288
11516,19297
11516,19304
11516,19310
11515,19314
11515,19316
11515,19317
11510,19324
11503,19329
11495,19332
11492,19333
11486,19334
11477,19335
11465,19338
11451,19340
11434,19344
11415,19347
11395,19351
11372,19355
11349,19360
11324,19364
11298,19369
11286,19371
11255,19377
11227,19382
11202,19387
11180,19391
11161,19395
11144,19398
11129,19401
11117,19403
11107,19405
11098,19407
11091,19409
11086,19411
11081,19412
11078,19413
11076,19415
11074,19416
11072,19417
11071,19419
11070,19420
11070,19421
11069,19423
11067,19428
11063,19437
11059,19447
11054,19460
11047,19475
11040,19493
11033,19511
11025,19532
11016,19553
11007,19576
11002,19589
10991,19616
10981,19641
10972,19662
10965,19681
10958,19698
10953,19712
10948,19724
10944,19734
10942,19742
10939,19749
10938,19755
10937,19759
10936,19763
10936,19766
10936,19768
10937,19770
10938,19772
10938,19774
10939,19776
10943,19781
10948,19788
10954,19798
10962,19810
10971,19824
10982,19839
10994,19856
11006,19875
11020,19895
11034,19916
11049,19937
11056,19948
11071,19970
11086,19991
11100,20012
11113,20031
11125,20049
11136,20065
11146,20079
11155,20092
11162,20103
11168,20111
11172,20117
11174,20120
11174,20121
11176,20128
11175,20136
11174,20139
11173,20141
11169,20146
11162,20152
11154,20161
11144,20172
11131,20184
11117,20199
11101,20215
11084,20232
11065,20251
11045,20271
11024,20292
11015,20301
10992,20324
10971,20345
10952,20364
10936,20380
10921,20395
10908,20407
10897,20418
10888,20428
10879,20435
10872,20442
10867,20447
10862,20451
10858,20454
10855,20456
10852,20458
10850,20458
10848,20459
10846,20458
10844,20458
10843,20457
10842,20457
10840,20456
10835,20453
10827,20448
10818,20442
10806,20434
10792,20424
10776,20414
10759,20403
10741,20390
10722,20377
10702,20363
10687,20353
10659,20334
10635,20317
10613,20302
10593,20288
10576,20277
10561,20266
10547,20257
10536,20250
10527,20243
10519,20238
10512,20233
10507,20230
10502,20227
10499,20225
10496,20224
10494,20223
10493,20223
10492,20223
10491,20223
10489,20223
10488,20223
10487,20223
10485,20223
10482,20223
10480,20224
10476,20225
10473,20226
10467,20229
10461,20232
10452,20236
10442,20242
10430,20248
10414,20256
10400,20264
10381,20274
10366,20282
10352,20289
10342,20295
10333,20299
10326,20302
10320,20304
10316,20305
10313,20305
10310,20305
10308,20303
10306,20302
10305,20300
10304,20298
10301,20293
10298,20285
10293,20274
10287,20261
10281,20245
10273,20227
10265,20207
10255,20185
10246,20162
10235,20137
10224,20110
10213,20083
10201,20055
10189,20026
10177,19996
10164,19966
10152,19936
10139,19905
10126,19875
10114,19845
10102,19816
10090,19787
10079,19759
10068,19733
10057,19707
10047,19683
10038,19660
10030,19640
10022,19621
10015,19604
10009,19589
10005,19577
10001,19568
9998,19562
9997,19558
9997,19558
9997,19553
9998,19549
10001,19544
10005,19540
10012,19534
10022,19528
10030,19522
10039,19516
10049,19510
10057,19504
10064,19499
10067,19498
10073,19493
10080,19487
10089,19481
10098,19474
10100,19473
10121,19456
10142,19437
10162,19415
10182,19393
10199,19370
10210,19355
10230,19320
10247,19284
10261,19247
10273,19209
10280,19170
10285,19131
10286,19091
10284,19052
10279,19013
10271,18974
10259,18936
10254,18922
10237,18884
10217,18848
10195,18814
10170,18783
10142,18754
10112,18727
10079,18703
10045,18681
10021,18669
9985,18653
9950,18640
9915,18631
9878,18625
9841,18621
9811,18620
9793,18621
9777,18621
9763,18622
9749,18624
9733,18626
9722,18628
9685,18637
9648,18649
9612,18664
9577,18681
9544,18702
9513,18725
9483,18750
9459,18775
9433,18807
9409,18840
9389,18875
9372,18912
9358,18950
9347,18990
9339,19032
9338,19038
9337,19049
9336,19062
9336,19077
9336,19093
9336,19110
9337,19126
9338,19140
9339,19153
9339,19157
9346,19198
9357,19238
9371,19276
9388,19313
9408,19348
9432,19383
9436,19389
9447,19402
9460,19416
9474,19430
9489,19445
9503,19458
9517,19469
9522,19473
9530,19479
9539,19486
9548,19492
9554,19497
9555,19498
9561,19502
9569,19507
9578,19513
9587,19519
9592,19522
9603,19530
9612,19536
9618,19541
9622,19546
9624,19550
9625,19554
9625,19558
9624,19560
9622,19566
9618,19574
9614,19585
9609,19599
9602,19615
9595,19633
9587,19653
9578,19675
9568,19699
9558,19724
9547,19750
9535,19778
9524,19806
9512,19835
9499,19865
9487,19895
9474,19925
9462,19956
9449,19986
9437,20016
9425,20045
9413,20074
9401,20101
9390,20128
9380,20153
9369,20177
9360,20200
9351,20220
9344,20239
9336,20256
9330,20270
9325,20282
9321,20291
9319,20297
9317,20300
9317,20300
9315,20302
9313,20304
9311,20305
9308,20305
9304,20305
9300,20303
9294,20301
9286,20297
9276,20293
9265,20287
9251,20279
9234,20270
9222,20264
9204,20255
9190,20247
9177,20240
9168,20235
9160,20231
9153,20228
9148,20226
9145,20225
9142,20224
9139,20223
9137,20223
9135,20223
9133,20223
9132,20223
9131,20223
9130,20223
9129,20223
9127,20223
9125,20224
9122,20226
9118,20228
9114,20231
9108,20234
9101,20239
9092,20245
9082,20252
9070,20260
9056,20270
9040,20281
9022,20293
9001,20307
8978,20324
8953,20341
8932,20355
8912,20369
8892,20382
8874,20395
8857,20406
8841,20417
8827,20426
8816,20435
8806,20441
8798,20446
8794,20449
8792,20451
8783,20456
8775,20458
8767,20458
8767,20458
8765,20457
8761,20453
8754,20447
8745,20438
8734,20427
8720,20414
8704,20398
8685,20379
8664,20359
8641,20335
8615,20309
8605,20299
8582,20276
8561,20255
8542,20236
8526,20220
8511,20205
8498,20193
8488,20181
8478,20172
8470,20164
8464,20157
8459,20152
8455,20147
8451,20143
8449,20140
8448,20138
8447,20137
8446,20135
8446,20135
8445,20129
8446,20124
8446,20123
8448,20121
8451,20116
8455,20109
8462,20099
8470,20088
8479,20074
8490,20058
8501,20041
8514,20022
8528,20003
8542,19982
8557,19960
8564,19950
8579,19928
8593,19907
8607,19887
8620,19867
8633,19850
8644,19833
8654,19818
8663,19805
8670,19795
8676,19786
8680,19780
8682,19776
8682,19776
8683,19774
8684,19772
8685,19769
8686,19767
8686,19764
8685,19760
8684,19756
8683,19751
8681,19744
8678,19736
8674,19726
8670,19714
8664,19700
8658,19684
8651,19666
8642,19644
8633,19620
8622,19593
8620,19589
8611,19566
8602,19544
8593,19523
8586,19503
8578,19485
8572,19469
8566,19454
8561,19442
8557,19433
8554,19426
8552,19422
8552,19421
8551,19419
8550,19418
8549,19417
8547,19415
8545,19414
8542,19413
8538,19411
8533,19410
8527,19408
8519,19406
8509,19404
8498,19402
8484,19399
8468,19396
8450,19393
8429,19389
8406,19384
8379,19379
8349,19374
8335,19371
8309,19366
8284,19362
8259,19357
8236,19353
8215,19349
8195,19345
8177,19342
8162,19339
8149,19336
8139,19334
8131,19333
8127,19332
8126,19332
8118,19328
8111,19322
8106,19315
8106,19313
8105,19310
8105,19305
8105,19297
8104,19287
8104,19273
8104,19256
8104,19236
8104,19214
8104,19187
8104,19158
8104,19125
8104,19089
8104,19088
8105,18871
8110,18864
8114,18860
8118,18857
8119,18856
8122,18855
8127,18854
8136,18853
8147,18850
8161,18848
8178,18845
8196,18841
8217,18837
8239,18833
8263,18828
8288,18824
8314,18819
8334,18815
8367,18809
8399,18803
8427,18798
8453,18793
8476,18788
8496,18785
8513,18781
8527,18778
8538,18776
8545,18774
8550,18773
8550,18773
8556,18769
8561,18764
8562,18763
8563,18760
8566,18754
8570,18746
8575,18735
8581,18722
8587,18708
8594,18691
8602,18674
8610,18655
8618,18636
8626,18616
8635,18596
8643,18577
8652,18557
8660,18538
8667,18521
8674,18504
8680,18489
8686,18476
8690,18464
8694,18456
8696,18449
8698,18446
8698,18446
8698,18439
8696,18433
8696,18432
8695,18430
8692,18425
8687,18417
8680,18407
8672,18395
8663,18381
8652,18365
8640,18348
8627,18329
8614,18309
8599,18288
8584,18265
8572,18248
8557,18225
8542,18203
8527,18182
8514,18162
8501,18144
8489,18127
8479,18112
8470,18098
8462,18087
8456,18077
8451,18070
8448,18066
8447,18065
8446,18059
8446,18052
8446,18050
8447,18049
8447,18048
8448,18046
8450,18044
8452,18041
8455,18037
8459,18033
8464,18027
8470,18021
8478,18013
8487,18004
8497,17993
8510,17981
8524,17967
8540,17951
8558,17932
8578,17912
8601,17889
8604,17886
8627,17863
8648,17842
8667,17824
8683,17807
8698,17793
8711,17780
8722,17769
8731,17760
8739,17752
8746,17746
8751,17741
8756,17737
8759,17734
8762,17731
8764,17730
8766,17729
8767,17728
8768,17728
8774,17728
8780,17729
8780,17729
8782,17730
8787,17733
8795,17738
8804,17744
8816,17752
8830,17762
8846,17772
8863,17784
8882,17797
8902,17811
8923,17825
8946,17840
8964,17853
8987,17869
9009,17884
9030,17898
9050,17912
9069,17925
9086,17937
9102,17947
9116,17957
9128,17965
9137,17971
9144,17976
9149,17979
9151,17980
9153,17982
9155,17983
9158,17983
9160,17984
9163,17984
9167,17984
9172,17983
9178,17981
9185,17979
9194,17976
9204,17972
9216,17967
9231,17961
9248,17954
9267,17946
9289,17937
9314,17927
9328,17922
9357,17910
9382,17899
9405,17890
9424,17882
9440,17875
9454,17869
9465,17864
9473,17860
9479,17858
9482,17856
9482,17856
9486,17851
9489,17845
9490,17844
9490,17841
9492,17835
9493,17826
9496,17814
9498,17800
9502,17783
9505,17764
9509,17743
9514,17721
9518,17697
9523,17671
9528,17645
9532,17620
9537,17593
9542,17567
9547,17542
9552,17518
9556,17496
9560,17475
9563,17457
9566,17441
9569,17427
9571,17416
9573,17407
9574,17402
9575,17400
9578,17396
9582,17392
9583,17391
9589,17387
9811,17387
10033,17387
10039,17392
10044,17396
10047,17400
10048,17401
10048,17404
10049,17409
10051,17418
10053,17430
10056,17444
10059,17460
10063,17479
10067,17500
10071,17522
10076,17546
10080,17571
10085,17598
10090,17625
10096,17657
10102,17687
10107,17713
10111,17737
10115,17757
10119,17775
10122,17791
10124,17804
10127,17816
10129,17825
10131,17833
10132,17839
10134,17845
10135,17849
10136,17852
10138,17854
10139,17855
10140,17857
10142,17858
10143,17859
10144,17859
10146,17860
10151,17863
10159,17866
10170,17870
10183,17876
10198,17882
10215,17889
10233,17897
10253,17905
10274,17913
10296,17922
10296,17922
10322,17933
10346,17943
10366,17951
10384,17959
10400,17965
10413,17970
10424,17974
10434,17978
10442,17980
10448,17982
10454,17983
10458,17984
10461,17984
10464,17983
10467,17983
10469,17981
10472,17980
10474,17978
10477,17977
10482,17973
10490,17968
10501,17961
10513,17952
10527,17942
10544,17931
10561,17919
10581,17906
10601,17892
10622,17877
10644,17862
10660,17851
10683,17836
10704,17821
10725,17807
10745,17793
10763,17781
10780,17769
10796,17759
10809,17750
10820,17743
10829,17736
10836,17732
10840,17730
10842,17729
10847,17728
10853,17728
10854,17728
10855,17729
10857,17729
10859,17731
10861,17733
10865,17736
10869,17739
10874,17744
10880,17750
10888,17757
10897,17766
10907,17776
10919,17788
10933,17802
10949,17818
10967,17835
10987,17855
11009,17878
11018,17886
11041,17909
11061,17930
11080,17949
11096,17965
11111,17979
11123,17992
11134,18003
11143,18012
11151,18020
11157,18027
11162,18032
11166,18037
11169,18040
11172,18043
11173,18046
11174,18047
11175,18049
11176,18050
11176,18051
11176,18052
11176,18059
11174,18065
11173,18067
11170,18072
11165,18079
11158,18089
11150,18101
11141,18115
11130,18131
11118,18148
11105,18167
11092,18187
11077,18208
11062,18230
11051,18246
11035,18269
11020,18290
11006,18311
10993,18331
10980,18350
10968,18367
10958,18382
10949,18396
10941,18408
10935,18417
10930,18424
10928,18428
10927,18430
10924,18439
10924,18445
10925,18447
10927,18453
10930,18461
10935,18472
10940,18485
10946,18500
10953,18516
10960,18533
10968,18552
10976,18571
10985,18591
10993,18611
11001,18631
11010,18650
11018,18669
11026,18687
11033,18704
11040,18719
11045,18732
11051,18744
11055,18753
11058,18759
11059,18763
11060,18763
11064,18768
11070,18772
11071,18773
11074,18774
11081,18775
11090,18777
11103,18780
11119,18783
11138,18787
11160,18791
11185,18796
11212,18801
11243,18807
11275,18813
11285,18815
11312,18820
11338,18824
11363,18829
11386,18833
11408,18837
11428,18841
11446,18845
11462,18848
11475,18850
11486,18852
11493,18854
11498,18855
11499,18855
11506,18859
11512,18864
11517,18871
11517,18871
" /> 
</g>
<g style="fill:#009F9F; fill-opacity:1.0; 
stroke:#009F9F; stroke-width:120; stroke-opacity:1; 
stroke-linecap:round; stroke-linejoin:round;">
<path d="M4675 21000
L4675 21000
" />
<path d="M4675 21000
L4675 28000
" />
<path d="M4675 28000
L3675 28000
" />
<path d="M3675 28000
L3675 21000
" />
<path d="M3675 21000
L4675 21000
" />
<path d="M3675 22000
L3675 22000
" />
<path d="M3675 22000
L4675 22000
" />
<path d="M15425 21000
L15425 21000
" />
<path d="M15425 21000
L15425 28000
" />
<path d="M15425 28000
L14425 28000
" />
<path d="M14425 28000
L14425 21000
" />
<path d="M14425 21000
L15425 21000
" />
<path d="M14425 22000
L14425 22000
" />
<path d="M14425 22000
L15425 22000
" />
</g>
<g style="fill:#009F9F; fill-opacity:1.0; 
stroke:#009F9F; stroke-width:150; stroke-opacity:1; 
stroke-linecap:round; stroke-linejoin:round;">
<path d="M4725 16350
L4725 16350
" />
<path d="M4725 16350
L4725 15850
" />
<path d="M4725 15850
L5725 15850
" />
<path d="M5725 15850
L5725 16350
" />
<path d="M4225 16350
L4225 7350
" />
<path d="M4225 7350
L6225 7350
" />
<path d="M6225 7350
L6225 16350
" />
<path d="M6225 16350
L4225 16350
" />
</g>
<g style="fill:#009F9F; fill-opacity:1.0; 
stroke:#009F9F; stroke-width:120; stroke-opacity:1; 
stroke-linecap:round; stroke-linejoin:round;">
<path d="M3925 5250
L5425 6750
" />
<path d="M5425 6750
L5925 6750
" />
<path d="M5925 6750
L6425 6250
" />
<path d="M6425 6250
L6425 5250
" />
<path d="M6425 5250
L5425 4250
" />
<path d="M5425 4250
L4425 4250
" />
<path d="M4425 4250
L3925 4750
" />
<path d="M3925 4750
L3925 5250
" />
<path d="M3175 7000
L3175 6800
" />
<path d="M3175 4000
L3175 4200
" />
<path d="M3175 4200
L2775 4200
" />
<path d="M2775 4200
L2775 6800
" />
<path d="M2775 6800
L3575 6800
" />
<path d="M3575 6800
L3575 4200
" />
<path d="M3575 4200
L3175 4200
" />
<path d="M2975 6800
L2775 6600
" />
<path d="M6675 3250
L6475 3250
" />
<path d="M3675 3250
L3875 3250
" />
<path d="M3875 3250
L3875 3650
" />
<path d="M3875 3650
L6475 3650
" />
<path d="M6475 3650
L6475 2850
" />
<path d="M6475 2850
L3875 2850
" />
<path d="M3875 2850
L3875 3250
" />
<path d="M6475 3450
L6275 3650
" />
</g>
<g style="fill:#009F9F; fill-opacity:0.0; 
stroke:#009F9F; stroke-width:120; stroke-opacity:1; 
stroke-linecap:round; stroke-linejoin:round;">
<circle cx="6125" cy="18750" r="1750" /> 
</g>
<g style="fill:#009F9F; fill-opacity:0.0; 
stroke:#009F9F; stroke-width:150; stroke-opacity:1; 
stroke-linecap:round; stroke-linejoin:round;">
<path d="M6925 6250
L6925 7250
" />
<path d="M6925 7250
L9925 7250
" />
<path d="M9925 7250
L9925 6250
" />
<path d="M9925 6250
L6925 6250
" />
</g>
<g style="fill:#009F9F; fill-opacity:0.0; 
stroke:#009F9F; stroke-width:120; stroke-opacity:1; 
stroke-linecap:round; stroke-linejoin:round;">
<path d="M6925 6500
L7175 6250
" />
</g>
<g style="fill:#009F9F; fill-opacity:0.0; 
stroke:#009F9F; stroke-width:150; stroke-opacity:1; 
stroke-linecap:round; stroke-linejoin:round;">
<path d="M10225 8350
L10225 8350
" />
<path d="M10225 8350
L10225 8850
" />
<path d="M10225 8850
L9225 8850
" />
<path d="M9225 8850
L9225 8350
" />
<path d="M10725 8350
L10725 17350
" />
<path d="M10725 17350
L8725 17350
" />
<path d="M8725 17350
L8725 8350
" />
<path d="M8725 8350
L10725 8350
" />
</g>
<g style="fill:#009F9F; fill-opacity:0.0; 
stroke:#009F9F; stroke-width:120; stroke-opacity:1; 
stroke-linecap:round; stroke-linejoin:round;">
<path d="M12675 9500
L12875 9500
" />
<path d="M15675 9500
L15475 9500
" />
<path d="M15475 9500
L15475 9100
" />
<path d="M15475 9100
L12875 9100
" />
<path d="M12875 9100
L12875 9900
" />
<path d="M12875 9900
L15475 9900
" />
<path d="M15475 9900
L15475 9500
" />
<path d="M12875 9300
L13075 9100
" />
<path d="M12675 10500
L12875 10500
" />
<path d="M15675 10500
L15475 10500
" />
<path d="M15475 10500
L15475 10100
" />
<path d="M15475 10100
L12875 10100
" />
<path d="M12875 10100
L12875 10900
" />
<path d="M12875 10900
L15475 10900
" />
<path d="M15475 10900
L15475 10500
" />
<path d="M12875 10300
L13075 10100
" />
<path d="M12675 11500
L12875 11500
" />
<path d="M15675 11500
L15475 11500
" />
<path d="M15475 11500
L15475 11100
" />
<path d="M15475 11100
L12875 11100
" />
<path d="M12875 11100
L12875 11900
" />
<path d="M12875 11900
L15475 11900
" />
<path d="M15475 11900
L15475 11500
" />
<path d="M12875 11300
L13075 11100
" />
<path d="M12675 12500
L12875 12500
" />
<path d="M15675 12500
L15475 12500
" />
<path d="M15475 12500
L15475 12100
" />
<path d="M15475 12100
L12875 12100
" />
<path d="M12875 12100
L12875 12900
" />
<path d="M12875 12900
L15475 12900
" />
<path d="M15475 12900
L15475 12500
" />
<path d="M12875 12300
L13075 12100
" />
<path d="M12675 13500
L12875 13500
" />
<path d="M15675 13500
L15475 13500
" />
<path d="M15475 13500
L15475 13100
" />
<path d="M15475 13100
L12875 13100
" />
<path d="M12875 13100
L12875 13900
" />
<path d="M12875 13900
L15475 13900
" />
<path d="M15475 13900
L15475 13500
" />
<path d="M12875 13300
L13075 13100
" />
<path d="M12675 14500
L12875 14500
" />
<path d="M15675 14500
L15475 14500
" />
<path d="M15475 14500
L15475 14100
" />
<path d="M15475 14100
L12875 14100
" />
<path d="M12875 14100
L12875 14900
" />
<path d="M12875 14900
L15475 14900
" />
<path d="M15475 14900
L15475 14500
" />
<path d="M12875 14300
L13075 14100
" />
<path d="M12675 15500
L12875 15500
" />
<path d="M15675 15500
L15475 15500
" />
<path d="M15475 15500
L15475 15100
" />
<path d="M15475 15100
L12875 15100
" />
<path d="M12875 15100
L12875 15900
" />
<path d="M12875 15900
L15475 15900
" />
<path d="M15475 15900
L15475 15500
" />
<path d="M12875 15300
L13075 15100
" />
</g>
<g style="fill:#009F9F; fill-opacity:1.0; 
stroke:#009F9F; stroke-width:1; stroke-opacity:1; 
stroke-linecap:round; stroke-linejoin:round;">
<polyline style="fill-rule:evenodd;"
points="15657,7398
15631,7423
15559,7486
15481,7548
15398,7607
15311,7663
15223,7715
15134,7761
15045,7801
15027,7809
15009,7816
14989,7824
14967,7832
14945,7840
14925,7848
14907,7854
14894,7858
14886,7860
14885,7860
14883,7857
14878,7846
14869,7830
14858,7807
14843,7778
14825,7743
14805,7703
14782,7658
14757,7609
14730,7554
14700,7496
14669,7433
14635,7367
14601,7297
14564,7224
14526,7148
14487,7070
14446,6989
14405,6907
14375,6848
14333,6764
14292,6681
14252,6601
14214,6524
14176,6449
14140,6377
14106,6308
14074,6243
14043,6181
14015,6124
13988,6071
13964,6022
13943,5979
13924,5940
13908,5907
13894,5880
13884,5859
13877,5844
13873,5836
13872,5834
13880,5830
13892,5823
13906,5813
13921,5802
13934,5791
13944,5783
13964,5765
14021,5819
14029,5827
14042,5839
14060,5857
14083,5879
14111,5906
14144,5937
14180,5972
14220,6011
14264,6054
14312,6100
14362,6148
14416,6200
14472,6254
14531,6311
14592,6369
14654,6430
14719,6492
14785,6555
14851,6620
14868,6636
15657,7398
15657,7398
" /> 
<polyline style="fill-rule:evenodd;"
points="13661,5870
13659,5884
13658,5889
13657,5901
13655,5921
13652,5948
13649,5981
13645,6020
13640,6065
13634,6115
13629,6170
13622,6230
13616,6294
13608,6363
13601,6434
13593,6510
13585,6588
13576,6668
13568,6751
13561,6817
13550,6919
13540,7013
13531,7101
13523,7181
13515,7254
13508,7321
13501,7382
13495,7438
13490,7487
13486,7532
13481,7572
13478,7606
13474,7637
13471,7664
13469,7686
13467,7705
13465,7722
13463,7735
13462,7745
13461,7753
13460,7759
13460,7764
13459,7767
13459,7769
13458,7769
13458,7770
13457,7770
13457,7770
13453,7768
13443,7763
13429,7756
13411,7747
13399,7741
13290,7679
13186,7612
13088,7540
12995,7463
12909,7381
12898,7371
12882,7354
12868,7339
12857,7326
12849,7318
12846,7314
12846,7313
12848,7310
12853,7299
12861,7282
12872,7259
12885,7230
12901,7196
12920,7156
12941,7112
12964,7063
12989,7010
13016,6954
13044,6894
13074,6830
13105,6764
13138,6696
13171,6626
13195,6576
13229,6505
13262,6435
13294,6367
13325,6302
13354,6240
13382,6181
13409,6125
13433,6074
13456,6027
13476,5984
13494,5946
13509,5913
13522,5886
13532,5865
13539,5850
13543,5841
13544,5839
13548,5839
13557,5842
13569,5846
13585,5852
13604,5857
13624,5862
13627,5863
13661,5870
13661,5870
" /> 
<polyline style="fill-rule:evenodd;"
points="13387,5693
13387,5695
13383,5697
13374,5704
13358,5713
13337,5726
13311,5742
13281,5761
13246,5782
13209,5806
13167,5831
13124,5858
13078,5886
13030,5916
12981,5946
12931,5977
12880,6009
12829,6040
12779,6071
12730,6101
12682,6131
12636,6159
12592,6186
12551,6212
12512,6235
12478,6257
12447,6276
12421,6292
12399,6305
12383,6315
12373,6321
12369,6323
12367,6321
12365,6312
12363,6299
12362,6298
12353,6225
12346,6149
12343,6068
12342,6020
12343,5994
12343,5966
12344,5937
12345,5908
12346,5882
12347,5857
12349,5837
12350,5821
12351,5812
12352,5810
12356,5809
12367,5806
12385,5802
12409,5796
12438,5790
12472,5782
12510,5773
12552,5763
12597,5753
12645,5742
12696,5730
12747,5719
12800,5707
12853,5695
12906,5682
12959,5671
13010,5659
13059,5648
13106,5637
13151,5627
13191,5618
13228,5610
13260,5602
13287,5596
13309,5592
13324,5588
13333,5586
13333,5586
13340,5585
13345,5587
13348,5593
13352,5605
13356,5618
13363,5636
13371,5654
13374,5659
13381,5674
13385,5686
13387,5693
13387,5693
" /> 
<polyline style="fill-rule:evenodd;"
points="16244,5971
16244,5991
16243,6004
16242,6012
16241,6016
16238,6017
16237,6017
16233,6016
16221,6014
16202,6010
16176,6005
16144,5999
16106,5991
16062,5982
16012,5972
15957,5961
15897,5949
15833,5936
15764,5923
15692,5908
15616,5893
15536,5877
15454,5860
15368,5843
15280,5825
15191,5807
15161,5801
15071,5783
14982,5765
14896,5747
14812,5731
14731,5714
14654,5699
14580,5684
14510,5669
14443,5656
14382,5644
14325,5632
14273,5622
14227,5612
14186,5604
14152,5597
14123,5592
14102,5587
14087,5584
14080,5583
14079,5583
14071,5581
14068,5577
14068,5570
14069,5564
14070,5553
14071,5537
14071,5517
14071,5504
14071,5460
15058,5321
15145,5309
15231,5297
15314,5285
15394,5274
15471,5263
15545,5253
15616,5243
15682,5233
15744,5225
15802,5216
15854,5209
15901,5202
15943,5196
15978,5191
16007,5187
16030,5184
16045,5182
16054,5181
16055,5180
16060,5180
16063,5182
16067,5187
16072,5196
16079,5211
16082,5219
16120,5318
16154,5422
16184,5529
16207,5638
16224,5737
16229,5777
16234,5819
16238,5861
16241,5902
16243,5939
16244,5970
16244,5971
16244,5971
" /> 
<polyline style="fill-rule:evenodd;"
points="13912,5503
13908,5540
13898,5576
13882,5610
13860,5641
13833,5667
13802,5689
13767,5705
13756,5708
13732,5713
13707,5716
13686,5716
13683,5716
13641,5708
13603,5693
13569,5672
13540,5646
13516,5614
13498,5577
13495,5570
13491,5555
13488,5541
13487,5525
13486,5504
13486,5500
13487,5479
13488,5463
13490,5451
13494,5438
13497,5430
13516,5392
13540,5359
13569,5333
13602,5312
13639,5298
13678,5291
13714,5290
13753,5297
13790,5310
13823,5330
13852,5355
13876,5386
13895,5421
13907,5461
13908,5465
13912,5503
13912,5503
" /> 
<polyline style="fill-rule:evenodd;"
points="13420,5268
13419,5271
13414,5280
13406,5292
13402,5299
13392,5315
13382,5333
13375,5347
13374,5350
13368,5362
13363,5369
13360,5372
13356,5370
13345,5366
13328,5360
13304,5352
13275,5341
13241,5329
13203,5315
13161,5300
13115,5283
13066,5265
13015,5246
12964,5228
12911,5209
12860,5190
12812,5172
12766,5156
12724,5140
12687,5127
12653,5114
12625,5104
12602,5096
12585,5090
12575,5086
12572,5085
12572,5081
12576,5073
12583,5060
12592,5044
12601,5026
12611,5008
12621,4991
12629,4979
12641,4960
12655,4938
12671,4914
12688,4889
12706,4864
12723,4840
12740,4817
12755,4796
12769,4779
12779,4765
12787,4757
12790,4754
12794,4756
12803,4763
12816,4775
12835,4790
12858,4808
12884,4829
12914,4853
12946,4879
12980,4907
13016,4936
13053,4967
13091,4997
13129,5029
13166,5059
13203,5089
13239,5119
13273,5146
13304,5172
13333,5196
13359,5217
13380,5234
13398,5249
13411,5260
13418,5266
13420,5268
13420,5268
" /> 
<polyline style="fill-rule:evenodd;"
points="15299,4323
14653,4803
14590,4850
14528,4896
14468,4941
14411,4983
14356,5024
14304,5063
14255,5099
14209,5133
14168,5164
14130,5192
14097,5216
14068,5238
14045,5255
14026,5269
14013,5278
14006,5283
14005,5284
14001,5282
13993,5275
13982,5264
13972,5254
13959,5241
13945,5228
13935,5218
13930,5214
13917,5205
14289,4652
14329,4592
14368,4534
14406,4478
14442,4425
14476,4374
14508,4326
14538,4282
14565,4242
14590,4205
14611,4173
14629,4146
14644,4124
14655,4108
14662,4097
14665,4093
14665,4092
14667,4090
14672,4089
14680,4090
14692,4092
14711,4095
14715,4096
14770,4108
14829,4124
14892,4144
14956,4165
15021,4190
15065,4207
15083,4215
15106,4225
15132,4237
15159,4250
15187,4264
15214,4277
15239,4289
15260,4300
15276,4309
15284,4314
15299,4323
15299,4323
" /> 
<polyline style="fill-rule:evenodd;"
points="13740,4159
13740,4169
13740,4186
13739,4210
13739,4240
13738,4275
13737,4315
13736,4359
13735,4406
13734,4456
13733,4507
13731,4560
13730,4614
13729,4668
13728,4722
13726,4774
13725,4824
13724,4872
13723,4917
13722,4958
13721,4994
13720,5025
13719,5051
13718,5070
13718,5082
13718,5083
13716,5135
13686,5138
13666,5140
13644,5144
13628,5147
13614,5151
13603,5153
13598,5153
13598,5153
13597,5149
13594,5138
13588,5121
13581,5097
13571,5068
13560,5034
13548,4996
13534,4953
13519,4906
13503,4856
13486,4804
13468,4749
13462,4732
13444,4677
13427,4623
13411,4572
13395,4525
13381,4480
13368,4440
13357,4404
13347,4374
13339,4348
13333,4329
13329,4316
13327,4309
13327,4309
13330,4306
13340,4301
13355,4293
13374,4283
13397,4270
13424,4257
13440,4249
13504,4218
13563,4191
13617,4168
13665,4149
13707,4135
13707,4135
13740,4125
13740,4159
13740,4159
" /> 
</g>
<g style="fill:#009F9F; fill-opacity:1.0; 
stroke:#009F9F; stroke-width:150; stroke-opacity:1; 
stroke-linecap:round; stroke-linejoin:round;">
<path d="M14175 21000
L13175 21000
" />
<path d="M13175 21000
L13175 24000
" />
<path d="M13175 24000
L14175 24000
" />
<path d="M14175 24000
L14175 21000
" />
</g>
<g style="fill:#009F9F; fill-opacity:1.0; 
stroke:#009F9F; stroke-width:120; stroke-opacity:1; 
stroke-linecap:round; stroke-linejoin:round;">
<path d="M13925 21000
L14175 21250
" />
</g>
<g style="fill:#7F7F00; fill-opacity:1.0; 
stroke:#7F7F00; stroke-width:39.3701; stroke-opacity:1; 
stroke-linecap:round; stroke-linejoin:round;">
<polyline style="fill-rule:evenodd;"
points="3801,21126
4548,21126
4548,21873
3801,21873
3801,21126
" /> 
<circle cx="4175" cy="22500" r="373.815" /> 
<circle cx="4175" cy="23500" r="373.815" /> 
<circle cx="4175" cy="24500" r="373.815" /> 
<circle cx="4175" cy="25500" r="373.815" /> 
<circle cx="4175" cy="26500" r="373.815" /> 
<circle cx="4175" cy="27500" r="373.815" /> 
<polyline style="fill-rule:evenodd;"
points="11965,22769
11965,23630
11384,23630
11384,22769
11965,22769
" /> 
</g>
<g style="fill:#7F7F00; fill-opacity:1.0; 
stroke:#7F7F00; stroke-width:620; stroke-opacity:1; 
stroke-linecap:round; stroke-linejoin:round;">
<path d="M10675 23340
L10675 23060
" />
<path d="M9675 23340
L9675 23060
" />
<path d="M8675 23340
L8675 23060
" />
<path d="M7675 23340
L7675 23060
" />
<path d="M7675 4440
L7675 4160
" />
<path d="M8675 4440
L8675 4160
" />
<path d="M9675 4440
L9675 4160
" />
<path d="M10675 4440
L10675 4160
" />
<path d="M11675 4440
L11675 4160
" />
</g>
<g style="fill:#7F7F00; fill-opacity:1.0; 
stroke:#7F7F00; stroke-width:39.3701; stroke-opacity:1; 
stroke-linecap:round; stroke-linejoin:round;">
<polyline style="fill-rule:evenodd;"
points="14551,21126
15298,21126
15298,21873
14551,21873
14551,21126
" /> 
<circle cx="14925" cy="22500" r="373.815" /> 
<circle cx="14925" cy="23500" r="373.815" /> 
<circle cx="14925" cy="24500" r="373.815" /> 
<circle cx="14925" cy="25500" r="373.815" /> 
<circle cx="14925" cy="26500" r="373.815" /> 
<circle cx="14925" cy="27500" r="373.815" /> 
<polyline style="fill-rule:evenodd;"
points="7155,15640
6294,15640
6294,15059
7155,15059
7155,15640
" /> 
</g>
<g style="fill:#7F7F00; fill-opacity:1.0; 
stroke:#7F7F00; stroke-width:620; stroke-opacity:1; 
stroke-linecap:round; stroke-linejoin:round;">
<path d="M6585 14350
L6865 14350
" />
<path d="M6585 13350
L6865 13350
" />
<path d="M6585 12350
L6865 12350
" />
<path d="M6585 11350
L6865 11350
" />
<path d="M6585 10350
L6865 10350
" />
<path d="M6585 9350
L6865 9350
" />
<path d="M6585 8350
L6865 8350
" />
<path d="M3585 8350
L3865 8350
" />
<path d="M3585 9350
L3865 9350
" />
<path d="M3585 10350
L3865 10350
" />
<path d="M3585 11350
L3865 11350
" />
<path d="M3585 12350
L3865 12350
" />
<path d="M3585 13350
L3865 13350
" />
<path d="M3585 14350
L3865 14350
" />
<path d="M3585 15350
L3865 15350
" />
</g>
<g style="fill:#7F7F00; fill-opacity:1.0; 
stroke:#7F7F00; stroke-width:39.3701; stroke-opacity:1; 
stroke-linecap:round; stroke-linejoin:round;">
<polyline style="fill-rule:evenodd;"
points="5069,5894
5780,5894
5780,6605
5069,6605
5069,5894
" /> 
<circle cx="5425" cy="5250" r="355.315" /> 
<circle cx="4425" cy="5250" r="355.315" /> 
<circle cx="3175" cy="7000" r="380.315" /> 
<circle cx="3175" cy="4000" r="380.315" /> 
<circle cx="6675" cy="3250" r="380.315" /> 
<circle cx="3675" cy="3250" r="380.315" /> 
<polyline style="fill-rule:evenodd;"
points="6505,20130
5744,20130
5744,19369
6505,19369
6505,20130
" /> 
<circle cx="6125" cy="17750" r="380.315" /> 
<circle cx="7425" cy="6750" r="355.315" /> 
<circle cx="9425" cy="6750" r="355.315" /> 
<polyline style="fill-rule:evenodd;"
points="7794,9059
8655,9059
8655,9640
7794,9640
7794,9059
" /> 
</g>
<g style="fill:#7F7F00; fill-opacity:1.0; 
stroke:#7F7F00; stroke-width:620; stroke-opacity:1; 
stroke-linecap:round; stroke-linejoin:round;">
<path d="M8365 10350
L8085 10350
" />
<path d="M8365 11350
L8085 11350
" />
<path d="M8365 12350
L8085 12350
" />
<path d="M8365 13350
L8085 13350
" />
<path d="M8365 14350
L8085 14350
" />
<path d="M8365 15350
L8085 15350
" />
<path d="M8365 16350
L8085 16350
" />
<path d="M11365 16350
L11085 16350
" />
<path d="M11365 15350
L11085 15350
" />
<path d="M11365 14350
L11085 14350
" />
<path d="M11365 13350
L11085 13350
" />
<path d="M11365 12350
L11085 12350
" />
<path d="M11365 11350
L11085 11350
" />
<path d="M11365 10350
L11085 10350
" />
<path d="M11365 9350
L11085 9350
" />
</g>
<g style="fill:#7F7F00; fill-opacity:1.0; 
stroke:#7F7F00; stroke-width:39.3701; stroke-opacity:1; 
stroke-linecap:round; stroke-linejoin:round;">
<circle cx="16175" cy="1750" r="669.315" /> 
<circle cx="3425" cy="1750" r="669.315" /> 
<circle cx="5925" cy="27250" r="669.315" /> 
<circle cx="13175" cy="27250" r="669.315" /> 
<circle cx="12675" cy="9500" r="380.315" /> 
<circle cx="15675" cy="9500" r="380.315" /> 
<circle cx="12675" cy="10500" r="380.315" /> 
<circle cx="15675" cy="10500" r="380.315" /> 
<circle cx="12675" cy="11500" r="380.315" /> 
<circle cx="15675" cy="11500" r="380.315" /> 
<circle cx="12675" cy="12500" r="380.315" /> 
<circle cx="15675" cy="12500" r="380.315" /> 
<circle cx="12675" cy="13500" r="380.315" /> 
<circle cx="15675" cy="13500" r="380.315" /> 
<circle cx="12675" cy="14500" r="380.315" /> 
<circle cx="15675" cy="14500" r="380.315" /> 
<circle cx="12675" cy="15500" r="380.315" /> 
<circle cx="15675" cy="15500" r="380.315" /> 
<polyline style="fill-rule:evenodd;"
points="11965,26269
11965,27130
11384,27130
11384,26269
11965,26269
" /> 
</g>
<g style="fill:#7F7F00; fill-opacity:1.0; 
stroke:#7F7F00; stroke-width:620; stroke-opacity:1; 
stroke-linecap:round; stroke-linejoin:round;">
<path d="M10675 26840
L10675 26560
" />
<path d="M9675 26840
L9675 26560
" />
<path d="M8675 26840
L8675 26560
" />
<path d="M7675 26840
L7675 26560
" />
<path d="M7675 3240
L7675 2960
" />
<path d="M8675 3240
L8675 2960
" />
<path d="M9675 3240
L9675 2960
" />
<path d="M10675 3240
L10675 2960
" />
<path d="M11675 3240
L11675 2960
" />
</g>
<g style="fill:#7F7F00; fill-opacity:1.0; 
stroke:#7F7F00; stroke-width:39.3701; stroke-opacity:1; 
stroke-linecap:round; stroke-linejoin:round;">
<circle cx="13675" cy="21500" r="355.315" /> 
<circle cx="13675" cy="23500" r="355.315" /> 
</g>
<g style="fill:#BFBFBF; fill-opacity:1.0; 
stroke:#BFBFBF; stroke-width:39.3701; stroke-opacity:1; 
stroke-linecap:round; stroke-linejoin:round;">
<circle cx="4745" cy="13070" r="155.315" /> 
<circle cx="2425" cy="11000" r="155.315" /> 
<circle cx="4675" cy="20250" r="155.315" /> 
<circle cx="6675" cy="24250" r="155.315" /> 
<circle cx="14175" cy="8500" r="155.315" /> 
<circle cx="10925" cy="7250" r="155.315" /> 
<circle cx="13925" cy="16750" r="155.315" /> 
<circle cx="14925" cy="17250" r="155.315" /> 
<circle cx="14425" cy="17000" r="155.315" /> 
<circle cx="14675" cy="19750" r="155.315" /> 
<circle cx="12675" cy="26000" r="155.315" /> 
<circle cx="10175" cy="7750" r="155.315" /> 
<circle cx="7175" cy="22500" r="155.315" /> 
</g>
<g style="fill:#009F00; fill-opacity:1.0; 
stroke:#009F00; stroke-width:300; stroke-opacity:1; 
stroke-linecap:round; stroke-linejoin:round;">
<path d="M13425 24750
L14175 24750
" />
<path d="M5325 18800
L5325 15350
" />
<path d="M14175 24750
L14925 25500
" />
<path d="M5925 24750
L13425 24750
" />
<path d="M5325 13650
L4745 13070
" />
<path d="M5325 15350
L5325 14750
" />
<path d="M5325 14750
L5325 13650
" />
<path d="M5325 13650
L4745 13070
" />
<path d="M6125 24750
L5925 24750
" />
<path d="M6125 19750
L6125 24750
" />
<path d="M5175 24750
L5925 24750
" />
<path d="M3725 15350
L5325 15350
" />
<path d="M4175 25500
L4925 24750
" />
<path d="M6125 19600
L5325 18800
" />
<path d="M4925 24750
L5175 24750
" />
<path d="M6125 19750
L6125 19600
" />
<path d="M14175 24750
L14925 25500
" />
<path d="M4175 22500
L3675 22500
" />
<path d="M2425 15250
L2425 11000
" />
<path d="M2925 21750
L2925 15750
" />
<path d="M2925 15750
L2425 15250
" />
<path d="M3675 22500
L2925 21750
" />
<path d="M4175 23500
L5425 22250
" />
<path d="M5425 20750
L4925 20250
" />
<path d="M5425 22250
L5425 20750
" />
<path d="M4925 20250
L4675 20250
" />
<path d="M6675 24250
L6675 22250
" />
<path d="M9425 15750
L9425 8250
" />
<path d="M6825 17750
L8225 16350
" />
<path d="M6675 22250
L6675 20750
" />
<path d="M6675 20750
L7175 20250
" />
<path d="M8175 8350
L6725 8350
" />
<path d="M8225 16350
L6275 16350
" />
<path d="M5425 25250
L4175 26500
" />
<path d="M9425 8350
L9425 8250
" />
<path d="M6425 6250
L6675 6000
" />
<path d="M14925 26500
L13675 25250
" />
<path d="M8175 8350
L9425 8350
" />
<path d="M5875 15950
L5875 12350
" />
<path d="M5875 12350
L5875 11400
" />
<path d="M5425 6250
L6425 6250
" />
<path d="M8225 16350
L8825 16350
" />
<path d="M3725 12350
L5875 12350
" />
<path d="M9425 8250
L9425 6750
" />
<path d="M13675 25250
L6023 25250
" />
<path d="M7175 18250
L6675 17750
" />
<path d="M6023 25250
L5425 25250
" />
<path d="M8675 6000
L9425 6750
" />
<path d="M6675 17750
L6825 17750
" />
<path d="M5875 11400
L5875 9200
" />
<path d="M7175 20250
L7175 18250
" />
<path d="M5875 9200
L6725 8350
" />
<path d="M6675 6000
L8675 6000
" />
<path d="M6125 17750
L6675 17750
" />
<path d="M8825 16350
L9425 15750
" />
<path d="M6275 16350
L5875 15950
" />
<path d="M2925 7250
L3175 7000
" />
<path d="M3725 14350
L3275 14350
" />
<path d="M3275 14350
L2925 14000
" />
<path d="M2925 14000
L2925 7250
" />
<path d="M6725 11350
L8225 11350
" />
<path d="M6725 13350
L8225 13350
" />
<path d="M6725 15350
L8225 15350
" />
<path d="M10925 7250
L12175 8500
" />
<path d="M12175 8500
L14175 8500
" />
<path d="M10675 4300
L10675 3100
" />
<path d="M6725 14350
L8225 14350
" />
<path d="M6725 12350
L8225 12350
" />
<path d="M6725 10350
L8225 10350
" />
<path d="M12525 15350
L12675 15500
" />
<path d="M11225 15350
L12525 15350
" />
<path d="M11225 9350
L12525 9350
" />
<path d="M12525 9350
L12675 9500
" />
<path d="M12525 10350
L12675 10500
" />
<path d="M11225 10350
L12525 10350
" />
<path d="M11225 11350
L12525 11350
" />
<path d="M12525 11350
L12675 11500
" />
<path d="M12525 12350
L12675 12500
" />
<path d="M11225 12350
L12525 12350
" />
<path d="M11225 13350
L12525 13350
" />
<path d="M12525 13350
L12675 13500
" />
<path d="M12525 14350
L12675 14500
" />
<path d="M11225 14350
L12525 14350
" />
<path d="M4425 5250
L4425 4000
" />
<path d="M4425 4000
L3675 3250
" />
<path d="M15175 10500
L14925 10250
" />
<path d="M15675 10500
L15175 10500
" />
<path d="M14925 6000
L14675 5750
" />
<path d="M7675 4300
L7675 3100
" />
<path d="M14675 5750
L9125 5750
" />
<path d="M9125 5750
L7675 4300
" />
<path d="M14925 10250
L14925 6000
" />
<path d="M13925 18000
L13925 16750
" />
<path d="M8675 23200
L8725 23200
" />
<path d="M8725 23200
L13925 18000
" />
<path d="M14925 18500
L14925 18250
" />
<path d="M10675 22750
L14925 18500
" />
<path d="M10675 23200
L10675 22750
" />
<path d="M14925 18250
L14925 17250
" />
<path d="M11675 4300
L11675 3100
" />
<path d="M15675 15500
L15925 15500
" />
<path d="M14975 4300
L15675 5000
" />
<path d="M15925 15500
L16425 15000
" />
<path d="M11675 4300
L14975 4300
" />
<path d="M16425 5750
L15675 5000
" />
<path d="M16425 15000
L16425 5750
" />
<path d="M9675 23000
L14425 18250
" />
<path d="M9675 23200
L9675 23000
" />
<path d="M14425 18250
L14425 17000
" />
<path d="M8675 4300
L8675 3100
" />
<path d="M8675 4300
L8675 4500
" />
<path d="M15675 6000
L15675 9500
" />
<path d="M8675 4500
L9425 5250
" />
<path d="M14925 5250
L15675 6000
" />
<path d="M9425 5250
L14925 5250
" />
<path d="M15175 27500
L15925 26750
" />
<path d="M15925 21000
L14675 19750
" />
<path d="M15925 26750
L15925 21000
" />
<path d="M9675 26700
L9675 25750
" />
<path d="M11675 25750
L12675 25750
" />
<path d="M14925 27500
L15175 27500
" />
<path d="M14925 27500
L14825 27500
" />
<path d="M13275 25750
L13175 25750
" />
<path d="M14325 26800
L13275 25750
" />
<path d="M14325 27000
L14325 26800
" />
<path d="M14825 27500
L14325 27000
" />
<path d="M12675 25750
L13175 25750
" />
<path d="M4925 26750
L4925 26500
" />
<path d="M4175 27500
L4925 26750
" />
<path d="M12675 26000
L12675 25750
" />
<path d="M5675 25750
L9675 25750
" />
<path d="M9675 25750
L11675 25750
" />
<path d="M4925 26500
L5675 25750
" />
<path d="M7675 20500
L7675 18250
" />
<path d="M7675 18250
L10175 15750
" />
<path d="M10175 15750
L10175 7750
" />
<path d="M7175 21000
L7675 20500
" />
<path d="M7175 22500
L7175 21000
" />
<path d="M6725 9350
L8225 9350
" />
</g>
<g style="fill:#FFFFFF; fill-opacity:1.0; 
stroke:#FFFFFF; stroke-width:39.3701; stroke-opacity:1; 
stroke-linecap:round; stroke-linejoin:round;">
<circle cx="4745" cy="13070" r="105.315" /> 
<circle cx="2425" cy="11000" r="105.315" /> 
<circle cx="4675" cy="20250" r="105.315" /> 
<circle cx="6675" cy="24250" r="105.315" /> 
<circle cx="14175" cy="8500" r="105.315" /> 
<circle cx="10925" cy="7250" r="105.315" /> 
<circle cx="13925" cy="16750" r="105.315" /> 
<circle cx="14925" cy="17250" r="105.315" /> 
<circle cx="14425" cy="17000" r="105.315" /> 
<circle cx="14675" cy="19750" r="105.315" /> 
<circle cx="12675" cy="26000" r="105.315" /> 
<circle cx="10175" cy="7750" r="105.315" /> 
<circle cx="7175" cy="22500" r="105.315" /> 
<circle cx="4175" cy="21500" r="140.315" /> 
<circle cx="4175" cy="22500" r="140.315" /> 
<circle cx="4175" cy="23500" r="140.315" /> 
<circle cx="4175" cy="24500" r="140.315" /> 
<circle cx="4175" cy="25500" r="140.315" /> 
<circle cx="4175" cy="26500" r="140.315" /> 
<circle cx="4175" cy="27500" r="140.315" /> 
<circle cx="11675" cy="23200" r="140.315" /> 
<circle cx="10675" cy="23200" r="140.315" /> 
<circle cx="9675" cy="23200" r="140.315" /> 
<circle cx="8675" cy="23200" r="140.315" /> 
<circle cx="7675" cy="23200" r="140.315" /> 
<circle cx="7675" cy="4300" r="140.315" /> 
<circle cx="8675" cy="4300" r="140.315" /> 
<circle cx="9675" cy="4300" r="140.315" /> 
<circle cx="10675" cy="4300" r="140.315" /> 
<circle cx="11675" cy="4300" r="140.315" /> 
<circle cx="14925" cy="21500" r="140.315" /> 
<circle cx="14925" cy="22500" r="140.315" /> 
<circle cx="14925" cy="23500" r="140.315" /> 
<circle cx="14925" cy="24500" r="140.315" /> 
<circle cx="14925" cy="25500" r="140.315" /> 
<circle cx="14925" cy="26500" r="140.315" /> 
<circle cx="14925" cy="27500" r="140.315" /> 
<circle cx="6725" cy="15350" r="140.315" /> 
<circle cx="6725" cy="14350" r="140.315" /> 
<circle cx="6725" cy="13350" r="140.315" /> 
<circle cx="6725" cy="12350" r="140.315" /> 
<circle cx="6725" cy="11350" r="140.315" /> 
<circle cx="6725" cy="10350" r="140.315" /> 
<circle cx="6725" cy="9350" r="140.315" /> 
<circle cx="6725" cy="8350" r="140.315" /> 
<circle cx="3725" cy="8350" r="140.315" /> 
<circle cx="3725" cy="9350" r="140.315" /> 
<circle cx="3725" cy="10350" r="140.315" /> 
<circle cx="3725" cy="11350" r="140.315" /> 
<circle cx="3725" cy="12350" r="140.315" /> 
<circle cx="3725" cy="13350" r="140.315" /> 
<circle cx="3725" cy="14350" r="140.315" /> 
<circle cx="3725" cy="15350" r="140.315" /> 
<circle cx="5425" cy="6250" r="137.815" /> 
<circle cx="5425" cy="5250" r="137.815" /> 
<circle cx="4425" cy="5250" r="137.815" /> 
<circle cx="3175" cy="7000" r="137.815" /> 
<circle cx="3175" cy="4000" r="137.815" /> 
<circle cx="6675" cy="3250" r="137.815" /> 
<circle cx="3675" cy="3250" r="137.815" /> 
<circle cx="6125" cy="19750" r="140.315" /> 
<circle cx="6125" cy="17750" r="80.315" /> 
<circle cx="7425" cy="6750" r="137.815" /> 
<circle cx="9425" cy="6750" r="137.815" /> 
<circle cx="8225" cy="9350" r="140.315" /> 
<circle cx="8225" cy="10350" r="140.315" /> 
<circle cx="8225" cy="11350" r="140.315" /> 
<circle cx="8225" cy="12350" r="140.315" /> 
<circle cx="8225" cy="13350" r="140.315" /> 
<circle cx="8225" cy="14350" r="140.315" /> 
<circle cx="8225" cy="15350" r="140.315" /> 
<circle cx="8225" cy="16350" r="140.315" /> 
<circle cx="11225" cy="16350" r="140.315" /> 
<circle cx="11225" cy="15350" r="140.315" /> 
<circle cx="11225" cy="14350" r="140.315" /> 
<circle cx="11225" cy="13350" r="140.315" /> 
<circle cx="11225" cy="12350" r="140.315" /> 
<circle cx="11225" cy="11350" r="140.315" /> 
<circle cx="11225" cy="10350" r="140.315" /> 
<circle cx="11225" cy="9350" r="140.315" /> 
<circle cx="16175" cy="1750" r="570.815" /> 
<circle cx="3425" cy="1750" r="570.815" /> 
<circle cx="5925" cy="27250" r="570.815" /> 
<circle cx="13175" cy="27250" r="570.815" /> 
<circle cx="12675" cy="9500" r="137.815" /> 
<circle cx="15675" cy="9500" r="137.815" /> 
<circle cx="12675" cy="10500" r="137.815" /> 
<circle cx="15675" cy="10500" r="137.815" /> 
<circle cx="12675" cy="11500" r="137.815" /> 
<circle cx="15675" cy="11500" r="137.815" /> 
<circle cx="12675" cy="12500" r="137.815" /> 
<circle cx="15675" cy="12500" r="137.815" /> 
<circle cx="12675" cy="13500" r="137.815" /> 
<circle cx="15675" cy="13500" r="137.815" /> 
<circle cx="12675" cy="14500" r="137.815" /> 
<circle cx="15675" cy="14500" r="137.815" /> 
<circle cx="12675" cy="15500" r="137.815" /> 
<circle cx="15675" cy="15500" r="137.815" /> 
<circle cx="11675" cy="26700" r="140.315" /> 
<circle cx="10675" cy="26700" r="140.315" /> 
<circle cx="9675" cy="26700" r="140.315" /> 
<circle cx="8675" cy="26700" r="140.315" /> 
<circle cx="7675" cy="26700" r="140.315" /> 
<circle cx="7675" cy="3100" r="140.315" /> 
<circle cx="8675" cy="3100" r="140.315" /> 
<circle cx="9675" cy="3100" r="140.315" /> 
<circle cx="10675" cy="3100" r="140.315" /> 
<circle cx="11675" cy="3100" r="140.315" /> 
<circle cx="13675" cy="21500" r="137.815" /> 
<circle cx="13675" cy="23500" r="137.815" /> 
</g> 
</svg>
