G04 #@! TF.FileFunction,Soldermask,Top*
%FSLAX46Y46*%
G04 Gerber Fmt 4.6, Leading zero omitted, Abs format (unit mm)*
G04 Created by KiCad (PCBNEW 4.0.4-stable) date 01/06/17 15:37:10*
%MOMM*%
%LPD*%
G01*
G04 APERTURE LIST*
%ADD10C,0.150000*%
%ADD11R,2.082800X2.794000*%
%ADD12O,2.082800X2.794000*%
%ADD13C,1.808000*%
%ADD14R,1.808000X1.808000*%
%ADD15C,2.413000*%
%ADD16R,2.506980X2.506980*%
%ADD17C,2.506980*%
%ADD18R,2.413000X2.413000*%
%ADD19C,2.540000*%
%ADD20R,2.794000X2.082800*%
%ADD21O,2.794000X2.082800*%
%ADD22C,3.508000*%
G04 APERTURE END LIST*
D10*
D11*
X25109000Y14210000D03*
D12*
X22569000Y14210000D03*
X20029000Y14210000D03*
X17489000Y14210000D03*
X14949000Y14210000D03*
X14949000Y74154000D03*
X17489000Y74154000D03*
X20029000Y74154000D03*
X22569000Y74154000D03*
X25109000Y74154000D03*
D11*
X25109000Y23100000D03*
D12*
X22569000Y23100000D03*
X20029000Y23100000D03*
X17489000Y23100000D03*
X14949000Y23100000D03*
X14949000Y71106000D03*
X17489000Y71106000D03*
X20029000Y71106000D03*
X22569000Y71106000D03*
X25109000Y71106000D03*
D13*
X10885000Y34790000D03*
D14*
X10885000Y32290000D03*
D15*
X14314000Y64883000D03*
X19394000Y64883000D03*
X30189000Y27418000D03*
X30189000Y22338000D03*
D16*
X1995000Y27845000D03*
D17*
X1995000Y25305000D03*
X1995000Y22765000D03*
X1995000Y20225000D03*
X1995000Y17685000D03*
X1995000Y15145000D03*
X1995000Y12605000D03*
D16*
X37555000Y27845000D03*
D17*
X37555000Y25305000D03*
X37555000Y22765000D03*
X37555000Y20225000D03*
X37555000Y17685000D03*
X37555000Y15145000D03*
X37555000Y12605000D03*
D18*
X9234000Y66153000D03*
D15*
X9234000Y68693000D03*
X6694000Y68693000D03*
D19*
X2884000Y64248000D03*
X2884000Y71868000D03*
X12409000Y73773000D03*
X4789000Y73773000D03*
X27649000Y57898000D03*
X35269000Y57898000D03*
X27649000Y55358000D03*
X35269000Y55358000D03*
X27649000Y52818000D03*
X35269000Y52818000D03*
X27649000Y50278000D03*
X35269000Y50278000D03*
X27649000Y47738000D03*
X35269000Y47738000D03*
X27649000Y45198000D03*
X35269000Y45198000D03*
X27649000Y42658000D03*
X35269000Y42658000D03*
D20*
X12536000Y43039000D03*
D21*
X12536000Y45579000D03*
X12536000Y48119000D03*
X12536000Y50659000D03*
X12536000Y53199000D03*
X12536000Y55739000D03*
X12536000Y58279000D03*
X12536000Y60819000D03*
X4916000Y60819000D03*
X4916000Y58279000D03*
X4916000Y55739000D03*
X4916000Y53199000D03*
X4916000Y50659000D03*
X4916000Y48119000D03*
X4916000Y45579000D03*
X4916000Y43039000D03*
D20*
X16219000Y58279000D03*
D21*
X16219000Y55739000D03*
X16219000Y53199000D03*
X16219000Y50659000D03*
X16219000Y48119000D03*
X16219000Y45579000D03*
X16219000Y43039000D03*
X16219000Y40499000D03*
X23839000Y40499000D03*
X23839000Y43039000D03*
X23839000Y45579000D03*
X23839000Y48119000D03*
X23839000Y50659000D03*
X23839000Y53199000D03*
X23839000Y55739000D03*
X23839000Y58279000D03*
D22*
X35000000Y85000000D03*
X5000000Y85000000D03*
X5000000Y5000000D03*
X35000000Y5000000D03*
M02*
