G04 #@! TF.FileFunction,Copper,L2,Bot,Signal*
%FSLAX46Y46*%
G04 Gerber Fmt 4.6, Leading zero omitted, Abs format (unit mm)*
G04 Created by KiCad (PCBNEW 4.0.4-stable) date 01/06/17 15:37:10*
%MOMM*%
%LPD*%
G01*
G04 APERTURE LIST*
%ADD10C,0.150000*%
%ADD11R,1.574800X2.286000*%
%ADD12O,1.574800X2.286000*%
%ADD13C,1.300000*%
%ADD14R,1.300000X1.300000*%
%ADD15C,1.905000*%
%ADD16R,1.998980X1.998980*%
%ADD17C,1.998980*%
%ADD18R,1.905000X1.905000*%
%ADD19C,2.032000*%
%ADD20R,2.286000X1.574800*%
%ADD21O,2.286000X1.574800*%
%ADD22C,0.889000*%
%ADD23C,0.762000*%
%ADD24C,0.254000*%
G04 APERTURE END LIST*
D10*
D11*
X25109000Y14210000D03*
D12*
X22569000Y14210000D03*
X20029000Y14210000D03*
X17489000Y14210000D03*
X14949000Y14210000D03*
X14949000Y74154000D03*
X17489000Y74154000D03*
X20029000Y74154000D03*
X22569000Y74154000D03*
X25109000Y74154000D03*
D11*
X25109000Y23100000D03*
D12*
X22569000Y23100000D03*
X20029000Y23100000D03*
X17489000Y23100000D03*
X14949000Y23100000D03*
X14949000Y71106000D03*
X17489000Y71106000D03*
X20029000Y71106000D03*
X22569000Y71106000D03*
X25109000Y71106000D03*
D13*
X10885000Y34790000D03*
D14*
X10885000Y32290000D03*
D15*
X14314000Y64883000D03*
X19394000Y64883000D03*
X30189000Y27418000D03*
X30189000Y22338000D03*
D16*
X1995000Y27845000D03*
D17*
X1995000Y25305000D03*
X1995000Y22765000D03*
X1995000Y20225000D03*
X1995000Y17685000D03*
X1995000Y15145000D03*
X1995000Y12605000D03*
D16*
X37555000Y27845000D03*
D17*
X37555000Y25305000D03*
X37555000Y22765000D03*
X37555000Y20225000D03*
X37555000Y17685000D03*
X37555000Y15145000D03*
X37555000Y12605000D03*
D18*
X9234000Y66153000D03*
D15*
X9234000Y68693000D03*
X6694000Y68693000D03*
D19*
X2884000Y64248000D03*
X2884000Y71868000D03*
X12409000Y73773000D03*
X4789000Y73773000D03*
X27649000Y57898000D03*
X35269000Y57898000D03*
X27649000Y55358000D03*
X35269000Y55358000D03*
X27649000Y52818000D03*
X35269000Y52818000D03*
X27649000Y50278000D03*
X35269000Y50278000D03*
X27649000Y47738000D03*
X35269000Y47738000D03*
X27649000Y45198000D03*
X35269000Y45198000D03*
X27649000Y42658000D03*
X35269000Y42658000D03*
D20*
X12536000Y43039000D03*
D21*
X12536000Y45579000D03*
X12536000Y48119000D03*
X12536000Y50659000D03*
X12536000Y53199000D03*
X12536000Y55739000D03*
X12536000Y58279000D03*
X12536000Y60819000D03*
X4916000Y60819000D03*
X4916000Y58279000D03*
X4916000Y55739000D03*
X4916000Y53199000D03*
X4916000Y50659000D03*
X4916000Y48119000D03*
X4916000Y45579000D03*
X4916000Y43039000D03*
D20*
X16219000Y58279000D03*
D21*
X16219000Y55739000D03*
X16219000Y53199000D03*
X16219000Y50659000D03*
X16219000Y48119000D03*
X16219000Y45579000D03*
X16219000Y43039000D03*
X16219000Y40499000D03*
X23839000Y40499000D03*
X23839000Y43039000D03*
X23839000Y45579000D03*
X23839000Y48119000D03*
X23839000Y50659000D03*
X23839000Y53199000D03*
X23839000Y55739000D03*
X23839000Y58279000D03*
D22*
X7506800Y48830200D03*
X1614000Y54088000D03*
X7329000Y30593000D03*
X12409000Y20433000D03*
X32983000Y20098000D03*
X27649000Y15988000D03*
X32729000Y31863000D03*
X33364000Y38213000D03*
X32094000Y38848000D03*
X30824000Y39483000D03*
X13679000Y24878000D03*
X21299000Y62343000D03*
X23204000Y63613000D03*
X31459000Y60438000D03*
X34634000Y29958000D03*
D23*
X37555000Y17685000D02*
X32937000Y17685000D01*
X32937000Y17685000D02*
X31459000Y19163000D01*
X1995000Y17685000D02*
X7075000Y17685000D01*
X8091000Y18701000D02*
X8091000Y18655000D01*
X7075000Y17685000D02*
X8091000Y18701000D01*
X10885000Y32290000D02*
X8980000Y32290000D01*
X9107000Y32417000D02*
X8980000Y32417000D01*
X8980000Y32290000D02*
X9107000Y32417000D01*
X11012000Y19163000D02*
X10504000Y19163000D01*
X8091000Y18655000D02*
X8599000Y19163000D01*
X8599000Y19163000D02*
X10504000Y19163000D01*
X4916000Y43039000D02*
X8980000Y43039000D01*
X8980000Y47357000D02*
X7506800Y48830200D01*
X8980000Y44563000D02*
X8980000Y47357000D01*
X8980000Y43039000D02*
X8980000Y44563000D01*
X8980000Y47357000D02*
X7506800Y48830200D01*
X10504000Y19163000D02*
X29554000Y19163000D01*
X29554000Y19163000D02*
X31459000Y19163000D01*
X8980000Y36735000D02*
X8980000Y43039000D01*
X11012000Y29369000D02*
X11012000Y19163000D01*
X8980000Y31401000D02*
X11012000Y29369000D01*
X8980000Y34830000D02*
X8980000Y32417000D01*
X8980000Y32417000D02*
X8980000Y31401000D01*
X8980000Y36735000D02*
X8980000Y34830000D01*
X1995000Y25305000D02*
X3138000Y25305000D01*
X4535000Y30131000D02*
X2884000Y31782000D01*
X4535000Y26702000D02*
X4535000Y30131000D01*
X3138000Y25305000D02*
X4535000Y26702000D01*
X2884000Y42023000D02*
X1614000Y43293000D01*
X2884000Y31782000D02*
X2884000Y42023000D01*
X1614000Y43293000D02*
X1614000Y54088000D01*
X1995000Y22765000D02*
X6567000Y22765000D01*
X7329000Y23527000D02*
X7329000Y30593000D01*
X6567000Y22765000D02*
X7329000Y23527000D01*
X1995000Y15145000D02*
X7075000Y15145000D01*
X32602000Y15145000D02*
X37555000Y15145000D01*
X29808000Y17939000D02*
X32602000Y15145000D01*
X9869000Y17939000D02*
X29808000Y17939000D01*
X7075000Y15145000D02*
X9869000Y17939000D01*
X13552000Y34790000D02*
X13679000Y34790000D01*
X12409000Y20433000D02*
X12409000Y25513000D01*
X12409000Y25513000D02*
X12409000Y29323000D01*
X12409000Y29323000D02*
X13679000Y30593000D01*
X13679000Y30593000D02*
X13679000Y34957000D01*
X13679000Y34790000D02*
X13512000Y34957000D01*
X13512000Y34957000D02*
X13425000Y34957000D01*
X13425000Y34957000D02*
X13679000Y34957000D01*
X12409000Y20433000D02*
X12409000Y30004000D01*
X12409000Y30004000D02*
X13552000Y31147000D01*
X13552000Y31147000D02*
X13552000Y37751000D01*
X13552000Y34790000D02*
X13552000Y37751000D01*
X14568000Y38767000D02*
X14568000Y38721000D01*
X14568000Y38721000D02*
X16346000Y40499000D01*
X13552000Y37751000D02*
X14568000Y38767000D01*
X10885000Y34790000D02*
X13552000Y34790000D01*
X11393000Y40499000D02*
X10377000Y41515000D01*
X17870000Y40499000D02*
X19394000Y42023000D01*
X12409000Y66788000D02*
X17489000Y66788000D01*
X10377000Y58660000D02*
X12536000Y60819000D01*
X10377000Y53072000D02*
X10377000Y58660000D01*
X17489000Y66788000D02*
X19394000Y64883000D01*
X19394000Y61073000D02*
X19394000Y64883000D01*
X4916000Y50659000D02*
X10377000Y50659000D01*
X16346000Y40499000D02*
X17870000Y40499000D01*
X10377000Y50659000D02*
X10377000Y53072000D01*
X10377000Y41515000D02*
X10377000Y50659000D01*
X16219000Y60819000D02*
X19394000Y60819000D01*
X11774000Y66153000D02*
X12409000Y66788000D01*
X19394000Y60819000D02*
X19394000Y61073000D01*
X16346000Y40499000D02*
X11393000Y40499000D01*
X16219000Y60819000D02*
X12536000Y60819000D01*
X19394000Y42023000D02*
X19394000Y61073000D01*
X9234000Y66153000D02*
X11774000Y66153000D01*
X32729000Y23781000D02*
X32729000Y20352000D01*
X32729000Y20352000D02*
X32983000Y20098000D01*
X1995000Y12605000D02*
X8137000Y12605000D01*
X8137000Y12605000D02*
X12155000Y16623000D01*
X1995000Y12605000D02*
X8091000Y12605000D01*
X9742000Y14256000D02*
X9742000Y14210000D01*
X8091000Y12605000D02*
X9742000Y14256000D01*
X37555000Y12605000D02*
X32475000Y12605000D01*
X27649000Y16623000D02*
X28411000Y16623000D01*
X30443000Y14591000D02*
X28411000Y16623000D01*
X32475000Y12605000D02*
X30443000Y14637000D01*
X30443000Y14637000D02*
X30443000Y14591000D01*
X32729000Y31863000D02*
X32729000Y23781000D01*
X32729000Y23781000D02*
X32729000Y22130000D01*
X9742000Y14210000D02*
X12155000Y16623000D01*
X20029000Y16623000D02*
X25109000Y16623000D01*
X12155000Y16623000D02*
X20029000Y16623000D01*
X27649000Y15988000D02*
X27649000Y16623000D01*
X25109000Y16623000D02*
X27649000Y16623000D01*
X20029000Y14210000D02*
X20029000Y16623000D01*
X22569000Y23100000D02*
X22569000Y26148000D01*
X22569000Y26148000D02*
X33364000Y36943000D01*
X33364000Y36943000D02*
X33364000Y38213000D01*
X20029000Y23100000D02*
X20029000Y25513000D01*
X20029000Y25513000D02*
X32094000Y37578000D01*
X32094000Y37578000D02*
X32094000Y38848000D01*
X20029000Y23100000D02*
X20029000Y23608000D01*
X17489000Y23100000D02*
X17489000Y24878000D01*
X17489000Y24878000D02*
X30824000Y38213000D01*
X30824000Y38213000D02*
X30824000Y39483000D01*
X17489000Y23100000D02*
X17616000Y23100000D01*
X33364000Y55993000D02*
X33364000Y66788000D01*
X18632000Y67423000D02*
X14949000Y71106000D01*
X32729000Y67423000D02*
X18632000Y67423000D01*
X14949000Y71106000D02*
X14949000Y74154000D01*
X33364000Y66788000D02*
X32729000Y67423000D01*
X35269000Y55358000D02*
X33999000Y55358000D01*
X33999000Y55358000D02*
X33364000Y55993000D01*
X19394000Y68693000D02*
X33364000Y68693000D01*
X33364000Y68693000D02*
X35269000Y66788000D01*
X17489000Y70598000D02*
X19394000Y68693000D01*
X35269000Y66788000D02*
X35269000Y57898000D01*
X17489000Y71106000D02*
X17489000Y70598000D01*
X17489000Y71106000D02*
X17489000Y74154000D01*
X13679000Y24878000D02*
X13679000Y28688000D01*
X13679000Y28688000D02*
X14949000Y29958000D01*
X21299000Y42023000D02*
X21299000Y62343000D01*
X14949000Y35673000D02*
X21299000Y42023000D01*
X14949000Y29958000D02*
X14949000Y35673000D01*
X22569000Y71106000D02*
X22569000Y74154000D01*
X26379000Y60438000D02*
X31459000Y60438000D01*
X23204000Y63613000D02*
X26379000Y60438000D01*
X37174000Y43928000D02*
X37174000Y67423000D01*
X37174000Y67423000D02*
X35269000Y69328000D01*
X25109000Y71106000D02*
X33491000Y71106000D01*
X35904000Y42658000D02*
X37174000Y43928000D01*
X33491000Y71106000D02*
X35269000Y69328000D01*
X35269000Y42658000D02*
X35904000Y42658000D01*
X25109000Y71106000D02*
X25109000Y74154000D01*
X37428000Y22638000D02*
X35396000Y22638000D01*
X34634000Y23400000D02*
X35396000Y22638000D01*
X34634000Y23400000D02*
X34634000Y29958000D01*
X37428000Y22638000D02*
X37555000Y22765000D01*
X6694000Y71868000D02*
X4789000Y73773000D01*
X6694000Y68693000D02*
X6694000Y71868000D01*
X2884000Y64248000D02*
X2884000Y62978000D01*
X2884000Y46468000D02*
X2884000Y62978000D01*
X2884000Y62978000D02*
X2884000Y63613000D01*
X3773000Y45579000D02*
X2884000Y46468000D01*
X4916000Y45579000D02*
X3773000Y45579000D01*
X27268000Y58279000D02*
X27649000Y57898000D01*
X23966000Y58279000D02*
X27268000Y58279000D01*
X23966000Y55739000D02*
X27268000Y55739000D01*
X27268000Y55739000D02*
X27649000Y55358000D01*
X27268000Y53199000D02*
X27649000Y52818000D01*
X23966000Y53199000D02*
X27268000Y53199000D01*
X23966000Y50659000D02*
X27268000Y50659000D01*
X27268000Y50659000D02*
X27649000Y50278000D01*
X27268000Y48119000D02*
X27649000Y47738000D01*
X23966000Y48119000D02*
X27268000Y48119000D01*
X23966000Y45579000D02*
X27268000Y45579000D01*
X27268000Y45579000D02*
X27649000Y45198000D01*
X23966000Y43039000D02*
X27268000Y43039000D01*
X27268000Y43039000D02*
X27649000Y42658000D01*
X12536000Y43039000D02*
X16346000Y43039000D01*
X12536000Y45579000D02*
X16346000Y45579000D01*
X12536000Y48119000D02*
X16346000Y48119000D01*
X12536000Y50659000D02*
X16346000Y50659000D01*
X12536000Y53199000D02*
X16346000Y53199000D01*
X12536000Y55739000D02*
X16346000Y55739000D01*
X12536000Y58279000D02*
X16219000Y58279000D01*
D24*
G36*
X32218580Y16966579D02*
X32548193Y16746338D01*
X32937000Y16669000D01*
X36259724Y16669000D01*
X36595539Y16332599D01*
X36582443Y16297163D01*
X37555000Y15324605D01*
X38527557Y16297163D01*
X38514276Y16333099D01*
X38939846Y16757927D01*
X39174500Y17323037D01*
X39174500Y15534822D01*
X38973965Y16018958D01*
X38707163Y16117557D01*
X37734605Y15145000D01*
X38707163Y14172443D01*
X38973965Y14271042D01*
X39174500Y14810859D01*
X39174500Y12965660D01*
X38941462Y13529655D01*
X38514461Y13957401D01*
X38527557Y13992837D01*
X37555000Y14965395D01*
X36582443Y13992837D01*
X36595724Y13956901D01*
X36259236Y13621000D01*
X32895841Y13621000D01*
X31161420Y15355420D01*
X31080607Y15409418D01*
X35909599Y15409418D01*
X35933659Y14759623D01*
X36136035Y14271042D01*
X36402837Y14172443D01*
X37375395Y15145000D01*
X36402837Y16117557D01*
X36136035Y16018958D01*
X35909599Y15409418D01*
X31080607Y15409418D01*
X31022792Y15448049D01*
X29129420Y17341420D01*
X28799807Y17561662D01*
X28735300Y17574493D01*
X28411000Y17639000D01*
X12155000Y17639000D01*
X11830700Y17574493D01*
X11766193Y17561662D01*
X11436579Y17341420D01*
X9162211Y15067052D01*
X9023580Y14974421D01*
X7670160Y13621000D01*
X3290276Y13621000D01*
X2954461Y13957401D01*
X2967557Y13992837D01*
X1995000Y14965395D01*
X1980858Y14951252D01*
X1801252Y15130858D01*
X1815395Y15145000D01*
X2174605Y15145000D01*
X3147163Y14172443D01*
X3413965Y14271042D01*
X3640401Y14880582D01*
X3616341Y15530377D01*
X3413965Y16018958D01*
X3147163Y16117557D01*
X2174605Y15145000D01*
X1815395Y15145000D01*
X1801252Y15159142D01*
X1980858Y15338748D01*
X1995000Y15324605D01*
X2967557Y16297163D01*
X2954276Y16333099D01*
X3290764Y16669000D01*
X7075000Y16669000D01*
X7399300Y16733507D01*
X7463807Y16746338D01*
X7793420Y16966580D01*
X8670792Y17843951D01*
X8809420Y17936580D01*
X9019840Y18147000D01*
X31038160Y18147000D01*
X32218580Y16966579D01*
X32218580Y16966579D01*
G37*
X32218580Y16966579D02*
X32548193Y16746338D01*
X32937000Y16669000D01*
X36259724Y16669000D01*
X36595539Y16332599D01*
X36582443Y16297163D01*
X37555000Y15324605D01*
X38527557Y16297163D01*
X38514276Y16333099D01*
X38939846Y16757927D01*
X39174500Y17323037D01*
X39174500Y15534822D01*
X38973965Y16018958D01*
X38707163Y16117557D01*
X37734605Y15145000D01*
X38707163Y14172443D01*
X38973965Y14271042D01*
X39174500Y14810859D01*
X39174500Y12965660D01*
X38941462Y13529655D01*
X38514461Y13957401D01*
X38527557Y13992837D01*
X37555000Y14965395D01*
X36582443Y13992837D01*
X36595724Y13956901D01*
X36259236Y13621000D01*
X32895841Y13621000D01*
X31161420Y15355420D01*
X31080607Y15409418D01*
X35909599Y15409418D01*
X35933659Y14759623D01*
X36136035Y14271042D01*
X36402837Y14172443D01*
X37375395Y15145000D01*
X36402837Y16117557D01*
X36136035Y16018958D01*
X35909599Y15409418D01*
X31080607Y15409418D01*
X31022792Y15448049D01*
X29129420Y17341420D01*
X28799807Y17561662D01*
X28735300Y17574493D01*
X28411000Y17639000D01*
X12155000Y17639000D01*
X11830700Y17574493D01*
X11766193Y17561662D01*
X11436579Y17341420D01*
X9162211Y15067052D01*
X9023580Y14974421D01*
X7670160Y13621000D01*
X3290276Y13621000D01*
X2954461Y13957401D01*
X2967557Y13992837D01*
X1995000Y14965395D01*
X1980858Y14951252D01*
X1801252Y15130858D01*
X1815395Y15145000D01*
X2174605Y15145000D01*
X3147163Y14172443D01*
X3413965Y14271042D01*
X3640401Y14880582D01*
X3616341Y15530377D01*
X3413965Y16018958D01*
X3147163Y16117557D01*
X2174605Y15145000D01*
X1815395Y15145000D01*
X1801252Y15159142D01*
X1980858Y15338748D01*
X1995000Y15324605D01*
X2967557Y16297163D01*
X2954276Y16333099D01*
X3290764Y16669000D01*
X7075000Y16669000D01*
X7399300Y16733507D01*
X7463807Y16746338D01*
X7793420Y16966580D01*
X8670792Y17843951D01*
X8809420Y17936580D01*
X9019840Y18147000D01*
X31038160Y18147000D01*
X32218580Y16966579D01*
G36*
X33915580Y22681580D02*
X34677580Y21919579D01*
X35007193Y21699338D01*
X35071700Y21686507D01*
X35396000Y21622000D01*
X36386502Y21622000D01*
X36595539Y21412599D01*
X36582443Y21377163D01*
X37555000Y20404605D01*
X38527557Y21377163D01*
X38514276Y21413099D01*
X38939846Y21837927D01*
X39174500Y22403037D01*
X39174500Y20614822D01*
X38973965Y21098958D01*
X38707163Y21197557D01*
X37734605Y20225000D01*
X38707163Y19252443D01*
X38973965Y19351042D01*
X39174500Y19890859D01*
X39174500Y18045660D01*
X38941462Y18609655D01*
X38514461Y19037401D01*
X38527557Y19072837D01*
X37555000Y20045395D01*
X36582443Y19072837D01*
X36595724Y19036901D01*
X36259236Y18701000D01*
X33357841Y18701000D01*
X33040391Y19018449D01*
X33196784Y19018313D01*
X33593689Y19182311D01*
X33897622Y19485714D01*
X34062313Y19882332D01*
X34062687Y20311784D01*
X33989291Y20489418D01*
X35909599Y20489418D01*
X35933659Y19839623D01*
X36136035Y19351042D01*
X36402837Y19252443D01*
X37375395Y20225000D01*
X36402837Y21197557D01*
X36136035Y21098958D01*
X35909599Y20489418D01*
X33989291Y20489418D01*
X33898689Y20708689D01*
X33745000Y20862646D01*
X33745000Y22936869D01*
X33915580Y22681580D01*
X33915580Y22681580D01*
G37*
X33915580Y22681580D02*
X34677580Y21919579D01*
X35007193Y21699338D01*
X35071700Y21686507D01*
X35396000Y21622000D01*
X36386502Y21622000D01*
X36595539Y21412599D01*
X36582443Y21377163D01*
X37555000Y20404605D01*
X38527557Y21377163D01*
X38514276Y21413099D01*
X38939846Y21837927D01*
X39174500Y22403037D01*
X39174500Y20614822D01*
X38973965Y21098958D01*
X38707163Y21197557D01*
X37734605Y20225000D01*
X38707163Y19252443D01*
X38973965Y19351042D01*
X39174500Y19890859D01*
X39174500Y18045660D01*
X38941462Y18609655D01*
X38514461Y19037401D01*
X38527557Y19072837D01*
X37555000Y20045395D01*
X36582443Y19072837D01*
X36595724Y19036901D01*
X36259236Y18701000D01*
X33357841Y18701000D01*
X33040391Y19018449D01*
X33196784Y19018313D01*
X33593689Y19182311D01*
X33897622Y19485714D01*
X34062313Y19882332D01*
X34062687Y20311784D01*
X33989291Y20489418D01*
X35909599Y20489418D01*
X35933659Y19839623D01*
X36136035Y19351042D01*
X36402837Y19252443D01*
X37375395Y20225000D01*
X36402837Y21197557D01*
X36136035Y21098958D01*
X35909599Y20489418D01*
X33989291Y20489418D01*
X33898689Y20708689D01*
X33745000Y20862646D01*
X33745000Y22936869D01*
X33915580Y22681580D01*
G36*
X9996000Y28948159D02*
X9996000Y20179000D01*
X8599000Y20179000D01*
X8210194Y20101662D01*
X8125985Y20045395D01*
X7880579Y19881420D01*
X7511212Y19512052D01*
X7372580Y19419421D01*
X6654160Y18701000D01*
X3290276Y18701000D01*
X2954461Y19037401D01*
X2967557Y19072837D01*
X1995000Y20045395D01*
X1980858Y20031252D01*
X1801252Y20210858D01*
X1815395Y20225000D01*
X2174605Y20225000D01*
X3147163Y19252443D01*
X3413965Y19351042D01*
X3640401Y19960582D01*
X3616341Y20610377D01*
X3413965Y21098958D01*
X3147163Y21197557D01*
X2174605Y20225000D01*
X1815395Y20225000D01*
X1801252Y20239142D01*
X1980858Y20418748D01*
X1995000Y20404605D01*
X2967557Y21377163D01*
X2954276Y21413099D01*
X3290764Y21749000D01*
X6567000Y21749000D01*
X6891300Y21813507D01*
X6955807Y21826338D01*
X7285420Y22046580D01*
X8047421Y22808580D01*
X8267662Y23138193D01*
X8295183Y23276554D01*
X8345000Y23527000D01*
X8345000Y30224858D01*
X8408313Y30377332D01*
X8408451Y30535709D01*
X9996000Y28948159D01*
X9996000Y28948159D01*
G37*
X9996000Y28948159D02*
X9996000Y20179000D01*
X8599000Y20179000D01*
X8210194Y20101662D01*
X8125985Y20045395D01*
X7880579Y19881420D01*
X7511212Y19512052D01*
X7372580Y19419421D01*
X6654160Y18701000D01*
X3290276Y18701000D01*
X2954461Y19037401D01*
X2967557Y19072837D01*
X1995000Y20045395D01*
X1980858Y20031252D01*
X1801252Y20210858D01*
X1815395Y20225000D01*
X2174605Y20225000D01*
X3147163Y19252443D01*
X3413965Y19351042D01*
X3640401Y19960582D01*
X3616341Y20610377D01*
X3413965Y21098958D01*
X3147163Y21197557D01*
X2174605Y20225000D01*
X1815395Y20225000D01*
X1801252Y20239142D01*
X1980858Y20418748D01*
X1995000Y20404605D01*
X2967557Y21377163D01*
X2954276Y21413099D01*
X3290764Y21749000D01*
X6567000Y21749000D01*
X6891300Y21813507D01*
X6955807Y21826338D01*
X7285420Y22046580D01*
X8047421Y22808580D01*
X8267662Y23138193D01*
X8295183Y23276554D01*
X8345000Y23527000D01*
X8345000Y30224858D01*
X8408313Y30377332D01*
X8408451Y30535709D01*
X9996000Y28948159D01*
G36*
X36591323Y88841794D02*
X37940382Y87940382D01*
X38841794Y86591322D01*
X39174500Y84918697D01*
X39174500Y28990268D01*
X39157652Y29079807D01*
X39018580Y29295931D01*
X38806380Y29440921D01*
X38554490Y29491930D01*
X36555510Y29491930D01*
X36320193Y29447652D01*
X36104069Y29308580D01*
X35959079Y29096380D01*
X35908070Y28844490D01*
X35908070Y26845510D01*
X35952348Y26610193D01*
X36091420Y26394069D01*
X36234500Y26296307D01*
X36170154Y26232073D01*
X35920794Y25631547D01*
X35920226Y24981306D01*
X36168538Y24380345D01*
X36513480Y24034801D01*
X36170154Y23692073D01*
X36154345Y23654000D01*
X35816841Y23654000D01*
X35650000Y23820840D01*
X35650000Y29589858D01*
X35713313Y29742332D01*
X35713687Y30171784D01*
X35549689Y30568689D01*
X35246286Y30872622D01*
X34849668Y31037313D01*
X34420216Y31037687D01*
X34023311Y30873689D01*
X33745000Y30595863D01*
X33745000Y31494858D01*
X33808313Y31647332D01*
X33808687Y32076784D01*
X33644689Y32473689D01*
X33341286Y32777622D01*
X32944668Y32942313D01*
X32515216Y32942687D01*
X32118311Y32778689D01*
X31814378Y32475286D01*
X31649687Y32078668D01*
X31649313Y31649216D01*
X31713000Y31495082D01*
X31713000Y27886735D01*
X31535602Y28316072D01*
X31089421Y28763032D01*
X30506159Y29005224D01*
X29874612Y29005775D01*
X29290928Y28764602D01*
X28843968Y28318421D01*
X28601776Y27735159D01*
X28601225Y27103612D01*
X28842398Y26519928D01*
X29288579Y26072968D01*
X29871841Y25830776D01*
X30503388Y25830225D01*
X31087072Y26071398D01*
X31534032Y26517579D01*
X31713000Y26948581D01*
X31713000Y22836277D01*
X31569088Y23183712D01*
X31307159Y23276554D01*
X30368605Y22338000D01*
X31307159Y21399446D01*
X31569088Y21492288D01*
X31713000Y21882383D01*
X31713000Y20352000D01*
X31759293Y20119268D01*
X31459000Y20179000D01*
X12028000Y20179000D01*
X12028000Y21219841D01*
X29250446Y21219841D01*
X29343288Y20957912D01*
X29935801Y20739325D01*
X30566861Y20764122D01*
X31034712Y20957912D01*
X31127554Y21219841D01*
X30189000Y22158395D01*
X29250446Y21219841D01*
X12028000Y21219841D01*
X12028000Y29369000D01*
X11950662Y29757806D01*
X11950662Y29757807D01*
X11730421Y30087420D01*
X10825281Y30992560D01*
X11535000Y30992560D01*
X11770317Y31036838D01*
X11986441Y31175910D01*
X12131431Y31388110D01*
X12182440Y31640000D01*
X12182440Y32940000D01*
X12138162Y33175317D01*
X11999090Y33391441D01*
X11786890Y33536431D01*
X11535000Y33587440D01*
X11372615Y33587440D01*
X11548729Y33660389D01*
X11604410Y33890984D01*
X10885000Y34610395D01*
X10870858Y34596252D01*
X10691252Y34775858D01*
X10705395Y34790000D01*
X11064605Y34790000D01*
X11784016Y34070590D01*
X12014611Y34126271D01*
X12182622Y34609078D01*
X12153083Y35119428D01*
X12014611Y35453729D01*
X11784016Y35509410D01*
X11064605Y34790000D01*
X10705395Y34790000D01*
X10691252Y34804142D01*
X10870858Y34983748D01*
X10885000Y34969605D01*
X11604410Y35689016D01*
X11548729Y35919611D01*
X11065922Y36087622D01*
X10555572Y36058083D01*
X10221271Y35919611D01*
X10165590Y35689018D01*
X10050130Y35804478D01*
X9996000Y35750348D01*
X9996000Y40151940D01*
X14483990Y40151940D01*
X14500673Y40072004D01*
X14767809Y39583014D01*
X15201738Y39233475D01*
X15736400Y39076600D01*
X16092000Y39076600D01*
X16092000Y40372000D01*
X14606148Y40372000D01*
X14483990Y40151940D01*
X9996000Y40151940D01*
X9996000Y47357000D01*
X9918662Y47745806D01*
X9845581Y47855179D01*
X9698420Y48075421D01*
X8485536Y49288304D01*
X8422489Y49440889D01*
X8119086Y49744822D01*
X7722468Y49909513D01*
X7293016Y49909887D01*
X6896111Y49745889D01*
X6592178Y49442486D01*
X6427487Y49045868D01*
X6427406Y48952404D01*
X6312222Y49124789D01*
X5917170Y49388754D01*
X5933262Y49393475D01*
X6367191Y49743014D01*
X6634327Y50232004D01*
X6651010Y50311940D01*
X6528852Y50532000D01*
X5043000Y50532000D01*
X5043000Y50512000D01*
X4789000Y50512000D01*
X4789000Y50532000D01*
X4769000Y50532000D01*
X4769000Y50786000D01*
X4789000Y50786000D01*
X4789000Y50806000D01*
X5043000Y50806000D01*
X5043000Y50786000D01*
X6528852Y50786000D01*
X6651010Y51006060D01*
X6634327Y51085996D01*
X6367191Y51574986D01*
X5933262Y51924525D01*
X5917170Y51929246D01*
X6312222Y52193211D01*
X6620559Y52654671D01*
X6728833Y53199000D01*
X6620559Y53743329D01*
X6312222Y54204789D01*
X5916801Y54469000D01*
X6312222Y54733211D01*
X6620559Y55194671D01*
X6728833Y55739000D01*
X6620559Y56283329D01*
X6312222Y56744789D01*
X5916801Y57009000D01*
X6312222Y57273211D01*
X6620559Y57734671D01*
X6728833Y58279000D01*
X10723167Y58279000D01*
X10831441Y57734671D01*
X11139778Y57273211D01*
X11535199Y57009000D01*
X11139778Y56744789D01*
X10831441Y56283329D01*
X10723167Y55739000D01*
X10831441Y55194671D01*
X11139778Y54733211D01*
X11535199Y54469000D01*
X11139778Y54204789D01*
X10831441Y53743329D01*
X10723167Y53199000D01*
X10831441Y52654671D01*
X11139778Y52193211D01*
X11535199Y51929000D01*
X11139778Y51664789D01*
X10831441Y51203329D01*
X10723167Y50659000D01*
X10831441Y50114671D01*
X11139778Y49653211D01*
X11535199Y49389000D01*
X11139778Y49124789D01*
X10831441Y48663329D01*
X10723167Y48119000D01*
X10831441Y47574671D01*
X11139778Y47113211D01*
X11535199Y46849000D01*
X11139778Y46584789D01*
X10831441Y46123329D01*
X10723167Y45579000D01*
X10831441Y45034671D01*
X11139778Y44573211D01*
X11311460Y44458497D01*
X11157683Y44429562D01*
X10941559Y44290490D01*
X10796569Y44078290D01*
X10745560Y43826400D01*
X10745560Y42251600D01*
X10789838Y42016283D01*
X10928910Y41800159D01*
X11141110Y41655169D01*
X11393000Y41604160D01*
X13679000Y41604160D01*
X13914317Y41648438D01*
X14130441Y41787510D01*
X14275431Y41999710D01*
X14280147Y42023000D01*
X14838060Y42023000D01*
X15217830Y41769246D01*
X15201738Y41764525D01*
X14767809Y41414986D01*
X14500673Y40925996D01*
X14483990Y40846060D01*
X14606148Y40626000D01*
X16092000Y40626000D01*
X16092000Y40646000D01*
X16346000Y40646000D01*
X16346000Y40626000D01*
X17831852Y40626000D01*
X17954010Y40846060D01*
X17937327Y40925996D01*
X17670191Y41414986D01*
X17236262Y41764525D01*
X17220170Y41769246D01*
X17615222Y42033211D01*
X17923559Y42494671D01*
X18031833Y43039000D01*
X17923559Y43583329D01*
X17615222Y44044789D01*
X17219801Y44309000D01*
X17615222Y44573211D01*
X17923559Y45034671D01*
X18031833Y45579000D01*
X17923559Y46123329D01*
X17615222Y46584789D01*
X17219801Y46849000D01*
X17615222Y47113211D01*
X17923559Y47574671D01*
X18031833Y48119000D01*
X17923559Y48663329D01*
X17615222Y49124789D01*
X17219801Y49389000D01*
X17615222Y49653211D01*
X17923559Y50114671D01*
X18031833Y50659000D01*
X17923559Y51203329D01*
X17615222Y51664789D01*
X17219801Y51929000D01*
X17615222Y52193211D01*
X17923559Y52654671D01*
X18031833Y53199000D01*
X17923559Y53743329D01*
X17615222Y54204789D01*
X17219801Y54469000D01*
X17615222Y54733211D01*
X17923559Y55194671D01*
X18031833Y55739000D01*
X17923559Y56283329D01*
X17615222Y56744789D01*
X17443540Y56859503D01*
X17597317Y56888438D01*
X17813441Y57027510D01*
X17958431Y57239710D01*
X18009440Y57491600D01*
X18009440Y59066400D01*
X17965162Y59301717D01*
X17826090Y59517841D01*
X17613890Y59662831D01*
X17362000Y59713840D01*
X15076000Y59713840D01*
X14840683Y59669562D01*
X14624559Y59530490D01*
X14479569Y59318290D01*
X14474853Y59295000D01*
X13916940Y59295000D01*
X13537170Y59548754D01*
X13553262Y59553475D01*
X13987191Y59903014D01*
X14254327Y60392004D01*
X14271010Y60471940D01*
X14148852Y60692000D01*
X12663000Y60692000D01*
X12663000Y60672000D01*
X12409000Y60672000D01*
X12409000Y60692000D01*
X10923148Y60692000D01*
X10800990Y60471940D01*
X10817673Y60392004D01*
X11084809Y59903014D01*
X11518738Y59553475D01*
X11534830Y59548754D01*
X11139778Y59284789D01*
X10831441Y58823329D01*
X10723167Y58279000D01*
X6728833Y58279000D01*
X6620559Y58823329D01*
X6312222Y59284789D01*
X5916801Y59549000D01*
X6312222Y59813211D01*
X6620559Y60274671D01*
X6728833Y60819000D01*
X6659799Y61166060D01*
X10800990Y61166060D01*
X10923148Y60946000D01*
X12409000Y60946000D01*
X12409000Y62241400D01*
X12663000Y62241400D01*
X12663000Y60946000D01*
X14148852Y60946000D01*
X14271010Y61166060D01*
X14254327Y61245996D01*
X13987191Y61734986D01*
X13553262Y62084525D01*
X13018600Y62241400D01*
X12663000Y62241400D01*
X12409000Y62241400D01*
X12053400Y62241400D01*
X11518738Y62084525D01*
X11084809Y61734986D01*
X10817673Y61245996D01*
X10800990Y61166060D01*
X6659799Y61166060D01*
X6620559Y61363329D01*
X6312222Y61824789D01*
X5850762Y62133126D01*
X5306433Y62241400D01*
X4525567Y62241400D01*
X3981238Y62133126D01*
X3900000Y62078845D01*
X3900000Y62929396D01*
X4282834Y63311563D01*
X4534713Y63918155D01*
X4535286Y64574963D01*
X4284466Y65181995D01*
X3820437Y65646834D01*
X3289617Y65867250D01*
X7646500Y65867250D01*
X7646500Y65074191D01*
X7743173Y64840802D01*
X7921801Y64662173D01*
X8155190Y64565500D01*
X8948250Y64565500D01*
X9107000Y64724250D01*
X9107000Y66026000D01*
X9361000Y66026000D01*
X9361000Y64724250D01*
X9519750Y64565500D01*
X10312810Y64565500D01*
X10320323Y64568612D01*
X12726225Y64568612D01*
X12967398Y63984928D01*
X13413579Y63537968D01*
X13996841Y63295776D01*
X14628388Y63295225D01*
X15212072Y63536398D01*
X15440913Y63764841D01*
X18455446Y63764841D01*
X18548288Y63502912D01*
X19140801Y63284325D01*
X19771861Y63309122D01*
X20239712Y63502912D01*
X20332554Y63764841D01*
X19394000Y64703395D01*
X18455446Y63764841D01*
X15440913Y63764841D01*
X15659032Y63982579D01*
X15901224Y64565841D01*
X15901721Y65136199D01*
X17795325Y65136199D01*
X17820122Y64505139D01*
X18013912Y64037288D01*
X18275841Y63944446D01*
X19214395Y64883000D01*
X19573605Y64883000D01*
X20512159Y63944446D01*
X20774088Y64037288D01*
X20992675Y64629801D01*
X20967878Y65260861D01*
X20774088Y65728712D01*
X20512159Y65821554D01*
X19573605Y64883000D01*
X19214395Y64883000D01*
X18275841Y65821554D01*
X18013912Y65728712D01*
X17795325Y65136199D01*
X15901721Y65136199D01*
X15901775Y65197388D01*
X15660602Y65781072D01*
X15214421Y66228032D01*
X14631159Y66470224D01*
X13999612Y66470775D01*
X13415928Y66229602D01*
X12968968Y65783421D01*
X12726776Y65200159D01*
X12726225Y64568612D01*
X10320323Y64568612D01*
X10546199Y64662173D01*
X10724827Y64840802D01*
X10821500Y65074191D01*
X10821500Y65867250D01*
X10662750Y66026000D01*
X9361000Y66026000D01*
X9107000Y66026000D01*
X7805250Y66026000D01*
X7646500Y65867250D01*
X3289617Y65867250D01*
X3213845Y65898713D01*
X2557037Y65899286D01*
X1950005Y65648466D01*
X1485166Y65184437D01*
X1233287Y64577845D01*
X1232714Y63921037D01*
X1483534Y63314005D01*
X1868000Y62928868D01*
X1868000Y55151396D01*
X1829668Y55167313D01*
X1400216Y55167687D01*
X1003311Y55003689D01*
X825500Y54826188D01*
X825500Y71541037D01*
X1232714Y71541037D01*
X1483534Y70934005D01*
X1947563Y70469166D01*
X2554155Y70217287D01*
X3210963Y70216714D01*
X3817995Y70467534D01*
X4282834Y70931563D01*
X4534713Y71538155D01*
X4535223Y72122221D01*
X5003347Y72121812D01*
X5678000Y71447159D01*
X5678000Y69921880D01*
X5348968Y69593421D01*
X5106776Y69010159D01*
X5106225Y68378612D01*
X5347398Y67794928D01*
X5793579Y67347968D01*
X6376841Y67105776D01*
X7008388Y67105225D01*
X7592072Y67346398D01*
X7964257Y67717935D01*
X8004175Y67677947D01*
X7921801Y67643827D01*
X7743173Y67465198D01*
X7646500Y67231809D01*
X7646500Y66438750D01*
X7805250Y66280000D01*
X9107000Y66280000D01*
X9107000Y66300000D01*
X9361000Y66300000D01*
X9361000Y66280000D01*
X10662750Y66280000D01*
X10821500Y66438750D01*
X10821500Y67231809D01*
X10724827Y67465198D01*
X10546199Y67643827D01*
X10464090Y67677838D01*
X10579032Y67792579D01*
X10821224Y68375841D01*
X10821775Y69007388D01*
X10580602Y69591072D01*
X10134421Y70038032D01*
X9551159Y70280224D01*
X8919612Y70280775D01*
X8335928Y70039602D01*
X7963743Y69668065D01*
X7710000Y69922251D01*
X7710000Y71868000D01*
X7632662Y72256806D01*
X7632662Y72256807D01*
X7412421Y72586420D01*
X6552804Y73446037D01*
X10757714Y73446037D01*
X11008534Y72839005D01*
X11472563Y72374166D01*
X12079155Y72122287D01*
X12735963Y72121714D01*
X13342995Y72372534D01*
X13807834Y72836563D01*
X13839543Y72912928D01*
X13933000Y72773060D01*
X13933000Y72486940D01*
X13634874Y72040762D01*
X13526600Y71496433D01*
X13526600Y70715567D01*
X13634874Y70171238D01*
X13943211Y69709778D01*
X14404671Y69401441D01*
X14949000Y69293167D01*
X15262611Y69355548D01*
X17913580Y66704579D01*
X18243193Y66484338D01*
X18632000Y66407000D01*
X18895723Y66407000D01*
X18548288Y66263088D01*
X18455446Y66001159D01*
X19394000Y65062605D01*
X20332554Y66001159D01*
X20239712Y66263088D01*
X19849617Y66407000D01*
X32308160Y66407000D01*
X32348000Y66367159D01*
X32348000Y61075425D01*
X32071286Y61352622D01*
X31674668Y61517313D01*
X31245216Y61517687D01*
X31091082Y61454000D01*
X26799841Y61454000D01*
X24182736Y64071104D01*
X24119689Y64223689D01*
X23816286Y64527622D01*
X23419668Y64692313D01*
X22990216Y64692687D01*
X22593311Y64528689D01*
X22289378Y64225286D01*
X22124687Y63828668D01*
X22124313Y63399216D01*
X22288311Y63002311D01*
X22591714Y62698378D01*
X22745739Y62634421D01*
X25660579Y59719580D01*
X25990193Y59499338D01*
X26054700Y59486507D01*
X26379000Y59422000D01*
X27013981Y59422000D01*
X26715005Y59298466D01*
X26711533Y59295000D01*
X25219940Y59295000D01*
X24773762Y59593126D01*
X24229433Y59701400D01*
X23448567Y59701400D01*
X22904238Y59593126D01*
X22442778Y59284789D01*
X22315000Y59093555D01*
X22315000Y61974858D01*
X22378313Y62127332D01*
X22378687Y62556784D01*
X22214689Y62953689D01*
X21911286Y63257622D01*
X21514668Y63422313D01*
X21085216Y63422687D01*
X20688311Y63258689D01*
X20384378Y62955286D01*
X20219687Y62558668D01*
X20219313Y62129216D01*
X20283000Y61975082D01*
X20283000Y42443841D01*
X17944228Y40105068D01*
X17954010Y40151940D01*
X17831852Y40372000D01*
X16346000Y40372000D01*
X16346000Y39076600D01*
X16701600Y39076600D01*
X17004689Y39165529D01*
X14230580Y36391420D01*
X14010338Y36061807D01*
X14010338Y36061806D01*
X13933000Y35673000D01*
X13933000Y30378841D01*
X12960580Y29406420D01*
X12740338Y29076807D01*
X12728907Y29019338D01*
X12663000Y28688000D01*
X12663000Y25246142D01*
X12599687Y25093668D01*
X12599313Y24664216D01*
X12763311Y24267311D01*
X13066714Y23963378D01*
X13463332Y23798687D01*
X13587894Y23798579D01*
X13526600Y23490433D01*
X13526600Y22709567D01*
X13634874Y22165238D01*
X13943211Y21703778D01*
X14404671Y21395441D01*
X14949000Y21287167D01*
X15493329Y21395441D01*
X15954789Y21703778D01*
X16219000Y22099199D01*
X16483211Y21703778D01*
X16944671Y21395441D01*
X17489000Y21287167D01*
X18033329Y21395441D01*
X18494789Y21703778D01*
X18759000Y22099199D01*
X19023211Y21703778D01*
X19484671Y21395441D01*
X20029000Y21287167D01*
X20573329Y21395441D01*
X21034789Y21703778D01*
X21299000Y22099199D01*
X21563211Y21703778D01*
X22024671Y21395441D01*
X22569000Y21287167D01*
X23113329Y21395441D01*
X23574789Y21703778D01*
X23689503Y21875460D01*
X23718438Y21721683D01*
X23857510Y21505559D01*
X24069710Y21360569D01*
X24321600Y21309560D01*
X25896400Y21309560D01*
X26131717Y21353838D01*
X26347841Y21492910D01*
X26492831Y21705110D01*
X26543840Y21957000D01*
X26543840Y22591199D01*
X28590325Y22591199D01*
X28615122Y21960139D01*
X28808912Y21492288D01*
X29070841Y21399446D01*
X30009395Y22338000D01*
X29070841Y23276554D01*
X28808912Y23183712D01*
X28590325Y22591199D01*
X26543840Y22591199D01*
X26543840Y23456159D01*
X29250446Y23456159D01*
X30189000Y22517605D01*
X31127554Y23456159D01*
X31034712Y23718088D01*
X30442199Y23936675D01*
X29811139Y23911878D01*
X29343288Y23718088D01*
X29250446Y23456159D01*
X26543840Y23456159D01*
X26543840Y24243000D01*
X26499562Y24478317D01*
X26360490Y24694441D01*
X26148290Y24839431D01*
X25896400Y24890440D01*
X24321600Y24890440D01*
X24086283Y24846162D01*
X23870159Y24707090D01*
X23725169Y24494890D01*
X23690400Y24323197D01*
X23585000Y24480940D01*
X23585000Y25727160D01*
X34082420Y36224579D01*
X34302661Y36554193D01*
X34302662Y36554194D01*
X34380000Y36943000D01*
X34380000Y37844858D01*
X34443313Y37997332D01*
X34443687Y38426784D01*
X34279689Y38823689D01*
X33976286Y39127622D01*
X33579668Y39292313D01*
X33150216Y39292687D01*
X33088770Y39267298D01*
X33009689Y39458689D01*
X32706286Y39762622D01*
X32309668Y39927313D01*
X31880216Y39927687D01*
X31818770Y39902298D01*
X31739689Y40093689D01*
X31436286Y40397622D01*
X31039668Y40562313D01*
X30610216Y40562687D01*
X30213311Y40398689D01*
X29909378Y40095286D01*
X29744687Y39698668D01*
X29744313Y39269216D01*
X29808000Y39115082D01*
X29808000Y38633841D01*
X16770580Y25596420D01*
X16550338Y25266807D01*
X16550338Y25266806D01*
X16473000Y24878000D01*
X16473000Y24480940D01*
X16219000Y24100801D01*
X15954789Y24496222D01*
X15493329Y24804559D01*
X14949000Y24912833D01*
X14758498Y24874940D01*
X14758687Y25091784D01*
X14695000Y25245918D01*
X14695000Y28267160D01*
X15667420Y29239579D01*
X15887661Y29569193D01*
X15887662Y29569194D01*
X15965000Y29958000D01*
X15965000Y35252160D01*
X22017420Y41304579D01*
X22237662Y41634193D01*
X22270674Y41800159D01*
X22315000Y42023000D01*
X22315000Y42224445D01*
X22442778Y42033211D01*
X22838199Y41769000D01*
X22442778Y41504789D01*
X22134441Y41043329D01*
X22026167Y40499000D01*
X22134441Y39954671D01*
X22442778Y39493211D01*
X22904238Y39184874D01*
X23448567Y39076600D01*
X24229433Y39076600D01*
X24773762Y39184874D01*
X25235222Y39493211D01*
X25543559Y39954671D01*
X25651833Y40499000D01*
X25543559Y41043329D01*
X25235222Y41504789D01*
X24839801Y41769000D01*
X25219940Y42023000D01*
X26124992Y42023000D01*
X26248534Y41724005D01*
X26712563Y41259166D01*
X27319155Y41007287D01*
X27975963Y41006714D01*
X28582995Y41257534D01*
X29047834Y41721563D01*
X29299713Y42328155D01*
X29300286Y42984963D01*
X29049466Y43591995D01*
X28713868Y43928179D01*
X29047834Y44261563D01*
X29299713Y44868155D01*
X29300286Y45524963D01*
X29049466Y46131995D01*
X28713868Y46468179D01*
X29047834Y46801563D01*
X29299713Y47408155D01*
X29300286Y48064963D01*
X29049466Y48671995D01*
X28713868Y49008179D01*
X29047834Y49341563D01*
X29299713Y49948155D01*
X29300286Y50604963D01*
X29049466Y51211995D01*
X28713868Y51548179D01*
X29047834Y51881563D01*
X29299713Y52488155D01*
X29300286Y53144963D01*
X29049466Y53751995D01*
X28713868Y54088179D01*
X29047834Y54421563D01*
X29299713Y55028155D01*
X29300286Y55684963D01*
X29049466Y56291995D01*
X28713868Y56628179D01*
X29047834Y56961563D01*
X29299713Y57568155D01*
X29300286Y58224963D01*
X29049466Y58831995D01*
X28585437Y59296834D01*
X28284004Y59422000D01*
X31090858Y59422000D01*
X31243332Y59358687D01*
X31672784Y59358313D01*
X32069689Y59522311D01*
X32348000Y59800137D01*
X32348000Y55993000D01*
X32396971Y55746807D01*
X32425338Y55604193D01*
X32645580Y55274580D01*
X33280580Y54639579D01*
X33610193Y54419338D01*
X33938354Y54354063D01*
X34204132Y54087821D01*
X33870166Y53754437D01*
X33618287Y53147845D01*
X33617714Y52491037D01*
X33868534Y51884005D01*
X34204132Y51547821D01*
X33870166Y51214437D01*
X33618287Y50607845D01*
X33617714Y49951037D01*
X33868534Y49344005D01*
X34204132Y49007821D01*
X33870166Y48674437D01*
X33618287Y48067845D01*
X33617714Y47411037D01*
X33868534Y46804005D01*
X34204132Y46467821D01*
X33870166Y46134437D01*
X33618287Y45527845D01*
X33617714Y44871037D01*
X33868534Y44264005D01*
X34204132Y43927821D01*
X33870166Y43594437D01*
X33618287Y42987845D01*
X33617714Y42331037D01*
X33868534Y41724005D01*
X34332563Y41259166D01*
X34939155Y41007287D01*
X35595963Y41006714D01*
X36202995Y41257534D01*
X36667834Y41721563D01*
X36854894Y42172054D01*
X37892420Y43209579D01*
X38112661Y43539193D01*
X38112662Y43539194D01*
X38190000Y43928000D01*
X38190000Y67423000D01*
X38124093Y67754338D01*
X38112662Y67811807D01*
X37892421Y68141420D01*
X35987423Y70046417D01*
X35987421Y70046420D01*
X34209420Y71824420D01*
X33879807Y72044662D01*
X33815300Y72057493D01*
X33491000Y72122000D01*
X26368845Y72122000D01*
X26125000Y72486940D01*
X26125000Y72773060D01*
X26423126Y73219238D01*
X26531400Y73763567D01*
X26531400Y74544433D01*
X26423126Y75088762D01*
X26114789Y75550222D01*
X25653329Y75858559D01*
X25109000Y75966833D01*
X24564671Y75858559D01*
X24103211Y75550222D01*
X23839000Y75154801D01*
X23574789Y75550222D01*
X23113329Y75858559D01*
X22569000Y75966833D01*
X22024671Y75858559D01*
X21563211Y75550222D01*
X21299000Y75154801D01*
X21034789Y75550222D01*
X20573329Y75858559D01*
X20029000Y75966833D01*
X19484671Y75858559D01*
X19023211Y75550222D01*
X18759000Y75154801D01*
X18494789Y75550222D01*
X18033329Y75858559D01*
X17489000Y75966833D01*
X16944671Y75858559D01*
X16483211Y75550222D01*
X16219000Y75154801D01*
X15954789Y75550222D01*
X15493329Y75858559D01*
X14949000Y75966833D01*
X14404671Y75858559D01*
X13943211Y75550222D01*
X13634874Y75088762D01*
X13600562Y74916264D01*
X13345437Y75171834D01*
X12738845Y75423713D01*
X12082037Y75424286D01*
X11475005Y75173466D01*
X11010166Y74709437D01*
X10758287Y74102845D01*
X10757714Y73446037D01*
X6552804Y73446037D01*
X6439814Y73559026D01*
X6440286Y74099963D01*
X6189466Y74706995D01*
X5725437Y75171834D01*
X5118845Y75423713D01*
X4462037Y75424286D01*
X3855005Y75173466D01*
X3390166Y74709437D01*
X3138287Y74102845D01*
X3137777Y73518779D01*
X2557037Y73519286D01*
X1950005Y73268466D01*
X1485166Y72804437D01*
X1233287Y72197845D01*
X1232714Y71541037D01*
X825500Y71541037D01*
X825500Y84577185D01*
X2864630Y84577185D01*
X3188980Y83792200D01*
X3789041Y83191091D01*
X4573459Y82865372D01*
X5422815Y82864630D01*
X6207800Y83188980D01*
X6808909Y83789041D01*
X7134628Y84573459D01*
X7134631Y84577185D01*
X32864630Y84577185D01*
X33188980Y83792200D01*
X33789041Y83191091D01*
X34573459Y82865372D01*
X35422815Y82864630D01*
X36207800Y83188980D01*
X36808909Y83789041D01*
X37134628Y84573459D01*
X37135370Y85422815D01*
X36811020Y86207800D01*
X36210959Y86808909D01*
X35426541Y87134628D01*
X34577185Y87135370D01*
X33792200Y86811020D01*
X33191091Y86210959D01*
X32865372Y85426541D01*
X32864630Y84577185D01*
X7134631Y84577185D01*
X7135370Y85422815D01*
X6811020Y86207800D01*
X6210959Y86808909D01*
X5426541Y87134628D01*
X4577185Y87135370D01*
X3792200Y86811020D01*
X3191091Y86210959D01*
X2865372Y85426541D01*
X2864630Y84577185D01*
X825500Y84577185D01*
X825500Y84918697D01*
X1158206Y86591323D01*
X2059618Y87940382D01*
X3408678Y88841794D01*
X5081303Y89174500D01*
X34918697Y89174500D01*
X36591323Y88841794D01*
X36591323Y88841794D01*
G37*
X36591323Y88841794D02*
X37940382Y87940382D01*
X38841794Y86591322D01*
X39174500Y84918697D01*
X39174500Y28990268D01*
X39157652Y29079807D01*
X39018580Y29295931D01*
X38806380Y29440921D01*
X38554490Y29491930D01*
X36555510Y29491930D01*
X36320193Y29447652D01*
X36104069Y29308580D01*
X35959079Y29096380D01*
X35908070Y28844490D01*
X35908070Y26845510D01*
X35952348Y26610193D01*
X36091420Y26394069D01*
X36234500Y26296307D01*
X36170154Y26232073D01*
X35920794Y25631547D01*
X35920226Y24981306D01*
X36168538Y24380345D01*
X36513480Y24034801D01*
X36170154Y23692073D01*
X36154345Y23654000D01*
X35816841Y23654000D01*
X35650000Y23820840D01*
X35650000Y29589858D01*
X35713313Y29742332D01*
X35713687Y30171784D01*
X35549689Y30568689D01*
X35246286Y30872622D01*
X34849668Y31037313D01*
X34420216Y31037687D01*
X34023311Y30873689D01*
X33745000Y30595863D01*
X33745000Y31494858D01*
X33808313Y31647332D01*
X33808687Y32076784D01*
X33644689Y32473689D01*
X33341286Y32777622D01*
X32944668Y32942313D01*
X32515216Y32942687D01*
X32118311Y32778689D01*
X31814378Y32475286D01*
X31649687Y32078668D01*
X31649313Y31649216D01*
X31713000Y31495082D01*
X31713000Y27886735D01*
X31535602Y28316072D01*
X31089421Y28763032D01*
X30506159Y29005224D01*
X29874612Y29005775D01*
X29290928Y28764602D01*
X28843968Y28318421D01*
X28601776Y27735159D01*
X28601225Y27103612D01*
X28842398Y26519928D01*
X29288579Y26072968D01*
X29871841Y25830776D01*
X30503388Y25830225D01*
X31087072Y26071398D01*
X31534032Y26517579D01*
X31713000Y26948581D01*
X31713000Y22836277D01*
X31569088Y23183712D01*
X31307159Y23276554D01*
X30368605Y22338000D01*
X31307159Y21399446D01*
X31569088Y21492288D01*
X31713000Y21882383D01*
X31713000Y20352000D01*
X31759293Y20119268D01*
X31459000Y20179000D01*
X12028000Y20179000D01*
X12028000Y21219841D01*
X29250446Y21219841D01*
X29343288Y20957912D01*
X29935801Y20739325D01*
X30566861Y20764122D01*
X31034712Y20957912D01*
X31127554Y21219841D01*
X30189000Y22158395D01*
X29250446Y21219841D01*
X12028000Y21219841D01*
X12028000Y29369000D01*
X11950662Y29757806D01*
X11950662Y29757807D01*
X11730421Y30087420D01*
X10825281Y30992560D01*
X11535000Y30992560D01*
X11770317Y31036838D01*
X11986441Y31175910D01*
X12131431Y31388110D01*
X12182440Y31640000D01*
X12182440Y32940000D01*
X12138162Y33175317D01*
X11999090Y33391441D01*
X11786890Y33536431D01*
X11535000Y33587440D01*
X11372615Y33587440D01*
X11548729Y33660389D01*
X11604410Y33890984D01*
X10885000Y34610395D01*
X10870858Y34596252D01*
X10691252Y34775858D01*
X10705395Y34790000D01*
X11064605Y34790000D01*
X11784016Y34070590D01*
X12014611Y34126271D01*
X12182622Y34609078D01*
X12153083Y35119428D01*
X12014611Y35453729D01*
X11784016Y35509410D01*
X11064605Y34790000D01*
X10705395Y34790000D01*
X10691252Y34804142D01*
X10870858Y34983748D01*
X10885000Y34969605D01*
X11604410Y35689016D01*
X11548729Y35919611D01*
X11065922Y36087622D01*
X10555572Y36058083D01*
X10221271Y35919611D01*
X10165590Y35689018D01*
X10050130Y35804478D01*
X9996000Y35750348D01*
X9996000Y40151940D01*
X14483990Y40151940D01*
X14500673Y40072004D01*
X14767809Y39583014D01*
X15201738Y39233475D01*
X15736400Y39076600D01*
X16092000Y39076600D01*
X16092000Y40372000D01*
X14606148Y40372000D01*
X14483990Y40151940D01*
X9996000Y40151940D01*
X9996000Y47357000D01*
X9918662Y47745806D01*
X9845581Y47855179D01*
X9698420Y48075421D01*
X8485536Y49288304D01*
X8422489Y49440889D01*
X8119086Y49744822D01*
X7722468Y49909513D01*
X7293016Y49909887D01*
X6896111Y49745889D01*
X6592178Y49442486D01*
X6427487Y49045868D01*
X6427406Y48952404D01*
X6312222Y49124789D01*
X5917170Y49388754D01*
X5933262Y49393475D01*
X6367191Y49743014D01*
X6634327Y50232004D01*
X6651010Y50311940D01*
X6528852Y50532000D01*
X5043000Y50532000D01*
X5043000Y50512000D01*
X4789000Y50512000D01*
X4789000Y50532000D01*
X4769000Y50532000D01*
X4769000Y50786000D01*
X4789000Y50786000D01*
X4789000Y50806000D01*
X5043000Y50806000D01*
X5043000Y50786000D01*
X6528852Y50786000D01*
X6651010Y51006060D01*
X6634327Y51085996D01*
X6367191Y51574986D01*
X5933262Y51924525D01*
X5917170Y51929246D01*
X6312222Y52193211D01*
X6620559Y52654671D01*
X6728833Y53199000D01*
X6620559Y53743329D01*
X6312222Y54204789D01*
X5916801Y54469000D01*
X6312222Y54733211D01*
X6620559Y55194671D01*
X6728833Y55739000D01*
X6620559Y56283329D01*
X6312222Y56744789D01*
X5916801Y57009000D01*
X6312222Y57273211D01*
X6620559Y57734671D01*
X6728833Y58279000D01*
X10723167Y58279000D01*
X10831441Y57734671D01*
X11139778Y57273211D01*
X11535199Y57009000D01*
X11139778Y56744789D01*
X10831441Y56283329D01*
X10723167Y55739000D01*
X10831441Y55194671D01*
X11139778Y54733211D01*
X11535199Y54469000D01*
X11139778Y54204789D01*
X10831441Y53743329D01*
X10723167Y53199000D01*
X10831441Y52654671D01*
X11139778Y52193211D01*
X11535199Y51929000D01*
X11139778Y51664789D01*
X10831441Y51203329D01*
X10723167Y50659000D01*
X10831441Y50114671D01*
X11139778Y49653211D01*
X11535199Y49389000D01*
X11139778Y49124789D01*
X10831441Y48663329D01*
X10723167Y48119000D01*
X10831441Y47574671D01*
X11139778Y47113211D01*
X11535199Y46849000D01*
X11139778Y46584789D01*
X10831441Y46123329D01*
X10723167Y45579000D01*
X10831441Y45034671D01*
X11139778Y44573211D01*
X11311460Y44458497D01*
X11157683Y44429562D01*
X10941559Y44290490D01*
X10796569Y44078290D01*
X10745560Y43826400D01*
X10745560Y42251600D01*
X10789838Y42016283D01*
X10928910Y41800159D01*
X11141110Y41655169D01*
X11393000Y41604160D01*
X13679000Y41604160D01*
X13914317Y41648438D01*
X14130441Y41787510D01*
X14275431Y41999710D01*
X14280147Y42023000D01*
X14838060Y42023000D01*
X15217830Y41769246D01*
X15201738Y41764525D01*
X14767809Y41414986D01*
X14500673Y40925996D01*
X14483990Y40846060D01*
X14606148Y40626000D01*
X16092000Y40626000D01*
X16092000Y40646000D01*
X16346000Y40646000D01*
X16346000Y40626000D01*
X17831852Y40626000D01*
X17954010Y40846060D01*
X17937327Y40925996D01*
X17670191Y41414986D01*
X17236262Y41764525D01*
X17220170Y41769246D01*
X17615222Y42033211D01*
X17923559Y42494671D01*
X18031833Y43039000D01*
X17923559Y43583329D01*
X17615222Y44044789D01*
X17219801Y44309000D01*
X17615222Y44573211D01*
X17923559Y45034671D01*
X18031833Y45579000D01*
X17923559Y46123329D01*
X17615222Y46584789D01*
X17219801Y46849000D01*
X17615222Y47113211D01*
X17923559Y47574671D01*
X18031833Y48119000D01*
X17923559Y48663329D01*
X17615222Y49124789D01*
X17219801Y49389000D01*
X17615222Y49653211D01*
X17923559Y50114671D01*
X18031833Y50659000D01*
X17923559Y51203329D01*
X17615222Y51664789D01*
X17219801Y51929000D01*
X17615222Y52193211D01*
X17923559Y52654671D01*
X18031833Y53199000D01*
X17923559Y53743329D01*
X17615222Y54204789D01*
X17219801Y54469000D01*
X17615222Y54733211D01*
X17923559Y55194671D01*
X18031833Y55739000D01*
X17923559Y56283329D01*
X17615222Y56744789D01*
X17443540Y56859503D01*
X17597317Y56888438D01*
X17813441Y57027510D01*
X17958431Y57239710D01*
X18009440Y57491600D01*
X18009440Y59066400D01*
X17965162Y59301717D01*
X17826090Y59517841D01*
X17613890Y59662831D01*
X17362000Y59713840D01*
X15076000Y59713840D01*
X14840683Y59669562D01*
X14624559Y59530490D01*
X14479569Y59318290D01*
X14474853Y59295000D01*
X13916940Y59295000D01*
X13537170Y59548754D01*
X13553262Y59553475D01*
X13987191Y59903014D01*
X14254327Y60392004D01*
X14271010Y60471940D01*
X14148852Y60692000D01*
X12663000Y60692000D01*
X12663000Y60672000D01*
X12409000Y60672000D01*
X12409000Y60692000D01*
X10923148Y60692000D01*
X10800990Y60471940D01*
X10817673Y60392004D01*
X11084809Y59903014D01*
X11518738Y59553475D01*
X11534830Y59548754D01*
X11139778Y59284789D01*
X10831441Y58823329D01*
X10723167Y58279000D01*
X6728833Y58279000D01*
X6620559Y58823329D01*
X6312222Y59284789D01*
X5916801Y59549000D01*
X6312222Y59813211D01*
X6620559Y60274671D01*
X6728833Y60819000D01*
X6659799Y61166060D01*
X10800990Y61166060D01*
X10923148Y60946000D01*
X12409000Y60946000D01*
X12409000Y62241400D01*
X12663000Y62241400D01*
X12663000Y60946000D01*
X14148852Y60946000D01*
X14271010Y61166060D01*
X14254327Y61245996D01*
X13987191Y61734986D01*
X13553262Y62084525D01*
X13018600Y62241400D01*
X12663000Y62241400D01*
X12409000Y62241400D01*
X12053400Y62241400D01*
X11518738Y62084525D01*
X11084809Y61734986D01*
X10817673Y61245996D01*
X10800990Y61166060D01*
X6659799Y61166060D01*
X6620559Y61363329D01*
X6312222Y61824789D01*
X5850762Y62133126D01*
X5306433Y62241400D01*
X4525567Y62241400D01*
X3981238Y62133126D01*
X3900000Y62078845D01*
X3900000Y62929396D01*
X4282834Y63311563D01*
X4534713Y63918155D01*
X4535286Y64574963D01*
X4284466Y65181995D01*
X3820437Y65646834D01*
X3289617Y65867250D01*
X7646500Y65867250D01*
X7646500Y65074191D01*
X7743173Y64840802D01*
X7921801Y64662173D01*
X8155190Y64565500D01*
X8948250Y64565500D01*
X9107000Y64724250D01*
X9107000Y66026000D01*
X9361000Y66026000D01*
X9361000Y64724250D01*
X9519750Y64565500D01*
X10312810Y64565500D01*
X10320323Y64568612D01*
X12726225Y64568612D01*
X12967398Y63984928D01*
X13413579Y63537968D01*
X13996841Y63295776D01*
X14628388Y63295225D01*
X15212072Y63536398D01*
X15440913Y63764841D01*
X18455446Y63764841D01*
X18548288Y63502912D01*
X19140801Y63284325D01*
X19771861Y63309122D01*
X20239712Y63502912D01*
X20332554Y63764841D01*
X19394000Y64703395D01*
X18455446Y63764841D01*
X15440913Y63764841D01*
X15659032Y63982579D01*
X15901224Y64565841D01*
X15901721Y65136199D01*
X17795325Y65136199D01*
X17820122Y64505139D01*
X18013912Y64037288D01*
X18275841Y63944446D01*
X19214395Y64883000D01*
X19573605Y64883000D01*
X20512159Y63944446D01*
X20774088Y64037288D01*
X20992675Y64629801D01*
X20967878Y65260861D01*
X20774088Y65728712D01*
X20512159Y65821554D01*
X19573605Y64883000D01*
X19214395Y64883000D01*
X18275841Y65821554D01*
X18013912Y65728712D01*
X17795325Y65136199D01*
X15901721Y65136199D01*
X15901775Y65197388D01*
X15660602Y65781072D01*
X15214421Y66228032D01*
X14631159Y66470224D01*
X13999612Y66470775D01*
X13415928Y66229602D01*
X12968968Y65783421D01*
X12726776Y65200159D01*
X12726225Y64568612D01*
X10320323Y64568612D01*
X10546199Y64662173D01*
X10724827Y64840802D01*
X10821500Y65074191D01*
X10821500Y65867250D01*
X10662750Y66026000D01*
X9361000Y66026000D01*
X9107000Y66026000D01*
X7805250Y66026000D01*
X7646500Y65867250D01*
X3289617Y65867250D01*
X3213845Y65898713D01*
X2557037Y65899286D01*
X1950005Y65648466D01*
X1485166Y65184437D01*
X1233287Y64577845D01*
X1232714Y63921037D01*
X1483534Y63314005D01*
X1868000Y62928868D01*
X1868000Y55151396D01*
X1829668Y55167313D01*
X1400216Y55167687D01*
X1003311Y55003689D01*
X825500Y54826188D01*
X825500Y71541037D01*
X1232714Y71541037D01*
X1483534Y70934005D01*
X1947563Y70469166D01*
X2554155Y70217287D01*
X3210963Y70216714D01*
X3817995Y70467534D01*
X4282834Y70931563D01*
X4534713Y71538155D01*
X4535223Y72122221D01*
X5003347Y72121812D01*
X5678000Y71447159D01*
X5678000Y69921880D01*
X5348968Y69593421D01*
X5106776Y69010159D01*
X5106225Y68378612D01*
X5347398Y67794928D01*
X5793579Y67347968D01*
X6376841Y67105776D01*
X7008388Y67105225D01*
X7592072Y67346398D01*
X7964257Y67717935D01*
X8004175Y67677947D01*
X7921801Y67643827D01*
X7743173Y67465198D01*
X7646500Y67231809D01*
X7646500Y66438750D01*
X7805250Y66280000D01*
X9107000Y66280000D01*
X9107000Y66300000D01*
X9361000Y66300000D01*
X9361000Y66280000D01*
X10662750Y66280000D01*
X10821500Y66438750D01*
X10821500Y67231809D01*
X10724827Y67465198D01*
X10546199Y67643827D01*
X10464090Y67677838D01*
X10579032Y67792579D01*
X10821224Y68375841D01*
X10821775Y69007388D01*
X10580602Y69591072D01*
X10134421Y70038032D01*
X9551159Y70280224D01*
X8919612Y70280775D01*
X8335928Y70039602D01*
X7963743Y69668065D01*
X7710000Y69922251D01*
X7710000Y71868000D01*
X7632662Y72256806D01*
X7632662Y72256807D01*
X7412421Y72586420D01*
X6552804Y73446037D01*
X10757714Y73446037D01*
X11008534Y72839005D01*
X11472563Y72374166D01*
X12079155Y72122287D01*
X12735963Y72121714D01*
X13342995Y72372534D01*
X13807834Y72836563D01*
X13839543Y72912928D01*
X13933000Y72773060D01*
X13933000Y72486940D01*
X13634874Y72040762D01*
X13526600Y71496433D01*
X13526600Y70715567D01*
X13634874Y70171238D01*
X13943211Y69709778D01*
X14404671Y69401441D01*
X14949000Y69293167D01*
X15262611Y69355548D01*
X17913580Y66704579D01*
X18243193Y66484338D01*
X18632000Y66407000D01*
X18895723Y66407000D01*
X18548288Y66263088D01*
X18455446Y66001159D01*
X19394000Y65062605D01*
X20332554Y66001159D01*
X20239712Y66263088D01*
X19849617Y66407000D01*
X32308160Y66407000D01*
X32348000Y66367159D01*
X32348000Y61075425D01*
X32071286Y61352622D01*
X31674668Y61517313D01*
X31245216Y61517687D01*
X31091082Y61454000D01*
X26799841Y61454000D01*
X24182736Y64071104D01*
X24119689Y64223689D01*
X23816286Y64527622D01*
X23419668Y64692313D01*
X22990216Y64692687D01*
X22593311Y64528689D01*
X22289378Y64225286D01*
X22124687Y63828668D01*
X22124313Y63399216D01*
X22288311Y63002311D01*
X22591714Y62698378D01*
X22745739Y62634421D01*
X25660579Y59719580D01*
X25990193Y59499338D01*
X26054700Y59486507D01*
X26379000Y59422000D01*
X27013981Y59422000D01*
X26715005Y59298466D01*
X26711533Y59295000D01*
X25219940Y59295000D01*
X24773762Y59593126D01*
X24229433Y59701400D01*
X23448567Y59701400D01*
X22904238Y59593126D01*
X22442778Y59284789D01*
X22315000Y59093555D01*
X22315000Y61974858D01*
X22378313Y62127332D01*
X22378687Y62556784D01*
X22214689Y62953689D01*
X21911286Y63257622D01*
X21514668Y63422313D01*
X21085216Y63422687D01*
X20688311Y63258689D01*
X20384378Y62955286D01*
X20219687Y62558668D01*
X20219313Y62129216D01*
X20283000Y61975082D01*
X20283000Y42443841D01*
X17944228Y40105068D01*
X17954010Y40151940D01*
X17831852Y40372000D01*
X16346000Y40372000D01*
X16346000Y39076600D01*
X16701600Y39076600D01*
X17004689Y39165529D01*
X14230580Y36391420D01*
X14010338Y36061807D01*
X14010338Y36061806D01*
X13933000Y35673000D01*
X13933000Y30378841D01*
X12960580Y29406420D01*
X12740338Y29076807D01*
X12728907Y29019338D01*
X12663000Y28688000D01*
X12663000Y25246142D01*
X12599687Y25093668D01*
X12599313Y24664216D01*
X12763311Y24267311D01*
X13066714Y23963378D01*
X13463332Y23798687D01*
X13587894Y23798579D01*
X13526600Y23490433D01*
X13526600Y22709567D01*
X13634874Y22165238D01*
X13943211Y21703778D01*
X14404671Y21395441D01*
X14949000Y21287167D01*
X15493329Y21395441D01*
X15954789Y21703778D01*
X16219000Y22099199D01*
X16483211Y21703778D01*
X16944671Y21395441D01*
X17489000Y21287167D01*
X18033329Y21395441D01*
X18494789Y21703778D01*
X18759000Y22099199D01*
X19023211Y21703778D01*
X19484671Y21395441D01*
X20029000Y21287167D01*
X20573329Y21395441D01*
X21034789Y21703778D01*
X21299000Y22099199D01*
X21563211Y21703778D01*
X22024671Y21395441D01*
X22569000Y21287167D01*
X23113329Y21395441D01*
X23574789Y21703778D01*
X23689503Y21875460D01*
X23718438Y21721683D01*
X23857510Y21505559D01*
X24069710Y21360569D01*
X24321600Y21309560D01*
X25896400Y21309560D01*
X26131717Y21353838D01*
X26347841Y21492910D01*
X26492831Y21705110D01*
X26543840Y21957000D01*
X26543840Y22591199D01*
X28590325Y22591199D01*
X28615122Y21960139D01*
X28808912Y21492288D01*
X29070841Y21399446D01*
X30009395Y22338000D01*
X29070841Y23276554D01*
X28808912Y23183712D01*
X28590325Y22591199D01*
X26543840Y22591199D01*
X26543840Y23456159D01*
X29250446Y23456159D01*
X30189000Y22517605D01*
X31127554Y23456159D01*
X31034712Y23718088D01*
X30442199Y23936675D01*
X29811139Y23911878D01*
X29343288Y23718088D01*
X29250446Y23456159D01*
X26543840Y23456159D01*
X26543840Y24243000D01*
X26499562Y24478317D01*
X26360490Y24694441D01*
X26148290Y24839431D01*
X25896400Y24890440D01*
X24321600Y24890440D01*
X24086283Y24846162D01*
X23870159Y24707090D01*
X23725169Y24494890D01*
X23690400Y24323197D01*
X23585000Y24480940D01*
X23585000Y25727160D01*
X34082420Y36224579D01*
X34302661Y36554193D01*
X34302662Y36554194D01*
X34380000Y36943000D01*
X34380000Y37844858D01*
X34443313Y37997332D01*
X34443687Y38426784D01*
X34279689Y38823689D01*
X33976286Y39127622D01*
X33579668Y39292313D01*
X33150216Y39292687D01*
X33088770Y39267298D01*
X33009689Y39458689D01*
X32706286Y39762622D01*
X32309668Y39927313D01*
X31880216Y39927687D01*
X31818770Y39902298D01*
X31739689Y40093689D01*
X31436286Y40397622D01*
X31039668Y40562313D01*
X30610216Y40562687D01*
X30213311Y40398689D01*
X29909378Y40095286D01*
X29744687Y39698668D01*
X29744313Y39269216D01*
X29808000Y39115082D01*
X29808000Y38633841D01*
X16770580Y25596420D01*
X16550338Y25266807D01*
X16550338Y25266806D01*
X16473000Y24878000D01*
X16473000Y24480940D01*
X16219000Y24100801D01*
X15954789Y24496222D01*
X15493329Y24804559D01*
X14949000Y24912833D01*
X14758498Y24874940D01*
X14758687Y25091784D01*
X14695000Y25245918D01*
X14695000Y28267160D01*
X15667420Y29239579D01*
X15887661Y29569193D01*
X15887662Y29569194D01*
X15965000Y29958000D01*
X15965000Y35252160D01*
X22017420Y41304579D01*
X22237662Y41634193D01*
X22270674Y41800159D01*
X22315000Y42023000D01*
X22315000Y42224445D01*
X22442778Y42033211D01*
X22838199Y41769000D01*
X22442778Y41504789D01*
X22134441Y41043329D01*
X22026167Y40499000D01*
X22134441Y39954671D01*
X22442778Y39493211D01*
X22904238Y39184874D01*
X23448567Y39076600D01*
X24229433Y39076600D01*
X24773762Y39184874D01*
X25235222Y39493211D01*
X25543559Y39954671D01*
X25651833Y40499000D01*
X25543559Y41043329D01*
X25235222Y41504789D01*
X24839801Y41769000D01*
X25219940Y42023000D01*
X26124992Y42023000D01*
X26248534Y41724005D01*
X26712563Y41259166D01*
X27319155Y41007287D01*
X27975963Y41006714D01*
X28582995Y41257534D01*
X29047834Y41721563D01*
X29299713Y42328155D01*
X29300286Y42984963D01*
X29049466Y43591995D01*
X28713868Y43928179D01*
X29047834Y44261563D01*
X29299713Y44868155D01*
X29300286Y45524963D01*
X29049466Y46131995D01*
X28713868Y46468179D01*
X29047834Y46801563D01*
X29299713Y47408155D01*
X29300286Y48064963D01*
X29049466Y48671995D01*
X28713868Y49008179D01*
X29047834Y49341563D01*
X29299713Y49948155D01*
X29300286Y50604963D01*
X29049466Y51211995D01*
X28713868Y51548179D01*
X29047834Y51881563D01*
X29299713Y52488155D01*
X29300286Y53144963D01*
X29049466Y53751995D01*
X28713868Y54088179D01*
X29047834Y54421563D01*
X29299713Y55028155D01*
X29300286Y55684963D01*
X29049466Y56291995D01*
X28713868Y56628179D01*
X29047834Y56961563D01*
X29299713Y57568155D01*
X29300286Y58224963D01*
X29049466Y58831995D01*
X28585437Y59296834D01*
X28284004Y59422000D01*
X31090858Y59422000D01*
X31243332Y59358687D01*
X31672784Y59358313D01*
X32069689Y59522311D01*
X32348000Y59800137D01*
X32348000Y55993000D01*
X32396971Y55746807D01*
X32425338Y55604193D01*
X32645580Y55274580D01*
X33280580Y54639579D01*
X33610193Y54419338D01*
X33938354Y54354063D01*
X34204132Y54087821D01*
X33870166Y53754437D01*
X33618287Y53147845D01*
X33617714Y52491037D01*
X33868534Y51884005D01*
X34204132Y51547821D01*
X33870166Y51214437D01*
X33618287Y50607845D01*
X33617714Y49951037D01*
X33868534Y49344005D01*
X34204132Y49007821D01*
X33870166Y48674437D01*
X33618287Y48067845D01*
X33617714Y47411037D01*
X33868534Y46804005D01*
X34204132Y46467821D01*
X33870166Y46134437D01*
X33618287Y45527845D01*
X33617714Y44871037D01*
X33868534Y44264005D01*
X34204132Y43927821D01*
X33870166Y43594437D01*
X33618287Y42987845D01*
X33617714Y42331037D01*
X33868534Y41724005D01*
X34332563Y41259166D01*
X34939155Y41007287D01*
X35595963Y41006714D01*
X36202995Y41257534D01*
X36667834Y41721563D01*
X36854894Y42172054D01*
X37892420Y43209579D01*
X38112661Y43539193D01*
X38112662Y43539194D01*
X38190000Y43928000D01*
X38190000Y67423000D01*
X38124093Y67754338D01*
X38112662Y67811807D01*
X37892421Y68141420D01*
X35987423Y70046417D01*
X35987421Y70046420D01*
X34209420Y71824420D01*
X33879807Y72044662D01*
X33815300Y72057493D01*
X33491000Y72122000D01*
X26368845Y72122000D01*
X26125000Y72486940D01*
X26125000Y72773060D01*
X26423126Y73219238D01*
X26531400Y73763567D01*
X26531400Y74544433D01*
X26423126Y75088762D01*
X26114789Y75550222D01*
X25653329Y75858559D01*
X25109000Y75966833D01*
X24564671Y75858559D01*
X24103211Y75550222D01*
X23839000Y75154801D01*
X23574789Y75550222D01*
X23113329Y75858559D01*
X22569000Y75966833D01*
X22024671Y75858559D01*
X21563211Y75550222D01*
X21299000Y75154801D01*
X21034789Y75550222D01*
X20573329Y75858559D01*
X20029000Y75966833D01*
X19484671Y75858559D01*
X19023211Y75550222D01*
X18759000Y75154801D01*
X18494789Y75550222D01*
X18033329Y75858559D01*
X17489000Y75966833D01*
X16944671Y75858559D01*
X16483211Y75550222D01*
X16219000Y75154801D01*
X15954789Y75550222D01*
X15493329Y75858559D01*
X14949000Y75966833D01*
X14404671Y75858559D01*
X13943211Y75550222D01*
X13634874Y75088762D01*
X13600562Y74916264D01*
X13345437Y75171834D01*
X12738845Y75423713D01*
X12082037Y75424286D01*
X11475005Y75173466D01*
X11010166Y74709437D01*
X10758287Y74102845D01*
X10757714Y73446037D01*
X6552804Y73446037D01*
X6439814Y73559026D01*
X6440286Y74099963D01*
X6189466Y74706995D01*
X5725437Y75171834D01*
X5118845Y75423713D01*
X4462037Y75424286D01*
X3855005Y75173466D01*
X3390166Y74709437D01*
X3138287Y74102845D01*
X3137777Y73518779D01*
X2557037Y73519286D01*
X1950005Y73268466D01*
X1485166Y72804437D01*
X1233287Y72197845D01*
X1232714Y71541037D01*
X825500Y71541037D01*
X825500Y84577185D01*
X2864630Y84577185D01*
X3188980Y83792200D01*
X3789041Y83191091D01*
X4573459Y82865372D01*
X5422815Y82864630D01*
X6207800Y83188980D01*
X6808909Y83789041D01*
X7134628Y84573459D01*
X7134631Y84577185D01*
X32864630Y84577185D01*
X33188980Y83792200D01*
X33789041Y83191091D01*
X34573459Y82865372D01*
X35422815Y82864630D01*
X36207800Y83188980D01*
X36808909Y83789041D01*
X37134628Y84573459D01*
X37135370Y85422815D01*
X36811020Y86207800D01*
X36210959Y86808909D01*
X35426541Y87134628D01*
X34577185Y87135370D01*
X33792200Y86811020D01*
X33191091Y86210959D01*
X32865372Y85426541D01*
X32864630Y84577185D01*
X7134631Y84577185D01*
X7135370Y85422815D01*
X6811020Y86207800D01*
X6210959Y86808909D01*
X5426541Y87134628D01*
X4577185Y87135370D01*
X3792200Y86811020D01*
X3191091Y86210959D01*
X2865372Y85426541D01*
X2864630Y84577185D01*
X825500Y84577185D01*
X825500Y84918697D01*
X1158206Y86591323D01*
X2059618Y87940382D01*
X3408678Y88841794D01*
X5081303Y89174500D01*
X34918697Y89174500D01*
X36591323Y88841794D01*
M02*
