M48
;DRILL file {KiCad 4.0.4-stable} date 01/06/17 15:37:12
;FORMAT={-:-/ absolute / inch / decimal}
FMAT,2
INCH,TZ
T1C0.025
T2C0.031
T3C0.032
T4C0.032
T5C0.118
%
G90
G05
M72
T1
X0.0635Y2.1294
X0.2885Y1.2044
X0.2955Y1.9224
X0.4885Y0.8044
X0.5385Y0.9794
X0.8385Y2.4544
X0.9135Y2.5044
X1.0885Y0.6294
X1.2135Y1.5544
X1.2385Y2.3794
X1.2635Y1.5294
X1.2885Y1.2544
X1.2985Y0.7913
X1.3135Y1.5044
X1.3635Y1.1794
T2
X0.4285Y1.3697
X0.4285Y1.2713
T3
X0.1135Y2.8294
X0.1135Y2.5294
X0.1885Y2.9044
X0.2635Y2.7044
X0.3635Y2.7044
X0.3635Y2.6044
X0.4885Y2.9044
X0.5635Y2.5544
X0.7635Y2.5544
X1.0885Y2.2794
X1.0885Y2.1794
X1.0885Y2.0794
X1.0885Y1.9794
X1.0885Y1.8794
X1.0885Y1.7794
X1.0885Y1.6794
X1.1885Y1.0794
X1.1885Y0.8794
X1.3885Y2.2794
X1.3885Y2.1794
X1.3885Y2.0794
X1.3885Y1.9794
X1.3885Y1.8794
X1.3885Y1.7794
X1.3885Y1.6794
T4
X0.0785Y1.0963
X0.0785Y0.9963
X0.0785Y0.8963
X0.0785Y0.7963
X0.0785Y0.6963
X0.0785Y0.5963
X0.0785Y0.4963
X0.1935Y2.3944
X0.1935Y2.2944
X0.1935Y2.1944
X0.1935Y2.0944
X0.1935Y1.9944
X0.1935Y1.8944
X0.1935Y1.7944
X0.1935Y1.6944
X0.4935Y2.3944
X0.4935Y2.2944
X0.4935Y2.1944
X0.4935Y2.0944
X0.4935Y1.9944
X0.4935Y1.8944
X0.4935Y1.7944
X0.4935Y1.6944
X0.5885Y2.9194
X0.5885Y2.7994
X0.5885Y0.9094
X0.5885Y0.5594
X0.6385Y2.2944
X0.6385Y2.1944
X0.6385Y2.0944
X0.6385Y1.9944
X0.6385Y1.8944
X0.6385Y1.7944
X0.6385Y1.6944
X0.6385Y1.5944
X0.6885Y2.9194
X0.6885Y2.7994
X0.6885Y0.9094
X0.6885Y0.5594
X0.7885Y2.9194
X0.7885Y2.7994
X0.7885Y0.9094
X0.7885Y0.5594
X0.8885Y2.9194
X0.8885Y2.7994
X0.8885Y0.9094
X0.8885Y0.5594
X0.9385Y2.2944
X0.9385Y2.1944
X0.9385Y2.0944
X0.9385Y1.9944
X0.9385Y1.8944
X0.9385Y1.7944
X0.9385Y1.6944
X0.9385Y1.5944
X0.9885Y2.9194
X0.9885Y2.7994
X0.9885Y0.9094
X0.9885Y0.5594
X1.4785Y1.0963
X1.4785Y0.9963
X1.4785Y0.8963
X1.4785Y0.7963
X1.4785Y0.6963
X1.4785Y0.5963
X1.4785Y0.4963
T5
X0.1969Y3.3465
X0.1969Y0.1969
X1.378Y3.3465
X1.378Y0.1969
T0
M30
