<?xml version="1.0" standalone="no"?>
<!DOCTYPE svg PUBLIC "-//W3C//DTD SVG 20010904//EN" 
"http://www.w3.org/TR/2001/REC-SVG-20010904/DTD/svg10.dtd"> 
<svg xmlns="http://www.w3.org/2000/svg" xmlns:xlink="http://www.w3.org/1999/xlink" 
    width="29.72cm" height="21.00cm" viewBox="0 0 117000 82670 "> 
<title>SVG Picture created as LED_7_seg_display_2013-SilkS_Front.svg </title>
<desc>Picture generated by wxSVG v0100 </desc>
<g style="fill:black; stroke:black; stroke-width:1">
</g>
<g style="fill:#000000; fill-opacity:0.0; stroke:#FFFF00; stroke-opacity:1.00; stroke-linecap:round; stroke-linejoin:round; stroke-width:150" 
   transform="translate(0.00 0.00) scale(1.00 1.00)">
<path d="M26000 38000 L26000 37000" /> 
<path d="M10500 38000 L26000 38000" /> 
<path d="M10500 10000 L10500 38000" /> 
<path d="M26000 10000 L10500 10000" /> 
<path d="M26000 37500 L26000 10000" /> 
</g>
<g style="fill:#000000; fill-opacity:0.0; stroke:#0000C0; stroke-opacity:1.00; stroke-linecap:round; stroke-linejoin:round; stroke-width:0" 
   transform="translate(0.00 0.00) scale(1.00 1.00)">
<path d="M24498 27750 L24502 27750" /> 
<path d="M24500 27748 L24500 27752" /> 
</g>
<g style="fill:#00A0A0; fill-opacity:0.0; stroke:#00A0A0; stroke-opacity:1.00; stroke-linecap:round; stroke-linejoin:round; stroke-width:120" 
   transform="translate(0.00 0.00) scale(1.00 1.00)">
<path d="M24824 29349 L24824 29692" /> 
<g style = "stroke-linecap:round;" > 
<path d="M24824 29692 L24824 29692" /> 
</g><path d="M24824 29520 L24024 29520" /> 
<path d="M24024 29520 L24138 29577" /> 
<path d="M24138 29577 L24214 29635" /> 
<path d="M24214 29635 L24252 29692" /> 
<g style = "stroke-linecap:round;" > 
<path d="M24252 29692 L24252 29692" /> 
</g><path d="M24824 28778 L24824 29121" /> 
<g style = "stroke-linecap:round;" > 
<path d="M24824 29121 L24824 29121" /> 
</g><path d="M24824 28949 L24024 28949" /> 
<path d="M24024 28949 L24138 29006" /> 
<path d="M24138 29006 L24214 29064" /> 
<path d="M24214 29064 L24252 29121" /> 
<g style = "stroke-linecap:round;" > 
<path d="M24252 29121 L24252 29121" /> 
</g><path d="M23986 28093 L25014 28607" /> 
<g style = "stroke-linecap:round;" > 
<path d="M25014 28607 L25014 28607" /> 
</g><path d="M24024 27949 L24024 27578" /> 
<path d="M24024 27578 L24329 27778" /> 
<path d="M24329 27778 L24329 27692" /> 
<path d="M24329 27692 L24367 27635" /> 
<path d="M24367 27635 L24405 27606" /> 
<path d="M24405 27606 L24481 27578" /> 
<path d="M24481 27578 L24671 27578" /> 
<path d="M24671 27578 L24748 27606" /> 
<path d="M24748 27606 L24786 27635" /> 
<path d="M24786 27635 L24824 27692" /> 
<path d="M24824 27692 L24824 27864" /> 
<path d="M24824 27864 L24786 27921" /> 
<path d="M24786 27921 L24748 27949" /> 
<g style = "stroke-linecap:round;" > 
<path d="M24748 27949 L24748 27949" /> 
</g><path d="M23986 26893 L25014 27407" /> 
<g style = "stroke-linecap:round;" > 
<path d="M25014 27407 L25014 27407" /> 
</g><path d="M24824 26378 L24824 26721" /> 
<g style = "stroke-linecap:round;" > 
<path d="M24824 26721 L24824 26721" /> 
</g><path d="M24824 26549 L24024 26549" /> 
<path d="M24024 26549 L24138 26606" /> 
<path d="M24138 26606 L24214 26664" /> 
<path d="M24214 26664 L24252 26721" /> 
<g style = "stroke-linecap:round;" > 
<path d="M24252 26721 L24252 26721" /> 
</g><path d="M24024 26178 L24024 25807" /> 
<path d="M24024 25807 L24329 26007" /> 
<path d="M24329 26007 L24329 25921" /> 
<path d="M24329 25921 L24367 25864" /> 
<path d="M24367 25864 L24405 25835" /> 
<path d="M24405 25835 L24481 25807" /> 
<path d="M24481 25807 L24671 25807" /> 
<path d="M24671 25807 L24748 25835" /> 
<path d="M24748 25835 L24786 25864" /> 
<path d="M24786 25864 L24824 25921" /> 
<path d="M24824 25921 L24824 26093" /> 
<path d="M24824 26093 L24786 26150" /> 
<path d="M24786 26150 L24748 26178" /> 
<g style = "stroke-linecap:round;" > 
<path d="M24748 26178 L24748 26178" /> 
</g></g>
<g style="fill:#00A0A0; fill-opacity:0.0; stroke:#0000C0; stroke-opacity:1.00; stroke-linecap:round; stroke-linejoin:round; stroke-width:0" 
   transform="translate(0.00 0.00) scale(1.00 1.00)">
<path d="M18248 33750 L18252 33750" /> 
<path d="M18250 33748 L18250 33752" /> 
</g>
<g style="fill:#00A0A0; fill-opacity:0.0; stroke:#00A0A0; stroke-opacity:1.00; stroke-linecap:round; stroke-linejoin:round; stroke-width:120" 
   transform="translate(0.00 0.00) scale(1.00 1.00)">
<path d="M13935 34074 L13935 33540" /> 
<g style = "stroke-linecap:round;" > 
<path d="M13935 33540 L13935 33540" /> 
</g><path d="M13935 33693 L13963 33617" /> 
<path d="M13963 33617 L13992 33579" /> 
<path d="M13992 33579 L14049 33540" /> 
<path d="M14049 33540 L14106 33540" /> 
<g style = "stroke-linecap:round;" > 
<path d="M14106 33540 L14106 33540" /> 
</g><path d="M14534 34036 L14477 34074" /> 
<path d="M14477 34074 L14363 34074" /> 
<path d="M14363 34074 L14306 34036" /> 
<path d="M14306 34036 L14277 33960" /> 
<path d="M14277 33960 L14277 33655" /> 
<path d="M14277 33655 L14306 33579" /> 
<path d="M14306 33579 L14363 33540" /> 
<path d="M14363 33540 L14477 33540" /> 
<path d="M14477 33540 L14534 33579" /> 
<path d="M14534 33579 L14563 33655" /> 
<path d="M14563 33655 L14563 33731" /> 
<path d="M14563 33731 L14277 33807" /> 
<g style = "stroke-linecap:round;" > 
<path d="M14277 33807 L14277 33807" /> 
</g><path d="M14820 33769 L15277 33769" /> 
<g style = "stroke-linecap:round;" > 
<path d="M15277 33769 L15277 33769" /> 
</g><path d="M15563 34074 L15563 33540" /> 
<g style = "stroke-linecap:round;" > 
<path d="M15563 33540 L15563 33540" /> 
</g><path d="M15563 33274 L15534 33312" /> 
<path d="M15534 33312 L15563 33350" /> 
<path d="M15563 33350 L15591 33312" /> 
<path d="M15591 33312 L15563 33274" /> 
<path d="M15563 33274 L15563 33350" /> 
<g style = "stroke-linecap:round;" > 
<path d="M15563 33350 L15563 33350" /> 
</g><path d="M15849 33540 L15849 34074" /> 
<g style = "stroke-linecap:round;" > 
<path d="M15849 34074 L15849 34074" /> 
</g><path d="M15849 33617 L15877 33579" /> 
<path d="M15877 33579 L15935 33540" /> 
<path d="M15935 33540 L16020 33540" /> 
<path d="M16020 33540 L16077 33579" /> 
<path d="M16077 33579 L16106 33655" /> 
<path d="M16106 33655 L16106 34074" /> 
<g style = "stroke-linecap:round;" > 
<path d="M16106 34074 L16106 34074" /> 
</g><path d="M16392 33540 L16392 34074" /> 
<g style = "stroke-linecap:round;" > 
<path d="M16392 34074 L16392 34074" /> 
</g><path d="M16392 33617 L16420 33579" /> 
<path d="M16420 33579 L16478 33540" /> 
<path d="M16478 33540 L16563 33540" /> 
<path d="M16563 33540 L16620 33579" /> 
<path d="M16620 33579 L16649 33655" /> 
<path d="M16649 33655 L16649 34074" /> 
<g style = "stroke-linecap:round;" > 
<path d="M16649 34074 L16649 34074" /> 
</g><path d="M17021 34074 L16963 34036" /> 
<path d="M16963 34036 L16935 33998" /> 
<path d="M16935 33998 L16906 33921" /> 
<path d="M16906 33921 L16906 33693" /> 
<path d="M16906 33693 L16935 33617" /> 
<path d="M16935 33617 L16963 33579" /> 
<path d="M16963 33579 L17021 33540" /> 
<path d="M17021 33540 L17106 33540" /> 
<path d="M17106 33540 L17163 33579" /> 
<path d="M17163 33579 L17192 33617" /> 
<path d="M17192 33617 L17221 33693" /> 
<path d="M17221 33693 L17221 33921" /> 
<path d="M17221 33921 L17192 33998" /> 
<path d="M17192 33998 L17163 34036" /> 
<path d="M17163 34036 L17106 34074" /> 
<path d="M17106 34074 L17021 34074" /> 
<path d="M17421 33540 L17564 34074" /> 
<path d="M17564 34074 L17706 33540" /> 
<g style = "stroke-linecap:round;" > 
<path d="M17706 33540 L17706 33540" /> 
</g><path d="M18192 34074 L18192 33655" /> 
<path d="M18192 33655 L18163 33579" /> 
<path d="M18163 33579 L18106 33540" /> 
<path d="M18106 33540 L17992 33540" /> 
<path d="M17992 33540 L17935 33579" /> 
<g style = "stroke-linecap:round;" > 
<path d="M17935 33579 L17935 33579" /> 
</g><path d="M18192 34036 L18135 34074" /> 
<path d="M18135 34074 L17992 34074" /> 
<path d="M17992 34074 L17935 34036" /> 
<path d="M17935 34036 L17906 33960" /> 
<path d="M17906 33960 L17906 33883" /> 
<path d="M17906 33883 L17935 33807" /> 
<path d="M17935 33807 L17992 33769" /> 
<path d="M17992 33769 L18135 33769" /> 
<path d="M18135 33769 L18192 33731" /> 
<g style = "stroke-linecap:round;" > 
<path d="M18192 33731 L18192 33731" /> 
</g><path d="M18392 33540 L18621 33540" /> 
<g style = "stroke-linecap:round;" > 
<path d="M18621 33540 L18621 33540" /> 
</g><path d="M18478 33274 L18478 33960" /> 
<path d="M18478 33960 L18506 34036" /> 
<path d="M18506 34036 L18564 34074" /> 
<path d="M18564 34074 L18621 34074" /> 
<g style = "stroke-linecap:round;" > 
<path d="M18621 34074 L18621 34074" /> 
</g><path d="M18821 34074 L18821 33540" /> 
<g style = "stroke-linecap:round;" > 
<path d="M18821 33540 L18821 33540" /> 
</g><path d="M18821 33274 L18792 33312" /> 
<path d="M18792 33312 L18821 33350" /> 
<path d="M18821 33350 L18849 33312" /> 
<path d="M18849 33312 L18821 33274" /> 
<path d="M18821 33274 L18821 33350" /> 
<g style = "stroke-linecap:round;" > 
<path d="M18821 33350 L18821 33350" /> 
</g><path d="M19193 34074 L19135 34036" /> 
<path d="M19135 34036 L19107 33998" /> 
<path d="M19107 33998 L19078 33921" /> 
<path d="M19078 33921 L19078 33693" /> 
<path d="M19078 33693 L19107 33617" /> 
<path d="M19107 33617 L19135 33579" /> 
<path d="M19135 33579 L19193 33540" /> 
<path d="M19193 33540 L19278 33540" /> 
<path d="M19278 33540 L19335 33579" /> 
<path d="M19335 33579 L19364 33617" /> 
<path d="M19364 33617 L19393 33693" /> 
<path d="M19393 33693 L19393 33921" /> 
<path d="M19393 33921 L19364 33998" /> 
<path d="M19364 33998 L19335 34036" /> 
<path d="M19335 34036 L19278 34074" /> 
<path d="M19278 34074 L19193 34074" /> 
<path d="M19650 33540 L19650 34074" /> 
<g style = "stroke-linecap:round;" > 
<path d="M19650 34074 L19650 34074" /> 
</g><path d="M19650 33617 L19678 33579" /> 
<path d="M19678 33579 L19736 33540" /> 
<path d="M19736 33540 L19821 33540" /> 
<path d="M19821 33540 L19878 33579" /> 
<path d="M19878 33579 L19907 33655" /> 
<path d="M19907 33655 L19907 34074" /> 
<g style = "stroke-linecap:round;" > 
<path d="M19907 34074 L19907 34074" /> 
</g><path d="M20193 33998 L20221 34036" /> 
<path d="M20221 34036 L20193 34074" /> 
<path d="M20193 34074 L20164 34036" /> 
<path d="M20164 34036 L20193 33998" /> 
<path d="M20193 33998 L20193 34074" /> 
<g style = "stroke-linecap:round;" > 
<path d="M20193 34074 L20193 34074" /> 
</g><path d="M20736 34036 L20679 34074" /> 
<path d="M20679 34074 L20565 34074" /> 
<path d="M20565 34074 L20507 34036" /> 
<path d="M20507 34036 L20479 33998" /> 
<path d="M20479 33998 L20450 33921" /> 
<path d="M20450 33921 L20450 33693" /> 
<path d="M20450 33693 L20479 33617" /> 
<path d="M20479 33617 L20507 33579" /> 
<path d="M20507 33579 L20565 33540" /> 
<path d="M20565 33540 L20679 33540" /> 
<path d="M20679 33540 L20736 33579" /> 
<g style = "stroke-linecap:round;" > 
<path d="M20736 33579 L20736 33579" /> 
</g><path d="M21079 34074 L21021 34036" /> 
<path d="M21021 34036 L20993 33998" /> 
<path d="M20993 33998 L20964 33921" /> 
<path d="M20964 33921 L20964 33693" /> 
<path d="M20964 33693 L20993 33617" /> 
<path d="M20993 33617 L21021 33579" /> 
<path d="M21021 33579 L21079 33540" /> 
<path d="M21079 33540 L21164 33540" /> 
<path d="M21164 33540 L21221 33579" /> 
<path d="M21221 33579 L21250 33617" /> 
<path d="M21250 33617 L21279 33693" /> 
<path d="M21279 33693 L21279 33921" /> 
<path d="M21279 33921 L21250 33998" /> 
<path d="M21250 33998 L21221 34036" /> 
<path d="M21221 34036 L21164 34074" /> 
<path d="M21164 34074 L21079 34074" /> 
<path d="M21536 33998 L21564 34036" /> 
<path d="M21564 34036 L21536 34074" /> 
<path d="M21536 34074 L21507 34036" /> 
<path d="M21507 34036 L21536 33998" /> 
<path d="M21536 33998 L21536 34074" /> 
<g style = "stroke-linecap:round;" > 
<path d="M21536 34074 L21536 34074" /> 
</g><path d="M22079 33540 L22079 34074" /> 
<g style = "stroke-linecap:round;" > 
<path d="M22079 34074 L22079 34074" /> 
</g><path d="M21822 33540 L21822 33960" /> 
<path d="M21822 33960 L21850 34036" /> 
<path d="M21850 34036 L21908 34074" /> 
<path d="M21908 34074 L21993 34074" /> 
<path d="M21993 34074 L22050 34036" /> 
<path d="M22050 34036 L22079 33998" /> 
<g style = "stroke-linecap:round;" > 
<path d="M22079 33998 L22079 33998" /> 
</g><path d="M22365 34074 L22365 33274" /> 
<g style = "stroke-linecap:round;" > 
<path d="M22365 33274 L22365 33274" /> 
</g><path d="M22422 33769 L22593 34074" /> 
<g style = "stroke-linecap:round;" > 
<path d="M22593 34074 L22593 34074" /> 
</g><path d="M22593 33540 L22365 33845" /> 
<g style = "stroke-linecap:round;" > 
<path d="M22365 33845 L22365 33845" /> 
</g></g>
<g style="fill:#00A0A0; fill-opacity:0.0; stroke:#0000C0; stroke-opacity:1.00; stroke-linecap:round; stroke-linejoin:round; stroke-width:0" 
   transform="translate(0.00 0.00) scale(1.00 1.00)">
<path d="M18248 35000 L18252 35000" /> 
<path d="M18250 34998 L18250 35002" /> 
</g>
<g style="fill:#00A0A0; fill-opacity:0.0; stroke:#00A0A0; stroke-opacity:1.00; stroke-linecap:round; stroke-linejoin:round; stroke-width:120" 
   transform="translate(0.00 0.00) scale(1.00 1.00)">
<path d="M14122 34524 L14522 34524" /> 
<path d="M14522 34524 L14265 35324" /> 
<g style = "stroke-linecap:round;" > 
<path d="M14265 35324 L14265 35324" /> 
</g><path d="M15178 35286 L15264 35324" /> 
<path d="M15264 35324 L15407 35324" /> 
<path d="M15407 35324 L15464 35286" /> 
<path d="M15464 35286 L15493 35248" /> 
<path d="M15493 35248 L15521 35171" /> 
<path d="M15521 35171 L15521 35095" /> 
<path d="M15521 35095 L15493 35019" /> 
<path d="M15493 35019 L15464 34981" /> 
<path d="M15464 34981 L15407 34943" /> 
<path d="M15407 34943 L15293 34905" /> 
<path d="M15293 34905 L15235 34867" /> 
<path d="M15235 34867 L15207 34829" /> 
<path d="M15207 34829 L15178 34752" /> 
<path d="M15178 34752 L15178 34676" /> 
<path d="M15178 34676 L15207 34600" /> 
<path d="M15207 34600 L15235 34562" /> 
<path d="M15235 34562 L15293 34524" /> 
<path d="M15293 34524 L15435 34524" /> 
<path d="M15435 34524 L15521 34562" /> 
<g style = "stroke-linecap:round;" > 
<path d="M15521 34562 L15521 34562" /> 
</g><path d="M15778 34905 L15978 34905" /> 
<g style = "stroke-linecap:round;" > 
<path d="M15978 34905 L15978 34905" /> 
</g><path d="M16064 35324 L15778 35324" /> 
<path d="M15778 35324 L15778 34524" /> 
<path d="M15778 34524 L16064 34524" /> 
<g style = "stroke-linecap:round;" > 
<path d="M16064 34524 L16064 34524" /> 
</g><path d="M16635 34562 L16578 34524" /> 
<path d="M16578 34524 L16492 34524" /> 
<path d="M16492 34524 L16407 34562" /> 
<path d="M16407 34562 L16349 34638" /> 
<path d="M16349 34638 L16321 34714" /> 
<path d="M16321 34714 L16292 34867" /> 
<path d="M16292 34867 L16292 34981" /> 
<path d="M16292 34981 L16321 35133" /> 
<path d="M16321 35133 L16349 35210" /> 
<path d="M16349 35210 L16407 35286" /> 
<path d="M16407 35286 L16492 35324" /> 
<path d="M16492 35324 L16549 35324" /> 
<path d="M16549 35324 L16635 35286" /> 
<path d="M16635 35286 L16664 35248" /> 
<path d="M16664 35248 L16664 34981" /> 
<path d="M16664 34981 L16549 34981" /> 
<g style = "stroke-linecap:round;" > 
<path d="M16549 34981 L16549 34981" /> 
</g><path d="M17664 35324 L17378 35324" /> 
<path d="M17378 35324 L17378 34524" /> 
<g style = "stroke-linecap:round;" > 
<path d="M17378 34524 L17378 34524" /> 
</g><path d="M17864 34905 L18064 34905" /> 
<g style = "stroke-linecap:round;" > 
<path d="M18064 34905 L18064 34905" /> 
</g><path d="M18150 35324 L17864 35324" /> 
<path d="M17864 35324 L17864 34524" /> 
<path d="M17864 34524 L18150 34524" /> 
<g style = "stroke-linecap:round;" > 
<path d="M18150 34524 L18150 34524" /> 
</g><path d="M18407 35324 L18407 34524" /> 
<path d="M18407 34524 L18550 34524" /> 
<path d="M18550 34524 L18635 34562" /> 
<path d="M18635 34562 L18693 34638" /> 
<path d="M18693 34638 L18721 34714" /> 
<path d="M18721 34714 L18750 34867" /> 
<path d="M18750 34867 L18750 34981" /> 
<path d="M18750 34981 L18721 35133" /> 
<path d="M18721 35133 L18693 35210" /> 
<path d="M18693 35210 L18635 35286" /> 
<path d="M18635 35286 L18550 35324" /> 
<path d="M18550 35324 L18407 35324" /> 
<path d="M19464 35324 L19464 34524" /> 
<path d="M19464 34524 L19607 34524" /> 
<path d="M19607 34524 L19692 34562" /> 
<path d="M19692 34562 L19750 34638" /> 
<path d="M19750 34638 L19778 34714" /> 
<path d="M19778 34714 L19807 34867" /> 
<path d="M19807 34867 L19807 34981" /> 
<path d="M19807 34981 L19778 35133" /> 
<path d="M19778 35133 L19750 35210" /> 
<path d="M19750 35210 L19692 35286" /> 
<path d="M19692 35286 L19607 35324" /> 
<path d="M19607 35324 L19464 35324" /> 
<path d="M20407 35324 L20207 34943" /> 
<g style = "stroke-linecap:round;" > 
<path d="M20207 34943 L20207 34943" /> 
</g><path d="M20064 35324 L20064 34524" /> 
<path d="M20064 34524 L20292 34524" /> 
<path d="M20292 34524 L20350 34562" /> 
<path d="M20350 34562 L20378 34600" /> 
<path d="M20378 34600 L20407 34676" /> 
<path d="M20407 34676 L20407 34790" /> 
<path d="M20407 34790 L20378 34867" /> 
<path d="M20378 34867 L20350 34905" /> 
<path d="M20350 34905 L20292 34943" /> 
<path d="M20292 34943 L20064 34943" /> 
<g style = "stroke-linecap:round;" > 
<path d="M20064 34943 L20064 34943" /> 
</g><path d="M20664 35324 L20664 34524" /> 
<g style = "stroke-linecap:round;" > 
<path d="M20664 34524 L20664 34524" /> 
</g><path d="M20864 34524 L21064 35324" /> 
<path d="M21064 35324 L21264 34524" /> 
<g style = "stroke-linecap:round;" > 
<path d="M21264 34524 L21264 34524" /> 
</g><path d="M21464 34905 L21664 34905" /> 
<g style = "stroke-linecap:round;" > 
<path d="M21664 34905 L21664 34905" /> 
</g><path d="M21750 35324 L21464 35324" /> 
<path d="M21464 35324 L21464 34524" /> 
<path d="M21464 34524 L21750 34524" /> 
<g style = "stroke-linecap:round;" > 
<path d="M21750 34524 L21750 34524" /> 
</g><path d="M22350 35324 L22150 34943" /> 
<g style = "stroke-linecap:round;" > 
<path d="M22150 34943 L22150 34943" /> 
</g><path d="M22007 35324 L22007 34524" /> 
<path d="M22007 34524 L22235 34524" /> 
<path d="M22235 34524 L22293 34562" /> 
<path d="M22293 34562 L22321 34600" /> 
<path d="M22321 34600 L22350 34676" /> 
<path d="M22350 34676 L22350 34790" /> 
<path d="M22350 34790 L22321 34867" /> 
<path d="M22321 34867 L22293 34905" /> 
<path d="M22293 34905 L22235 34943" /> 
<path d="M22235 34943 L22007 34943" /> 
<g style = "stroke-linecap:round;" > 
<path d="M22007 34943 L22007 34943" /> 
</g></g>
<g style="fill:#808000; fill-opacity:0.0; stroke:#808000; stroke-opacity:1.00; stroke-linecap:round; stroke-linejoin:round; stroke-width:60" 
   transform="translate(0.00 0.00) scale(1.00 1.00)">
<path d="M12357 30607 L13143 30607" /> 
<path d="M13143 30607 L13143 31393" /> 
<path d="M13143 31393 L12357 31393" /> 
<path d="M12357 30607 L12357 31393" /> 
<ellipse cx="12750" cy="32000" rx="393" ry="393"  /> 
<ellipse cx="12750" cy="33000" rx="393" ry="393"  /> 
<ellipse cx="12750" cy="34000" rx="393" ry="393"  /> 
<ellipse cx="12750" cy="35000" rx="393" ry="393"  /> 
<ellipse cx="12750" cy="36000" rx="393" ry="393"  /> 
<ellipse cx="12750" cy="37000" rx="393" ry="393"  /> 
</g>
<g style="fill:#808000; fill-opacity:0.0; stroke:#0000C0; stroke-opacity:1.00; stroke-linecap:round; stroke-linejoin:round; stroke-width:0" 
   transform="translate(0.00 0.00) scale(1.00 1.00)">
<path d="M11748 32000 L11752 32000" /> 
<path d="M11750 31998 L11750 32002" /> 
</g>
<g style="fill:#C0C0C0; fill-opacity:0.0; stroke:#C0C0C0; stroke-opacity:1.00; stroke-linecap:round; stroke-linejoin:round; stroke-width:107" 
   transform="translate(0.00 0.00) scale(1.00 1.00)">
<path d="M12025 32316 L11344 32316" /> 
<path d="M11344 32316 L11344 32153" /> 
<path d="M11344 32153 L11377 32112" /> 
<path d="M11377 32112 L11409 32092" /> 
<path d="M11409 32092 L11474 32072" /> 
<path d="M11474 32072 L11571 32072" /> 
<path d="M11571 32072 L11636 32092" /> 
<path d="M11636 32092 L11668 32112" /> 
<path d="M11668 32112 L11701 32153" /> 
<path d="M11701 32153 L11701 32316" /> 
<g style = "stroke-linecap:round;" > 
<path d="M11701 32316 L11701 32316" /> 
</g><path d="M12025 31664 L12025 31908" /> 
<g style = "stroke-linecap:round;" > 
<path d="M12025 31908 L12025 31908" /> 
</g><path d="M12025 31786 L11344 31786" /> 
<path d="M11344 31786 L11441 31827" /> 
<path d="M11441 31827 L11506 31868" /> 
<path d="M11506 31868 L11539 31908" /> 
<g style = "stroke-linecap:round;" > 
<path d="M11539 31908 L11539 31908" /> 
</g></g>
<g style="fill:#C0C0C0; fill-opacity:0.0; stroke:#0000C0; stroke-opacity:1.00; stroke-linecap:round; stroke-linejoin:round; stroke-width:0" 
   transform="translate(0.00 0.00) scale(1.00 1.00)">
<path d="M11748 35250 L11752 35250" /> 
<path d="M11750 35248 L11750 35252" /> 
</g>
<g style="fill:#C0C0C0; fill-opacity:0.0; stroke:#C0C0C0; stroke-opacity:1.00; stroke-linecap:round; stroke-linejoin:round; stroke-width:100" 
   transform="translate(0.00 0.00) scale(1.00 1.00)">
<path d="M11993 36021 L11393 36021" /> 
<g style = "stroke-linecap:round;" > 
<path d="M11393 36021 L11393 36021" /> 
</g><path d="M11993 35831 L11393 35831" /> 
<path d="M11393 35831 L11993 35602" /> 
<path d="M11993 35602 L11393 35602" /> 
<g style = "stroke-linecap:round;" > 
<path d="M11393 35602 L11393 35602" /> 
</g><path d="M11993 35412 L11393 35412" /> 
<path d="M11393 35412 L11393 35259" /> 
<path d="M11393 35259 L11421 35221" /> 
<path d="M11421 35221 L11450 35202" /> 
<path d="M11450 35202 L11507 35183" /> 
<path d="M11507 35183 L11593 35183" /> 
<path d="M11593 35183 L11650 35202" /> 
<path d="M11650 35202 L11679 35221" /> 
<path d="M11679 35221 L11707 35259" /> 
<path d="M11707 35259 L11707 35412" /> 
<g style = "stroke-linecap:round;" > 
<path d="M11707 35412 L11707 35412" /> 
</g><path d="M11393 35012 L11879 35012" /> 
<path d="M11879 35012 L11936 34993" /> 
<path d="M11936 34993 L11964 34974" /> 
<path d="M11964 34974 L11993 34936" /> 
<path d="M11993 34936 L11993 34859" /> 
<path d="M11993 34859 L11964 34821" /> 
<path d="M11964 34821 L11936 34802" /> 
<path d="M11936 34802 L11879 34783" /> 
<path d="M11879 34783 L11393 34783" /> 
<g style = "stroke-linecap:round;" > 
<path d="M11393 34783 L11393 34783" /> 
</g><path d="M11393 34650 L11393 34421" /> 
<g style = "stroke-linecap:round;" > 
<path d="M11393 34421 L11393 34421" /> 
</g><path d="M11993 34536 L11393 34536" /> 
<g style = "stroke-linecap:round;" > 
<path d="M11393 34536 L11393 34536" /> 
</g></g>
<g style="fill:#C0C0C0; fill-opacity:0.0; stroke:#00A0A0; stroke-opacity:1.00; stroke-linecap:round; stroke-linejoin:round; stroke-width:120" 
   transform="translate(0.00 0.00) scale(1.00 1.00)">
<path d="M13250 30500 L13250 30500" /> 
<path d="M13250 30500 L13250 37500" /> 
<path d="M13250 37500 L12250 37500" /> 
<path d="M12250 37500 L12250 30500" /> 
<path d="M12250 30500 L13250 30500" /> 
<path d="M12250 31500 L12250 31500" /> 
<path d="M12250 31500 L13250 31500" /> 
</g>
<g style="fill:#808000; fill-opacity:0.0; stroke:#808000; stroke-opacity:1.00; stroke-linecap:round; stroke-linejoin:round; stroke-width:60" 
   transform="translate(0.00 0.00) scale(1.00 1.00)">
<path d="M23107 30607 L23893 30607" /> 
<path d="M23893 30607 L23893 31393" /> 
<path d="M23893 31393 L23107 31393" /> 
<path d="M23107 30607 L23107 31393" /> 
<ellipse cx="23500" cy="32000" rx="393" ry="393"  /> 
<ellipse cx="23500" cy="33000" rx="393" ry="393"  /> 
<ellipse cx="23500" cy="34000" rx="393" ry="393"  /> 
<ellipse cx="23500" cy="35000" rx="393" ry="393"  /> 
<ellipse cx="23500" cy="36000" rx="393" ry="393"  /> 
<ellipse cx="23500" cy="37000" rx="393" ry="393"  /> 
</g>
<g style="fill:#808000; fill-opacity:0.0; stroke:#0000C0; stroke-opacity:1.00; stroke-linecap:round; stroke-linejoin:round; stroke-width:0" 
   transform="translate(0.00 0.00) scale(1.00 1.00)">
<path d="M24748 31750 L24752 31750" /> 
<path d="M24750 31748 L24750 31752" /> 
</g>
<g style="fill:#C0C0C0; fill-opacity:0.0; stroke:#C0C0C0; stroke-opacity:1.00; stroke-linecap:round; stroke-linejoin:round; stroke-width:107" 
   transform="translate(0.00 0.00) scale(1.00 1.00)">
<path d="M25025 32066 L24344 32066" /> 
<path d="M24344 32066 L24344 31903" /> 
<path d="M24344 31903 L24377 31862" /> 
<path d="M24377 31862 L24409 31842" /> 
<path d="M24409 31842 L24474 31822" /> 
<path d="M24474 31822 L24571 31822" /> 
<path d="M24571 31822 L24636 31842" /> 
<path d="M24636 31842 L24668 31862" /> 
<path d="M24668 31862 L24701 31903" /> 
<path d="M24701 31903 L24701 32066" /> 
<g style = "stroke-linecap:round;" > 
<path d="M24701 32066 L24701 32066" /> 
</g><path d="M24409 31658 L24377 31638" /> 
<path d="M24377 31638 L24344 31597" /> 
<path d="M24344 31597 L24344 31495" /> 
<path d="M24344 31495 L24377 31455" /> 
<path d="M24377 31455 L24409 31434" /> 
<path d="M24409 31434 L24474 31414" /> 
<path d="M24474 31414 L24539 31414" /> 
<path d="M24539 31414 L24636 31434" /> 
<path d="M24636 31434 L25025 31679" /> 
<path d="M25025 31679 L25025 31414" /> 
<g style = "stroke-linecap:round;" > 
<path d="M25025 31414 L25025 31414" /> 
</g></g>
<g style="fill:#C0C0C0; fill-opacity:0.0; stroke:#0000C0; stroke-opacity:1.00; stroke-linecap:round; stroke-linejoin:round; stroke-width:0" 
   transform="translate(0.00 0.00) scale(1.00 1.00)">
<path d="M24748 35500 L24752 35500" /> 
<path d="M24750 35498 L24750 35502" /> 
</g>
<g style="fill:#C0C0C0; fill-opacity:0.0; stroke:#C0C0C0; stroke-opacity:1.00; stroke-linecap:round; stroke-linejoin:round; stroke-width:100" 
   transform="translate(0.00 0.00) scale(1.00 1.00)">
<path d="M24393 36462 L24393 36385" /> 
<path d="M24393 36385 L24421 36347" /> 
<path d="M24421 36347 L24479 36309" /> 
<path d="M24479 36309 L24593 36290" /> 
<path d="M24593 36290 L24793 36290" /> 
<path d="M24793 36290 L24907 36309" /> 
<path d="M24907 36309 L24964 36347" /> 
<path d="M24964 36347 L24993 36385" /> 
<path d="M24993 36385 L24993 36462" /> 
<path d="M24993 36462 L24964 36500" /> 
<path d="M24964 36500 L24907 36538" /> 
<path d="M24907 36538 L24793 36557" /> 
<path d="M24793 36557 L24593 36557" /> 
<path d="M24593 36557 L24479 36538" /> 
<path d="M24479 36538 L24421 36500" /> 
<path d="M24421 36500 L24393 36462" /> 
<path d="M24393 36119 L24879 36119" /> 
<path d="M24879 36119 L24936 36100" /> 
<path d="M24936 36100 L24964 36081" /> 
<path d="M24964 36081 L24993 36043" /> 
<path d="M24993 36043 L24993 35966" /> 
<path d="M24993 35966 L24964 35928" /> 
<path d="M24964 35928 L24936 35909" /> 
<path d="M24936 35909 L24879 35890" /> 
<path d="M24879 35890 L24393 35890" /> 
<g style = "stroke-linecap:round;" > 
<path d="M24393 35890 L24393 35890" /> 
</g><path d="M24393 35757 L24393 35528" /> 
<g style = "stroke-linecap:round;" > 
<path d="M24393 35528 L24393 35528" /> 
</g><path d="M24993 35643 L24393 35643" /> 
<g style = "stroke-linecap:round;" > 
<path d="M24393 35643 L24393 35643" /> 
</g><path d="M24993 35395 L24393 35395" /> 
<path d="M24393 35395 L24393 35242" /> 
<path d="M24393 35242 L24421 35204" /> 
<path d="M24421 35204 L24450 35185" /> 
<path d="M24450 35185 L24507 35166" /> 
<path d="M24507 35166 L24593 35166" /> 
<path d="M24593 35166 L24650 35185" /> 
<path d="M24650 35185 L24679 35204" /> 
<path d="M24679 35204 L24707 35242" /> 
<path d="M24707 35242 L24707 35395" /> 
<g style = "stroke-linecap:round;" > 
<path d="M24707 35395 L24707 35395" /> 
</g><path d="M24393 34995 L24879 34995" /> 
<path d="M24879 34995 L24936 34976" /> 
<path d="M24936 34976 L24964 34957" /> 
<path d="M24964 34957 L24993 34919" /> 
<path d="M24993 34919 L24993 34842" /> 
<path d="M24993 34842 L24964 34804" /> 
<path d="M24964 34804 L24936 34785" /> 
<path d="M24936 34785 L24879 34766" /> 
<path d="M24879 34766 L24393 34766" /> 
<g style = "stroke-linecap:round;" > 
<path d="M24393 34766 L24393 34766" /> 
</g><path d="M24393 34633 L24393 34404" /> 
<g style = "stroke-linecap:round;" > 
<path d="M24393 34404 L24393 34404" /> 
</g><path d="M24993 34519 L24393 34519" /> 
<g style = "stroke-linecap:round;" > 
<path d="M24393 34519 L24393 34519" /> 
</g></g>
<g style="fill:#C0C0C0; fill-opacity:0.0; stroke:#00A0A0; stroke-opacity:1.00; stroke-linecap:round; stroke-linejoin:round; stroke-width:120" 
   transform="translate(0.00 0.00) scale(1.00 1.00)">
<path d="M24000 30500 L24000 30500" /> 
<path d="M24000 30500 L24000 37500" /> 
<path d="M24000 37500 L23000 37500" /> 
<path d="M23000 37500 L23000 30500" /> 
<path d="M23000 30500 L24000 30500" /> 
<path d="M23000 31500 L23000 31500" /> 
<path d="M23000 31500 L24000 31500" /> 
</g>
<g style="fill:#808000; fill-opacity:0.0; stroke:#808000; stroke-opacity:1.00; stroke-linecap:round; stroke-linejoin:round; stroke-width:60" 
   transform="translate(0.00 0.00) scale(1.00 1.00)">
<path d="M15750 25160 L14850 25160" /> 
<path d="M14850 25160 L14850 24540" /> 
<path d="M14850 24540 L15750 24540" /> 
<path d="M15750 25160 L15750 24540" /> 
<path d="M15160 23540 L15440 23540" /> 
<path d="M15160 24160 L15440 24160" /> 
<path d="M15160 23540 A310.00 310.00 0.0 0 0 15160 24160 L15160 23850 z  " /> 
<path d="M15440 24160 A310.00 310.00 0.0 0 0 15440 23540 L15440 23850 z  " /> 
<path d="M15160 22540 L15440 22540" /> 
<path d="M15160 23160 L15440 23160" /> 
<path d="M15160 22540 A310.00 310.00 0.0 0 0 15160 23160 L15160 22850 z  " /> 
<path d="M15440 23160 A310.00 310.00 0.0 0 0 15440 22540 L15440 22850 z  " /> 
<path d="M15160 21540 L15440 21540" /> 
<path d="M15160 22160 L15440 22160" /> 
<path d="M15160 21540 A310.00 310.00 0.0 0 0 15160 22160 L15160 21850 z  " /> 
<path d="M15440 22160 A310.00 310.00 0.0 0 0 15440 21540 L15440 21850 z  " /> 
<path d="M15160 20540 L15440 20540" /> 
<path d="M15160 21160 L15440 21160" /> 
<path d="M15160 20540 A310.00 310.00 0.0 0 0 15160 21160 L15160 20850 z  " /> 
<path d="M15440 21160 A310.00 310.00 0.0 0 0 15440 20540 L15440 20850 z  " /> 
<path d="M15160 19540 L15440 19540" /> 
<path d="M15160 20160 L15440 20160" /> 
<path d="M15160 19540 A310.00 310.00 0.0 0 0 15160 20160 L15160 19850 z  " /> 
<path d="M15440 20160 A310.00 310.00 0.0 0 0 15440 19540 L15440 19850 z  " /> 
<path d="M15160 18540 L15440 18540" /> 
<path d="M15160 19160 L15440 19160" /> 
<path d="M15160 18540 A310.00 310.00 0.0 0 0 15160 19160 L15160 18850 z  " /> 
<path d="M15440 19160 A310.00 310.00 0.0 0 0 15440 18540 L15440 18850 z  " /> 
<path d="M15160 17540 L15440 17540" /> 
<path d="M15160 18160 L15440 18160" /> 
<path d="M15160 17540 A310.00 310.00 0.0 0 0 15160 18160 L15160 17850 z  " /> 
<path d="M15440 18160 A310.00 310.00 0.0 0 0 15440 17540 L15440 17850 z  " /> 
<path d="M12160 17540 L12440 17540" /> 
<path d="M12160 18160 L12440 18160" /> 
<path d="M12160 17540 A310.00 310.00 0.0 0 0 12160 18160 L12160 17850 z  " /> 
<path d="M12440 18160 A310.00 310.00 0.0 0 0 12440 17540 L12440 17850 z  " /> 
<path d="M12160 18540 L12440 18540" /> 
<path d="M12160 19160 L12440 19160" /> 
<path d="M12160 18540 A310.00 310.00 0.0 0 0 12160 19160 L12160 18850 z  " /> 
<path d="M12440 19160 A310.00 310.00 0.0 0 0 12440 18540 L12440 18850 z  " /> 
<path d="M12160 19540 L12440 19540" /> 
<path d="M12160 20160 L12440 20160" /> 
<path d="M12160 19540 A310.00 310.00 0.0 0 0 12160 20160 L12160 19850 z  " /> 
<path d="M12440 20160 A310.00 310.00 0.0 0 0 12440 19540 L12440 19850 z  " /> 
<path d="M12160 20540 L12440 20540" /> 
<path d="M12160 21160 L12440 21160" /> 
<path d="M12160 20540 A310.00 310.00 0.0 0 0 12160 21160 L12160 20850 z  " /> 
<path d="M12440 21160 A310.00 310.00 0.0 0 0 12440 20540 L12440 20850 z  " /> 
<path d="M12160 21540 L12440 21540" /> 
<path d="M12160 22160 L12440 22160" /> 
<path d="M12160 21540 A310.00 310.00 0.0 0 0 12160 22160 L12160 21850 z  " /> 
<path d="M12440 22160 A310.00 310.00 0.0 0 0 12440 21540 L12440 21850 z  " /> 
<path d="M12160 22540 L12440 22540" /> 
<path d="M12160 23160 L12440 23160" /> 
<path d="M12160 22540 A310.00 310.00 0.0 0 0 12160 23160 L12160 22850 z  " /> 
<path d="M12440 23160 A310.00 310.00 0.0 0 0 12440 22540 L12440 22850 z  " /> 
<path d="M12160 23540 L12440 23540" /> 
<path d="M12160 24160 L12440 24160" /> 
<path d="M12160 23540 A310.00 310.00 0.0 0 0 12160 24160 L12160 23850 z  " /> 
<path d="M12440 24160 A310.00 310.00 0.0 0 0 12440 23540 L12440 23850 z  " /> 
<path d="M12160 24540 L12440 24540" /> 
<path d="M12160 25160 L12440 25160" /> 
<path d="M12160 24540 A310.00 310.00 0.0 0 0 12160 25160 L12160 24850 z  " /> 
<path d="M12440 25160 A310.00 310.00 0.0 0 0 12440 24540 L12440 24850 z  " /> 
</g>
<g style="fill:#808000; fill-opacity:0.0; stroke:#0000C0; stroke-opacity:1.00; stroke-linecap:round; stroke-linejoin:round; stroke-width:0" 
   transform="translate(0.00 0.00) scale(1.00 1.00)">
<path d="M13298 23850 L13302 23850" /> 
<path d="M13300 23848 L13300 23852" /> 
</g>
<g style="fill:#C0C0C0; fill-opacity:0.0; stroke:#C0C0C0; stroke-opacity:1.00; stroke-linecap:round; stroke-linejoin:round; stroke-width:113" 
   transform="translate(0.00 0.00) scale(1.00 1.00)">
<path d="M12957 23493 L12957 23979" /> 
<path d="M12957 23979 L12979 24036" /> 
<path d="M12979 24036 L13000 24064" /> 
<path d="M13000 24064 L13043 24093" /> 
<path d="M13043 24093 L13129 24093" /> 
<path d="M13129 24093 L13171 24064" /> 
<path d="M13171 24064 L13193 24036" /> 
<path d="M13193 24036 L13214 23979" /> 
<path d="M13214 23979 L13214 23493" /> 
<g style = "stroke-linecap:round;" > 
<path d="M13214 23493 L13214 23493" /> 
</g><path d="M13664 24093 L13407 24093" /> 
<g style = "stroke-linecap:round;" > 
<path d="M13407 24093 L13407 24093" /> 
</g><path d="M13535 24093 L13535 23493" /> 
<path d="M13535 23493 L13492 23579" /> 
<path d="M13492 23579 L13450 23636" /> 
<path d="M13450 23636 L13407 23664" /> 
<g style = "stroke-linecap:round;" > 
<path d="M13407 23664 L13407 23664" /> 
</g></g>
<g style="fill:#C0C0C0; fill-opacity:0.0; stroke:#0000C0; stroke-opacity:1.00; stroke-linecap:round; stroke-linejoin:round; stroke-width:0" 
   transform="translate(0.00 0.00) scale(1.00 1.00)">
<path d="M14298 20850 L14302 20850" /> 
<path d="M14300 20848 L14300 20852" /> 
</g>
<g style="fill:#C0C0C0; fill-opacity:0.0; stroke:#C0C0C0; stroke-opacity:1.00; stroke-linecap:round; stroke-linejoin:round; stroke-width:113" 
   transform="translate(0.00 0.00) scale(1.00 1.00)">
<path d="M13943 23636 L13943 23336" /> 
<path d="M13943 23336 L14543 23529" /> 
<g style = "stroke-linecap:round;" > 
<path d="M14543 23529 L14543 23529" /> 
</g><path d="M14143 22971 L14543 22971" /> 
<g style = "stroke-linecap:round;" > 
<path d="M14543 22971 L14543 22971" /> 
</g><path d="M13914 23078 L14343 23185" /> 
<path d="M14343 23185 L14343 22907" /> 
<g style = "stroke-linecap:round;" > 
<path d="M14343 22907 L14343 22907" /> 
</g><path d="M14543 22735 L13943 22735" /> 
<g style = "stroke-linecap:round;" > 
<path d="M13943 22735 L13943 22735" /> 
</g><path d="M14229 22735 L14229 22478" /> 
<g style = "stroke-linecap:round;" > 
<path d="M14229 22478 L14229 22478" /> 
</g><path d="M14543 22478 L13943 22478" /> 
<g style = "stroke-linecap:round;" > 
<path d="M13943 22478 L13943 22478" /> 
</g><path d="M14486 22007 L14514 22028" /> 
<path d="M14514 22028 L14543 22092" /> 
<path d="M14543 22092 L14543 22135" /> 
<path d="M14543 22135 L14514 22200" /> 
<path d="M14514 22200 L14457 22242" /> 
<path d="M14457 22242 L14400 22264" /> 
<path d="M14400 22264 L14286 22285" /> 
<path d="M14286 22285 L14200 22285" /> 
<path d="M14200 22285 L14086 22264" /> 
<path d="M14086 22264 L14029 22242" /> 
<path d="M14029 22242 L13971 22200" /> 
<path d="M13971 22200 L13943 22135" /> 
<path d="M13943 22135 L13943 22092" /> 
<path d="M13943 22092 L13971 22028" /> 
<path d="M13971 22028 L14000 22007" /> 
<g style = "stroke-linecap:round;" > 
<path d="M14000 22007 L14000 22007" /> 
</g><path d="M13943 21600 L13943 21814" /> 
<path d="M13943 21814 L14229 21835" /> 
<path d="M14229 21835 L14200 21814" /> 
<path d="M14200 21814 L14171 21771" /> 
<path d="M14171 21771 L14171 21664" /> 
<path d="M14171 21664 L14200 21621" /> 
<path d="M14200 21621 L14229 21600" /> 
<path d="M14229 21600 L14286 21578" /> 
<path d="M14286 21578 L14429 21578" /> 
<path d="M14429 21578 L14486 21600" /> 
<path d="M14486 21600 L14514 21621" /> 
<path d="M14514 21621 L14543 21664" /> 
<path d="M14543 21664 L14543 21771" /> 
<path d="M14543 21771 L14514 21814" /> 
<path d="M14514 21814 L14486 21835" /> 
<g style = "stroke-linecap:round;" > 
<path d="M14486 21835 L14486 21835" /> 
</g><path d="M14543 21363 L14543 21278" /> 
<path d="M14543 21278 L14514 21235" /> 
<path d="M14514 21235 L14486 21213" /> 
<path d="M14486 21213 L14400 21171" /> 
<path d="M14400 21171 L14286 21149" /> 
<path d="M14286 21149 L14057 21149" /> 
<path d="M14057 21149 L14000 21171" /> 
<path d="M14000 21171 L13971 21192" /> 
<path d="M13971 21192 L13943 21235" /> 
<path d="M13943 21235 L13943 21321" /> 
<path d="M13943 21321 L13971 21363" /> 
<path d="M13971 21363 L14000 21385" /> 
<path d="M14000 21385 L14057 21406" /> 
<path d="M14057 21406 L14200 21406" /> 
<path d="M14200 21406 L14257 21385" /> 
<path d="M14257 21385 L14286 21363" /> 
<path d="M14286 21363 L14314 21321" /> 
<path d="M14314 21321 L14314 21235" /> 
<path d="M14314 21235 L14286 21192" /> 
<path d="M14286 21192 L14257 21171" /> 
<path d="M14257 21171 L14200 21149" /> 
<g style = "stroke-linecap:round;" > 
<path d="M14200 21149 L14200 21149" /> 
</g><path d="M13943 20742 L13943 20956" /> 
<path d="M13943 20956 L14229 20977" /> 
<path d="M14229 20977 L14200 20956" /> 
<path d="M14200 20956 L14171 20913" /> 
<path d="M14171 20913 L14171 20806" /> 
<path d="M14171 20806 L14200 20763" /> 
<path d="M14200 20763 L14229 20742" /> 
<path d="M14229 20742 L14286 20720" /> 
<path d="M14286 20720 L14429 20720" /> 
<path d="M14429 20720 L14486 20742" /> 
<path d="M14486 20742 L14514 20763" /> 
<path d="M14514 20763 L14543 20806" /> 
<path d="M14543 20806 L14543 20913" /> 
<path d="M14543 20913 L14514 20956" /> 
<path d="M14514 20956 L14486 20977" /> 
<g style = "stroke-linecap:round;" > 
<path d="M14486 20977 L14486 20977" /> 
</g><path d="M14600 20634 L14600 20291" /> 
<g style = "stroke-linecap:round;" > 
<path d="M14600 20291 L14600 20291" /> 
</g><path d="M14543 20184 L13943 20184" /> 
<path d="M13943 20184 L13943 20012" /> 
<path d="M13943 20012 L13971 19970" /> 
<path d="M13971 19970 L14000 19948" /> 
<path d="M14000 19948 L14057 19927" /> 
<path d="M14057 19927 L14143 19927" /> 
<path d="M14143 19927 L14200 19948" /> 
<path d="M14200 19948 L14229 19970" /> 
<path d="M14229 19970 L14257 20012" /> 
<path d="M14257 20012 L14257 20184" /> 
<g style = "stroke-linecap:round;" > 
<path d="M14257 20184 L14257 20184" /> 
</g><path d="M13943 19648 L13943 19562" /> 
<path d="M13943 19562 L13971 19520" /> 
<path d="M13971 19520 L14029 19477" /> 
<path d="M14029 19477 L14143 19455" /> 
<path d="M14143 19455 L14343 19455" /> 
<path d="M14343 19455 L14457 19477" /> 
<path d="M14457 19477 L14514 19520" /> 
<path d="M14514 19520 L14543 19562" /> 
<path d="M14543 19562 L14543 19648" /> 
<path d="M14543 19648 L14514 19691" /> 
<path d="M14514 19691 L14457 19734" /> 
<path d="M14457 19734 L14343 19755" /> 
<path d="M14343 19755 L14143 19755" /> 
<path d="M14143 19755 L14029 19734" /> 
<path d="M14029 19734 L13971 19691" /> 
<path d="M13971 19691 L13943 19648" /> 
<path d="M13943 19306 L14543 19199" /> 
<path d="M14543 19199 L14114 19113" /> 
<path d="M14114 19113 L14543 19027" /> 
<path d="M14543 19027 L13943 18920" /> 
<g style = "stroke-linecap:round;" > 
<path d="M13943 18920 L13943 18920" /> 
</g><path d="M14229 18749 L14229 18599" /> 
<g style = "stroke-linecap:round;" > 
<path d="M14229 18599 L14229 18599" /> 
</g><path d="M14543 18535 L14543 18749" /> 
<path d="M14543 18749 L13943 18749" /> 
<path d="M13943 18749 L13943 18535" /> 
<g style = "stroke-linecap:round;" > 
<path d="M13943 18535 L13943 18535" /> 
</g><path d="M14543 18085 L14257 18235" /> 
<g style = "stroke-linecap:round;" > 
<path d="M14257 18235 L14257 18235" /> 
</g><path d="M14543 18342 L13943 18342" /> 
<path d="M13943 18342 L13943 18170" /> 
<path d="M13943 18170 L13971 18128" /> 
<path d="M13971 18128 L14000 18106" /> 
<path d="M14000 18106 L14057 18085" /> 
<path d="M14057 18085 L14143 18085" /> 
<path d="M14143 18085 L14200 18106" /> 
<path d="M14200 18106 L14229 18128" /> 
<path d="M14229 18128 L14257 18170" /> 
<path d="M14257 18170 L14257 18342" /> 
<g style = "stroke-linecap:round;" > 
<path d="M14257 18342 L14257 18342" /> 
</g></g>
<g style="fill:#C0C0C0; fill-opacity:0.0; stroke:#00A0A0; stroke-opacity:1.00; stroke-linecap:round; stroke-linejoin:round; stroke-width:150" 
   transform="translate(0.00 0.00) scale(1.00 1.00)">
<path d="M13300 25850 L13300 25850" /> 
<path d="M13300 25850 L13300 25350" /> 
<path d="M13300 25350 L14300 25350" /> 
<path d="M14300 25350 L14300 25850" /> 
<path d="M12800 25850 L12800 16850" /> 
<path d="M12800 16850 L14800 16850" /> 
<path d="M14800 16850 L14800 25850" /> 
<path d="M14800 25850 L12800 25850" /> 
</g>
<g style="fill:#808000; fill-opacity:0.0; stroke:#808000; stroke-opacity:1.00; stroke-linecap:round; stroke-linejoin:round; stroke-width:60" 
   transform="translate(0.00 0.00) scale(1.00 1.00)">
<path d="M13625 15375 L14375 15375" /> 
<path d="M14375 15375 L14375 16125" /> 
<path d="M14375 16125 L13625 16125" /> 
<path d="M13625 15375 L13625 16125" /> 
<ellipse cx="14000" cy="14750" rx="375" ry="375"  /> 
<ellipse cx="13000" cy="14750" rx="375" ry="375"  /> 
</g>
<g style="fill:#808000; fill-opacity:0.0; stroke:#0000C0; stroke-opacity:1.00; stroke-linecap:round; stroke-linejoin:round; stroke-width:0" 
   transform="translate(0.00 0.00) scale(1.00 1.00)">
<path d="M12948 16100 L12952 16100" /> 
<path d="M12950 16098 L12950 16102" /> 
</g>
<g style="fill:#C0C0C0; fill-opacity:0.0; stroke:#C0C0C0; stroke-opacity:1.00; stroke-linecap:round; stroke-linejoin:round; stroke-width:80" 
   transform="translate(0.00 0.00) scale(1.00 1.00)">
<path d="M13150 16138 L13131 16176" /> 
<path d="M13131 16176 L13093 16214" /> 
<path d="M13093 16214 L13036 16271" /> 
<path d="M13036 16271 L13017 16310" /> 
<path d="M13017 16310 L13017 16348" /> 
<g style = "stroke-linecap:round;" > 
<path d="M13017 16348 L13017 16348" /> 
</g><path d="M13112 16329 L13093 16367" /> 
<path d="M13093 16367 L13055 16405" /> 
<path d="M13055 16405 L12979 16424" /> 
<path d="M12979 16424 L12845 16424" /> 
<path d="M12845 16424 L12769 16405" /> 
<path d="M12769 16405 L12731 16367" /> 
<path d="M12731 16367 L12712 16329" /> 
<path d="M12712 16329 L12712 16252" /> 
<path d="M12712 16252 L12731 16214" /> 
<path d="M12731 16214 L12769 16176" /> 
<path d="M12769 16176 L12845 16157" /> 
<path d="M12845 16157 L12979 16157" /> 
<path d="M12979 16157 L13055 16176" /> 
<path d="M13055 16176 L13093 16214" /> 
<path d="M13093 16214 L13112 16252" /> 
<path d="M13112 16252 L13112 16329" /> 
<path d="M13112 15776 L13112 16005" /> 
<g style = "stroke-linecap:round;" > 
<path d="M13112 16005 L13112 16005" /> 
</g><path d="M13112 15891 L12712 15891" /> 
<path d="M12712 15891 L12769 15929" /> 
<path d="M12769 15929 L12807 15967" /> 
<path d="M12807 15967 L12826 16005" /> 
<g style = "stroke-linecap:round;" > 
<path d="M12826 16005 L12826 16005" /> 
</g></g>
<g style="fill:#C0C0C0; fill-opacity:0.0; stroke:#0000C0; stroke-opacity:1.00; stroke-linecap:round; stroke-linejoin:round; stroke-width:0" 
   transform="translate(0.00 0.00) scale(1.00 1.00)">
<path d="M14748 15050 L14752 15050" /> 
<path d="M14750 15048 L14750 15052" /> 
</g>
<g style="fill:#C0C0C0; fill-opacity:0.0; stroke:#C0C0C0; stroke-opacity:1.00; stroke-linecap:round; stroke-linejoin:round; stroke-width:80" 
   transform="translate(0.00 0.00) scale(1.00 1.00)">
<path d="M14912 15574 L14512 15574" /> 
<path d="M14512 15574 L14912 15345" /> 
<path d="M14912 15345 L14512 15345" /> 
<g style = "stroke-linecap:round;" > 
<path d="M14512 15345 L14512 15345" /> 
</g><path d="M14912 15155 L14512 15155" /> 
<path d="M14512 15155 L14512 15002" /> 
<path d="M14512 15002 L14531 14964" /> 
<path d="M14531 14964 L14550 14945" /> 
<path d="M14550 14945 L14588 14926" /> 
<path d="M14588 14926 L14645 14926" /> 
<path d="M14645 14926 L14683 14945" /> 
<path d="M14683 14945 L14702 14964" /> 
<path d="M14702 14964 L14721 15002" /> 
<path d="M14721 15002 L14721 15155" /> 
<g style = "stroke-linecap:round;" > 
<path d="M14721 15155 L14721 15155" /> 
</g><path d="M14912 14755 L14512 14755" /> 
<path d="M14512 14755 L14912 14526" /> 
<path d="M14912 14526 L14512 14526" /> 
<g style = "stroke-linecap:round;" > 
<path d="M14512 14526 L14512 14526" /> 
</g></g>
<g style="fill:#C0C0C0; fill-opacity:0.0; stroke:#00A0A0; stroke-opacity:1.00; stroke-linecap:round; stroke-linejoin:round; stroke-width:120" 
   transform="translate(0.00 0.00) scale(1.00 1.00)">
<path d="M12500 14750 L14000 16250" /> 
<path d="M14000 16250 L14500 16250" /> 
<path d="M14500 16250 L15000 15750" /> 
<path d="M15000 15750 L15000 14750" /> 
<path d="M15000 14750 L14000 13750" /> 
<path d="M14000 13750 L13000 13750" /> 
<path d="M13000 13750 L12500 14250" /> 
<path d="M12500 14250 L12500 14750" /> 
</g>
<g style="fill:#808000; fill-opacity:0.0; stroke:#808000; stroke-opacity:1.00; stroke-linecap:round; stroke-linejoin:round; stroke-width:60" 
   transform="translate(0.00 0.00) scale(1.00 1.00)">
<ellipse cx="11750" cy="16500" rx="400" ry="400"  /> 
<ellipse cx="11750" cy="13500" rx="400" ry="400"  /> 
</g>
<g style="fill:#808000; fill-opacity:0.0; stroke:#0000C0; stroke-opacity:1.00; stroke-linecap:round; stroke-linejoin:round; stroke-width:0" 
   transform="translate(0.00 0.00) scale(1.00 1.00)">
<path d="M11748 15000 L11752 15000" /> 
<path d="M11750 14998 L11750 15002" /> 
</g>
<g style="fill:#C0C0C0; fill-opacity:0.0; stroke:#C0C0C0; stroke-opacity:1.00; stroke-linecap:round; stroke-linejoin:round; stroke-width:80" 
   transform="translate(0.00 0.00) scale(1.00 1.00)">
<path d="M11973 15083 L11711 15250" /> 
<g style = "stroke-linecap:round;" > 
<path d="M11711 15250 L11711 15250" /> 
</g><path d="M11973 15369 L11423 15369" /> 
<path d="M11423 15369 L11423 15178" /> 
<path d="M11423 15178 L11449 15131" /> 
<path d="M11449 15131 L11475 15107" /> 
<path d="M11475 15107 L11527 15083" /> 
<path d="M11527 15083 L11606 15083" /> 
<path d="M11606 15083 L11658 15107" /> 
<path d="M11658 15107 L11685 15131" /> 
<path d="M11685 15131 L11711 15178" /> 
<path d="M11711 15178 L11711 15369" /> 
<g style = "stroke-linecap:round;" > 
<path d="M11711 15369 L11711 15369" /> 
</g><path d="M11973 14607 L11973 14893" /> 
<g style = "stroke-linecap:round;" > 
<path d="M11973 14893 L11973 14893" /> 
</g><path d="M11973 14750 L11423 14750" /> 
<path d="M11423 14750 L11501 14798" /> 
<path d="M11501 14798 L11554 14845" /> 
<path d="M11554 14845 L11580 14893" /> 
<g style = "stroke-linecap:round;" > 
<path d="M11580 14893 L11580 14893" /> 
</g></g>
<g style="fill:#C0C0C0; fill-opacity:0.0; stroke:#00A0A0; stroke-opacity:1.00; stroke-linecap:round; stroke-linejoin:round; stroke-width:120" 
   transform="translate(0.00 0.00) scale(1.00 1.00)">
<path d="M11750 16500 L11750 16300" /> 
<path d="M11750 13500 L11750 13700" /> 
<path d="M11750 13700 L11350 13700" /> 
<path d="M11350 13700 L11350 16300" /> 
<path d="M11350 16300 L12150 16300" /> 
<path d="M12150 16300 L12150 13700" /> 
<path d="M12150 13700 L11750 13700" /> 
<path d="M11550 16300 L11350 16100" /> 
</g>
<g style="fill:#808000; fill-opacity:0.0; stroke:#808000; stroke-opacity:1.00; stroke-linecap:round; stroke-linejoin:round; stroke-width:60" 
   transform="translate(0.00 0.00) scale(1.00 1.00)">
<ellipse cx="15250" cy="12750" rx="400" ry="400"  /> 
<ellipse cx="12250" cy="12750" rx="400" ry="400"  /> 
</g>
<g style="fill:#808000; fill-opacity:0.0; stroke:#0000C0; stroke-opacity:1.00; stroke-linecap:round; stroke-linejoin:round; stroke-width:0" 
   transform="translate(0.00 0.00) scale(1.00 1.00)">
<path d="M13748 12750 L13752 12750" /> 
<path d="M13750 12748 L13750 12752" /> 
</g>
<g style="fill:#C0C0C0; fill-opacity:0.0; stroke:#C0C0C0; stroke-opacity:1.00; stroke-linecap:round; stroke-linejoin:round; stroke-width:80" 
   transform="translate(0.00 0.00) scale(1.00 1.00)">
<path d="M13667 12973 L13500 12711" /> 
<g style = "stroke-linecap:round;" > 
<path d="M13500 12711 L13500 12711" /> 
</g><path d="M13381 12973 L13381 12423" /> 
<path d="M13381 12423 L13572 12423" /> 
<path d="M13572 12423 L13619 12449" /> 
<path d="M13619 12449 L13643 12475" /> 
<path d="M13643 12475 L13667 12527" /> 
<path d="M13667 12527 L13667 12606" /> 
<path d="M13667 12606 L13643 12658" /> 
<path d="M13643 12658 L13619 12685" /> 
<path d="M13619 12685 L13572 12711" /> 
<path d="M13572 12711 L13381 12711" /> 
<g style = "stroke-linecap:round;" > 
<path d="M13381 12711 L13381 12711" /> 
</g><path d="M13857 12475 L13881 12449" /> 
<path d="M13881 12449 L13929 12423" /> 
<path d="M13929 12423 L14048 12423" /> 
<path d="M14048 12423 L14095 12449" /> 
<path d="M14095 12449 L14119 12475" /> 
<path d="M14119 12475 L14143 12527" /> 
<path d="M14143 12527 L14143 12580" /> 
<path d="M14143 12580 L14119 12658" /> 
<path d="M14119 12658 L13833 12973" /> 
<path d="M13833 12973 L14143 12973" /> 
<g style = "stroke-linecap:round;" > 
<path d="M14143 12973 L14143 12973" /> 
</g></g>
<g style="fill:#C0C0C0; fill-opacity:0.0; stroke:#00A0A0; stroke-opacity:1.00; stroke-linecap:round; stroke-linejoin:round; stroke-width:120" 
   transform="translate(0.00 0.00) scale(1.00 1.00)">
<path d="M15250 12750 L15050 12750" /> 
<path d="M12250 12750 L12450 12750" /> 
<path d="M12450 12750 L12450 13150" /> 
<path d="M12450 13150 L15050 13150" /> 
<path d="M15050 13150 L15050 12350" /> 
<path d="M15050 12350 L12450 12350" /> 
<path d="M12450 12350 L12450 12750" /> 
<path d="M15050 12950 L14850 13150" /> 
</g>
<g style="fill:#808000; fill-opacity:0.0; stroke:#808000; stroke-opacity:1.00; stroke-linecap:round; stroke-linejoin:round; stroke-width:60" 
   transform="translate(0.00 0.00) scale(1.00 1.00)">
<path d="M15100 29650 L14300 29650" /> 
<path d="M14300 29650 L14300 28850" /> 
<path d="M14300 28850 L15100 28850" /> 
<path d="M15100 29650 L15100 28850" /> 
<ellipse cx="14700" cy="27250" rx="400" ry="400"  /> 
</g>
<g style="fill:#808000; fill-opacity:0.0; stroke:#0000C0; stroke-opacity:1.00; stroke-linecap:round; stroke-linejoin:round; stroke-width:0" 
   transform="translate(0.00 0.00) scale(1.00 1.00)">
<path d="M15698 28250 L15702 28250" /> 
<path d="M15700 28248 L15700 28252" /> 
</g>
<g style="fill:#C0C0C0; fill-opacity:0.0; stroke:#C0C0C0; stroke-opacity:1.00; stroke-linecap:round; stroke-linejoin:round; stroke-width:80" 
   transform="translate(0.00 0.00) scale(1.00 1.00)">
<path d="M15824 28316 L15843 28335" /> 
<path d="M15843 28335 L15862 28392" /> 
<path d="M15862 28392 L15862 28430" /> 
<path d="M15862 28430 L15843 28488" /> 
<path d="M15843 28488 L15805 28526" /> 
<path d="M15805 28526 L15767 28545" /> 
<path d="M15767 28545 L15690 28564" /> 
<path d="M15690 28564 L15633 28564" /> 
<path d="M15633 28564 L15557 28545" /> 
<path d="M15557 28545 L15519 28526" /> 
<path d="M15519 28526 L15481 28488" /> 
<path d="M15481 28488 L15462 28430" /> 
<path d="M15462 28430 L15462 28392" /> 
<path d="M15462 28392 L15481 28335" /> 
<path d="M15481 28335 L15500 28316" /> 
<g style = "stroke-linecap:round;" > 
<path d="M15500 28316 L15500 28316" /> 
</g><path d="M15862 27935 L15862 28164" /> 
<g style = "stroke-linecap:round;" > 
<path d="M15862 28164 L15862 28164" /> 
</g><path d="M15862 28050 L15462 28050" /> 
<path d="M15462 28050 L15519 28088" /> 
<path d="M15519 28088 L15557 28126" /> 
<path d="M15557 28126 L15576 28164" /> 
<g style = "stroke-linecap:round;" > 
<path d="M15576 28164 L15576 28164" /> 
</g></g>
<g style="fill:#C0C0C0; fill-opacity:0.0; stroke:#0000C0; stroke-opacity:1.00; stroke-linecap:round; stroke-linejoin:round; stroke-width:0" 
   transform="translate(0.00 0.00) scale(1.00 1.00)">
<path d="M13698 28250 L13702 28250" /> 
<path d="M13700 28248 L13700 28252" /> 
</g>
<g style="fill:#C0C0C0; fill-opacity:0.0; stroke:#C0C0C0; stroke-opacity:1.00; stroke-linecap:round; stroke-linejoin:round; stroke-width:80" 
   transform="translate(0.00 0.00) scale(1.00 1.00)">
<path d="M13862 28697 L13862 28926" /> 
<g style = "stroke-linecap:round;" > 
<path d="M13862 28926 L13862 28926" /> 
</g><path d="M13862 28812 L13462 28812" /> 
<path d="M13462 28812 L13519 28850" /> 
<path d="M13519 28850 L13557 28888" /> 
<path d="M13557 28888 L13576 28926" /> 
<g style = "stroke-linecap:round;" > 
<path d="M13576 28926 L13576 28926" /> 
</g><path d="M13462 28450 L13462 28411" /> 
<path d="M13462 28411 L13481 28373" /> 
<path d="M13481 28373 L13500 28354" /> 
<path d="M13500 28354 L13538 28335" /> 
<path d="M13538 28335 L13614 28316" /> 
<path d="M13614 28316 L13710 28316" /> 
<path d="M13710 28316 L13786 28335" /> 
<path d="M13786 28335 L13824 28354" /> 
<path d="M13824 28354 L13843 28373" /> 
<path d="M13843 28373 L13862 28411" /> 
<path d="M13862 28411 L13862 28450" /> 
<path d="M13862 28450 L13843 28488" /> 
<path d="M13843 28488 L13824 28507" /> 
<path d="M13824 28507 L13786 28526" /> 
<path d="M13786 28526 L13710 28545" /> 
<path d="M13710 28545 L13614 28545" /> 
<path d="M13614 28545 L13538 28526" /> 
<path d="M13538 28526 L13500 28507" /> 
<path d="M13500 28507 L13481 28488" /> 
<path d="M13481 28488 L13462 28450" /> 
<path d="M13462 28069 L13462 28030" /> 
<path d="M13462 28030 L13481 27992" /> 
<path d="M13481 27992 L13500 27973" /> 
<path d="M13500 27973 L13538 27954" /> 
<path d="M13538 27954 L13614 27935" /> 
<path d="M13614 27935 L13710 27935" /> 
<path d="M13710 27935 L13786 27954" /> 
<path d="M13786 27954 L13824 27973" /> 
<path d="M13824 27973 L13843 27992" /> 
<path d="M13843 27992 L13862 28030" /> 
<path d="M13862 28030 L13862 28069" /> 
<path d="M13862 28069 L13843 28107" /> 
<path d="M13843 28107 L13824 28126" /> 
<path d="M13824 28126 L13786 28145" /> 
<path d="M13786 28145 L13710 28164" /> 
<path d="M13710 28164 L13614 28164" /> 
<path d="M13614 28164 L13538 28145" /> 
<path d="M13538 28145 L13500 28126" /> 
<path d="M13500 28126 L13481 28107" /> 
<path d="M13481 28107 L13462 28069" /> 
<path d="M13595 27592 L13862 27592" /> 
<g style = "stroke-linecap:round;" > 
<path d="M13862 27592 L13862 27592" /> 
</g><path d="M13595 27764 L13805 27764" /> 
<path d="M13805 27764 L13843 27745" /> 
<path d="M13843 27745 L13862 27707" /> 
<path d="M13862 27707 L13862 27649" /> 
<path d="M13862 27649 L13843 27611" /> 
<path d="M13843 27611 L13824 27592" /> 
<g style = "stroke-linecap:round;" > 
<path d="M13824 27592 L13824 27592" /> 
</g></g>
<g style="fill:#00A0A0; fill-opacity:0.0; stroke:#00A0A0; stroke-opacity:1.00; stroke-linecap:round; stroke-linejoin:round; stroke-width:120" 
   transform="translate(0.00 0.00) scale(1.00 1.00)">
<ellipse cx="14700" cy="28250" rx="1750" ry="1750"  /> 
</g>
<g style="fill:#808000; fill-opacity:0.0; stroke:#808000; stroke-opacity:1.00; stroke-linecap:round; stroke-linejoin:round; stroke-width:60" 
   transform="translate(0.00 0.00) scale(1.00 1.00)">
<ellipse cx="16000" cy="16250" rx="375" ry="375"  /> 
<ellipse cx="18000" cy="16250" rx="375" ry="375"  /> 
</g>
<g style="fill:#808000; fill-opacity:0.0; stroke:#0000C0; stroke-opacity:1.00; stroke-linecap:round; stroke-linejoin:round; stroke-width:0" 
   transform="translate(0.00 0.00) scale(1.00 1.00)">
<path d="M17173 16300 L17177 16300" /> 
<path d="M17175 16298 L17175 16302" /> 
</g>
<g style="fill:#C0C0C0; fill-opacity:0.0; stroke:#C0C0C0; stroke-opacity:1.00; stroke-linecap:round; stroke-linejoin:round; stroke-width:80" 
   transform="translate(0.00 0.00) scale(1.00 1.00)">
<path d="M17109 16424 L17090 16443" /> 
<path d="M17090 16443 L17033 16462" /> 
<path d="M17033 16462 L16995 16462" /> 
<path d="M16995 16462 L16937 16443" /> 
<path d="M16937 16443 L16899 16405" /> 
<path d="M16899 16405 L16880 16367" /> 
<path d="M16880 16367 L16861 16290" /> 
<path d="M16861 16290 L16861 16233" /> 
<path d="M16861 16233 L16880 16157" /> 
<path d="M16880 16157 L16899 16119" /> 
<path d="M16899 16119 L16937 16081" /> 
<path d="M16937 16081 L16995 16062" /> 
<path d="M16995 16062 L17033 16062" /> 
<path d="M17033 16062 L17090 16081" /> 
<path d="M17090 16081 L17109 16100" /> 
<g style = "stroke-linecap:round;" > 
<path d="M17109 16100 L17109 16100" /> 
</g><path d="M17261 16100 L17280 16081" /> 
<path d="M17280 16081 L17318 16062" /> 
<path d="M17318 16062 L17414 16062" /> 
<path d="M17414 16062 L17452 16081" /> 
<path d="M17452 16081 L17471 16100" /> 
<path d="M17471 16100 L17490 16138" /> 
<path d="M17490 16138 L17490 16176" /> 
<path d="M17490 16176 L17471 16233" /> 
<path d="M17471 16233 L17242 16462" /> 
<path d="M17242 16462 L17490 16462" /> 
<g style = "stroke-linecap:round;" > 
<path d="M17490 16462 L17490 16462" /> 
</g></g>
<g style="fill:#C0C0C0; fill-opacity:0.0; stroke:#00A0A0; stroke-opacity:1.00; stroke-linecap:round; stroke-linejoin:round; stroke-width:150" 
   transform="translate(0.00 0.00) scale(1.00 1.00)">
<path d="M15500 15750 L15500 16750" /> 
<path d="M15500 16750 L18500 16750" /> 
<path d="M18500 16750 L18500 15750" /> 
<path d="M18500 15750 L15500 15750" /> 
</g>
<g style="fill:#C0C0C0; fill-opacity:0.0; stroke:#00A0A0; stroke-opacity:1.00; stroke-linecap:round; stroke-linejoin:round; stroke-width:120" 
   transform="translate(0.00 0.00) scale(1.00 1.00)">
<path d="M15500 16000 L15750 15750" /> 
</g>
<g style="fill:#808000; fill-opacity:0.0; stroke:#808000; stroke-opacity:1.00; stroke-linecap:round; stroke-linejoin:round; stroke-width:60" 
   transform="translate(0.00 0.00) scale(1.00 1.00)">
<path d="M16350 18540 L17250 18540" /> 
<path d="M17250 18540 L17250 19160" /> 
<path d="M17250 19160 L16350 19160" /> 
<path d="M16350 18540 L16350 19160" /> 
<path d="M16940 20160 L16660 20160" /> 
<path d="M16940 19540 L16660 19540" /> 
<path d="M16940 20160 A310.00 310.00 0.0 0 0 16940 19540 L16940 19850 z  " /> 
<path d="M16660 19540 A310.00 310.00 0.0 0 0 16660 20160 L16660 19850 z  " /> 
<path d="M16940 21160 L16660 21160" /> 
<path d="M16940 20540 L16660 20540" /> 
<path d="M16940 21160 A310.00 310.00 0.0 0 0 16940 20540 L16940 20850 z  " /> 
<path d="M16660 20540 A310.00 310.00 0.0 0 0 16660 21160 L16660 20850 z  " /> 
<path d="M16940 22160 L16660 22160" /> 
<path d="M16940 21540 L16660 21540" /> 
<path d="M16940 22160 A310.00 310.00 0.0 0 0 16940 21540 L16940 21850 z  " /> 
<path d="M16660 21540 A310.00 310.00 0.0 0 0 16660 22160 L16660 21850 z  " /> 
<path d="M16940 23160 L16660 23160" /> 
<path d="M16940 22540 L16660 22540" /> 
<path d="M16940 23160 A310.00 310.00 0.0 0 0 16940 22540 L16940 22850 z  " /> 
<path d="M16660 22540 A310.00 310.00 0.0 0 0 16660 23160 L16660 22850 z  " /> 
<path d="M16940 24160 L16660 24160" /> 
<path d="M16940 23540 L16660 23540" /> 
<path d="M16940 24160 A310.00 310.00 0.0 0 0 16940 23540 L16940 23850 z  " /> 
<path d="M16660 23540 A310.00 310.00 0.0 0 0 16660 24160 L16660 23850 z  " /> 
<path d="M16940 25160 L16660 25160" /> 
<path d="M16940 24540 L16660 24540" /> 
<path d="M16940 25160 A310.00 310.00 0.0 0 0 16940 24540 L16940 24850 z  " /> 
<path d="M16660 24540 A310.00 310.00 0.0 0 0 16660 25160 L16660 24850 z  " /> 
<path d="M16940 26160 L16660 26160" /> 
<path d="M16940 25540 L16660 25540" /> 
<path d="M16940 26160 A310.00 310.00 0.0 0 0 16940 25540 L16940 25850 z  " /> 
<path d="M16660 25540 A310.00 310.00 0.0 0 0 16660 26160 L16660 25850 z  " /> 
<path d="M19940 26160 L19660 26160" /> 
<path d="M19940 25540 L19660 25540" /> 
<path d="M19940 26160 A310.00 310.00 0.0 0 0 19940 25540 L19940 25850 z  " /> 
<path d="M19660 25540 A310.00 310.00 0.0 0 0 19660 26160 L19660 25850 z  " /> 
<path d="M19940 25160 L19660 25160" /> 
<path d="M19940 24540 L19660 24540" /> 
<path d="M19940 25160 A310.00 310.00 0.0 0 0 19940 24540 L19940 24850 z  " /> 
<path d="M19660 24540 A310.00 310.00 0.0 0 0 19660 25160 L19660 24850 z  " /> 
<path d="M19940 24160 L19660 24160" /> 
<path d="M19940 23540 L19660 23540" /> 
<path d="M19940 24160 A310.00 310.00 0.0 0 0 19940 23540 L19940 23850 z  " /> 
<path d="M19660 23540 A310.00 310.00 0.0 0 0 19660 24160 L19660 23850 z  " /> 
<path d="M19940 23160 L19660 23160" /> 
<path d="M19940 22540 L19660 22540" /> 
<path d="M19940 23160 A310.00 310.00 0.0 0 0 19940 22540 L19940 22850 z  " /> 
<path d="M19660 22540 A310.00 310.00 0.0 0 0 19660 23160 L19660 22850 z  " /> 
<path d="M19940 22160 L19660 22160" /> 
<path d="M19940 21540 L19660 21540" /> 
<path d="M19940 22160 A310.00 310.00 0.0 0 0 19940 21540 L19940 21850 z  " /> 
<path d="M19660 21540 A310.00 310.00 0.0 0 0 19660 22160 L19660 21850 z  " /> 
<path d="M19940 21160 L19660 21160" /> 
<path d="M19940 20540 L19660 20540" /> 
<path d="M19940 21160 A310.00 310.00 0.0 0 0 19940 20540 L19940 20850 z  " /> 
<path d="M19660 20540 A310.00 310.00 0.0 0 0 19660 21160 L19660 20850 z  " /> 
<path d="M19940 20160 L19660 20160" /> 
<path d="M19940 19540 L19660 19540" /> 
<path d="M19940 20160 A310.00 310.00 0.0 0 0 19940 19540 L19940 19850 z  " /> 
<path d="M19660 19540 A310.00 310.00 0.0 0 0 19660 20160 L19660 19850 z  " /> 
<path d="M19940 19160 L19660 19160" /> 
<path d="M19940 18540 L19660 18540" /> 
<path d="M19940 19160 A310.00 310.00 0.0 0 0 19940 18540 L19940 18850 z  " /> 
<path d="M19660 18540 A310.00 310.00 0.0 0 0 19660 19160 L19660 18850 z  " /> 
</g>
<g style="fill:#808000; fill-opacity:0.0; stroke:#0000C0; stroke-opacity:1.00; stroke-linecap:round; stroke-linejoin:round; stroke-width:0" 
   transform="translate(0.00 0.00) scale(1.00 1.00)">
<path d="M18798 19850 L18802 19850" /> 
<path d="M18800 19848 L18800 19852" /> 
</g>
<g style="fill:#C0C0C0; fill-opacity:0.0; stroke:#C0C0C0; stroke-opacity:1.00; stroke-linecap:round; stroke-linejoin:round; stroke-width:113" 
   transform="translate(0.00 0.00) scale(1.00 1.00)">
<path d="M19043 20289 L18443 20289" /> 
<g style = "stroke-linecap:round;" > 
<path d="M18443 20289 L18443 20289" /> 
</g><path d="M18986 19818 L19014 19839" /> 
<path d="M19014 19839 L19043 19903" /> 
<path d="M19043 19903 L19043 19946" /> 
<path d="M19043 19946 L19014 20011" /> 
<path d="M19014 20011 L18957 20053" /> 
<path d="M18957 20053 L18900 20075" /> 
<path d="M18900 20075 L18786 20096" /> 
<path d="M18786 20096 L18700 20096" /> 
<path d="M18700 20096 L18586 20075" /> 
<path d="M18586 20075 L18529 20053" /> 
<path d="M18529 20053 L18471 20011" /> 
<path d="M18471 20011 L18443 19946" /> 
<path d="M18443 19946 L18443 19903" /> 
<path d="M18443 19903 L18471 19839" /> 
<path d="M18471 19839 L18500 19818" /> 
<g style = "stroke-linecap:round;" > 
<path d="M18500 19818 L18500 19818" /> 
</g><path d="M19043 19389 L19043 19646" /> 
<g style = "stroke-linecap:round;" > 
<path d="M19043 19646 L19043 19646" /> 
</g><path d="M19043 19518 L18443 19518" /> 
<path d="M18443 19518 L18529 19561" /> 
<path d="M18529 19561 L18586 19603" /> 
<path d="M18586 19603 L18614 19646" /> 
<g style = "stroke-linecap:round;" > 
<path d="M18614 19646 L18614 19646" /> 
</g></g>
<g style="fill:#C0C0C0; fill-opacity:0.0; stroke:#0000C0; stroke-opacity:1.00; stroke-linecap:round; stroke-linejoin:round; stroke-width:0" 
   transform="translate(0.00 0.00) scale(1.00 1.00)">
<path d="M17798 22850 L17802 22850" /> 
<path d="M17800 22848 L17800 22852" /> 
</g>
<g style="fill:#C0C0C0; fill-opacity:0.0; stroke:#C0C0C0; stroke-opacity:1.00; stroke-linecap:round; stroke-linejoin:round; stroke-width:113" 
   transform="translate(0.00 0.00) scale(1.00 1.00)">
<path d="M17443 24672 L17929 24672" /> 
<path d="M17929 24672 L17986 24650" /> 
<path d="M17986 24650 L18014 24629" /> 
<path d="M18014 24629 L18043 24586" /> 
<path d="M18043 24586 L18043 24500" /> 
<path d="M18043 24500 L18014 24458" /> 
<path d="M18014 24458 L17986 24436" /> 
<path d="M17986 24436 L17929 24415" /> 
<path d="M17929 24415 L17443 24415" /> 
<g style = "stroke-linecap:round;" > 
<path d="M17443 24415 L17443 24415" /> 
</g><path d="M18043 23987 L18043 24201" /> 
<path d="M18043 24201 L17443 24201" /> 
<g style = "stroke-linecap:round;" > 
<path d="M17443 24201 L17443 24201" /> 
</g><path d="M18043 23837 L17443 23837" /> 
<path d="M17443 23837 L18043 23580" /> 
<path d="M18043 23580 L17443 23580" /> 
<g style = "stroke-linecap:round;" > 
<path d="M17443 23580 L17443 23580" /> 
</g><path d="M17500 23387 L17471 23366" /> 
<path d="M17471 23366 L17443 23323" /> 
<path d="M17443 23323 L17443 23216" /> 
<path d="M17443 23216 L17471 23173" /> 
<path d="M17471 23173 L17500 23152" /> 
<path d="M17500 23152 L17557 23130" /> 
<path d="M17557 23130 L17614 23130" /> 
<path d="M17614 23130 L17700 23152" /> 
<path d="M17700 23152 L18043 23409" /> 
<path d="M18043 23409 L18043 23130" /> 
<g style = "stroke-linecap:round;" > 
<path d="M18043 23130 L18043 23130" /> 
</g><path d="M17443 22851 L17443 22808" /> 
<path d="M17443 22808 L17471 22765" /> 
<path d="M17471 22765 L17500 22744" /> 
<path d="M17500 22744 L17557 22723" /> 
<path d="M17557 22723 L17671 22701" /> 
<path d="M17671 22701 L17814 22701" /> 
<path d="M17814 22701 L17929 22723" /> 
<path d="M17929 22723 L17986 22744" /> 
<path d="M17986 22744 L18014 22765" /> 
<path d="M18014 22765 L18043 22808" /> 
<path d="M18043 22808 L18043 22851" /> 
<path d="M18043 22851 L18014 22894" /> 
<path d="M18014 22894 L17986 22915" /> 
<path d="M17986 22915 L17929 22937" /> 
<path d="M17929 22937 L17814 22958" /> 
<path d="M17814 22958 L17671 22958" /> 
<path d="M17671 22958 L17557 22937" /> 
<path d="M17557 22937 L17500 22915" /> 
<path d="M17500 22915 L17471 22894" /> 
<path d="M17471 22894 L17443 22851" /> 
<path d="M17443 22422 L17443 22379" /> 
<path d="M17443 22379 L17471 22336" /> 
<path d="M17471 22336 L17500 22315" /> 
<path d="M17500 22315 L17557 22294" /> 
<path d="M17557 22294 L17671 22272" /> 
<path d="M17671 22272 L17814 22272" /> 
<path d="M17814 22272 L17929 22294" /> 
<path d="M17929 22294 L17986 22315" /> 
<path d="M17986 22315 L18014 22336" /> 
<path d="M18014 22336 L18043 22379" /> 
<path d="M18043 22379 L18043 22422" /> 
<path d="M18043 22422 L18014 22465" /> 
<path d="M18014 22465 L17986 22486" /> 
<path d="M17986 22486 L17929 22508" /> 
<path d="M17929 22508 L17814 22529" /> 
<path d="M17814 22529 L17671 22529" /> 
<path d="M17671 22529 L17557 22508" /> 
<path d="M17557 22508 L17500 22486" /> 
<path d="M17500 22486 L17471 22465" /> 
<path d="M17471 22465 L17443 22422" /> 
<path d="M17443 22122 L17443 21843" /> 
<path d="M17443 21843 L17671 21993" /> 
<path d="M17671 21993 L17671 21929" /> 
<path d="M17671 21929 L17700 21886" /> 
<path d="M17700 21886 L17729 21865" /> 
<path d="M17729 21865 L17786 21843" /> 
<path d="M17786 21843 L17929 21843" /> 
<path d="M17929 21843 L17986 21865" /> 
<path d="M17986 21865 L18014 21886" /> 
<path d="M18014 21886 L18043 21929" /> 
<path d="M18043 21929 L18043 22057" /> 
<path d="M18043 22057 L18014 22100" /> 
<path d="M18014 22100 L17986 22122" /> 
<g style = "stroke-linecap:round;" > 
<path d="M17986 22122 L17986 22122" /> 
</g><path d="M17871 21671 L17871 21457" /> 
<g style = "stroke-linecap:round;" > 
<path d="M17871 21457 L17871 21457" /> 
</g><path d="M18043 21714 L17443 21564" /> 
<path d="M17443 21564 L18043 21414" /> 
<g style = "stroke-linecap:round;" > 
<path d="M18043 21414 L18043 21414" /> 
</g><path d="M18043 21264 L17443 21264" /> 
<path d="M17443 21264 L17443 21157" /> 
<path d="M17443 21157 L17471 21092" /> 
<path d="M17471 21092 L17529 21050" /> 
<path d="M17529 21050 L17586 21028" /> 
<path d="M17586 21028 L17700 21007" /> 
<path d="M17700 21007 L17786 21007" /> 
<path d="M17786 21007 L17900 21028" /> 
<path d="M17900 21028 L17957 21050" /> 
<path d="M17957 21050 L18014 21092" /> 
<path d="M18014 21092 L18043 21157" /> 
<path d="M18043 21157 L18043 21264" /> 
</g>
<g style="fill:#C0C0C0; fill-opacity:0.0; stroke:#00A0A0; stroke-opacity:1.00; stroke-linecap:round; stroke-linejoin:round; stroke-width:150" 
   transform="translate(0.00 0.00) scale(1.00 1.00)">
<path d="M18800 17850 L18800 17850" /> 
<path d="M18800 17850 L18800 18350" /> 
<path d="M18800 18350 L17800 18350" /> 
<path d="M17800 18350 L17800 17850" /> 
<path d="M19300 17850 L19300 26850" /> 
<path d="M19300 26850 L17300 26850" /> 
<path d="M17300 26850 L17300 17850" /> 
<path d="M17300 17850 L19300 17850" /> 
</g>
<g style="fill:#808000; fill-opacity:0.0; stroke:#808000; stroke-opacity:1.00; stroke-linecap:round; stroke-linejoin:round; stroke-width:60" 
   transform="translate(0.00 0.00) scale(1.00 1.00)">
<ellipse cx="24750" cy="11250" rx="689" ry="689"  /> 
<ellipse cx="12000" cy="11250" rx="689" ry="689"  /> 
<ellipse cx="14500" cy="36750" rx="689" ry="689"  /> 
<ellipse cx="21750" cy="36750" rx="689" ry="689"  /> 
<ellipse cx="21250" cy="19000" rx="400" ry="400"  /> 
<ellipse cx="24250" cy="19000" rx="400" ry="400"  /> 
</g>
<g style="fill:#808000; fill-opacity:0.0; stroke:#0000C0; stroke-opacity:1.00; stroke-linecap:round; stroke-linejoin:round; stroke-width:0" 
   transform="translate(0.00 0.00) scale(1.00 1.00)">
<path d="M22748 19000 L22752 19000" /> 
<path d="M22750 18998 L22750 19002" /> 
</g>
<g style="fill:#C0C0C0; fill-opacity:0.0; stroke:#C0C0C0; stroke-opacity:1.00; stroke-linecap:round; stroke-linejoin:round; stroke-width:80" 
   transform="translate(0.00 0.00) scale(1.00 1.00)">
<path d="M22667 19223 L22500 18961" /> 
<g style = "stroke-linecap:round;" > 
<path d="M22500 18961 L22500 18961" /> 
</g><path d="M22381 19223 L22381 18673" /> 
<path d="M22381 18673 L22572 18673" /> 
<path d="M22572 18673 L22619 18699" /> 
<path d="M22619 18699 L22643 18725" /> 
<path d="M22643 18725 L22667 18777" /> 
<path d="M22667 18777 L22667 18856" /> 
<path d="M22667 18856 L22643 18908" /> 
<path d="M22643 18908 L22619 18935" /> 
<path d="M22619 18935 L22572 18961" /> 
<path d="M22572 18961 L22381 18961" /> 
<g style = "stroke-linecap:round;" > 
<path d="M22381 18961 L22381 18961" /> 
</g><path d="M23095 18673 L23000 18673" /> 
<path d="M23000 18673 L22952 18699" /> 
<path d="M22952 18699 L22929 18725" /> 
<path d="M22929 18725 L22881 18804" /> 
<path d="M22881 18804 L22857 18908" /> 
<path d="M22857 18908 L22857 19118" /> 
<path d="M22857 19118 L22881 19170" /> 
<path d="M22881 19170 L22905 19196" /> 
<path d="M22905 19196 L22952 19223" /> 
<path d="M22952 19223 L23048 19223" /> 
<path d="M23048 19223 L23095 19196" /> 
<path d="M23095 19196 L23119 19170" /> 
<path d="M23119 19170 L23143 19118" /> 
<path d="M23143 19118 L23143 18987" /> 
<path d="M23143 18987 L23119 18935" /> 
<path d="M23119 18935 L23095 18908" /> 
<path d="M23095 18908 L23048 18882" /> 
<path d="M23048 18882 L22952 18882" /> 
<path d="M22952 18882 L22905 18908" /> 
<path d="M22905 18908 L22881 18935" /> 
<path d="M22881 18935 L22857 18987" /> 
<g style = "stroke-linecap:round;" > 
<path d="M22857 18987 L22857 18987" /> 
</g></g>
<g style="fill:#C0C0C0; fill-opacity:0.0; stroke:#00A0A0; stroke-opacity:1.00; stroke-linecap:round; stroke-linejoin:round; stroke-width:120" 
   transform="translate(0.00 0.00) scale(1.00 1.00)">
<path d="M21250 19000 L21450 19000" /> 
<path d="M24250 19000 L24050 19000" /> 
<path d="M24050 19000 L24050 18600" /> 
<path d="M24050 18600 L21450 18600" /> 
<path d="M21450 18600 L21450 19400" /> 
<path d="M21450 19400 L24050 19400" /> 
<path d="M24050 19400 L24050 19000" /> 
<path d="M21450 18800 L21650 18600" /> 
</g>
<g style="fill:#808000; fill-opacity:0.0; stroke:#808000; stroke-opacity:1.00; stroke-linecap:round; stroke-linejoin:round; stroke-width:60" 
   transform="translate(0.00 0.00) scale(1.00 1.00)">
<ellipse cx="21250" cy="20000" rx="400" ry="400"  /> 
<ellipse cx="24250" cy="20000" rx="400" ry="400"  /> 
</g>
<g style="fill:#808000; fill-opacity:0.0; stroke:#0000C0; stroke-opacity:1.00; stroke-linecap:round; stroke-linejoin:round; stroke-width:0" 
   transform="translate(0.00 0.00) scale(1.00 1.00)">
<path d="M22748 20000 L22752 20000" /> 
<path d="M22750 19998 L22750 20002" /> 
</g>
<g style="fill:#C0C0C0; fill-opacity:0.0; stroke:#C0C0C0; stroke-opacity:1.00; stroke-linecap:round; stroke-linejoin:round; stroke-width:80" 
   transform="translate(0.00 0.00) scale(1.00 1.00)">
<path d="M22667 20223 L22500 19961" /> 
<g style = "stroke-linecap:round;" > 
<path d="M22500 19961 L22500 19961" /> 
</g><path d="M22381 20223 L22381 19673" /> 
<path d="M22381 19673 L22572 19673" /> 
<path d="M22572 19673 L22619 19699" /> 
<path d="M22619 19699 L22643 19725" /> 
<path d="M22643 19725 L22667 19777" /> 
<path d="M22667 19777 L22667 19856" /> 
<path d="M22667 19856 L22643 19908" /> 
<path d="M22643 19908 L22619 19935" /> 
<path d="M22619 19935 L22572 19961" /> 
<path d="M22572 19961 L22381 19961" /> 
<g style = "stroke-linecap:round;" > 
<path d="M22381 19961 L22381 19961" /> 
</g><path d="M22833 19673 L23167 19673" /> 
<path d="M23167 19673 L22952 20223" /> 
<g style = "stroke-linecap:round;" > 
<path d="M22952 20223 L22952 20223" /> 
</g></g>
<g style="fill:#C0C0C0; fill-opacity:0.0; stroke:#00A0A0; stroke-opacity:1.00; stroke-linecap:round; stroke-linejoin:round; stroke-width:120" 
   transform="translate(0.00 0.00) scale(1.00 1.00)">
<path d="M21250 20000 L21450 20000" /> 
<path d="M24250 20000 L24050 20000" /> 
<path d="M24050 20000 L24050 19600" /> 
<path d="M24050 19600 L21450 19600" /> 
<path d="M21450 19600 L21450 20400" /> 
<path d="M21450 20400 L24050 20400" /> 
<path d="M24050 20400 L24050 20000" /> 
<path d="M21450 19800 L21650 19600" /> 
</g>
<g style="fill:#808000; fill-opacity:0.0; stroke:#808000; stroke-opacity:1.00; stroke-linecap:round; stroke-linejoin:round; stroke-width:60" 
   transform="translate(0.00 0.00) scale(1.00 1.00)">
<ellipse cx="21250" cy="21000" rx="400" ry="400"  /> 
<ellipse cx="24250" cy="21000" rx="400" ry="400"  /> 
</g>
<g style="fill:#808000; fill-opacity:0.0; stroke:#0000C0; stroke-opacity:1.00; stroke-linecap:round; stroke-linejoin:round; stroke-width:0" 
   transform="translate(0.00 0.00) scale(1.00 1.00)">
<path d="M22748 21000 L22752 21000" /> 
<path d="M22750 20998 L22750 21002" /> 
</g>
<g style="fill:#C0C0C0; fill-opacity:0.0; stroke:#C0C0C0; stroke-opacity:1.00; stroke-linecap:round; stroke-linejoin:round; stroke-width:80" 
   transform="translate(0.00 0.00) scale(1.00 1.00)">
<path d="M22667 21223 L22500 20961" /> 
<g style = "stroke-linecap:round;" > 
<path d="M22500 20961 L22500 20961" /> 
</g><path d="M22381 21223 L22381 20673" /> 
<path d="M22381 20673 L22572 20673" /> 
<path d="M22572 20673 L22619 20699" /> 
<path d="M22619 20699 L22643 20725" /> 
<path d="M22643 20725 L22667 20777" /> 
<path d="M22667 20777 L22667 20856" /> 
<path d="M22667 20856 L22643 20908" /> 
<path d="M22643 20908 L22619 20935" /> 
<path d="M22619 20935 L22572 20961" /> 
<path d="M22572 20961 L22381 20961" /> 
<g style = "stroke-linecap:round;" > 
<path d="M22381 20961 L22381 20961" /> 
</g><path d="M22952 20908 L22905 20882" /> 
<path d="M22905 20882 L22881 20856" /> 
<path d="M22881 20856 L22857 20804" /> 
<path d="M22857 20804 L22857 20777" /> 
<path d="M22857 20777 L22881 20725" /> 
<path d="M22881 20725 L22905 20699" /> 
<path d="M22905 20699 L22952 20673" /> 
<path d="M22952 20673 L23048 20673" /> 
<path d="M23048 20673 L23095 20699" /> 
<path d="M23095 20699 L23119 20725" /> 
<path d="M23119 20725 L23143 20777" /> 
<path d="M23143 20777 L23143 20804" /> 
<path d="M23143 20804 L23119 20856" /> 
<path d="M23119 20856 L23095 20882" /> 
<path d="M23095 20882 L23048 20908" /> 
<path d="M23048 20908 L22952 20908" /> 
<path d="M22952 20908 L22905 20935" /> 
<path d="M22905 20935 L22881 20961" /> 
<path d="M22881 20961 L22857 21013" /> 
<path d="M22857 21013 L22857 21118" /> 
<path d="M22857 21118 L22881 21170" /> 
<path d="M22881 21170 L22905 21196" /> 
<path d="M22905 21196 L22952 21223" /> 
<path d="M22952 21223 L23048 21223" /> 
<path d="M23048 21223 L23095 21196" /> 
<path d="M23095 21196 L23119 21170" /> 
<path d="M23119 21170 L23143 21118" /> 
<path d="M23143 21118 L23143 21013" /> 
<path d="M23143 21013 L23119 20961" /> 
<path d="M23119 20961 L23095 20935" /> 
<path d="M23095 20935 L23048 20908" /> 
<g style = "stroke-linecap:round;" > 
<path d="M23048 20908 L23048 20908" /> 
</g></g>
<g style="fill:#C0C0C0; fill-opacity:0.0; stroke:#00A0A0; stroke-opacity:1.00; stroke-linecap:round; stroke-linejoin:round; stroke-width:120" 
   transform="translate(0.00 0.00) scale(1.00 1.00)">
<path d="M21250 21000 L21450 21000" /> 
<path d="M24250 21000 L24050 21000" /> 
<path d="M24050 21000 L24050 20600" /> 
<path d="M24050 20600 L21450 20600" /> 
<path d="M21450 20600 L21450 21400" /> 
<path d="M21450 21400 L24050 21400" /> 
<path d="M24050 21400 L24050 21000" /> 
<path d="M21450 20800 L21650 20600" /> 
</g>
<g style="fill:#808000; fill-opacity:0.0; stroke:#808000; stroke-opacity:1.00; stroke-linecap:round; stroke-linejoin:round; stroke-width:60" 
   transform="translate(0.00 0.00) scale(1.00 1.00)">
<ellipse cx="21250" cy="22000" rx="400" ry="400"  /> 
<ellipse cx="24250" cy="22000" rx="400" ry="400"  /> 
</g>
<g style="fill:#808000; fill-opacity:0.0; stroke:#0000C0; stroke-opacity:1.00; stroke-linecap:round; stroke-linejoin:round; stroke-width:0" 
   transform="translate(0.00 0.00) scale(1.00 1.00)">
<path d="M22748 22000 L22752 22000" /> 
<path d="M22750 21998 L22750 22002" /> 
</g>
<g style="fill:#C0C0C0; fill-opacity:0.0; stroke:#C0C0C0; stroke-opacity:1.00; stroke-linecap:round; stroke-linejoin:round; stroke-width:80" 
   transform="translate(0.00 0.00) scale(1.00 1.00)">
<path d="M22667 22223 L22500 21961" /> 
<g style = "stroke-linecap:round;" > 
<path d="M22500 21961 L22500 21961" /> 
</g><path d="M22381 22223 L22381 21673" /> 
<path d="M22381 21673 L22572 21673" /> 
<path d="M22572 21673 L22619 21699" /> 
<path d="M22619 21699 L22643 21725" /> 
<path d="M22643 21725 L22667 21777" /> 
<path d="M22667 21777 L22667 21856" /> 
<path d="M22667 21856 L22643 21908" /> 
<path d="M22643 21908 L22619 21935" /> 
<path d="M22619 21935 L22572 21961" /> 
<path d="M22572 21961 L22381 21961" /> 
<g style = "stroke-linecap:round;" > 
<path d="M22381 21961 L22381 21961" /> 
</g><path d="M22905 22223 L23000 22223" /> 
<path d="M23000 22223 L23048 22196" /> 
<path d="M23048 22196 L23072 22170" /> 
<path d="M23072 22170 L23119 22092" /> 
<path d="M23119 22092 L23143 21987" /> 
<path d="M23143 21987 L23143 21777" /> 
<path d="M23143 21777 L23119 21725" /> 
<path d="M23119 21725 L23095 21699" /> 
<path d="M23095 21699 L23048 21673" /> 
<path d="M23048 21673 L22952 21673" /> 
<path d="M22952 21673 L22905 21699" /> 
<path d="M22905 21699 L22881 21725" /> 
<path d="M22881 21725 L22857 21777" /> 
<path d="M22857 21777 L22857 21908" /> 
<path d="M22857 21908 L22881 21961" /> 
<path d="M22881 21961 L22905 21987" /> 
<path d="M22905 21987 L22952 22013" /> 
<path d="M22952 22013 L23048 22013" /> 
<path d="M23048 22013 L23095 21987" /> 
<path d="M23095 21987 L23119 21961" /> 
<path d="M23119 21961 L23143 21908" /> 
<g style = "stroke-linecap:round;" > 
<path d="M23143 21908 L23143 21908" /> 
</g></g>
<g style="fill:#C0C0C0; fill-opacity:0.0; stroke:#00A0A0; stroke-opacity:1.00; stroke-linecap:round; stroke-linejoin:round; stroke-width:120" 
   transform="translate(0.00 0.00) scale(1.00 1.00)">
<path d="M21250 22000 L21450 22000" /> 
<path d="M24250 22000 L24050 22000" /> 
<path d="M24050 22000 L24050 21600" /> 
<path d="M24050 21600 L21450 21600" /> 
<path d="M21450 21600 L21450 22400" /> 
<path d="M21450 22400 L24050 22400" /> 
<path d="M24050 22400 L24050 22000" /> 
<path d="M21450 21800 L21650 21600" /> 
</g>
<g style="fill:#808000; fill-opacity:0.0; stroke:#808000; stroke-opacity:1.00; stroke-linecap:round; stroke-linejoin:round; stroke-width:60" 
   transform="translate(0.00 0.00) scale(1.00 1.00)">
<ellipse cx="21250" cy="23000" rx="400" ry="400"  /> 
<ellipse cx="24250" cy="23000" rx="400" ry="400"  /> 
</g>
<g style="fill:#808000; fill-opacity:0.0; stroke:#0000C0; stroke-opacity:1.00; stroke-linecap:round; stroke-linejoin:round; stroke-width:0" 
   transform="translate(0.00 0.00) scale(1.00 1.00)">
<path d="M22748 23000 L22752 23000" /> 
<path d="M22750 22998 L22750 23002" /> 
</g>
<g style="fill:#C0C0C0; fill-opacity:0.0; stroke:#C0C0C0; stroke-opacity:1.00; stroke-linecap:round; stroke-linejoin:round; stroke-width:80" 
   transform="translate(0.00 0.00) scale(1.00 1.00)">
<path d="M22429 23223 L22262 22961" /> 
<g style = "stroke-linecap:round;" > 
<path d="M22262 22961 L22262 22961" /> 
</g><path d="M22143 23223 L22143 22673" /> 
<path d="M22143 22673 L22334 22673" /> 
<path d="M22334 22673 L22381 22699" /> 
<path d="M22381 22699 L22405 22725" /> 
<path d="M22405 22725 L22429 22777" /> 
<path d="M22429 22777 L22429 22856" /> 
<path d="M22429 22856 L22405 22908" /> 
<path d="M22405 22908 L22381 22935" /> 
<path d="M22381 22935 L22334 22961" /> 
<path d="M22334 22961 L22143 22961" /> 
<g style = "stroke-linecap:round;" > 
<path d="M22143 22961 L22143 22961" /> 
</g><path d="M22905 23223 L22619 23223" /> 
<g style = "stroke-linecap:round;" > 
<path d="M22619 23223 L22619 23223" /> 
</g><path d="M22762 23223 L22762 22673" /> 
<path d="M22762 22673 L22714 22751" /> 
<path d="M22714 22751 L22667 22804" /> 
<path d="M22667 22804 L22619 22830" /> 
<g style = "stroke-linecap:round;" > 
<path d="M22619 22830 L22619 22830" /> 
</g><path d="M23214 22673 L23262 22673" /> 
<path d="M23262 22673 L23310 22699" /> 
<path d="M23310 22699 L23333 22725" /> 
<path d="M23333 22725 L23357 22777" /> 
<path d="M23357 22777 L23381 22882" /> 
<path d="M23381 22882 L23381 23013" /> 
<path d="M23381 23013 L23357 23118" /> 
<path d="M23357 23118 L23333 23170" /> 
<path d="M23333 23170 L23310 23196" /> 
<path d="M23310 23196 L23262 23223" /> 
<path d="M23262 23223 L23214 23223" /> 
<path d="M23214 23223 L23167 23196" /> 
<path d="M23167 23196 L23143 23170" /> 
<path d="M23143 23170 L23119 23118" /> 
<path d="M23119 23118 L23095 23013" /> 
<path d="M23095 23013 L23095 22882" /> 
<path d="M23095 22882 L23119 22777" /> 
<path d="M23119 22777 L23143 22725" /> 
<path d="M23143 22725 L23167 22699" /> 
<path d="M23167 22699 L23214 22673" /> 
</g>
<g style="fill:#C0C0C0; fill-opacity:0.0; stroke:#00A0A0; stroke-opacity:1.00; stroke-linecap:round; stroke-linejoin:round; stroke-width:120" 
   transform="translate(0.00 0.00) scale(1.00 1.00)">
<path d="M21250 23000 L21450 23000" /> 
<path d="M24250 23000 L24050 23000" /> 
<path d="M24050 23000 L24050 22600" /> 
<path d="M24050 22600 L21450 22600" /> 
<path d="M21450 22600 L21450 23400" /> 
<path d="M21450 23400 L24050 23400" /> 
<path d="M24050 23400 L24050 23000" /> 
<path d="M21450 22800 L21650 22600" /> 
</g>
<g style="fill:#808000; fill-opacity:0.0; stroke:#808000; stroke-opacity:1.00; stroke-linecap:round; stroke-linejoin:round; stroke-width:60" 
   transform="translate(0.00 0.00) scale(1.00 1.00)">
<ellipse cx="21250" cy="24000" rx="400" ry="400"  /> 
<ellipse cx="24250" cy="24000" rx="400" ry="400"  /> 
</g>
<g style="fill:#808000; fill-opacity:0.0; stroke:#0000C0; stroke-opacity:1.00; stroke-linecap:round; stroke-linejoin:round; stroke-width:0" 
   transform="translate(0.00 0.00) scale(1.00 1.00)">
<path d="M22748 24000 L22752 24000" /> 
<path d="M22750 23998 L22750 24002" /> 
</g>
<g style="fill:#C0C0C0; fill-opacity:0.0; stroke:#C0C0C0; stroke-opacity:1.00; stroke-linecap:round; stroke-linejoin:round; stroke-width:80" 
   transform="translate(0.00 0.00) scale(1.00 1.00)">
<path d="M22429 24223 L22262 23961" /> 
<g style = "stroke-linecap:round;" > 
<path d="M22262 23961 L22262 23961" /> 
</g><path d="M22143 24223 L22143 23673" /> 
<path d="M22143 23673 L22334 23673" /> 
<path d="M22334 23673 L22381 23699" /> 
<path d="M22381 23699 L22405 23725" /> 
<path d="M22405 23725 L22429 23777" /> 
<path d="M22429 23777 L22429 23856" /> 
<path d="M22429 23856 L22405 23908" /> 
<path d="M22405 23908 L22381 23935" /> 
<path d="M22381 23935 L22334 23961" /> 
<path d="M22334 23961 L22143 23961" /> 
<g style = "stroke-linecap:round;" > 
<path d="M22143 23961 L22143 23961" /> 
</g><path d="M22905 24223 L22619 24223" /> 
<g style = "stroke-linecap:round;" > 
<path d="M22619 24223 L22619 24223" /> 
</g><path d="M22762 24223 L22762 23673" /> 
<path d="M22762 23673 L22714 23751" /> 
<path d="M22714 23751 L22667 23804" /> 
<path d="M22667 23804 L22619 23830" /> 
<g style = "stroke-linecap:round;" > 
<path d="M22619 23830 L22619 23830" /> 
</g><path d="M23381 24223 L23095 24223" /> 
<g style = "stroke-linecap:round;" > 
<path d="M23095 24223 L23095 24223" /> 
</g><path d="M23238 24223 L23238 23673" /> 
<path d="M23238 23673 L23190 23751" /> 
<path d="M23190 23751 L23143 23804" /> 
<path d="M23143 23804 L23095 23830" /> 
<g style = "stroke-linecap:round;" > 
<path d="M23095 23830 L23095 23830" /> 
</g></g>
<g style="fill:#C0C0C0; fill-opacity:0.0; stroke:#00A0A0; stroke-opacity:1.00; stroke-linecap:round; stroke-linejoin:round; stroke-width:120" 
   transform="translate(0.00 0.00) scale(1.00 1.00)">
<path d="M21250 24000 L21450 24000" /> 
<path d="M24250 24000 L24050 24000" /> 
<path d="M24050 24000 L24050 23600" /> 
<path d="M24050 23600 L21450 23600" /> 
<path d="M21450 23600 L21450 24400" /> 
<path d="M21450 24400 L24050 24400" /> 
<path d="M24050 24400 L24050 24000" /> 
<path d="M21450 23800 L21650 23600" /> 
</g>
<g style="fill:#808000; fill-opacity:0.0; stroke:#808000; stroke-opacity:1.00; stroke-linecap:round; stroke-linejoin:round; stroke-width:60" 
   transform="translate(0.00 0.00) scale(1.00 1.00)">
<ellipse cx="21250" cy="25000" rx="400" ry="400"  /> 
<ellipse cx="24250" cy="25000" rx="400" ry="400"  /> 
</g>
<g style="fill:#808000; fill-opacity:0.0; stroke:#0000C0; stroke-opacity:1.00; stroke-linecap:round; stroke-linejoin:round; stroke-width:0" 
   transform="translate(0.00 0.00) scale(1.00 1.00)">
<path d="M22748 25000 L22752 25000" /> 
<path d="M22750 24998 L22750 25002" /> 
</g>
<g style="fill:#C0C0C0; fill-opacity:0.0; stroke:#C0C0C0; stroke-opacity:1.00; stroke-linecap:round; stroke-linejoin:round; stroke-width:80" 
   transform="translate(0.00 0.00) scale(1.00 1.00)">
<path d="M22429 25223 L22262 24961" /> 
<g style = "stroke-linecap:round;" > 
<path d="M22262 24961 L22262 24961" /> 
</g><path d="M22143 25223 L22143 24673" /> 
<path d="M22143 24673 L22334 24673" /> 
<path d="M22334 24673 L22381 24699" /> 
<path d="M22381 24699 L22405 24725" /> 
<path d="M22405 24725 L22429 24777" /> 
<path d="M22429 24777 L22429 24856" /> 
<path d="M22429 24856 L22405 24908" /> 
<path d="M22405 24908 L22381 24935" /> 
<path d="M22381 24935 L22334 24961" /> 
<path d="M22334 24961 L22143 24961" /> 
<g style = "stroke-linecap:round;" > 
<path d="M22143 24961 L22143 24961" /> 
</g><path d="M22905 25223 L22619 25223" /> 
<g style = "stroke-linecap:round;" > 
<path d="M22619 25223 L22619 25223" /> 
</g><path d="M22762 25223 L22762 24673" /> 
<path d="M22762 24673 L22714 24751" /> 
<path d="M22714 24751 L22667 24804" /> 
<path d="M22667 24804 L22619 24830" /> 
<g style = "stroke-linecap:round;" > 
<path d="M22619 24830 L22619 24830" /> 
</g><path d="M23095 24725 L23119 24699" /> 
<path d="M23119 24699 L23167 24673" /> 
<path d="M23167 24673 L23286 24673" /> 
<path d="M23286 24673 L23333 24699" /> 
<path d="M23333 24699 L23357 24725" /> 
<path d="M23357 24725 L23381 24777" /> 
<path d="M23381 24777 L23381 24830" /> 
<path d="M23381 24830 L23357 24908" /> 
<path d="M23357 24908 L23071 25223" /> 
<path d="M23071 25223 L23381 25223" /> 
<g style = "stroke-linecap:round;" > 
<path d="M23381 25223 L23381 25223" /> 
</g></g>
<g style="fill:#C0C0C0; fill-opacity:0.0; stroke:#00A0A0; stroke-opacity:1.00; stroke-linecap:round; stroke-linejoin:round; stroke-width:120" 
   transform="translate(0.00 0.00) scale(1.00 1.00)">
<path d="M21250 25000 L21450 25000" /> 
<path d="M24250 25000 L24050 25000" /> 
<path d="M24050 25000 L24050 24600" /> 
<path d="M24050 24600 L21450 24600" /> 
<path d="M21450 24600 L21450 25400" /> 
<path d="M21450 25400 L24050 25400" /> 
<path d="M24050 25400 L24050 25000" /> 
<path d="M21450 24800 L21650 24600" /> 
</g>
<g style="fill:#00A0A0; fill-opacity:1.00; stroke:#00A0A0; stroke-opacity:1.00; stroke-linecap:round; stroke-linejoin:round; stroke-width:1" 
   transform="translate(0.00 0.00) scale(1.00 1.00)">
<polygon style="fill-rule:evenodd; " 
points="23973,17107
23886,17163
23798,17215
23709,17261
23620,17301
23602,17309
23584,17316
23564,17324
23542,17332
23520,17340
23500,17348
23482,17354
23469,17358
23461,17360
23460,17360
23458,17357
23453,17346
23444,17330
23433,17307
23418,17278
23400,17243
23380,17203
23357,17158
23332,17109
23305,17054
23275,16996
23244,16933
23210,16867
23176,16797
23139,16724
23101,16648
23062,16570
23021,16489
22980,16407
22950,16348
22908,16264
22867,16181
22827,16101
22789,16024
22751,15949
22715,15877
22681,15808
22649,15743
22618,15681
22590,15624
22563,15571
22539,15522
22518,15479
22499,15440
22483,15407
22469,15380
22459,15359
22452,15344
22448,15336
22447,15334
22455,15330
22467,15323
22481,15313
22496,15302
22509,15291
22519,15283
22539,15265
22596,15319
22604,15327
22617,15339
22635,15357
22658,15379
22686,15406
22719,15437
22755,15472
22795,15511
22839,15554
22887,15600
22937,15648
22991,15700
23047,15754
23106,15811
23167,15869
23229,15930
23294,15992
23360,16055
23426,16120
23443,16136
24232,16898
24232,16898
24232,16898
24206,16923
24134,16986
24056,17048
" /> 
<polygon style="fill-rule:evenodd; " 
points="22230,15421
22227,15448
22224,15481
22220,15520
22215,15565
22209,15615
22204,15670
22197,15730
22191,15794
22183,15863
22176,15934
22168,16010
22160,16088
22151,16168
22143,16251
22136,16317
22125,16419
22115,16513
22106,16601
22098,16681
22090,16754
22083,16821
22076,16882
22070,16938
22065,16987
22061,17032
22056,17072
22053,17106
22049,17137
22046,17164
22044,17186
22042,17205
22040,17222
22038,17235
22037,17245
22036,17253
22035,17259
22035,17264
22034,17267
22034,17269
22033,17269
22033,17270
22032,17270
22032,17270
22028,17268
22018,17263
22004,17256
21986,17247
21974,17241
21865,17179
21761,17112
21663,17040
21570,16963
21484,16881
21473,16871
21457,16854
21443,16839
21432,16826
21424,16818
21421,16814
21421,16813
21423,16810
21428,16799
21436,16782
21447,16759
21460,16730
21476,16696
21495,16656
21516,16612
21539,16563
21564,16510
21591,16454
21619,16394
21649,16330
21680,16264
21713,16196
21746,16126
21770,16076
21804,16005
21837,15935
21869,15867
21900,15802
21929,15740
21957,15681
21984,15625
22008,15574
22031,15527
22051,15484
22069,15446
22084,15413
22097,15386
22107,15365
22114,15350
22118,15341
22119,15339
22123,15339
22132,15342
22144,15346
22160,15352
22179,15357
22199,15362
22202,15363
22236,15370
22236,15370
22236,15370
22234,15384
22233,15389
22232,15401
" /> 
<polygon style="fill-rule:evenodd; " 
points="21933,15213
21912,15226
21886,15242
21856,15261
21821,15282
21784,15306
21742,15331
21699,15358
21653,15386
21605,15416
21556,15446
21506,15477
21455,15509
21404,15540
21354,15571
21305,15601
21257,15631
21211,15659
21167,15686
21126,15712
21087,15735
21053,15757
21022,15776
20996,15792
20974,15805
20958,15815
20948,15821
20944,15823
20942,15821
20940,15812
20938,15799
20937,15798
20928,15725
20921,15649
20918,15568
20917,15520
20918,15494
20918,15466
20919,15437
20920,15408
20921,15382
20922,15357
20924,15337
20925,15321
20926,15312
20927,15310
20931,15309
20942,15306
20960,15302
20984,15296
21013,15290
21047,15282
21085,15273
21127,15263
21172,15253
21220,15242
21271,15230
21322,15219
21375,15207
21428,15195
21481,15182
21534,15171
21585,15159
21634,15148
21681,15137
21726,15127
21766,15118
21803,15110
21835,15102
21862,15096
21884,15092
21899,15088
21908,15086
21908,15086
21915,15085
21920,15087
21923,15093
21927,15105
21931,15118
21938,15136
21946,15154
21949,15159
21956,15174
21960,15186
21962,15193
21962,15193
21962,15193
21962,15195
21958,15197
21949,15204
" /> 
<polygon style="fill-rule:evenodd; " 
points="24816,15516
24813,15517
24812,15517
24808,15516
24796,15514
24777,15510
24751,15505
24719,15499
24681,15491
24637,15482
24587,15472
24532,15461
24472,15449
24408,15436
24339,15423
24267,15408
24191,15393
24111,15377
24029,15360
23943,15343
23855,15325
23766,15307
23736,15301
23646,15283
23557,15265
23471,15247
23387,15231
23306,15214
23229,15199
23155,15184
23085,15169
23018,15156
22957,15144
22900,15132
22848,15122
22802,15112
22761,15104
22727,15097
22698,15092
22677,15087
22662,15084
22655,15083
22654,15083
22646,15081
22643,15077
22643,15070
22644,15064
22645,15053
22646,15037
22646,15017
22646,15004
22646,14960
23633,14821
23720,14809
23806,14797
23889,14785
23969,14774
24046,14763
24120,14753
24191,14743
24257,14733
24319,14725
24377,14716
24429,14709
24476,14702
24518,14696
24553,14691
24582,14687
24605,14684
24620,14682
24629,14681
24630,14680
24635,14680
24638,14682
24642,14687
24647,14696
24654,14711
24657,14719
24695,14818
24729,14922
24759,15029
24782,15138
24799,15237
24804,15277
24809,15319
24813,15361
24816,15402
24818,15439
24819,15470
24819,15471
24819,15471
24819,15471
24819,15491
24818,15504
24817,15512
" /> 
<polygon style="fill-rule:evenodd; " 
points="22435,15141
22408,15167
22377,15189
22342,15205
22331,15208
22307,15213
22282,15216
22261,15216
22258,15216
22216,15208
22178,15193
22144,15172
22115,15146
22091,15114
22073,15077
22070,15070
22066,15055
22063,15041
22062,15025
22061,15004
22061,15000
22062,14979
22063,14963
22065,14951
22069,14938
22072,14930
22091,14892
22115,14859
22144,14833
22177,14812
22214,14798
22253,14791
22289,14790
22328,14797
22365,14810
22398,14830
22427,14855
22451,14886
22470,14921
22482,14961
22483,14965
22487,15003
22487,15003
22487,15003
22483,15040
22473,15076
22457,15110
" /> 
<polygon style="fill-rule:evenodd; " 
points="21977,14799
21967,14815
21957,14833
21950,14847
21949,14850
21943,14862
21938,14869
21935,14872
21931,14870
21920,14866
21903,14860
21879,14852
21850,14841
21816,14829
21778,14815
21736,14800
21690,14783
21641,14765
21590,14746
21539,14728
21486,14709
21435,14690
21387,14672
21341,14656
21299,14640
21262,14627
21228,14614
21200,14604
21177,14596
21160,14590
21150,14586
21147,14585
21147,14581
21151,14573
21158,14560
21167,14544
21176,14526
21186,14508
21196,14491
21204,14479
21216,14460
21230,14438
21246,14414
21263,14389
21281,14364
21298,14340
21315,14317
21330,14296
21344,14279
21354,14265
21362,14257
21365,14254
21369,14256
21378,14263
21391,14275
21410,14290
21433,14308
21459,14329
21489,14353
21521,14379
21555,14407
21591,14436
21628,14467
21666,14497
21704,14529
21741,14559
21778,14589
21814,14619
21848,14646
21879,14672
21908,14696
21934,14717
21955,14734
21973,14749
21986,14760
21993,14766
21995,14768
21995,14768
21995,14768
21994,14771
21989,14780
21981,14792
" /> 
<polygon style="fill-rule:evenodd; " 
points="23043,14441
22986,14483
22931,14524
22879,14563
22830,14599
22784,14633
22743,14664
22705,14692
22672,14716
22643,14738
22620,14755
22601,14769
22588,14778
22581,14783
22580,14784
22576,14782
22568,14775
22557,14764
22547,14754
22534,14741
22520,14728
22510,14718
22505,14714
22492,14705
22864,14152
22904,14092
22943,14034
22981,13978
23017,13925
23051,13874
23083,13826
23113,13782
23140,13742
23165,13705
23186,13673
23204,13646
23219,13624
23230,13608
23237,13597
23240,13593
23240,13592
23242,13590
23247,13589
23255,13590
23267,13592
23286,13595
23290,13596
23345,13608
23404,13624
23467,13644
23531,13665
23596,13690
23640,13707
23658,13715
23681,13725
23707,13737
23734,13750
23762,13764
23789,13777
23814,13789
23835,13800
23851,13809
23859,13814
23874,13823
23874,13823
23874,13823
23228,14303
23165,14350
23103,14396
" /> 
<polygon style="fill-rule:evenodd; " 
points="22314,13740
22313,13775
22312,13815
22311,13859
22310,13906
22309,13956
22308,14007
22306,14060
22305,14114
22304,14168
22303,14222
22301,14274
22300,14324
22299,14372
22298,14417
22297,14458
22296,14494
22295,14525
22294,14551
22293,14570
22293,14582
22293,14583
22291,14635
22261,14638
22241,14640
22219,14644
22203,14647
22189,14651
22178,14653
22173,14653
22173,14653
22172,14649
22169,14638
22163,14621
22156,14597
22146,14568
22135,14534
22123,14496
22109,14453
22094,14406
22078,14356
22061,14304
22043,14249
22037,14232
22019,14177
22002,14123
21986,14072
21970,14025
21956,13980
21943,13940
21932,13904
21922,13874
21914,13848
21908,13829
21904,13816
21902,13809
21902,13809
21905,13806
21915,13801
21930,13793
21949,13783
21972,13770
21999,13757
22015,13749
22079,13718
22138,13691
22192,13668
22240,13649
22282,13635
22282,13635
22315,13625
22315,13659
22315,13659
22315,13659
22315,13669
22315,13686
22314,13710
" /> 
</g> 
</svg> 
