G04 (created by PCBNEW (2013-07-07 BZR 4022)-stable) date 17/03/2015 13:31:24*
%MOIN*%
G04 Gerber Fmt 3.4, Leading zero omitted, Abs format*
%FSLAX34Y34*%
G01*
G70*
G90*
G04 APERTURE LIST*
%ADD10C,0.00590551*%
%ADD11C,0.012*%
%ADD12C,0.015*%
%ADD13C,0.0001*%
%ADD14C,0.0107*%
%ADD15C,0.01*%
%ADD16C,0.01125*%
%ADD17C,0.0113*%
%ADD18C,0.008*%
G04 APERTURE END LIST*
G54D10*
G54D11*
X24823Y-29350D02*
X24823Y-29692D01*
X24823Y-29521D02*
X24023Y-29521D01*
X24138Y-29578D01*
X24214Y-29635D01*
X24252Y-29692D01*
X24823Y-28778D02*
X24823Y-29121D01*
X24823Y-28950D02*
X24023Y-28950D01*
X24138Y-29007D01*
X24214Y-29064D01*
X24252Y-29121D01*
X23985Y-28092D02*
X25014Y-28607D01*
X24023Y-27950D02*
X24023Y-27578D01*
X24328Y-27778D01*
X24328Y-27692D01*
X24366Y-27635D01*
X24404Y-27607D01*
X24480Y-27578D01*
X24671Y-27578D01*
X24747Y-27607D01*
X24785Y-27635D01*
X24823Y-27692D01*
X24823Y-27864D01*
X24785Y-27921D01*
X24747Y-27950D01*
X23985Y-26892D02*
X25014Y-27407D01*
X24823Y-26378D02*
X24823Y-26721D01*
X24823Y-26550D02*
X24023Y-26550D01*
X24138Y-26607D01*
X24214Y-26664D01*
X24252Y-26721D01*
X24023Y-26178D02*
X24023Y-25807D01*
X24328Y-26007D01*
X24328Y-25921D01*
X24366Y-25864D01*
X24404Y-25835D01*
X24480Y-25807D01*
X24671Y-25807D01*
X24747Y-25835D01*
X24785Y-25864D01*
X24823Y-25921D01*
X24823Y-26092D01*
X24785Y-26149D01*
X24747Y-26178D01*
X13935Y-34073D02*
X13935Y-33540D01*
X13935Y-33692D02*
X13964Y-33616D01*
X13992Y-33578D01*
X14050Y-33540D01*
X14107Y-33540D01*
X14535Y-34035D02*
X14478Y-34073D01*
X14364Y-34073D01*
X14307Y-34035D01*
X14278Y-33959D01*
X14278Y-33654D01*
X14307Y-33578D01*
X14364Y-33540D01*
X14478Y-33540D01*
X14535Y-33578D01*
X14564Y-33654D01*
X14564Y-33730D01*
X14278Y-33807D01*
X14821Y-33769D02*
X15278Y-33769D01*
X15564Y-34073D02*
X15564Y-33540D01*
X15564Y-33273D02*
X15535Y-33311D01*
X15564Y-33350D01*
X15592Y-33311D01*
X15564Y-33273D01*
X15564Y-33350D01*
X15850Y-33540D02*
X15850Y-34073D01*
X15850Y-33616D02*
X15878Y-33578D01*
X15935Y-33540D01*
X16021Y-33540D01*
X16078Y-33578D01*
X16107Y-33654D01*
X16107Y-34073D01*
X16392Y-33540D02*
X16392Y-34073D01*
X16392Y-33616D02*
X16421Y-33578D01*
X16478Y-33540D01*
X16564Y-33540D01*
X16621Y-33578D01*
X16650Y-33654D01*
X16650Y-34073D01*
X17021Y-34073D02*
X16964Y-34035D01*
X16935Y-33997D01*
X16907Y-33921D01*
X16907Y-33692D01*
X16935Y-33616D01*
X16964Y-33578D01*
X17021Y-33540D01*
X17107Y-33540D01*
X17164Y-33578D01*
X17192Y-33616D01*
X17221Y-33692D01*
X17221Y-33921D01*
X17192Y-33997D01*
X17164Y-34035D01*
X17107Y-34073D01*
X17021Y-34073D01*
X17421Y-33540D02*
X17564Y-34073D01*
X17707Y-33540D01*
X18192Y-34073D02*
X18192Y-33654D01*
X18164Y-33578D01*
X18107Y-33540D01*
X17992Y-33540D01*
X17935Y-33578D01*
X18192Y-34035D02*
X18135Y-34073D01*
X17992Y-34073D01*
X17935Y-34035D01*
X17907Y-33959D01*
X17907Y-33883D01*
X17935Y-33807D01*
X17992Y-33769D01*
X18135Y-33769D01*
X18192Y-33730D01*
X18392Y-33540D02*
X18621Y-33540D01*
X18478Y-33273D02*
X18478Y-33959D01*
X18507Y-34035D01*
X18564Y-34073D01*
X18621Y-34073D01*
X18821Y-34073D02*
X18821Y-33540D01*
X18821Y-33273D02*
X18792Y-33311D01*
X18821Y-33350D01*
X18850Y-33311D01*
X18821Y-33273D01*
X18821Y-33350D01*
X19192Y-34073D02*
X19135Y-34035D01*
X19107Y-33997D01*
X19078Y-33921D01*
X19078Y-33692D01*
X19107Y-33616D01*
X19135Y-33578D01*
X19192Y-33540D01*
X19278Y-33540D01*
X19335Y-33578D01*
X19364Y-33616D01*
X19392Y-33692D01*
X19392Y-33921D01*
X19364Y-33997D01*
X19335Y-34035D01*
X19278Y-34073D01*
X19192Y-34073D01*
X19650Y-33540D02*
X19650Y-34073D01*
X19650Y-33616D02*
X19678Y-33578D01*
X19735Y-33540D01*
X19821Y-33540D01*
X19878Y-33578D01*
X19907Y-33654D01*
X19907Y-34073D01*
X20192Y-33997D02*
X20221Y-34035D01*
X20192Y-34073D01*
X20164Y-34035D01*
X20192Y-33997D01*
X20192Y-34073D01*
X20735Y-34035D02*
X20678Y-34073D01*
X20564Y-34073D01*
X20507Y-34035D01*
X20478Y-33997D01*
X20450Y-33921D01*
X20450Y-33692D01*
X20478Y-33616D01*
X20507Y-33578D01*
X20564Y-33540D01*
X20678Y-33540D01*
X20735Y-33578D01*
X21078Y-34073D02*
X21021Y-34035D01*
X20992Y-33997D01*
X20964Y-33921D01*
X20964Y-33692D01*
X20992Y-33616D01*
X21021Y-33578D01*
X21078Y-33540D01*
X21164Y-33540D01*
X21221Y-33578D01*
X21250Y-33616D01*
X21278Y-33692D01*
X21278Y-33921D01*
X21250Y-33997D01*
X21221Y-34035D01*
X21164Y-34073D01*
X21078Y-34073D01*
X21535Y-33997D02*
X21564Y-34035D01*
X21535Y-34073D01*
X21507Y-34035D01*
X21535Y-33997D01*
X21535Y-34073D01*
X22078Y-33540D02*
X22078Y-34073D01*
X21821Y-33540D02*
X21821Y-33959D01*
X21850Y-34035D01*
X21907Y-34073D01*
X21992Y-34073D01*
X22050Y-34035D01*
X22078Y-33997D01*
X22364Y-34073D02*
X22364Y-33273D01*
X22421Y-33769D02*
X22592Y-34073D01*
X22592Y-33540D02*
X22364Y-33845D01*
X13871Y-34273D02*
X14271Y-34273D01*
X14014Y-35073D01*
X14928Y-35035D02*
X15014Y-35073D01*
X15157Y-35073D01*
X15214Y-35035D01*
X15242Y-34997D01*
X15271Y-34921D01*
X15271Y-34845D01*
X15242Y-34769D01*
X15214Y-34730D01*
X15157Y-34692D01*
X15042Y-34654D01*
X14985Y-34616D01*
X14957Y-34578D01*
X14928Y-34502D01*
X14928Y-34426D01*
X14957Y-34350D01*
X14985Y-34311D01*
X15042Y-34273D01*
X15185Y-34273D01*
X15271Y-34311D01*
X15528Y-34654D02*
X15728Y-34654D01*
X15814Y-35073D02*
X15528Y-35073D01*
X15528Y-34273D01*
X15814Y-34273D01*
X16385Y-34311D02*
X16328Y-34273D01*
X16242Y-34273D01*
X16157Y-34311D01*
X16100Y-34388D01*
X16071Y-34464D01*
X16042Y-34616D01*
X16042Y-34730D01*
X16071Y-34883D01*
X16100Y-34959D01*
X16157Y-35035D01*
X16242Y-35073D01*
X16300Y-35073D01*
X16385Y-35035D01*
X16414Y-34997D01*
X16414Y-34730D01*
X16300Y-34730D01*
X17414Y-35073D02*
X17128Y-35073D01*
X17128Y-34273D01*
X17614Y-34654D02*
X17814Y-34654D01*
X17900Y-35073D02*
X17614Y-35073D01*
X17614Y-34273D01*
X17900Y-34273D01*
X18157Y-35073D02*
X18157Y-34273D01*
X18300Y-34273D01*
X18385Y-34311D01*
X18442Y-34388D01*
X18471Y-34464D01*
X18500Y-34616D01*
X18500Y-34730D01*
X18471Y-34883D01*
X18442Y-34959D01*
X18385Y-35035D01*
X18300Y-35073D01*
X18157Y-35073D01*
X19214Y-35073D02*
X19214Y-34273D01*
X19357Y-34273D01*
X19442Y-34311D01*
X19500Y-34388D01*
X19528Y-34464D01*
X19557Y-34616D01*
X19557Y-34730D01*
X19528Y-34883D01*
X19500Y-34959D01*
X19442Y-35035D01*
X19357Y-35073D01*
X19214Y-35073D01*
X20157Y-35073D02*
X19957Y-34692D01*
X19814Y-35073D02*
X19814Y-34273D01*
X20042Y-34273D01*
X20100Y-34311D01*
X20128Y-34350D01*
X20157Y-34426D01*
X20157Y-34540D01*
X20128Y-34616D01*
X20100Y-34654D01*
X20042Y-34692D01*
X19814Y-34692D01*
X20414Y-35073D02*
X20414Y-34273D01*
X20614Y-34273D02*
X20814Y-35073D01*
X21014Y-34273D01*
X21214Y-34654D02*
X21414Y-34654D01*
X21500Y-35073D02*
X21214Y-35073D01*
X21214Y-34273D01*
X21500Y-34273D01*
X22100Y-35073D02*
X21900Y-34692D01*
X21757Y-35073D02*
X21757Y-34273D01*
X21985Y-34273D01*
X22042Y-34311D01*
X22071Y-34350D01*
X22100Y-34426D01*
X22100Y-34540D01*
X22071Y-34616D01*
X22042Y-34654D01*
X21985Y-34692D01*
X21757Y-34692D01*
X13250Y-30500D02*
X13250Y-30500D01*
X13250Y-30500D02*
X13250Y-37500D01*
X13250Y-37500D02*
X12250Y-37500D01*
X12250Y-37500D02*
X12250Y-30500D01*
X12250Y-30500D02*
X13250Y-30500D01*
X12250Y-31500D02*
X12250Y-31500D01*
X12250Y-31500D02*
X13250Y-31500D01*
X24000Y-30500D02*
X24000Y-30500D01*
X24000Y-30500D02*
X24000Y-37500D01*
X24000Y-37500D02*
X23000Y-37500D01*
X23000Y-37500D02*
X23000Y-30500D01*
X23000Y-30500D02*
X24000Y-30500D01*
X23000Y-31500D02*
X23000Y-31500D01*
X23000Y-31500D02*
X24000Y-31500D01*
G54D12*
X13300Y-25850D02*
X13300Y-25850D01*
X13300Y-25850D02*
X13300Y-25350D01*
X13300Y-25350D02*
X14300Y-25350D01*
X14300Y-25350D02*
X14300Y-25850D01*
X12800Y-25850D02*
X12800Y-16850D01*
X12800Y-16850D02*
X14800Y-16850D01*
X14800Y-16850D02*
X14800Y-25850D01*
X14800Y-25850D02*
X12800Y-25850D01*
G54D11*
X12500Y-14750D02*
X14000Y-16250D01*
X14000Y-16250D02*
X14500Y-16250D01*
X14500Y-16250D02*
X15000Y-15750D01*
X15000Y-15750D02*
X15000Y-14750D01*
X15000Y-14750D02*
X14000Y-13750D01*
X14000Y-13750D02*
X13000Y-13750D01*
X13000Y-13750D02*
X12500Y-14250D01*
X12500Y-14250D02*
X12500Y-14750D01*
X11750Y-16500D02*
X11750Y-16300D01*
X11750Y-13500D02*
X11750Y-13700D01*
X11750Y-13700D02*
X11350Y-13700D01*
X11350Y-13700D02*
X11350Y-16300D01*
X11350Y-16300D02*
X12150Y-16300D01*
X12150Y-16300D02*
X12150Y-13700D01*
X12150Y-13700D02*
X11750Y-13700D01*
X11550Y-16300D02*
X11350Y-16100D01*
X15250Y-12750D02*
X15050Y-12750D01*
X12250Y-12750D02*
X12450Y-12750D01*
X12450Y-12750D02*
X12450Y-13150D01*
X12450Y-13150D02*
X15050Y-13150D01*
X15050Y-13150D02*
X15050Y-12350D01*
X15050Y-12350D02*
X12450Y-12350D01*
X12450Y-12350D02*
X12450Y-12750D01*
X15050Y-12950D02*
X14850Y-13150D01*
X16450Y-28250D02*
G75*
G03X16450Y-28250I-1750J0D01*
G74*
G01*
G54D12*
X15500Y-15750D02*
X15500Y-16750D01*
X15500Y-16750D02*
X18500Y-16750D01*
X18500Y-16750D02*
X18500Y-15750D01*
X18500Y-15750D02*
X15500Y-15750D01*
G54D11*
X15500Y-16000D02*
X15750Y-15750D01*
G54D12*
X18800Y-17850D02*
X18800Y-17850D01*
X18800Y-17850D02*
X18800Y-18350D01*
X18800Y-18350D02*
X17800Y-18350D01*
X17800Y-18350D02*
X17800Y-17850D01*
X19300Y-17850D02*
X19300Y-26850D01*
X19300Y-26850D02*
X17300Y-26850D01*
X17300Y-26850D02*
X17300Y-17850D01*
X17300Y-17850D02*
X19300Y-17850D01*
G54D11*
X21250Y-19000D02*
X21450Y-19000D01*
X24250Y-19000D02*
X24050Y-19000D01*
X24050Y-19000D02*
X24050Y-18600D01*
X24050Y-18600D02*
X21450Y-18600D01*
X21450Y-18600D02*
X21450Y-19400D01*
X21450Y-19400D02*
X24050Y-19400D01*
X24050Y-19400D02*
X24050Y-19000D01*
X21450Y-18800D02*
X21650Y-18600D01*
X21250Y-20000D02*
X21450Y-20000D01*
X24250Y-20000D02*
X24050Y-20000D01*
X24050Y-20000D02*
X24050Y-19600D01*
X24050Y-19600D02*
X21450Y-19600D01*
X21450Y-19600D02*
X21450Y-20400D01*
X21450Y-20400D02*
X24050Y-20400D01*
X24050Y-20400D02*
X24050Y-20000D01*
X21450Y-19800D02*
X21650Y-19600D01*
X21250Y-21000D02*
X21450Y-21000D01*
X24250Y-21000D02*
X24050Y-21000D01*
X24050Y-21000D02*
X24050Y-20600D01*
X24050Y-20600D02*
X21450Y-20600D01*
X21450Y-20600D02*
X21450Y-21400D01*
X21450Y-21400D02*
X24050Y-21400D01*
X24050Y-21400D02*
X24050Y-21000D01*
X21450Y-20800D02*
X21650Y-20600D01*
X21250Y-22000D02*
X21450Y-22000D01*
X24250Y-22000D02*
X24050Y-22000D01*
X24050Y-22000D02*
X24050Y-21600D01*
X24050Y-21600D02*
X21450Y-21600D01*
X21450Y-21600D02*
X21450Y-22400D01*
X21450Y-22400D02*
X24050Y-22400D01*
X24050Y-22400D02*
X24050Y-22000D01*
X21450Y-21800D02*
X21650Y-21600D01*
X21250Y-23000D02*
X21450Y-23000D01*
X24250Y-23000D02*
X24050Y-23000D01*
X24050Y-23000D02*
X24050Y-22600D01*
X24050Y-22600D02*
X21450Y-22600D01*
X21450Y-22600D02*
X21450Y-23400D01*
X21450Y-23400D02*
X24050Y-23400D01*
X24050Y-23400D02*
X24050Y-23000D01*
X21450Y-22800D02*
X21650Y-22600D01*
X21250Y-24000D02*
X21450Y-24000D01*
X24250Y-24000D02*
X24050Y-24000D01*
X24050Y-24000D02*
X24050Y-23600D01*
X24050Y-23600D02*
X21450Y-23600D01*
X21450Y-23600D02*
X21450Y-24400D01*
X21450Y-24400D02*
X24050Y-24400D01*
X24050Y-24400D02*
X24050Y-24000D01*
X21450Y-23800D02*
X21650Y-23600D01*
X21250Y-25000D02*
X21450Y-25000D01*
X24250Y-25000D02*
X24050Y-25000D01*
X24050Y-25000D02*
X24050Y-24600D01*
X24050Y-24600D02*
X21450Y-24600D01*
X21450Y-24600D02*
X21450Y-25400D01*
X21450Y-25400D02*
X24050Y-25400D01*
X24050Y-25400D02*
X24050Y-25000D01*
X21450Y-24800D02*
X21650Y-24600D01*
G54D13*
G36*
X24232Y-16898D02*
X24206Y-16923D01*
X24134Y-16986D01*
X24056Y-17048D01*
X23973Y-17107D01*
X23886Y-17163D01*
X23798Y-17215D01*
X23709Y-17261D01*
X23620Y-17301D01*
X23602Y-17309D01*
X23584Y-17316D01*
X23564Y-17324D01*
X23542Y-17332D01*
X23520Y-17340D01*
X23500Y-17348D01*
X23482Y-17354D01*
X23469Y-17358D01*
X23461Y-17360D01*
X23460Y-17360D01*
X23458Y-17357D01*
X23453Y-17346D01*
X23444Y-17330D01*
X23433Y-17307D01*
X23418Y-17278D01*
X23400Y-17243D01*
X23380Y-17203D01*
X23357Y-17158D01*
X23332Y-17109D01*
X23305Y-17054D01*
X23275Y-16996D01*
X23244Y-16933D01*
X23210Y-16867D01*
X23176Y-16797D01*
X23139Y-16724D01*
X23101Y-16648D01*
X23062Y-16570D01*
X23021Y-16489D01*
X22980Y-16407D01*
X22950Y-16348D01*
X22908Y-16264D01*
X22867Y-16181D01*
X22827Y-16101D01*
X22789Y-16024D01*
X22751Y-15949D01*
X22715Y-15877D01*
X22681Y-15808D01*
X22649Y-15743D01*
X22618Y-15681D01*
X22590Y-15624D01*
X22563Y-15571D01*
X22539Y-15522D01*
X22518Y-15479D01*
X22499Y-15440D01*
X22483Y-15407D01*
X22469Y-15380D01*
X22459Y-15359D01*
X22452Y-15344D01*
X22448Y-15336D01*
X22447Y-15334D01*
X22455Y-15330D01*
X22467Y-15323D01*
X22481Y-15313D01*
X22496Y-15302D01*
X22509Y-15291D01*
X22519Y-15283D01*
X22539Y-15265D01*
X22596Y-15319D01*
X22604Y-15327D01*
X22617Y-15339D01*
X22635Y-15357D01*
X22658Y-15379D01*
X22686Y-15406D01*
X22719Y-15437D01*
X22755Y-15472D01*
X22795Y-15511D01*
X22839Y-15554D01*
X22887Y-15600D01*
X22937Y-15648D01*
X22991Y-15700D01*
X23047Y-15754D01*
X23106Y-15811D01*
X23167Y-15869D01*
X23229Y-15930D01*
X23294Y-15992D01*
X23360Y-16055D01*
X23426Y-16120D01*
X23443Y-16136D01*
X24232Y-16898D01*
X24232Y-16898D01*
X24232Y-16898D01*
G37*
G36*
X22236Y-15370D02*
X22234Y-15384D01*
X22233Y-15389D01*
X22232Y-15401D01*
X22230Y-15421D01*
X22227Y-15448D01*
X22224Y-15481D01*
X22220Y-15520D01*
X22215Y-15565D01*
X22209Y-15615D01*
X22204Y-15670D01*
X22197Y-15730D01*
X22191Y-15794D01*
X22183Y-15863D01*
X22176Y-15934D01*
X22168Y-16010D01*
X22160Y-16088D01*
X22151Y-16168D01*
X22143Y-16251D01*
X22136Y-16317D01*
X22125Y-16419D01*
X22115Y-16513D01*
X22106Y-16601D01*
X22098Y-16681D01*
X22090Y-16754D01*
X22083Y-16821D01*
X22076Y-16882D01*
X22070Y-16938D01*
X22065Y-16987D01*
X22061Y-17032D01*
X22056Y-17072D01*
X22053Y-17106D01*
X22049Y-17137D01*
X22046Y-17164D01*
X22044Y-17186D01*
X22042Y-17205D01*
X22040Y-17222D01*
X22038Y-17235D01*
X22037Y-17245D01*
X22036Y-17253D01*
X22035Y-17259D01*
X22035Y-17264D01*
X22034Y-17267D01*
X22034Y-17269D01*
X22033Y-17269D01*
X22033Y-17270D01*
X22032Y-17270D01*
X22032Y-17270D01*
X22028Y-17268D01*
X22018Y-17263D01*
X22004Y-17256D01*
X21986Y-17247D01*
X21974Y-17241D01*
X21865Y-17179D01*
X21761Y-17112D01*
X21663Y-17040D01*
X21570Y-16963D01*
X21484Y-16881D01*
X21473Y-16871D01*
X21457Y-16854D01*
X21443Y-16839D01*
X21432Y-16826D01*
X21424Y-16818D01*
X21421Y-16814D01*
X21421Y-16813D01*
X21423Y-16810D01*
X21428Y-16799D01*
X21436Y-16782D01*
X21447Y-16759D01*
X21460Y-16730D01*
X21476Y-16696D01*
X21495Y-16656D01*
X21516Y-16612D01*
X21539Y-16563D01*
X21564Y-16510D01*
X21591Y-16454D01*
X21619Y-16394D01*
X21649Y-16330D01*
X21680Y-16264D01*
X21713Y-16196D01*
X21746Y-16126D01*
X21770Y-16076D01*
X21804Y-16005D01*
X21837Y-15935D01*
X21869Y-15867D01*
X21900Y-15802D01*
X21929Y-15740D01*
X21957Y-15681D01*
X21984Y-15625D01*
X22008Y-15574D01*
X22031Y-15527D01*
X22051Y-15484D01*
X22069Y-15446D01*
X22084Y-15413D01*
X22097Y-15386D01*
X22107Y-15365D01*
X22114Y-15350D01*
X22118Y-15341D01*
X22119Y-15339D01*
X22123Y-15339D01*
X22132Y-15342D01*
X22144Y-15346D01*
X22160Y-15352D01*
X22179Y-15357D01*
X22199Y-15362D01*
X22202Y-15363D01*
X22236Y-15370D01*
X22236Y-15370D01*
X22236Y-15370D01*
G37*
G36*
X21962Y-15193D02*
X21962Y-15195D01*
X21958Y-15197D01*
X21949Y-15204D01*
X21933Y-15213D01*
X21912Y-15226D01*
X21886Y-15242D01*
X21856Y-15261D01*
X21821Y-15282D01*
X21784Y-15306D01*
X21742Y-15331D01*
X21699Y-15358D01*
X21653Y-15386D01*
X21605Y-15416D01*
X21556Y-15446D01*
X21506Y-15477D01*
X21455Y-15509D01*
X21404Y-15540D01*
X21354Y-15571D01*
X21305Y-15601D01*
X21257Y-15631D01*
X21211Y-15659D01*
X21167Y-15686D01*
X21126Y-15712D01*
X21087Y-15735D01*
X21053Y-15757D01*
X21022Y-15776D01*
X20996Y-15792D01*
X20974Y-15805D01*
X20958Y-15815D01*
X20948Y-15821D01*
X20944Y-15823D01*
X20942Y-15821D01*
X20940Y-15812D01*
X20938Y-15799D01*
X20937Y-15798D01*
X20928Y-15725D01*
X20921Y-15649D01*
X20918Y-15568D01*
X20917Y-15520D01*
X20918Y-15494D01*
X20918Y-15466D01*
X20919Y-15437D01*
X20920Y-15408D01*
X20921Y-15382D01*
X20922Y-15357D01*
X20924Y-15337D01*
X20925Y-15321D01*
X20926Y-15312D01*
X20927Y-15310D01*
X20931Y-15309D01*
X20942Y-15306D01*
X20960Y-15302D01*
X20984Y-15296D01*
X21013Y-15290D01*
X21047Y-15282D01*
X21085Y-15273D01*
X21127Y-15263D01*
X21172Y-15253D01*
X21220Y-15242D01*
X21271Y-15230D01*
X21322Y-15219D01*
X21375Y-15207D01*
X21428Y-15195D01*
X21481Y-15182D01*
X21534Y-15171D01*
X21585Y-15159D01*
X21634Y-15148D01*
X21681Y-15137D01*
X21726Y-15127D01*
X21766Y-15118D01*
X21803Y-15110D01*
X21835Y-15102D01*
X21862Y-15096D01*
X21884Y-15092D01*
X21899Y-15088D01*
X21908Y-15086D01*
X21908Y-15086D01*
X21915Y-15085D01*
X21920Y-15087D01*
X21923Y-15093D01*
X21927Y-15105D01*
X21931Y-15118D01*
X21938Y-15136D01*
X21946Y-15154D01*
X21949Y-15159D01*
X21956Y-15174D01*
X21960Y-15186D01*
X21962Y-15193D01*
X21962Y-15193D01*
X21962Y-15193D01*
G37*
G36*
X24819Y-15471D02*
X24819Y-15491D01*
X24818Y-15504D01*
X24817Y-15512D01*
X24816Y-15516D01*
X24813Y-15517D01*
X24812Y-15517D01*
X24808Y-15516D01*
X24796Y-15514D01*
X24777Y-15510D01*
X24751Y-15505D01*
X24719Y-15499D01*
X24681Y-15491D01*
X24637Y-15482D01*
X24587Y-15472D01*
X24532Y-15461D01*
X24472Y-15449D01*
X24408Y-15436D01*
X24339Y-15423D01*
X24267Y-15408D01*
X24191Y-15393D01*
X24111Y-15377D01*
X24029Y-15360D01*
X23943Y-15343D01*
X23855Y-15325D01*
X23766Y-15307D01*
X23736Y-15301D01*
X23646Y-15283D01*
X23557Y-15265D01*
X23471Y-15247D01*
X23387Y-15231D01*
X23306Y-15214D01*
X23229Y-15199D01*
X23155Y-15184D01*
X23085Y-15169D01*
X23018Y-15156D01*
X22957Y-15144D01*
X22900Y-15132D01*
X22848Y-15122D01*
X22802Y-15112D01*
X22761Y-15104D01*
X22727Y-15097D01*
X22698Y-15092D01*
X22677Y-15087D01*
X22662Y-15084D01*
X22655Y-15083D01*
X22654Y-15083D01*
X22646Y-15081D01*
X22643Y-15077D01*
X22643Y-15070D01*
X22644Y-15064D01*
X22645Y-15053D01*
X22646Y-15037D01*
X22646Y-15017D01*
X22646Y-15004D01*
X22646Y-14960D01*
X23633Y-14821D01*
X23720Y-14809D01*
X23806Y-14797D01*
X23889Y-14785D01*
X23969Y-14774D01*
X24046Y-14763D01*
X24120Y-14753D01*
X24191Y-14743D01*
X24257Y-14733D01*
X24319Y-14725D01*
X24377Y-14716D01*
X24429Y-14709D01*
X24476Y-14702D01*
X24518Y-14696D01*
X24553Y-14691D01*
X24582Y-14687D01*
X24605Y-14684D01*
X24620Y-14682D01*
X24629Y-14681D01*
X24630Y-14680D01*
X24635Y-14680D01*
X24638Y-14682D01*
X24642Y-14687D01*
X24647Y-14696D01*
X24654Y-14711D01*
X24657Y-14719D01*
X24695Y-14818D01*
X24729Y-14922D01*
X24759Y-15029D01*
X24782Y-15138D01*
X24799Y-15237D01*
X24804Y-15277D01*
X24809Y-15319D01*
X24813Y-15361D01*
X24816Y-15402D01*
X24818Y-15439D01*
X24819Y-15470D01*
X24819Y-15471D01*
X24819Y-15471D01*
X24819Y-15471D01*
G37*
G36*
X22487Y-15003D02*
X22483Y-15040D01*
X22473Y-15076D01*
X22457Y-15110D01*
X22435Y-15141D01*
X22408Y-15167D01*
X22377Y-15189D01*
X22342Y-15205D01*
X22331Y-15208D01*
X22307Y-15213D01*
X22282Y-15216D01*
X22261Y-15216D01*
X22258Y-15216D01*
X22216Y-15208D01*
X22178Y-15193D01*
X22144Y-15172D01*
X22115Y-15146D01*
X22091Y-15114D01*
X22073Y-15077D01*
X22070Y-15070D01*
X22066Y-15055D01*
X22063Y-15041D01*
X22062Y-15025D01*
X22061Y-15004D01*
X22061Y-15000D01*
X22062Y-14979D01*
X22063Y-14963D01*
X22065Y-14951D01*
X22069Y-14938D01*
X22072Y-14930D01*
X22091Y-14892D01*
X22115Y-14859D01*
X22144Y-14833D01*
X22177Y-14812D01*
X22214Y-14798D01*
X22253Y-14791D01*
X22289Y-14790D01*
X22328Y-14797D01*
X22365Y-14810D01*
X22398Y-14830D01*
X22427Y-14855D01*
X22451Y-14886D01*
X22470Y-14921D01*
X22482Y-14961D01*
X22483Y-14965D01*
X22487Y-15003D01*
X22487Y-15003D01*
X22487Y-15003D01*
G37*
G36*
X21995Y-14768D02*
X21994Y-14771D01*
X21989Y-14780D01*
X21981Y-14792D01*
X21977Y-14799D01*
X21967Y-14815D01*
X21957Y-14833D01*
X21950Y-14847D01*
X21949Y-14850D01*
X21943Y-14862D01*
X21938Y-14869D01*
X21935Y-14872D01*
X21931Y-14870D01*
X21920Y-14866D01*
X21903Y-14860D01*
X21879Y-14852D01*
X21850Y-14841D01*
X21816Y-14829D01*
X21778Y-14815D01*
X21736Y-14800D01*
X21690Y-14783D01*
X21641Y-14765D01*
X21590Y-14746D01*
X21539Y-14728D01*
X21486Y-14709D01*
X21435Y-14690D01*
X21387Y-14672D01*
X21341Y-14656D01*
X21299Y-14640D01*
X21262Y-14627D01*
X21228Y-14614D01*
X21200Y-14604D01*
X21177Y-14596D01*
X21160Y-14590D01*
X21150Y-14586D01*
X21147Y-14585D01*
X21147Y-14581D01*
X21151Y-14573D01*
X21158Y-14560D01*
X21167Y-14544D01*
X21176Y-14526D01*
X21186Y-14508D01*
X21196Y-14491D01*
X21204Y-14479D01*
X21216Y-14460D01*
X21230Y-14438D01*
X21246Y-14414D01*
X21263Y-14389D01*
X21281Y-14364D01*
X21298Y-14340D01*
X21315Y-14317D01*
X21330Y-14296D01*
X21344Y-14279D01*
X21354Y-14265D01*
X21362Y-14257D01*
X21365Y-14254D01*
X21369Y-14256D01*
X21378Y-14263D01*
X21391Y-14275D01*
X21410Y-14290D01*
X21433Y-14308D01*
X21459Y-14329D01*
X21489Y-14353D01*
X21521Y-14379D01*
X21555Y-14407D01*
X21591Y-14436D01*
X21628Y-14467D01*
X21666Y-14497D01*
X21704Y-14529D01*
X21741Y-14559D01*
X21778Y-14589D01*
X21814Y-14619D01*
X21848Y-14646D01*
X21879Y-14672D01*
X21908Y-14696D01*
X21934Y-14717D01*
X21955Y-14734D01*
X21973Y-14749D01*
X21986Y-14760D01*
X21993Y-14766D01*
X21995Y-14768D01*
X21995Y-14768D01*
X21995Y-14768D01*
G37*
G36*
X23874Y-13823D02*
X23228Y-14303D01*
X23165Y-14350D01*
X23103Y-14396D01*
X23043Y-14441D01*
X22986Y-14483D01*
X22931Y-14524D01*
X22879Y-14563D01*
X22830Y-14599D01*
X22784Y-14633D01*
X22743Y-14664D01*
X22705Y-14692D01*
X22672Y-14716D01*
X22643Y-14738D01*
X22620Y-14755D01*
X22601Y-14769D01*
X22588Y-14778D01*
X22581Y-14783D01*
X22580Y-14784D01*
X22576Y-14782D01*
X22568Y-14775D01*
X22557Y-14764D01*
X22547Y-14754D01*
X22534Y-14741D01*
X22520Y-14728D01*
X22510Y-14718D01*
X22505Y-14714D01*
X22492Y-14705D01*
X22864Y-14152D01*
X22904Y-14092D01*
X22943Y-14034D01*
X22981Y-13978D01*
X23017Y-13925D01*
X23051Y-13874D01*
X23083Y-13826D01*
X23113Y-13782D01*
X23140Y-13742D01*
X23165Y-13705D01*
X23186Y-13673D01*
X23204Y-13646D01*
X23219Y-13624D01*
X23230Y-13608D01*
X23237Y-13597D01*
X23240Y-13593D01*
X23240Y-13592D01*
X23242Y-13590D01*
X23247Y-13589D01*
X23255Y-13590D01*
X23267Y-13592D01*
X23286Y-13595D01*
X23290Y-13596D01*
X23345Y-13608D01*
X23404Y-13624D01*
X23467Y-13644D01*
X23531Y-13665D01*
X23596Y-13690D01*
X23640Y-13707D01*
X23658Y-13715D01*
X23681Y-13725D01*
X23707Y-13737D01*
X23734Y-13750D01*
X23762Y-13764D01*
X23789Y-13777D01*
X23814Y-13789D01*
X23835Y-13800D01*
X23851Y-13809D01*
X23859Y-13814D01*
X23874Y-13823D01*
X23874Y-13823D01*
X23874Y-13823D01*
G37*
G36*
X22315Y-13659D02*
X22315Y-13669D01*
X22315Y-13686D01*
X22314Y-13710D01*
X22314Y-13740D01*
X22313Y-13775D01*
X22312Y-13815D01*
X22311Y-13859D01*
X22310Y-13906D01*
X22309Y-13956D01*
X22308Y-14007D01*
X22306Y-14060D01*
X22305Y-14114D01*
X22304Y-14168D01*
X22303Y-14222D01*
X22301Y-14274D01*
X22300Y-14324D01*
X22299Y-14372D01*
X22298Y-14417D01*
X22297Y-14458D01*
X22296Y-14494D01*
X22295Y-14525D01*
X22294Y-14551D01*
X22293Y-14570D01*
X22293Y-14582D01*
X22293Y-14583D01*
X22291Y-14635D01*
X22261Y-14638D01*
X22241Y-14640D01*
X22219Y-14644D01*
X22203Y-14647D01*
X22189Y-14651D01*
X22178Y-14653D01*
X22173Y-14653D01*
X22173Y-14653D01*
X22172Y-14649D01*
X22169Y-14638D01*
X22163Y-14621D01*
X22156Y-14597D01*
X22146Y-14568D01*
X22135Y-14534D01*
X22123Y-14496D01*
X22109Y-14453D01*
X22094Y-14406D01*
X22078Y-14356D01*
X22061Y-14304D01*
X22043Y-14249D01*
X22037Y-14232D01*
X22019Y-14177D01*
X22002Y-14123D01*
X21986Y-14072D01*
X21970Y-14025D01*
X21956Y-13980D01*
X21943Y-13940D01*
X21932Y-13904D01*
X21922Y-13874D01*
X21914Y-13848D01*
X21908Y-13829D01*
X21904Y-13816D01*
X21902Y-13809D01*
X21902Y-13809D01*
X21905Y-13806D01*
X21915Y-13801D01*
X21930Y-13793D01*
X21949Y-13783D01*
X21972Y-13770D01*
X21999Y-13757D01*
X22015Y-13749D01*
X22079Y-13718D01*
X22138Y-13691D01*
X22192Y-13668D01*
X22240Y-13649D01*
X22282Y-13635D01*
X22282Y-13635D01*
X22315Y-13625D01*
X22315Y-13659D01*
X22315Y-13659D01*
X22315Y-13659D01*
G37*
G54D12*
X22750Y-30500D02*
X21750Y-30500D01*
X21750Y-30500D02*
X21750Y-33500D01*
X21750Y-33500D02*
X22750Y-33500D01*
X22750Y-33500D02*
X22750Y-30500D01*
G54D11*
X22500Y-30500D02*
X22750Y-30750D01*
G54D14*
X12025Y-32315D02*
X11344Y-32315D01*
X11344Y-32152D01*
X11377Y-32112D01*
X11409Y-32091D01*
X11474Y-32071D01*
X11571Y-32071D01*
X11636Y-32091D01*
X11668Y-32112D01*
X11701Y-32152D01*
X11701Y-32315D01*
X12025Y-31663D02*
X12025Y-31908D01*
X12025Y-31786D02*
X11344Y-31786D01*
X11441Y-31826D01*
X11506Y-31867D01*
X11539Y-31908D01*
G54D15*
X11992Y-36021D02*
X11392Y-36021D01*
X11992Y-35830D02*
X11392Y-35830D01*
X11992Y-35602D01*
X11392Y-35602D01*
X11992Y-35411D02*
X11392Y-35411D01*
X11392Y-35259D01*
X11421Y-35221D01*
X11450Y-35202D01*
X11507Y-35183D01*
X11592Y-35183D01*
X11650Y-35202D01*
X11678Y-35221D01*
X11707Y-35259D01*
X11707Y-35411D01*
X11392Y-35011D02*
X11878Y-35011D01*
X11935Y-34992D01*
X11964Y-34973D01*
X11992Y-34935D01*
X11992Y-34859D01*
X11964Y-34821D01*
X11935Y-34802D01*
X11878Y-34783D01*
X11392Y-34783D01*
X11392Y-34649D02*
X11392Y-34421D01*
X11992Y-34535D02*
X11392Y-34535D01*
G54D14*
X25025Y-32065D02*
X24344Y-32065D01*
X24344Y-31902D01*
X24377Y-31862D01*
X24409Y-31841D01*
X24474Y-31821D01*
X24571Y-31821D01*
X24636Y-31841D01*
X24668Y-31862D01*
X24701Y-31902D01*
X24701Y-32065D01*
X24409Y-31658D02*
X24377Y-31637D01*
X24344Y-31597D01*
X24344Y-31495D01*
X24377Y-31454D01*
X24409Y-31434D01*
X24474Y-31413D01*
X24539Y-31413D01*
X24636Y-31434D01*
X25025Y-31678D01*
X25025Y-31413D01*
G54D15*
X24392Y-36461D02*
X24392Y-36385D01*
X24421Y-36347D01*
X24478Y-36309D01*
X24592Y-36290D01*
X24792Y-36290D01*
X24907Y-36309D01*
X24964Y-36347D01*
X24992Y-36385D01*
X24992Y-36461D01*
X24964Y-36499D01*
X24907Y-36538D01*
X24792Y-36557D01*
X24592Y-36557D01*
X24478Y-36538D01*
X24421Y-36499D01*
X24392Y-36461D01*
X24392Y-36119D02*
X24878Y-36119D01*
X24935Y-36099D01*
X24964Y-36080D01*
X24992Y-36042D01*
X24992Y-35966D01*
X24964Y-35928D01*
X24935Y-35909D01*
X24878Y-35890D01*
X24392Y-35890D01*
X24392Y-35757D02*
X24392Y-35528D01*
X24992Y-35642D02*
X24392Y-35642D01*
X24992Y-35395D02*
X24392Y-35395D01*
X24392Y-35242D01*
X24421Y-35204D01*
X24450Y-35185D01*
X24507Y-35166D01*
X24592Y-35166D01*
X24650Y-35185D01*
X24678Y-35204D01*
X24707Y-35242D01*
X24707Y-35395D01*
X24392Y-34995D02*
X24878Y-34995D01*
X24935Y-34976D01*
X24964Y-34957D01*
X24992Y-34919D01*
X24992Y-34842D01*
X24964Y-34804D01*
X24935Y-34785D01*
X24878Y-34766D01*
X24392Y-34766D01*
X24392Y-34633D02*
X24392Y-34404D01*
X24992Y-34519D02*
X24392Y-34519D01*
G54D16*
X12957Y-23492D02*
X12957Y-23978D01*
X12978Y-24035D01*
X13000Y-24064D01*
X13042Y-24092D01*
X13128Y-24092D01*
X13171Y-24064D01*
X13192Y-24035D01*
X13214Y-23978D01*
X13214Y-23492D01*
X13664Y-24092D02*
X13407Y-24092D01*
X13535Y-24092D02*
X13535Y-23492D01*
X13492Y-23578D01*
X13450Y-23635D01*
X13407Y-23664D01*
G54D17*
G54D16*
X13942Y-23635D02*
X13942Y-23335D01*
X14542Y-23528D01*
X14142Y-22971D02*
X14542Y-22971D01*
X13914Y-23078D02*
X14342Y-23185D01*
X14342Y-22907D01*
X14542Y-22735D02*
X13942Y-22735D01*
X14228Y-22735D02*
X14228Y-22478D01*
X14542Y-22478D02*
X13942Y-22478D01*
X14485Y-22007D02*
X14514Y-22028D01*
X14542Y-22092D01*
X14542Y-22135D01*
X14514Y-22199D01*
X14457Y-22242D01*
X14400Y-22264D01*
X14285Y-22285D01*
X14200Y-22285D01*
X14085Y-22264D01*
X14028Y-22242D01*
X13971Y-22199D01*
X13942Y-22135D01*
X13942Y-22092D01*
X13971Y-22028D01*
X14000Y-22007D01*
X13942Y-21599D02*
X13942Y-21814D01*
X14228Y-21835D01*
X14200Y-21814D01*
X14171Y-21771D01*
X14171Y-21664D01*
X14200Y-21621D01*
X14228Y-21599D01*
X14285Y-21578D01*
X14428Y-21578D01*
X14485Y-21599D01*
X14514Y-21621D01*
X14542Y-21664D01*
X14542Y-21771D01*
X14514Y-21814D01*
X14485Y-21835D01*
X14542Y-21364D02*
X14542Y-21278D01*
X14514Y-21235D01*
X14485Y-21214D01*
X14400Y-21171D01*
X14285Y-21150D01*
X14057Y-21150D01*
X14000Y-21171D01*
X13971Y-21192D01*
X13942Y-21235D01*
X13942Y-21321D01*
X13971Y-21364D01*
X14000Y-21385D01*
X14057Y-21407D01*
X14200Y-21407D01*
X14257Y-21385D01*
X14285Y-21364D01*
X14314Y-21321D01*
X14314Y-21235D01*
X14285Y-21192D01*
X14257Y-21171D01*
X14200Y-21150D01*
X13942Y-20742D02*
X13942Y-20957D01*
X14228Y-20978D01*
X14200Y-20957D01*
X14171Y-20914D01*
X14171Y-20807D01*
X14200Y-20764D01*
X14228Y-20742D01*
X14285Y-20721D01*
X14428Y-20721D01*
X14485Y-20742D01*
X14514Y-20764D01*
X14542Y-20807D01*
X14542Y-20914D01*
X14514Y-20957D01*
X14485Y-20978D01*
X14600Y-20635D02*
X14600Y-20292D01*
X14542Y-20185D02*
X13942Y-20185D01*
X13942Y-20014D01*
X13971Y-19971D01*
X14000Y-19950D01*
X14057Y-19928D01*
X14142Y-19928D01*
X14200Y-19950D01*
X14228Y-19971D01*
X14257Y-20014D01*
X14257Y-20185D01*
X13942Y-19650D02*
X13942Y-19564D01*
X13971Y-19521D01*
X14028Y-19478D01*
X14142Y-19457D01*
X14342Y-19457D01*
X14457Y-19478D01*
X14514Y-19521D01*
X14542Y-19564D01*
X14542Y-19650D01*
X14514Y-19692D01*
X14457Y-19735D01*
X14342Y-19757D01*
X14142Y-19757D01*
X14028Y-19735D01*
X13971Y-19692D01*
X13942Y-19650D01*
X13942Y-19307D02*
X14542Y-19200D01*
X14114Y-19114D01*
X14542Y-19028D01*
X13942Y-18921D01*
X14228Y-18750D02*
X14228Y-18600D01*
X14542Y-18535D02*
X14542Y-18750D01*
X13942Y-18750D01*
X13942Y-18535D01*
X14542Y-18085D02*
X14257Y-18235D01*
X14542Y-18342D02*
X13942Y-18342D01*
X13942Y-18171D01*
X13971Y-18128D01*
X14000Y-18107D01*
X14057Y-18085D01*
X14142Y-18085D01*
X14200Y-18107D01*
X14228Y-18128D01*
X14257Y-18171D01*
X14257Y-18342D01*
G54D17*
G54D18*
X13150Y-16138D02*
X13130Y-16176D01*
X13092Y-16214D01*
X13035Y-16271D01*
X13016Y-16309D01*
X13016Y-16347D01*
X13111Y-16328D02*
X13092Y-16366D01*
X13054Y-16404D01*
X12978Y-16423D01*
X12845Y-16423D01*
X12769Y-16404D01*
X12730Y-16366D01*
X12711Y-16328D01*
X12711Y-16252D01*
X12730Y-16214D01*
X12769Y-16176D01*
X12845Y-16157D01*
X12978Y-16157D01*
X13054Y-16176D01*
X13092Y-16214D01*
X13111Y-16252D01*
X13111Y-16328D01*
X13111Y-15776D02*
X13111Y-16004D01*
X13111Y-15890D02*
X12711Y-15890D01*
X12769Y-15928D01*
X12807Y-15966D01*
X12826Y-16004D01*
X14911Y-15573D02*
X14511Y-15573D01*
X14911Y-15345D01*
X14511Y-15345D01*
X14911Y-15154D02*
X14511Y-15154D01*
X14511Y-15002D01*
X14530Y-14964D01*
X14550Y-14945D01*
X14588Y-14926D01*
X14645Y-14926D01*
X14683Y-14945D01*
X14702Y-14964D01*
X14721Y-15002D01*
X14721Y-15154D01*
X14911Y-14754D02*
X14511Y-14754D01*
X14911Y-14526D01*
X14511Y-14526D01*
X11972Y-15083D02*
X11710Y-15250D01*
X11972Y-15369D02*
X11422Y-15369D01*
X11422Y-15178D01*
X11448Y-15130D01*
X11475Y-15107D01*
X11527Y-15083D01*
X11605Y-15083D01*
X11658Y-15107D01*
X11684Y-15130D01*
X11710Y-15178D01*
X11710Y-15369D01*
X11972Y-14607D02*
X11972Y-14892D01*
X11972Y-14750D02*
X11422Y-14750D01*
X11501Y-14797D01*
X11553Y-14845D01*
X11579Y-14892D01*
X13666Y-12972D02*
X13500Y-12710D01*
X13380Y-12972D02*
X13380Y-12422D01*
X13571Y-12422D01*
X13619Y-12448D01*
X13642Y-12475D01*
X13666Y-12527D01*
X13666Y-12605D01*
X13642Y-12658D01*
X13619Y-12684D01*
X13571Y-12710D01*
X13380Y-12710D01*
X13857Y-12475D02*
X13880Y-12448D01*
X13928Y-12422D01*
X14047Y-12422D01*
X14095Y-12448D01*
X14119Y-12475D01*
X14142Y-12527D01*
X14142Y-12579D01*
X14119Y-12658D01*
X13833Y-12972D01*
X14142Y-12972D01*
X15823Y-28316D02*
X15842Y-28335D01*
X15861Y-28392D01*
X15861Y-28430D01*
X15842Y-28488D01*
X15804Y-28526D01*
X15766Y-28545D01*
X15690Y-28564D01*
X15633Y-28564D01*
X15557Y-28545D01*
X15519Y-28526D01*
X15480Y-28488D01*
X15461Y-28430D01*
X15461Y-28392D01*
X15480Y-28335D01*
X15500Y-28316D01*
X15861Y-27935D02*
X15861Y-28164D01*
X15861Y-28049D02*
X15461Y-28049D01*
X15519Y-28088D01*
X15557Y-28126D01*
X15576Y-28164D01*
X13861Y-28697D02*
X13861Y-28926D01*
X13861Y-28811D02*
X13461Y-28811D01*
X13519Y-28849D01*
X13557Y-28888D01*
X13576Y-28926D01*
X13461Y-28449D02*
X13461Y-28411D01*
X13480Y-28373D01*
X13500Y-28354D01*
X13538Y-28335D01*
X13614Y-28316D01*
X13709Y-28316D01*
X13785Y-28335D01*
X13823Y-28354D01*
X13842Y-28373D01*
X13861Y-28411D01*
X13861Y-28449D01*
X13842Y-28488D01*
X13823Y-28507D01*
X13785Y-28526D01*
X13709Y-28545D01*
X13614Y-28545D01*
X13538Y-28526D01*
X13500Y-28507D01*
X13480Y-28488D01*
X13461Y-28449D01*
X13461Y-28069D02*
X13461Y-28030D01*
X13480Y-27992D01*
X13500Y-27973D01*
X13538Y-27954D01*
X13614Y-27935D01*
X13709Y-27935D01*
X13785Y-27954D01*
X13823Y-27973D01*
X13842Y-27992D01*
X13861Y-28030D01*
X13861Y-28069D01*
X13842Y-28107D01*
X13823Y-28126D01*
X13785Y-28145D01*
X13709Y-28164D01*
X13614Y-28164D01*
X13538Y-28145D01*
X13500Y-28126D01*
X13480Y-28107D01*
X13461Y-28069D01*
X13595Y-27592D02*
X13861Y-27592D01*
X13595Y-27764D02*
X13804Y-27764D01*
X13842Y-27745D01*
X13861Y-27707D01*
X13861Y-27650D01*
X13842Y-27611D01*
X13823Y-27592D01*
X17108Y-16423D02*
X17089Y-16442D01*
X17032Y-16461D01*
X16994Y-16461D01*
X16936Y-16442D01*
X16898Y-16404D01*
X16879Y-16366D01*
X16860Y-16290D01*
X16860Y-16233D01*
X16879Y-16157D01*
X16898Y-16119D01*
X16936Y-16080D01*
X16994Y-16061D01*
X17032Y-16061D01*
X17089Y-16080D01*
X17108Y-16100D01*
X17260Y-16100D02*
X17279Y-16080D01*
X17317Y-16061D01*
X17413Y-16061D01*
X17451Y-16080D01*
X17470Y-16100D01*
X17489Y-16138D01*
X17489Y-16176D01*
X17470Y-16233D01*
X17241Y-16461D01*
X17489Y-16461D01*
G54D16*
X19042Y-20289D02*
X18442Y-20289D01*
X18985Y-19817D02*
X19014Y-19839D01*
X19042Y-19903D01*
X19042Y-19946D01*
X19014Y-20010D01*
X18957Y-20053D01*
X18900Y-20074D01*
X18785Y-20096D01*
X18700Y-20096D01*
X18585Y-20074D01*
X18528Y-20053D01*
X18471Y-20010D01*
X18442Y-19946D01*
X18442Y-19903D01*
X18471Y-19839D01*
X18500Y-19817D01*
X19042Y-19389D02*
X19042Y-19646D01*
X19042Y-19517D02*
X18442Y-19517D01*
X18528Y-19560D01*
X18585Y-19603D01*
X18614Y-19646D01*
G54D17*
G54D16*
X17442Y-24671D02*
X17928Y-24671D01*
X17985Y-24650D01*
X18014Y-24628D01*
X18042Y-24585D01*
X18042Y-24500D01*
X18014Y-24457D01*
X17985Y-24435D01*
X17928Y-24414D01*
X17442Y-24414D01*
X18042Y-23985D02*
X18042Y-24199D01*
X17442Y-24199D01*
X18042Y-23835D02*
X17442Y-23835D01*
X18042Y-23578D01*
X17442Y-23578D01*
X17500Y-23385D02*
X17471Y-23364D01*
X17442Y-23321D01*
X17442Y-23214D01*
X17471Y-23171D01*
X17500Y-23149D01*
X17557Y-23128D01*
X17614Y-23128D01*
X17700Y-23149D01*
X18042Y-23407D01*
X18042Y-23128D01*
X17442Y-22849D02*
X17442Y-22807D01*
X17471Y-22764D01*
X17500Y-22742D01*
X17557Y-22721D01*
X17671Y-22699D01*
X17814Y-22699D01*
X17928Y-22721D01*
X17985Y-22742D01*
X18014Y-22764D01*
X18042Y-22807D01*
X18042Y-22849D01*
X18014Y-22892D01*
X17985Y-22914D01*
X17928Y-22935D01*
X17814Y-22957D01*
X17671Y-22957D01*
X17557Y-22935D01*
X17500Y-22914D01*
X17471Y-22892D01*
X17442Y-22849D01*
X17442Y-22421D02*
X17442Y-22378D01*
X17471Y-22335D01*
X17500Y-22314D01*
X17557Y-22292D01*
X17671Y-22271D01*
X17814Y-22271D01*
X17928Y-22292D01*
X17985Y-22314D01*
X18014Y-22335D01*
X18042Y-22378D01*
X18042Y-22421D01*
X18014Y-22464D01*
X17985Y-22485D01*
X17928Y-22507D01*
X17814Y-22528D01*
X17671Y-22528D01*
X17557Y-22507D01*
X17500Y-22485D01*
X17471Y-22464D01*
X17442Y-22421D01*
X17442Y-22121D02*
X17442Y-21842D01*
X17671Y-21992D01*
X17671Y-21928D01*
X17700Y-21885D01*
X17728Y-21864D01*
X17785Y-21842D01*
X17928Y-21842D01*
X17985Y-21864D01*
X18014Y-21885D01*
X18042Y-21928D01*
X18042Y-22057D01*
X18014Y-22100D01*
X17985Y-22121D01*
X17871Y-21671D02*
X17871Y-21457D01*
X18042Y-21714D02*
X17442Y-21564D01*
X18042Y-21414D01*
X18042Y-21264D02*
X17442Y-21264D01*
X17442Y-21157D01*
X17471Y-21092D01*
X17528Y-21050D01*
X17585Y-21028D01*
X17700Y-21007D01*
X17785Y-21007D01*
X17900Y-21028D01*
X17957Y-21050D01*
X18014Y-21092D01*
X18042Y-21157D01*
X18042Y-21264D01*
G54D17*
G54D18*
X22666Y-19222D02*
X22500Y-18960D01*
X22380Y-19222D02*
X22380Y-18672D01*
X22571Y-18672D01*
X22619Y-18698D01*
X22642Y-18725D01*
X22666Y-18777D01*
X22666Y-18855D01*
X22642Y-18908D01*
X22619Y-18934D01*
X22571Y-18960D01*
X22380Y-18960D01*
X23095Y-18672D02*
X23000Y-18672D01*
X22952Y-18698D01*
X22928Y-18725D01*
X22880Y-18803D01*
X22857Y-18908D01*
X22857Y-19117D01*
X22880Y-19170D01*
X22904Y-19196D01*
X22952Y-19222D01*
X23047Y-19222D01*
X23095Y-19196D01*
X23119Y-19170D01*
X23142Y-19117D01*
X23142Y-18986D01*
X23119Y-18934D01*
X23095Y-18908D01*
X23047Y-18882D01*
X22952Y-18882D01*
X22904Y-18908D01*
X22880Y-18934D01*
X22857Y-18986D01*
X22666Y-20222D02*
X22500Y-19960D01*
X22380Y-20222D02*
X22380Y-19672D01*
X22571Y-19672D01*
X22619Y-19698D01*
X22642Y-19725D01*
X22666Y-19777D01*
X22666Y-19855D01*
X22642Y-19908D01*
X22619Y-19934D01*
X22571Y-19960D01*
X22380Y-19960D01*
X22833Y-19672D02*
X23166Y-19672D01*
X22952Y-20222D01*
X22666Y-21222D02*
X22500Y-20960D01*
X22380Y-21222D02*
X22380Y-20672D01*
X22571Y-20672D01*
X22619Y-20698D01*
X22642Y-20725D01*
X22666Y-20777D01*
X22666Y-20855D01*
X22642Y-20908D01*
X22619Y-20934D01*
X22571Y-20960D01*
X22380Y-20960D01*
X22952Y-20908D02*
X22904Y-20882D01*
X22880Y-20855D01*
X22857Y-20803D01*
X22857Y-20777D01*
X22880Y-20725D01*
X22904Y-20698D01*
X22952Y-20672D01*
X23047Y-20672D01*
X23095Y-20698D01*
X23119Y-20725D01*
X23142Y-20777D01*
X23142Y-20803D01*
X23119Y-20855D01*
X23095Y-20882D01*
X23047Y-20908D01*
X22952Y-20908D01*
X22904Y-20934D01*
X22880Y-20960D01*
X22857Y-21013D01*
X22857Y-21117D01*
X22880Y-21170D01*
X22904Y-21196D01*
X22952Y-21222D01*
X23047Y-21222D01*
X23095Y-21196D01*
X23119Y-21170D01*
X23142Y-21117D01*
X23142Y-21013D01*
X23119Y-20960D01*
X23095Y-20934D01*
X23047Y-20908D01*
X22666Y-22222D02*
X22500Y-21960D01*
X22380Y-22222D02*
X22380Y-21672D01*
X22571Y-21672D01*
X22619Y-21698D01*
X22642Y-21725D01*
X22666Y-21777D01*
X22666Y-21855D01*
X22642Y-21908D01*
X22619Y-21934D01*
X22571Y-21960D01*
X22380Y-21960D01*
X22904Y-22222D02*
X23000Y-22222D01*
X23047Y-22196D01*
X23071Y-22170D01*
X23119Y-22091D01*
X23142Y-21986D01*
X23142Y-21777D01*
X23119Y-21725D01*
X23095Y-21698D01*
X23047Y-21672D01*
X22952Y-21672D01*
X22904Y-21698D01*
X22880Y-21725D01*
X22857Y-21777D01*
X22857Y-21908D01*
X22880Y-21960D01*
X22904Y-21986D01*
X22952Y-22013D01*
X23047Y-22013D01*
X23095Y-21986D01*
X23119Y-21960D01*
X23142Y-21908D01*
X22428Y-23222D02*
X22261Y-22960D01*
X22142Y-23222D02*
X22142Y-22672D01*
X22333Y-22672D01*
X22380Y-22698D01*
X22404Y-22725D01*
X22428Y-22777D01*
X22428Y-22855D01*
X22404Y-22908D01*
X22380Y-22934D01*
X22333Y-22960D01*
X22142Y-22960D01*
X22904Y-23222D02*
X22619Y-23222D01*
X22761Y-23222D02*
X22761Y-22672D01*
X22714Y-22751D01*
X22666Y-22803D01*
X22619Y-22829D01*
X23214Y-22672D02*
X23261Y-22672D01*
X23309Y-22698D01*
X23333Y-22725D01*
X23357Y-22777D01*
X23380Y-22882D01*
X23380Y-23013D01*
X23357Y-23117D01*
X23333Y-23170D01*
X23309Y-23196D01*
X23261Y-23222D01*
X23214Y-23222D01*
X23166Y-23196D01*
X23142Y-23170D01*
X23119Y-23117D01*
X23095Y-23013D01*
X23095Y-22882D01*
X23119Y-22777D01*
X23142Y-22725D01*
X23166Y-22698D01*
X23214Y-22672D01*
X22428Y-24222D02*
X22261Y-23960D01*
X22142Y-24222D02*
X22142Y-23672D01*
X22333Y-23672D01*
X22380Y-23698D01*
X22404Y-23725D01*
X22428Y-23777D01*
X22428Y-23855D01*
X22404Y-23908D01*
X22380Y-23934D01*
X22333Y-23960D01*
X22142Y-23960D01*
X22904Y-24222D02*
X22619Y-24222D01*
X22761Y-24222D02*
X22761Y-23672D01*
X22714Y-23751D01*
X22666Y-23803D01*
X22619Y-23829D01*
X23380Y-24222D02*
X23095Y-24222D01*
X23238Y-24222D02*
X23238Y-23672D01*
X23190Y-23751D01*
X23142Y-23803D01*
X23095Y-23829D01*
X22428Y-25222D02*
X22261Y-24960D01*
X22142Y-25222D02*
X22142Y-24672D01*
X22333Y-24672D01*
X22380Y-24698D01*
X22404Y-24725D01*
X22428Y-24777D01*
X22428Y-24855D01*
X22404Y-24908D01*
X22380Y-24934D01*
X22333Y-24960D01*
X22142Y-24960D01*
X22904Y-25222D02*
X22619Y-25222D01*
X22761Y-25222D02*
X22761Y-24672D01*
X22714Y-24751D01*
X22666Y-24803D01*
X22619Y-24829D01*
X23095Y-24725D02*
X23119Y-24698D01*
X23166Y-24672D01*
X23285Y-24672D01*
X23333Y-24698D01*
X23357Y-24725D01*
X23380Y-24777D01*
X23380Y-24829D01*
X23357Y-24908D01*
X23071Y-25222D01*
X23380Y-25222D01*
X22323Y-32241D02*
X22342Y-32260D01*
X22361Y-32317D01*
X22361Y-32355D01*
X22342Y-32413D01*
X22304Y-32451D01*
X22266Y-32470D01*
X22190Y-32489D01*
X22133Y-32489D01*
X22057Y-32470D01*
X22019Y-32451D01*
X21980Y-32413D01*
X21961Y-32355D01*
X21961Y-32317D01*
X21980Y-32260D01*
X22000Y-32241D01*
X21961Y-32108D02*
X21961Y-31860D01*
X22114Y-31994D01*
X22114Y-31936D01*
X22133Y-31898D01*
X22152Y-31879D01*
X22190Y-31860D01*
X22285Y-31860D01*
X22323Y-31879D01*
X22342Y-31898D01*
X22361Y-31936D01*
X22361Y-32051D01*
X22342Y-32089D01*
X22323Y-32108D01*
M02*
