G04 (created by PCBNEW (2013-07-07 BZR 4022)-stable) date 17/03/2015 13:31:24*
%MOIN*%
G04 Gerber Fmt 3.4, Leading zero omitted, Abs format*
%FSLAX34Y34*%
G01*
G70*
G90*
G04 APERTURE LIST*
%ADD10C,0.00590551*%
%ADD11R,0.0987X0.0987*%
%ADD12C,0.0987*%
%ADD13R,0.082X0.11*%
%ADD14O,0.082X0.11*%
%ADD15R,0.11X0.082*%
%ADD16O,0.11X0.082*%
%ADD17R,0.095X0.095*%
%ADD18C,0.095*%
%ADD19C,0.1*%
%ADD20R,0.1X0.1*%
%ADD21C,0.1578*%
G04 APERTURE END LIST*
G54D10*
G54D11*
X12750Y-31000D03*
G54D12*
X12750Y-32000D03*
X12750Y-33000D03*
X12750Y-34000D03*
X12750Y-35000D03*
X12750Y-36000D03*
X12750Y-37000D03*
G54D13*
X20250Y-32700D03*
G54D14*
X19250Y-32700D03*
X18250Y-32700D03*
X17250Y-32700D03*
X16250Y-32700D03*
X16250Y-13800D03*
X17250Y-13800D03*
X18250Y-13800D03*
X19250Y-13800D03*
X20250Y-13800D03*
G54D11*
X23500Y-31000D03*
G54D12*
X23500Y-32000D03*
X23500Y-33000D03*
X23500Y-34000D03*
X23500Y-35000D03*
X23500Y-36000D03*
X23500Y-37000D03*
G54D15*
X15300Y-24850D03*
G54D16*
X15300Y-23850D03*
X15300Y-22850D03*
X15300Y-21850D03*
X15300Y-20850D03*
X15300Y-19850D03*
X15300Y-18850D03*
X15300Y-17850D03*
X12300Y-17850D03*
X12300Y-18850D03*
X12300Y-19850D03*
X12300Y-20850D03*
X12300Y-21850D03*
X12300Y-22850D03*
X12300Y-23850D03*
X12300Y-24850D03*
G54D17*
X14000Y-15750D03*
G54D18*
X14000Y-14750D03*
X13000Y-14750D03*
G54D19*
X11750Y-16500D03*
X11750Y-13500D03*
X15250Y-12750D03*
X12250Y-12750D03*
G54D20*
X14700Y-29250D03*
G54D19*
X14700Y-27250D03*
G54D18*
X16000Y-16250D03*
X18000Y-16250D03*
G54D15*
X16800Y-18850D03*
G54D16*
X16800Y-19850D03*
X16800Y-20850D03*
X16800Y-21850D03*
X16800Y-22850D03*
X16800Y-23850D03*
X16800Y-24850D03*
X16800Y-25850D03*
X19800Y-25850D03*
X19800Y-24850D03*
X19800Y-23850D03*
X19800Y-22850D03*
X19800Y-21850D03*
X19800Y-20850D03*
X19800Y-19850D03*
X19800Y-18850D03*
G54D21*
X24750Y-11250D03*
X12000Y-11250D03*
X14500Y-36750D03*
X21750Y-36750D03*
G54D19*
X21250Y-19000D03*
X24250Y-19000D03*
X21250Y-20000D03*
X24250Y-20000D03*
X21250Y-21000D03*
X24250Y-21000D03*
X21250Y-22000D03*
X24250Y-22000D03*
X21250Y-23000D03*
X24250Y-23000D03*
X21250Y-24000D03*
X24250Y-24000D03*
X21250Y-25000D03*
X24250Y-25000D03*
G54D13*
X20250Y-36200D03*
G54D14*
X19250Y-36200D03*
X18250Y-36200D03*
X17250Y-36200D03*
X16250Y-36200D03*
X16250Y-12600D03*
X17250Y-12600D03*
X18250Y-12600D03*
X19250Y-12600D03*
X20250Y-12600D03*
G54D18*
X22250Y-31000D03*
X22250Y-33000D03*
M02*
