M48
INCH,TZ
T1C0.020
T2C0.025
T3C0.032
T4C0.032
T5C0.118
%
G90
G05
T1
X014700Y-027250
T2
X011000Y-020500
X013250Y-029750
X013320Y-022570
X015250Y-033750
X015750Y-032000
X018750Y-017250
X019500Y-016750
X021250Y-035500
X022500Y-026250
X022750Y-018000
X023000Y-026500
X023250Y-029250
X023500Y-026750
T3
X011750Y-013500
X011750Y-016500
X012250Y-012750
X013000Y-014750
X014000Y-014750
X014000Y-015750
X015250Y-012750
X016000Y-016250
X018000Y-016250
X021250Y-019000
X021250Y-020000
X021250Y-021000
X021250Y-022000
X021250Y-023000
X021250Y-024000
X021250Y-025000
X022250Y-031000
X022250Y-033000
X024250Y-019000
X024250Y-020000
X024250Y-021000
X024250Y-022000
X024250Y-023000
X024250Y-024000
X024250Y-025000
T4
X012300Y-017850
X012300Y-018850
X012300Y-019850
X012300Y-020850
X012300Y-021850
X012300Y-022850
X012300Y-023850
X012300Y-024850
X012750Y-031000
X012750Y-032000
X012750Y-033000
X012750Y-034000
X012750Y-035000
X012750Y-036000
X012750Y-037000
X014700Y-029250
X015300Y-017850
X015300Y-018850
X015300Y-019850
X015300Y-020850
X015300Y-021850
X015300Y-022850
X015300Y-023850
X015300Y-024850
X016250Y-012600
X016250Y-013800
X016250Y-032700
X016250Y-036200
X016800Y-018850
X016800Y-019850
X016800Y-020850
X016800Y-021850
X016800Y-022850
X016800Y-023850
X016800Y-024850
X016800Y-025850
X017250Y-012600
X017250Y-013800
X017250Y-032700
X017250Y-036200
X018250Y-012600
X018250Y-013800
X018250Y-032700
X018250Y-036200
X019250Y-012600
X019250Y-013800
X019250Y-032700
X019250Y-036200
X019800Y-018850
X019800Y-019850
X019800Y-020850
X019800Y-021850
X019800Y-022850
X019800Y-023850
X019800Y-024850
X019800Y-025850
X020250Y-012600
X020250Y-013800
X020250Y-032700
X020250Y-036200
X023500Y-031000
X023500Y-032000
X023500Y-033000
X023500Y-034000
X023500Y-035000
X023500Y-036000
X023500Y-037000
T5
X012000Y-011250
X014500Y-036750
X021750Y-036750
X024750Y-011250
T0
M30
