G04 (created by PCBNEW (2013-07-07 BZR 4022)-stable) date 17/03/2015 13:31:24*
%MOIN*%
G04 Gerber Fmt 3.4, Leading zero omitted, Abs format*
%FSLAX34Y34*%
G01*
G70*
G90*
G04 APERTURE LIST*
%ADD10C,0.00590551*%
%ADD11R,0.0787X0.0787*%
%ADD12C,0.0787*%
%ADD13R,0.062X0.09*%
%ADD14O,0.062X0.09*%
%ADD15R,0.09X0.062*%
%ADD16O,0.09X0.062*%
%ADD17R,0.075X0.075*%
%ADD18C,0.075*%
%ADD19C,0.08*%
%ADD20R,0.08X0.08*%
%ADD21C,0.1378*%
%ADD22C,0.035*%
%ADD23C,0.03*%
%ADD24C,0.01*%
G04 APERTURE END LIST*
G54D10*
G54D11*
X12750Y-31000D03*
G54D12*
X12750Y-32000D03*
X12750Y-33000D03*
X12750Y-34000D03*
X12750Y-35000D03*
X12750Y-36000D03*
X12750Y-37000D03*
G54D13*
X20250Y-32700D03*
G54D14*
X19250Y-32700D03*
X18250Y-32700D03*
X17250Y-32700D03*
X16250Y-32700D03*
X16250Y-13800D03*
X17250Y-13800D03*
X18250Y-13800D03*
X19250Y-13800D03*
X20250Y-13800D03*
G54D11*
X23500Y-31000D03*
G54D12*
X23500Y-32000D03*
X23500Y-33000D03*
X23500Y-34000D03*
X23500Y-35000D03*
X23500Y-36000D03*
X23500Y-37000D03*
G54D15*
X15300Y-24850D03*
G54D16*
X15300Y-23850D03*
X15300Y-22850D03*
X15300Y-21850D03*
X15300Y-20850D03*
X15300Y-19850D03*
X15300Y-18850D03*
X15300Y-17850D03*
X12300Y-17850D03*
X12300Y-18850D03*
X12300Y-19850D03*
X12300Y-20850D03*
X12300Y-21850D03*
X12300Y-22850D03*
X12300Y-23850D03*
X12300Y-24850D03*
G54D17*
X14000Y-15750D03*
G54D18*
X14000Y-14750D03*
X13000Y-14750D03*
G54D19*
X11750Y-16500D03*
X11750Y-13500D03*
X15250Y-12750D03*
X12250Y-12750D03*
G54D20*
X14700Y-29250D03*
G54D19*
X14700Y-27250D03*
G54D18*
X16000Y-16250D03*
X18000Y-16250D03*
G54D15*
X16800Y-18850D03*
G54D16*
X16800Y-19850D03*
X16800Y-20850D03*
X16800Y-21850D03*
X16800Y-22850D03*
X16800Y-23850D03*
X16800Y-24850D03*
X16800Y-25850D03*
X19800Y-25850D03*
X19800Y-24850D03*
X19800Y-23850D03*
X19800Y-22850D03*
X19800Y-21850D03*
X19800Y-20850D03*
X19800Y-19850D03*
X19800Y-18850D03*
G54D21*
X24750Y-11250D03*
X12000Y-11250D03*
X14500Y-36750D03*
X21750Y-36750D03*
G54D19*
X21250Y-19000D03*
X24250Y-19000D03*
X21250Y-20000D03*
X24250Y-20000D03*
X21250Y-21000D03*
X24250Y-21000D03*
X21250Y-22000D03*
X24250Y-22000D03*
X21250Y-23000D03*
X24250Y-23000D03*
X21250Y-24000D03*
X24250Y-24000D03*
X21250Y-25000D03*
X24250Y-25000D03*
G54D13*
X20250Y-36200D03*
G54D14*
X19250Y-36200D03*
X18250Y-36200D03*
X17250Y-36200D03*
X16250Y-36200D03*
X16250Y-12600D03*
X17250Y-12600D03*
X18250Y-12600D03*
X19250Y-12600D03*
X20250Y-12600D03*
G54D18*
X22250Y-31000D03*
X22250Y-33000D03*
G54D22*
X13320Y-22570D03*
X11000Y-20500D03*
X13250Y-29750D03*
X15250Y-33750D03*
X22750Y-18000D03*
X19500Y-16750D03*
X22500Y-26250D03*
X23500Y-26750D03*
X23000Y-26500D03*
X23250Y-29250D03*
X21250Y-35500D03*
X18750Y-17250D03*
X15750Y-32000D03*
G54D23*
X13320Y-22570D02*
X13250Y-22500D01*
X11750Y-17250D02*
X15000Y-17250D01*
X13250Y-19250D02*
X12850Y-18850D01*
X12850Y-18850D02*
X12300Y-18850D01*
X15000Y-17250D02*
X16000Y-16250D01*
X12300Y-18850D02*
X11850Y-18850D01*
X11500Y-17500D02*
X11750Y-17250D01*
X11500Y-18500D02*
X11500Y-17500D01*
X11850Y-18850D02*
X11500Y-18500D01*
X13250Y-22500D02*
X13250Y-19250D01*
X20900Y-31500D02*
X21100Y-31500D01*
X21600Y-32000D02*
X23500Y-32000D01*
X21100Y-31500D02*
X21600Y-32000D01*
X14000Y-31500D02*
X13500Y-32000D01*
X13500Y-32000D02*
X12750Y-32000D01*
X11650Y-19850D02*
X12300Y-19850D01*
X20900Y-31500D02*
X14000Y-31500D01*
X11000Y-20500D02*
X11650Y-19850D01*
X13250Y-29750D02*
X13250Y-28750D01*
X12300Y-22850D02*
X12600Y-22850D01*
X12600Y-22850D02*
X13250Y-23500D01*
X13250Y-28750D02*
X13250Y-29250D01*
X13250Y-23500D02*
X13250Y-28750D01*
X22250Y-33000D02*
X22250Y-33250D01*
X23000Y-34000D02*
X23500Y-34000D01*
X22250Y-33250D02*
X23000Y-34000D01*
X15000Y-34000D02*
X15250Y-33750D01*
X12750Y-36000D02*
X13500Y-35250D01*
X22750Y-35250D02*
X22750Y-34500D01*
X23500Y-36000D02*
X22750Y-35250D01*
X13500Y-35250D02*
X13500Y-34250D01*
X13500Y-34250D02*
X13250Y-34000D01*
X23500Y-34000D02*
X23250Y-34000D01*
X13250Y-34000D02*
X12750Y-34000D01*
X23250Y-34000D02*
X22750Y-34500D01*
X12750Y-34000D02*
X15000Y-34000D01*
X21650Y-31000D02*
X22250Y-31000D01*
X12750Y-31000D02*
X21650Y-31000D01*
X21650Y-31000D02*
X23500Y-31000D01*
X11500Y-25500D02*
X11500Y-21650D01*
X11500Y-21650D02*
X12300Y-20850D01*
X12750Y-26750D02*
X11500Y-25500D01*
X12750Y-31000D02*
X12750Y-26750D01*
X11750Y-13500D02*
X13500Y-13500D01*
X14000Y-14000D02*
X14000Y-14750D01*
X13500Y-13500D02*
X14000Y-14000D01*
X25000Y-18250D02*
X25000Y-18750D01*
X19250Y-13800D02*
X19250Y-16500D01*
X24750Y-18000D02*
X25000Y-18250D01*
X25000Y-23500D02*
X25000Y-18750D01*
X24500Y-24000D02*
X25000Y-23500D01*
X24250Y-24000D02*
X24500Y-24000D01*
X19250Y-16500D02*
X19500Y-16750D01*
X22750Y-18000D02*
X24750Y-18000D01*
X20950Y-30500D02*
X21400Y-30500D01*
X21900Y-30000D02*
X24000Y-30000D01*
X21400Y-30500D02*
X21900Y-30000D01*
X24000Y-30000D02*
X24300Y-30300D01*
X24500Y-32250D02*
X24500Y-30500D01*
X16500Y-29750D02*
X17250Y-30500D01*
X12300Y-17850D02*
X13350Y-17850D01*
X14000Y-18500D02*
X14000Y-25000D01*
X23500Y-33000D02*
X23750Y-33000D01*
X16500Y-27500D02*
X16500Y-29750D01*
X17250Y-30500D02*
X20950Y-30500D01*
X13350Y-17850D02*
X14000Y-18500D01*
X23750Y-33000D02*
X24500Y-32250D01*
X24500Y-30500D02*
X24300Y-30300D01*
X24300Y-30300D02*
X24000Y-30000D01*
X14000Y-25000D02*
X16500Y-27500D01*
X17250Y-36200D02*
X17250Y-32700D01*
X23000Y-21000D02*
X24250Y-21000D01*
X22500Y-21500D02*
X23000Y-21000D01*
X22500Y-26250D02*
X22500Y-21500D01*
X20250Y-34500D02*
X19250Y-33500D01*
X20250Y-36200D02*
X20250Y-34500D01*
X19250Y-33500D02*
X19250Y-32700D01*
X23500Y-26750D02*
X23500Y-23250D01*
X23500Y-23250D02*
X23750Y-23000D01*
X23750Y-23000D02*
X24250Y-23000D01*
X19250Y-36200D02*
X19250Y-34750D01*
X23000Y-26500D02*
X23000Y-22500D01*
X23500Y-22000D02*
X24250Y-22000D01*
X23000Y-22500D02*
X23500Y-22000D01*
X19250Y-34750D02*
X18250Y-33750D01*
X18250Y-33750D02*
X18250Y-32700D01*
X23250Y-29250D02*
X21250Y-27250D01*
X20450Y-32700D02*
X21250Y-33500D01*
X21250Y-16000D02*
X21250Y-12000D01*
X19500Y-27250D02*
X18750Y-26500D01*
X18750Y-26500D02*
X18750Y-18500D01*
X21250Y-27250D02*
X19500Y-27250D01*
X18750Y-18500D02*
X21250Y-16000D01*
X18250Y-12000D02*
X18250Y-12600D01*
X20250Y-32500D02*
X20250Y-32700D01*
X18500Y-11750D02*
X18250Y-12000D01*
X21250Y-12000D02*
X21000Y-11750D01*
X21000Y-11750D02*
X18500Y-11750D01*
X20250Y-32700D02*
X20450Y-32700D01*
X21250Y-33500D02*
X21250Y-35500D01*
X16250Y-32500D02*
X16848Y-31902D01*
X19652Y-31902D02*
X20250Y-32500D01*
X16848Y-31902D02*
X19652Y-31902D01*
X16250Y-32700D02*
X16250Y-32500D01*
X16250Y-33750D02*
X15500Y-33000D01*
X18750Y-14750D02*
X18250Y-14250D01*
X18250Y-14250D02*
X18250Y-13800D01*
X16250Y-36200D02*
X16250Y-33750D01*
X18750Y-17250D02*
X18750Y-14750D01*
X15500Y-32250D02*
X15750Y-32000D01*
X15500Y-33000D02*
X15500Y-32250D01*
X15250Y-12750D02*
X15250Y-14500D01*
X18250Y-14500D02*
X18250Y-13800D01*
X18000Y-14750D02*
X18250Y-14500D01*
X15500Y-14750D02*
X18000Y-14750D01*
X15250Y-14500D02*
X15500Y-14750D01*
G54D10*
G36*
X12357Y-21900D02*
X12350Y-21900D01*
X12350Y-21907D01*
X12250Y-21907D01*
X12250Y-21900D01*
X12242Y-21900D01*
X12242Y-21800D01*
X12250Y-21800D01*
X12250Y-21792D01*
X12350Y-21792D01*
X12350Y-21800D01*
X12357Y-21800D01*
X12357Y-21900D01*
X12357Y-21900D01*
G37*
G54D24*
X12357Y-21900D02*
X12350Y-21900D01*
X12350Y-21907D01*
X12250Y-21907D01*
X12250Y-21900D01*
X12242Y-21900D01*
X12242Y-21800D01*
X12250Y-21800D01*
X12250Y-21792D01*
X12350Y-21792D01*
X12350Y-21800D01*
X12357Y-21800D01*
X12357Y-21900D01*
G54D10*
G36*
X16784Y-30600D02*
X15354Y-30600D01*
X15354Y-27355D01*
X15344Y-27097D01*
X15264Y-26902D01*
X15158Y-26862D01*
X15087Y-26933D01*
X15087Y-26791D01*
X15047Y-26685D01*
X14805Y-26595D01*
X14547Y-26605D01*
X14352Y-26685D01*
X14312Y-26791D01*
X14700Y-27179D01*
X15087Y-26791D01*
X15087Y-26933D01*
X14770Y-27250D01*
X15158Y-27637D01*
X15264Y-27597D01*
X15354Y-27355D01*
X15354Y-30600D01*
X15350Y-30600D01*
X15350Y-29600D01*
X15350Y-28800D01*
X15312Y-28708D01*
X15241Y-28638D01*
X15149Y-28600D01*
X15087Y-28599D01*
X15087Y-27708D01*
X14700Y-27320D01*
X14629Y-27391D01*
X14629Y-27250D01*
X14241Y-26862D01*
X14135Y-26902D01*
X14045Y-27144D01*
X14055Y-27402D01*
X14135Y-27597D01*
X14241Y-27637D01*
X14629Y-27250D01*
X14629Y-27391D01*
X14312Y-27708D01*
X14352Y-27814D01*
X14594Y-27904D01*
X14852Y-27894D01*
X15047Y-27814D01*
X15087Y-27708D01*
X15087Y-28599D01*
X15050Y-28599D01*
X14250Y-28599D01*
X14158Y-28637D01*
X14088Y-28708D01*
X14050Y-28800D01*
X14049Y-28899D01*
X14049Y-29699D01*
X14087Y-29791D01*
X14158Y-29861D01*
X14250Y-29899D01*
X14349Y-29900D01*
X15149Y-29900D01*
X15241Y-29862D01*
X15311Y-29791D01*
X15349Y-29699D01*
X15350Y-29600D01*
X15350Y-30600D01*
X13393Y-30600D01*
X13393Y-30556D01*
X13355Y-30465D01*
X13285Y-30394D01*
X13193Y-30356D01*
X13150Y-30356D01*
X13150Y-30168D01*
X13165Y-30174D01*
X13334Y-30175D01*
X13490Y-30110D01*
X13610Y-29991D01*
X13674Y-29834D01*
X13675Y-29665D01*
X13650Y-29605D01*
X13650Y-29250D01*
X13650Y-28750D01*
X13650Y-25182D01*
X13717Y-25282D01*
X16100Y-27665D01*
X16100Y-29750D01*
X16125Y-29877D01*
X16130Y-29903D01*
X16217Y-30032D01*
X16784Y-30600D01*
X16784Y-30600D01*
G37*
G54D24*
X16784Y-30600D02*
X15354Y-30600D01*
X15354Y-27355D01*
X15344Y-27097D01*
X15264Y-26902D01*
X15158Y-26862D01*
X15087Y-26933D01*
X15087Y-26791D01*
X15047Y-26685D01*
X14805Y-26595D01*
X14547Y-26605D01*
X14352Y-26685D01*
X14312Y-26791D01*
X14700Y-27179D01*
X15087Y-26791D01*
X15087Y-26933D01*
X14770Y-27250D01*
X15158Y-27637D01*
X15264Y-27597D01*
X15354Y-27355D01*
X15354Y-30600D01*
X15350Y-30600D01*
X15350Y-29600D01*
X15350Y-28800D01*
X15312Y-28708D01*
X15241Y-28638D01*
X15149Y-28600D01*
X15087Y-28599D01*
X15087Y-27708D01*
X14700Y-27320D01*
X14629Y-27391D01*
X14629Y-27250D01*
X14241Y-26862D01*
X14135Y-26902D01*
X14045Y-27144D01*
X14055Y-27402D01*
X14135Y-27597D01*
X14241Y-27637D01*
X14629Y-27250D01*
X14629Y-27391D01*
X14312Y-27708D01*
X14352Y-27814D01*
X14594Y-27904D01*
X14852Y-27894D01*
X15047Y-27814D01*
X15087Y-27708D01*
X15087Y-28599D01*
X15050Y-28599D01*
X14250Y-28599D01*
X14158Y-28637D01*
X14088Y-28708D01*
X14050Y-28800D01*
X14049Y-28899D01*
X14049Y-29699D01*
X14087Y-29791D01*
X14158Y-29861D01*
X14250Y-29899D01*
X14349Y-29900D01*
X15149Y-29900D01*
X15241Y-29862D01*
X15311Y-29791D01*
X15349Y-29699D01*
X15350Y-29600D01*
X15350Y-30600D01*
X13393Y-30600D01*
X13393Y-30556D01*
X13355Y-30465D01*
X13285Y-30394D01*
X13193Y-30356D01*
X13150Y-30356D01*
X13150Y-30168D01*
X13165Y-30174D01*
X13334Y-30175D01*
X13490Y-30110D01*
X13610Y-29991D01*
X13674Y-29834D01*
X13675Y-29665D01*
X13650Y-29605D01*
X13650Y-29250D01*
X13650Y-28750D01*
X13650Y-25182D01*
X13717Y-25282D01*
X16100Y-27665D01*
X16100Y-29750D01*
X16125Y-29877D01*
X16130Y-29903D01*
X16217Y-30032D01*
X16784Y-30600D01*
G54D10*
G36*
X21435Y-37675D02*
X14814Y-37675D01*
X15051Y-37577D01*
X15326Y-37303D01*
X15474Y-36944D01*
X15475Y-36556D01*
X15327Y-36198D01*
X15053Y-35923D01*
X14694Y-35775D01*
X14306Y-35774D01*
X13948Y-35922D01*
X13673Y-36196D01*
X13525Y-36555D01*
X13524Y-36943D01*
X13672Y-37301D01*
X13946Y-37576D01*
X14185Y-37675D01*
X13397Y-37675D01*
X13397Y-36104D01*
X13397Y-34104D01*
X13388Y-33848D01*
X13308Y-33655D01*
X13203Y-33617D01*
X12820Y-34000D01*
X13203Y-34382D01*
X13308Y-34344D01*
X13397Y-34104D01*
X13397Y-36104D01*
X13393Y-35991D01*
X13393Y-34872D01*
X13295Y-34635D01*
X13127Y-34467D01*
X13132Y-34453D01*
X12750Y-34070D01*
X12679Y-34141D01*
X12679Y-34000D01*
X12296Y-33617D01*
X12191Y-33655D01*
X12102Y-33895D01*
X12111Y-34151D01*
X12191Y-34344D01*
X12296Y-34382D01*
X12679Y-34000D01*
X12679Y-34141D01*
X12367Y-34453D01*
X12372Y-34467D01*
X12204Y-34635D01*
X12106Y-34871D01*
X12106Y-35127D01*
X12204Y-35364D01*
X12372Y-35532D01*
X12367Y-35546D01*
X12750Y-35929D01*
X13132Y-35546D01*
X13127Y-35532D01*
X13295Y-35364D01*
X13393Y-35128D01*
X13393Y-34872D01*
X13393Y-35991D01*
X13388Y-35848D01*
X13308Y-35655D01*
X13203Y-35617D01*
X12820Y-36000D01*
X13203Y-36382D01*
X13308Y-36344D01*
X13397Y-36104D01*
X13397Y-37675D01*
X13393Y-37675D01*
X13393Y-36872D01*
X13295Y-36635D01*
X13127Y-36467D01*
X13132Y-36453D01*
X12750Y-36070D01*
X12679Y-36141D01*
X12679Y-36000D01*
X12296Y-35617D01*
X12191Y-35655D01*
X12102Y-35895D01*
X12111Y-36151D01*
X12191Y-36344D01*
X12296Y-36382D01*
X12679Y-36000D01*
X12679Y-36141D01*
X12367Y-36453D01*
X12372Y-36467D01*
X12204Y-36635D01*
X12106Y-36871D01*
X12106Y-37127D01*
X12204Y-37364D01*
X12385Y-37545D01*
X12621Y-37643D01*
X12877Y-37643D01*
X13114Y-37545D01*
X13295Y-37364D01*
X13393Y-37128D01*
X13393Y-36872D01*
X13393Y-37675D01*
X10825Y-37675D01*
X10825Y-20887D01*
X10915Y-20924D01*
X11084Y-20925D01*
X11240Y-20860D01*
X11360Y-20741D01*
X11385Y-20680D01*
X11791Y-20273D01*
X11905Y-20350D01*
X11750Y-20454D01*
X11628Y-20635D01*
X11586Y-20850D01*
X11610Y-20973D01*
X11217Y-21367D01*
X11130Y-21496D01*
X11125Y-21522D01*
X11100Y-21650D01*
X11100Y-25500D01*
X11125Y-25627D01*
X11130Y-25653D01*
X11217Y-25782D01*
X12350Y-26915D01*
X12350Y-30356D01*
X12306Y-30356D01*
X12215Y-30394D01*
X12144Y-30464D01*
X12106Y-30556D01*
X12106Y-30656D01*
X12106Y-31443D01*
X12144Y-31534D01*
X12214Y-31605D01*
X12228Y-31611D01*
X12204Y-31635D01*
X12106Y-31871D01*
X12106Y-32127D01*
X12204Y-32364D01*
X12339Y-32500D01*
X12204Y-32635D01*
X12106Y-32871D01*
X12106Y-33127D01*
X12204Y-33364D01*
X12372Y-33532D01*
X12367Y-33546D01*
X12750Y-33929D01*
X13132Y-33546D01*
X13127Y-33532D01*
X13295Y-33364D01*
X13393Y-33128D01*
X13393Y-32872D01*
X13295Y-32635D01*
X13160Y-32499D01*
X13260Y-32400D01*
X13500Y-32400D01*
X13500Y-32399D01*
X13627Y-32374D01*
X13653Y-32369D01*
X13653Y-32369D01*
X13782Y-32282D01*
X14165Y-31900D01*
X15284Y-31900D01*
X15217Y-31967D01*
X15130Y-32096D01*
X15125Y-32122D01*
X15100Y-32250D01*
X15100Y-33000D01*
X15125Y-33127D01*
X15130Y-33153D01*
X15217Y-33282D01*
X15850Y-33915D01*
X15850Y-35656D01*
X15732Y-35831D01*
X15690Y-36046D01*
X15690Y-36353D01*
X15732Y-36568D01*
X15854Y-36749D01*
X16035Y-36871D01*
X16250Y-36913D01*
X16464Y-36871D01*
X16645Y-36749D01*
X16750Y-36594D01*
X16854Y-36749D01*
X17035Y-36871D01*
X17250Y-36913D01*
X17464Y-36871D01*
X17645Y-36749D01*
X17750Y-36594D01*
X17854Y-36749D01*
X18035Y-36871D01*
X18250Y-36913D01*
X18464Y-36871D01*
X18645Y-36749D01*
X18750Y-36594D01*
X18854Y-36749D01*
X19035Y-36871D01*
X19250Y-36913D01*
X19464Y-36871D01*
X19645Y-36749D01*
X19689Y-36683D01*
X19689Y-36699D01*
X19727Y-36791D01*
X19798Y-36861D01*
X19890Y-36899D01*
X19989Y-36900D01*
X20609Y-36900D01*
X20701Y-36862D01*
X20771Y-36791D01*
X20774Y-36784D01*
X20774Y-36943D01*
X20922Y-37301D01*
X21196Y-37576D01*
X21435Y-37675D01*
X21435Y-37675D01*
G37*
G54D24*
X21435Y-37675D02*
X14814Y-37675D01*
X15051Y-37577D01*
X15326Y-37303D01*
X15474Y-36944D01*
X15475Y-36556D01*
X15327Y-36198D01*
X15053Y-35923D01*
X14694Y-35775D01*
X14306Y-35774D01*
X13948Y-35922D01*
X13673Y-36196D01*
X13525Y-36555D01*
X13524Y-36943D01*
X13672Y-37301D01*
X13946Y-37576D01*
X14185Y-37675D01*
X13397Y-37675D01*
X13397Y-36104D01*
X13397Y-34104D01*
X13388Y-33848D01*
X13308Y-33655D01*
X13203Y-33617D01*
X12820Y-34000D01*
X13203Y-34382D01*
X13308Y-34344D01*
X13397Y-34104D01*
X13397Y-36104D01*
X13393Y-35991D01*
X13393Y-34872D01*
X13295Y-34635D01*
X13127Y-34467D01*
X13132Y-34453D01*
X12750Y-34070D01*
X12679Y-34141D01*
X12679Y-34000D01*
X12296Y-33617D01*
X12191Y-33655D01*
X12102Y-33895D01*
X12111Y-34151D01*
X12191Y-34344D01*
X12296Y-34382D01*
X12679Y-34000D01*
X12679Y-34141D01*
X12367Y-34453D01*
X12372Y-34467D01*
X12204Y-34635D01*
X12106Y-34871D01*
X12106Y-35127D01*
X12204Y-35364D01*
X12372Y-35532D01*
X12367Y-35546D01*
X12750Y-35929D01*
X13132Y-35546D01*
X13127Y-35532D01*
X13295Y-35364D01*
X13393Y-35128D01*
X13393Y-34872D01*
X13393Y-35991D01*
X13388Y-35848D01*
X13308Y-35655D01*
X13203Y-35617D01*
X12820Y-36000D01*
X13203Y-36382D01*
X13308Y-36344D01*
X13397Y-36104D01*
X13397Y-37675D01*
X13393Y-37675D01*
X13393Y-36872D01*
X13295Y-36635D01*
X13127Y-36467D01*
X13132Y-36453D01*
X12750Y-36070D01*
X12679Y-36141D01*
X12679Y-36000D01*
X12296Y-35617D01*
X12191Y-35655D01*
X12102Y-35895D01*
X12111Y-36151D01*
X12191Y-36344D01*
X12296Y-36382D01*
X12679Y-36000D01*
X12679Y-36141D01*
X12367Y-36453D01*
X12372Y-36467D01*
X12204Y-36635D01*
X12106Y-36871D01*
X12106Y-37127D01*
X12204Y-37364D01*
X12385Y-37545D01*
X12621Y-37643D01*
X12877Y-37643D01*
X13114Y-37545D01*
X13295Y-37364D01*
X13393Y-37128D01*
X13393Y-36872D01*
X13393Y-37675D01*
X10825Y-37675D01*
X10825Y-20887D01*
X10915Y-20924D01*
X11084Y-20925D01*
X11240Y-20860D01*
X11360Y-20741D01*
X11385Y-20680D01*
X11791Y-20273D01*
X11905Y-20350D01*
X11750Y-20454D01*
X11628Y-20635D01*
X11586Y-20850D01*
X11610Y-20973D01*
X11217Y-21367D01*
X11130Y-21496D01*
X11125Y-21522D01*
X11100Y-21650D01*
X11100Y-25500D01*
X11125Y-25627D01*
X11130Y-25653D01*
X11217Y-25782D01*
X12350Y-26915D01*
X12350Y-30356D01*
X12306Y-30356D01*
X12215Y-30394D01*
X12144Y-30464D01*
X12106Y-30556D01*
X12106Y-30656D01*
X12106Y-31443D01*
X12144Y-31534D01*
X12214Y-31605D01*
X12228Y-31611D01*
X12204Y-31635D01*
X12106Y-31871D01*
X12106Y-32127D01*
X12204Y-32364D01*
X12339Y-32500D01*
X12204Y-32635D01*
X12106Y-32871D01*
X12106Y-33127D01*
X12204Y-33364D01*
X12372Y-33532D01*
X12367Y-33546D01*
X12750Y-33929D01*
X13132Y-33546D01*
X13127Y-33532D01*
X13295Y-33364D01*
X13393Y-33128D01*
X13393Y-32872D01*
X13295Y-32635D01*
X13160Y-32499D01*
X13260Y-32400D01*
X13500Y-32400D01*
X13500Y-32399D01*
X13627Y-32374D01*
X13653Y-32369D01*
X13653Y-32369D01*
X13782Y-32282D01*
X14165Y-31900D01*
X15284Y-31900D01*
X15217Y-31967D01*
X15130Y-32096D01*
X15125Y-32122D01*
X15100Y-32250D01*
X15100Y-33000D01*
X15125Y-33127D01*
X15130Y-33153D01*
X15217Y-33282D01*
X15850Y-33915D01*
X15850Y-35656D01*
X15732Y-35831D01*
X15690Y-36046D01*
X15690Y-36353D01*
X15732Y-36568D01*
X15854Y-36749D01*
X16035Y-36871D01*
X16250Y-36913D01*
X16464Y-36871D01*
X16645Y-36749D01*
X16750Y-36594D01*
X16854Y-36749D01*
X17035Y-36871D01*
X17250Y-36913D01*
X17464Y-36871D01*
X17645Y-36749D01*
X17750Y-36594D01*
X17854Y-36749D01*
X18035Y-36871D01*
X18250Y-36913D01*
X18464Y-36871D01*
X18645Y-36749D01*
X18750Y-36594D01*
X18854Y-36749D01*
X19035Y-36871D01*
X19250Y-36913D01*
X19464Y-36871D01*
X19645Y-36749D01*
X19689Y-36683D01*
X19689Y-36699D01*
X19727Y-36791D01*
X19798Y-36861D01*
X19890Y-36899D01*
X19989Y-36900D01*
X20609Y-36900D01*
X20701Y-36862D01*
X20771Y-36791D01*
X20774Y-36784D01*
X20774Y-36943D01*
X20922Y-37301D01*
X21196Y-37576D01*
X21435Y-37675D01*
G54D10*
G36*
X25675Y-37675D02*
X25400Y-37675D01*
X25400Y-23500D01*
X25400Y-18750D01*
X25400Y-18250D01*
X25369Y-18096D01*
X25369Y-18096D01*
X25340Y-18053D01*
X25282Y-17967D01*
X25282Y-17967D01*
X25032Y-17717D01*
X24903Y-17630D01*
X24877Y-17625D01*
X24750Y-17600D01*
X22894Y-17600D01*
X22834Y-17575D01*
X22665Y-17574D01*
X22509Y-17639D01*
X22389Y-17758D01*
X22325Y-17915D01*
X22324Y-18084D01*
X22389Y-18240D01*
X22508Y-18360D01*
X22665Y-18424D01*
X22834Y-18425D01*
X22894Y-18400D01*
X23999Y-18400D01*
X23882Y-18448D01*
X23699Y-18631D01*
X23600Y-18870D01*
X23599Y-19128D01*
X23698Y-19367D01*
X23830Y-19500D01*
X23699Y-19631D01*
X23600Y-19870D01*
X23599Y-20128D01*
X23698Y-20367D01*
X23830Y-20500D01*
X23730Y-20600D01*
X23000Y-20600D01*
X22846Y-20630D01*
X22803Y-20659D01*
X22717Y-20717D01*
X22217Y-21217D01*
X22130Y-21346D01*
X22125Y-21372D01*
X22100Y-21500D01*
X22100Y-26105D01*
X22075Y-26165D01*
X22074Y-26334D01*
X22139Y-26490D01*
X22258Y-26610D01*
X22415Y-26674D01*
X22584Y-26675D01*
X22608Y-26665D01*
X22639Y-26740D01*
X22758Y-26860D01*
X22915Y-26924D01*
X23084Y-26925D01*
X23108Y-26915D01*
X23139Y-26990D01*
X23258Y-27110D01*
X23415Y-27174D01*
X23584Y-27175D01*
X23740Y-27110D01*
X23860Y-26991D01*
X23924Y-26834D01*
X23925Y-26665D01*
X23900Y-26605D01*
X23900Y-25558D01*
X24120Y-25649D01*
X24378Y-25650D01*
X24617Y-25551D01*
X24800Y-25368D01*
X24899Y-25129D01*
X24900Y-24871D01*
X24801Y-24632D01*
X24669Y-24499D01*
X24800Y-24368D01*
X24874Y-24191D01*
X25282Y-23782D01*
X25282Y-23782D01*
X25340Y-23696D01*
X25369Y-23653D01*
X25369Y-23653D01*
X25399Y-23500D01*
X25400Y-23500D01*
X25400Y-37675D01*
X24147Y-37675D01*
X24147Y-36104D01*
X24147Y-34104D01*
X24138Y-33848D01*
X24058Y-33655D01*
X23953Y-33617D01*
X23570Y-34000D01*
X23953Y-34382D01*
X24058Y-34344D01*
X24147Y-34104D01*
X24147Y-36104D01*
X24143Y-35991D01*
X24143Y-34872D01*
X24045Y-34635D01*
X23877Y-34467D01*
X23882Y-34453D01*
X23500Y-34070D01*
X23429Y-34141D01*
X23429Y-34000D01*
X23046Y-33617D01*
X22941Y-33655D01*
X22852Y-33895D01*
X22861Y-34151D01*
X22941Y-34344D01*
X23046Y-34382D01*
X23429Y-34000D01*
X23429Y-34141D01*
X23117Y-34453D01*
X23122Y-34467D01*
X22954Y-34635D01*
X22856Y-34871D01*
X22856Y-35127D01*
X22954Y-35364D01*
X23122Y-35532D01*
X23117Y-35546D01*
X23500Y-35929D01*
X23882Y-35546D01*
X23877Y-35532D01*
X24045Y-35364D01*
X24143Y-35128D01*
X24143Y-34872D01*
X24143Y-35991D01*
X24138Y-35848D01*
X24058Y-35655D01*
X23953Y-35617D01*
X23570Y-36000D01*
X23953Y-36382D01*
X24058Y-36344D01*
X24147Y-36104D01*
X24147Y-37675D01*
X24143Y-37675D01*
X24143Y-36872D01*
X24045Y-36635D01*
X23877Y-36467D01*
X23882Y-36453D01*
X23500Y-36070D01*
X23429Y-36141D01*
X23429Y-36000D01*
X23046Y-35617D01*
X22941Y-35655D01*
X22852Y-35895D01*
X22861Y-36151D01*
X22941Y-36344D01*
X23046Y-36382D01*
X23429Y-36000D01*
X23429Y-36141D01*
X23117Y-36453D01*
X23122Y-36467D01*
X22954Y-36635D01*
X22856Y-36871D01*
X22856Y-37127D01*
X22954Y-37364D01*
X23135Y-37545D01*
X23371Y-37643D01*
X23627Y-37643D01*
X23864Y-37545D01*
X24045Y-37364D01*
X24143Y-37128D01*
X24143Y-36872D01*
X24143Y-37675D01*
X22064Y-37675D01*
X22301Y-37577D01*
X22576Y-37303D01*
X22724Y-36944D01*
X22725Y-36556D01*
X22619Y-36301D01*
X22619Y-33440D01*
X22250Y-33070D01*
X22179Y-33141D01*
X22179Y-33000D01*
X21809Y-32630D01*
X21706Y-32667D01*
X21620Y-32900D01*
X21630Y-33148D01*
X21706Y-33332D01*
X21809Y-33369D01*
X22179Y-33000D01*
X22179Y-33141D01*
X21880Y-33440D01*
X21917Y-33543D01*
X22150Y-33629D01*
X22398Y-33619D01*
X22582Y-33543D01*
X22619Y-33440D01*
X22619Y-36301D01*
X22577Y-36198D01*
X22303Y-35923D01*
X21944Y-35775D01*
X21576Y-35774D01*
X21610Y-35741D01*
X21674Y-35584D01*
X21675Y-35415D01*
X21650Y-35355D01*
X21650Y-33500D01*
X21649Y-33499D01*
X21619Y-33346D01*
X21619Y-33346D01*
X21532Y-33217D01*
X21532Y-33217D01*
X20810Y-32494D01*
X20810Y-32200D01*
X20772Y-32108D01*
X20701Y-32038D01*
X20609Y-32000D01*
X20510Y-31999D01*
X20315Y-31999D01*
X20215Y-31900D01*
X20900Y-31900D01*
X20934Y-31900D01*
X21317Y-32282D01*
X21317Y-32282D01*
X21403Y-32340D01*
X21446Y-32369D01*
X21446Y-32369D01*
X21600Y-32400D01*
X22053Y-32400D01*
X21917Y-32456D01*
X21880Y-32559D01*
X22250Y-32929D01*
X22619Y-32559D01*
X22582Y-32456D01*
X22429Y-32400D01*
X22990Y-32400D01*
X23089Y-32500D01*
X22954Y-32635D01*
X22867Y-32845D01*
X22793Y-32667D01*
X22690Y-32630D01*
X22320Y-33000D01*
X22690Y-33369D01*
X22793Y-33332D01*
X22863Y-33143D01*
X22954Y-33364D01*
X23122Y-33532D01*
X23117Y-33546D01*
X23500Y-33929D01*
X23882Y-33546D01*
X23877Y-33532D01*
X24045Y-33364D01*
X24112Y-33203D01*
X24782Y-32532D01*
X24782Y-32532D01*
X24840Y-32446D01*
X24869Y-32403D01*
X24869Y-32403D01*
X24899Y-32250D01*
X24900Y-32250D01*
X24900Y-30500D01*
X24869Y-30346D01*
X24869Y-30346D01*
X24840Y-30303D01*
X24782Y-30217D01*
X24782Y-30217D01*
X24582Y-30017D01*
X24582Y-30017D01*
X24582Y-30017D01*
X24282Y-29717D01*
X24153Y-29630D01*
X24127Y-29625D01*
X24000Y-29600D01*
X23500Y-29600D01*
X23610Y-29491D01*
X23674Y-29334D01*
X23675Y-29165D01*
X23610Y-29009D01*
X23491Y-28889D01*
X23430Y-28864D01*
X21900Y-27334D01*
X21900Y-24871D01*
X21801Y-24632D01*
X21669Y-24499D01*
X21800Y-24368D01*
X21899Y-24129D01*
X21900Y-23871D01*
X21801Y-23632D01*
X21669Y-23499D01*
X21800Y-23368D01*
X21899Y-23129D01*
X21900Y-22871D01*
X21801Y-22632D01*
X21669Y-22499D01*
X21800Y-22368D01*
X21899Y-22129D01*
X21900Y-21871D01*
X21801Y-21632D01*
X21669Y-21499D01*
X21800Y-21368D01*
X21899Y-21129D01*
X21900Y-20871D01*
X21801Y-20632D01*
X21669Y-20499D01*
X21800Y-20368D01*
X21899Y-20129D01*
X21900Y-19871D01*
X21801Y-19632D01*
X21669Y-19499D01*
X21800Y-19368D01*
X21899Y-19129D01*
X21900Y-18871D01*
X21801Y-18632D01*
X21618Y-18449D01*
X21379Y-18350D01*
X21121Y-18349D01*
X20882Y-18448D01*
X20699Y-18631D01*
X20600Y-18870D01*
X20599Y-19128D01*
X20698Y-19367D01*
X20830Y-19500D01*
X20699Y-19631D01*
X20600Y-19870D01*
X20599Y-20128D01*
X20698Y-20367D01*
X20830Y-20500D01*
X20699Y-20631D01*
X20600Y-20870D01*
X20599Y-21128D01*
X20698Y-21367D01*
X20830Y-21500D01*
X20699Y-21631D01*
X20600Y-21870D01*
X20599Y-22128D01*
X20698Y-22367D01*
X20830Y-22500D01*
X20699Y-22631D01*
X20600Y-22870D01*
X20599Y-23128D01*
X20698Y-23367D01*
X20830Y-23500D01*
X20699Y-23631D01*
X20600Y-23870D01*
X20599Y-24128D01*
X20698Y-24367D01*
X20830Y-24500D01*
X20699Y-24631D01*
X20600Y-24870D01*
X20599Y-25128D01*
X20698Y-25367D01*
X20881Y-25550D01*
X21120Y-25649D01*
X21378Y-25650D01*
X21617Y-25551D01*
X21800Y-25368D01*
X21899Y-25129D01*
X21900Y-24871D01*
X21900Y-27334D01*
X21532Y-26967D01*
X21403Y-26880D01*
X21377Y-26875D01*
X21250Y-26850D01*
X19665Y-26850D01*
X19150Y-26334D01*
X19150Y-26095D01*
X19250Y-26245D01*
X19431Y-26367D01*
X19646Y-26410D01*
X19953Y-26410D01*
X20168Y-26367D01*
X20349Y-26245D01*
X20471Y-26064D01*
X20513Y-25850D01*
X20471Y-25635D01*
X20349Y-25454D01*
X20194Y-25350D01*
X20349Y-25245D01*
X20471Y-25064D01*
X20513Y-24850D01*
X20471Y-24635D01*
X20349Y-24454D01*
X20194Y-24350D01*
X20349Y-24245D01*
X20471Y-24064D01*
X20513Y-23850D01*
X20471Y-23635D01*
X20349Y-23454D01*
X20194Y-23350D01*
X20349Y-23245D01*
X20471Y-23064D01*
X20513Y-22850D01*
X20471Y-22635D01*
X20349Y-22454D01*
X20194Y-22350D01*
X20349Y-22245D01*
X20471Y-22064D01*
X20513Y-21850D01*
X20471Y-21635D01*
X20349Y-21454D01*
X20194Y-21350D01*
X20349Y-21245D01*
X20471Y-21064D01*
X20513Y-20850D01*
X20471Y-20635D01*
X20349Y-20454D01*
X20194Y-20350D01*
X20349Y-20245D01*
X20471Y-20064D01*
X20513Y-19850D01*
X20471Y-19635D01*
X20349Y-19454D01*
X20194Y-19350D01*
X20349Y-19245D01*
X20471Y-19064D01*
X20513Y-18850D01*
X20471Y-18635D01*
X20349Y-18454D01*
X20168Y-18332D01*
X19953Y-18290D01*
X19646Y-18290D01*
X19495Y-18319D01*
X21532Y-16282D01*
X21532Y-16282D01*
X21619Y-16153D01*
X21619Y-16153D01*
X21624Y-16127D01*
X21649Y-16000D01*
X21650Y-16000D01*
X21650Y-12000D01*
X21619Y-11846D01*
X21619Y-11846D01*
X21590Y-11803D01*
X21532Y-11717D01*
X21532Y-11717D01*
X21282Y-11467D01*
X21153Y-11380D01*
X21127Y-11375D01*
X21000Y-11350D01*
X18500Y-11350D01*
X18346Y-11380D01*
X18303Y-11409D01*
X18217Y-11467D01*
X17967Y-11717D01*
X17880Y-11846D01*
X17875Y-11872D01*
X17850Y-12000D01*
X17850Y-12056D01*
X17750Y-12205D01*
X17645Y-12050D01*
X17464Y-11928D01*
X17250Y-11886D01*
X17035Y-11928D01*
X16854Y-12050D01*
X16750Y-12205D01*
X16645Y-12050D01*
X16464Y-11928D01*
X16250Y-11886D01*
X16035Y-11928D01*
X15854Y-12050D01*
X15732Y-12231D01*
X15719Y-12299D01*
X15618Y-12199D01*
X15379Y-12100D01*
X15121Y-12099D01*
X14882Y-12198D01*
X14699Y-12381D01*
X14600Y-12620D01*
X14599Y-12878D01*
X14698Y-13117D01*
X14850Y-13269D01*
X14850Y-14500D01*
X14875Y-14627D01*
X14880Y-14653D01*
X14967Y-14782D01*
X15217Y-15032D01*
X15217Y-15032D01*
X15303Y-15090D01*
X15346Y-15119D01*
X15346Y-15119D01*
X15500Y-15150D01*
X18000Y-15150D01*
X18000Y-15149D01*
X18127Y-15124D01*
X18153Y-15119D01*
X18153Y-15119D01*
X18282Y-15032D01*
X18350Y-14965D01*
X18350Y-15754D01*
X18332Y-15706D01*
X18099Y-15620D01*
X17851Y-15630D01*
X17667Y-15706D01*
X17630Y-15809D01*
X18000Y-16179D01*
X18005Y-16173D01*
X18076Y-16244D01*
X18070Y-16250D01*
X18076Y-16255D01*
X18005Y-16326D01*
X18000Y-16320D01*
X17929Y-16391D01*
X17929Y-16250D01*
X17559Y-15880D01*
X17456Y-15917D01*
X17370Y-16150D01*
X17380Y-16398D01*
X17456Y-16582D01*
X17559Y-16619D01*
X17929Y-16250D01*
X17929Y-16391D01*
X17630Y-16690D01*
X17667Y-16793D01*
X17900Y-16879D01*
X18148Y-16869D01*
X18332Y-16793D01*
X18350Y-16745D01*
X18350Y-17105D01*
X18325Y-17165D01*
X18324Y-17334D01*
X18389Y-17490D01*
X18508Y-17610D01*
X18665Y-17674D01*
X18834Y-17675D01*
X18990Y-17610D01*
X19110Y-17491D01*
X19174Y-17334D01*
X19175Y-17165D01*
X19150Y-17105D01*
X19150Y-17000D01*
X19258Y-17110D01*
X19415Y-17174D01*
X19509Y-17175D01*
X18467Y-18217D01*
X18380Y-18346D01*
X18375Y-18372D01*
X18350Y-18500D01*
X18350Y-26500D01*
X18375Y-26627D01*
X18380Y-26653D01*
X18467Y-26782D01*
X19217Y-27532D01*
X19217Y-27532D01*
X19303Y-27590D01*
X19346Y-27619D01*
X19346Y-27619D01*
X19499Y-27649D01*
X19500Y-27650D01*
X21084Y-27650D01*
X22864Y-29430D01*
X22889Y-29490D01*
X22998Y-29600D01*
X21900Y-29600D01*
X21746Y-29630D01*
X21703Y-29659D01*
X21617Y-29717D01*
X21234Y-30100D01*
X20950Y-30100D01*
X17513Y-30100D01*
X17513Y-24850D01*
X17471Y-24635D01*
X17349Y-24454D01*
X17194Y-24350D01*
X17349Y-24245D01*
X17471Y-24064D01*
X17513Y-23850D01*
X17471Y-23635D01*
X17349Y-23454D01*
X17194Y-23350D01*
X17349Y-23245D01*
X17471Y-23064D01*
X17513Y-22850D01*
X17471Y-22635D01*
X17349Y-22454D01*
X17194Y-22350D01*
X17349Y-22245D01*
X17471Y-22064D01*
X17513Y-21850D01*
X17471Y-21635D01*
X17349Y-21454D01*
X17194Y-21350D01*
X17349Y-21245D01*
X17471Y-21064D01*
X17513Y-20850D01*
X17471Y-20635D01*
X17349Y-20454D01*
X17194Y-20350D01*
X17349Y-20245D01*
X17471Y-20064D01*
X17513Y-19850D01*
X17471Y-19635D01*
X17349Y-19454D01*
X17283Y-19410D01*
X17299Y-19410D01*
X17391Y-19372D01*
X17461Y-19301D01*
X17499Y-19209D01*
X17500Y-19110D01*
X17500Y-18490D01*
X17462Y-18398D01*
X17391Y-18328D01*
X17299Y-18290D01*
X17200Y-18289D01*
X16300Y-18289D01*
X16208Y-18327D01*
X16138Y-18398D01*
X16100Y-18490D01*
X16099Y-18589D01*
X16099Y-19209D01*
X16137Y-19301D01*
X16208Y-19371D01*
X16300Y-19409D01*
X16316Y-19409D01*
X16250Y-19454D01*
X16128Y-19635D01*
X16086Y-19850D01*
X16128Y-20064D01*
X16250Y-20245D01*
X16405Y-20350D01*
X16250Y-20454D01*
X16128Y-20635D01*
X16086Y-20850D01*
X16128Y-21064D01*
X16250Y-21245D01*
X16405Y-21350D01*
X16250Y-21454D01*
X16128Y-21635D01*
X16086Y-21850D01*
X16128Y-22064D01*
X16250Y-22245D01*
X16405Y-22350D01*
X16250Y-22454D01*
X16128Y-22635D01*
X16086Y-22850D01*
X16128Y-23064D01*
X16250Y-23245D01*
X16405Y-23350D01*
X16250Y-23454D01*
X16128Y-23635D01*
X16086Y-23850D01*
X16128Y-24064D01*
X16250Y-24245D01*
X16405Y-24350D01*
X16250Y-24454D01*
X16128Y-24635D01*
X16086Y-24850D01*
X16128Y-25064D01*
X16250Y-25245D01*
X16405Y-25349D01*
X16399Y-25351D01*
X16228Y-25489D01*
X16123Y-25681D01*
X16116Y-25713D01*
X16165Y-25800D01*
X16750Y-25800D01*
X16750Y-25792D01*
X16850Y-25792D01*
X16850Y-25800D01*
X17434Y-25800D01*
X17483Y-25713D01*
X17476Y-25681D01*
X17371Y-25489D01*
X17200Y-25351D01*
X17194Y-25349D01*
X17349Y-25245D01*
X17471Y-25064D01*
X17513Y-24850D01*
X17513Y-30100D01*
X17483Y-30100D01*
X17483Y-25986D01*
X17434Y-25900D01*
X16850Y-25900D01*
X16850Y-26410D01*
X16990Y-26410D01*
X17200Y-26348D01*
X17371Y-26210D01*
X17476Y-26018D01*
X17483Y-25986D01*
X17483Y-30100D01*
X17415Y-30100D01*
X16900Y-29584D01*
X16900Y-27500D01*
X16874Y-27372D01*
X16869Y-27346D01*
X16869Y-27346D01*
X16782Y-27217D01*
X16782Y-27217D01*
X16750Y-27184D01*
X16750Y-26410D01*
X16750Y-25900D01*
X16165Y-25900D01*
X16116Y-25986D01*
X16123Y-26018D01*
X16228Y-26210D01*
X16399Y-26348D01*
X16610Y-26410D01*
X16750Y-26410D01*
X16750Y-27184D01*
X14975Y-25410D01*
X15799Y-25410D01*
X15891Y-25372D01*
X15961Y-25301D01*
X15999Y-25209D01*
X16000Y-25110D01*
X16000Y-24490D01*
X15962Y-24398D01*
X15891Y-24328D01*
X15799Y-24290D01*
X15783Y-24290D01*
X15849Y-24245D01*
X15971Y-24064D01*
X16013Y-23850D01*
X15971Y-23635D01*
X15849Y-23454D01*
X15694Y-23350D01*
X15849Y-23245D01*
X15971Y-23064D01*
X16013Y-22850D01*
X15971Y-22635D01*
X15849Y-22454D01*
X15694Y-22350D01*
X15849Y-22245D01*
X15971Y-22064D01*
X16013Y-21850D01*
X15971Y-21635D01*
X15849Y-21454D01*
X15694Y-21350D01*
X15849Y-21245D01*
X15971Y-21064D01*
X16013Y-20850D01*
X15971Y-20635D01*
X15849Y-20454D01*
X15694Y-20350D01*
X15849Y-20245D01*
X15971Y-20064D01*
X16013Y-19850D01*
X15971Y-19635D01*
X15849Y-19454D01*
X15694Y-19350D01*
X15849Y-19245D01*
X15971Y-19064D01*
X16013Y-18850D01*
X15971Y-18635D01*
X15849Y-18454D01*
X15694Y-18350D01*
X15700Y-18348D01*
X15871Y-18210D01*
X15976Y-18018D01*
X15983Y-17986D01*
X15934Y-17900D01*
X15350Y-17900D01*
X15350Y-17907D01*
X15250Y-17907D01*
X15250Y-17900D01*
X14665Y-17900D01*
X14616Y-17986D01*
X14623Y-18018D01*
X14728Y-18210D01*
X14899Y-18348D01*
X14905Y-18350D01*
X14750Y-18454D01*
X14628Y-18635D01*
X14586Y-18850D01*
X14628Y-19064D01*
X14750Y-19245D01*
X14905Y-19350D01*
X14750Y-19454D01*
X14628Y-19635D01*
X14586Y-19850D01*
X14628Y-20064D01*
X14750Y-20245D01*
X14905Y-20350D01*
X14750Y-20454D01*
X14628Y-20635D01*
X14586Y-20850D01*
X14628Y-21064D01*
X14750Y-21245D01*
X14905Y-21350D01*
X14750Y-21454D01*
X14628Y-21635D01*
X14586Y-21850D01*
X14628Y-22064D01*
X14750Y-22245D01*
X14905Y-22350D01*
X14750Y-22454D01*
X14628Y-22635D01*
X14586Y-22850D01*
X14628Y-23064D01*
X14750Y-23245D01*
X14905Y-23350D01*
X14750Y-23454D01*
X14628Y-23635D01*
X14586Y-23850D01*
X14628Y-24064D01*
X14750Y-24245D01*
X14816Y-24289D01*
X14800Y-24289D01*
X14708Y-24327D01*
X14638Y-24398D01*
X14600Y-24490D01*
X14599Y-24589D01*
X14599Y-25034D01*
X14400Y-24834D01*
X14400Y-18500D01*
X14369Y-18346D01*
X14369Y-18346D01*
X14340Y-18303D01*
X14282Y-18217D01*
X14282Y-18217D01*
X13715Y-17650D01*
X14640Y-17650D01*
X14623Y-17681D01*
X14616Y-17713D01*
X14665Y-17800D01*
X15250Y-17800D01*
X15250Y-17792D01*
X15350Y-17792D01*
X15350Y-17800D01*
X15934Y-17800D01*
X15983Y-17713D01*
X15976Y-17681D01*
X15871Y-17489D01*
X15700Y-17351D01*
X15517Y-17298D01*
X15940Y-16874D01*
X16123Y-16875D01*
X16353Y-16780D01*
X16529Y-16604D01*
X16624Y-16374D01*
X16625Y-16126D01*
X16530Y-15896D01*
X16354Y-15720D01*
X16124Y-15625D01*
X15876Y-15624D01*
X15646Y-15719D01*
X15470Y-15895D01*
X15375Y-16125D01*
X15374Y-16309D01*
X14834Y-16850D01*
X14625Y-16850D01*
X14625Y-16174D01*
X14625Y-15862D01*
X14562Y-15800D01*
X14050Y-15800D01*
X14050Y-16312D01*
X14112Y-16375D01*
X14325Y-16375D01*
X14424Y-16374D01*
X14516Y-16336D01*
X14587Y-16266D01*
X14625Y-16174D01*
X14625Y-16850D01*
X13950Y-16850D01*
X13950Y-16312D01*
X13950Y-15800D01*
X13437Y-15800D01*
X13375Y-15862D01*
X13374Y-16174D01*
X13412Y-16266D01*
X13483Y-16336D01*
X13575Y-16374D01*
X13674Y-16375D01*
X13887Y-16375D01*
X13950Y-16312D01*
X13950Y-16850D01*
X12308Y-16850D01*
X12399Y-16629D01*
X12400Y-16371D01*
X12301Y-16132D01*
X12118Y-15949D01*
X11879Y-15850D01*
X11621Y-15849D01*
X11382Y-15948D01*
X11199Y-16131D01*
X11100Y-16370D01*
X11099Y-16628D01*
X11198Y-16867D01*
X11381Y-17050D01*
X11382Y-17051D01*
X11217Y-17217D01*
X11130Y-17346D01*
X11125Y-17372D01*
X11100Y-17500D01*
X11100Y-18500D01*
X11125Y-18627D01*
X11130Y-18653D01*
X11217Y-18782D01*
X11567Y-19132D01*
X11567Y-19132D01*
X11696Y-19219D01*
X11696Y-19219D01*
X11738Y-19227D01*
X11750Y-19245D01*
X11905Y-19350D01*
X11756Y-19450D01*
X11650Y-19450D01*
X11496Y-19480D01*
X11453Y-19509D01*
X11367Y-19567D01*
X10825Y-20109D01*
X10825Y-10325D01*
X11685Y-10325D01*
X11448Y-10422D01*
X11173Y-10696D01*
X11025Y-11055D01*
X11024Y-11443D01*
X11172Y-11801D01*
X11446Y-12076D01*
X11805Y-12224D01*
X11856Y-12224D01*
X11699Y-12381D01*
X11600Y-12620D01*
X11599Y-12858D01*
X11382Y-12948D01*
X11199Y-13131D01*
X11100Y-13370D01*
X11099Y-13628D01*
X11198Y-13867D01*
X11381Y-14050D01*
X11620Y-14149D01*
X11878Y-14150D01*
X12117Y-14051D01*
X12269Y-13900D01*
X13334Y-13900D01*
X13600Y-14165D01*
X13600Y-14266D01*
X13499Y-14366D01*
X13354Y-14220D01*
X13124Y-14125D01*
X12876Y-14124D01*
X12646Y-14219D01*
X12470Y-14395D01*
X12375Y-14625D01*
X12374Y-14873D01*
X12469Y-15103D01*
X12645Y-15279D01*
X12875Y-15374D01*
X13123Y-15375D01*
X13353Y-15280D01*
X13500Y-15133D01*
X13515Y-15149D01*
X13483Y-15163D01*
X13412Y-15233D01*
X13374Y-15325D01*
X13375Y-15637D01*
X13437Y-15700D01*
X13950Y-15700D01*
X13950Y-15692D01*
X14050Y-15692D01*
X14050Y-15700D01*
X14562Y-15700D01*
X14625Y-15637D01*
X14625Y-15325D01*
X14587Y-15233D01*
X14516Y-15163D01*
X14484Y-15149D01*
X14529Y-15104D01*
X14624Y-14874D01*
X14625Y-14626D01*
X14530Y-14396D01*
X14400Y-14266D01*
X14400Y-14000D01*
X14369Y-13846D01*
X14369Y-13846D01*
X14340Y-13803D01*
X14282Y-13717D01*
X14282Y-13717D01*
X13782Y-13217D01*
X13653Y-13130D01*
X13627Y-13125D01*
X13500Y-13100D01*
X12808Y-13100D01*
X12899Y-12879D01*
X12900Y-12621D01*
X12801Y-12382D01*
X12618Y-12199D01*
X12437Y-12124D01*
X12551Y-12077D01*
X12826Y-11803D01*
X12974Y-11444D01*
X12975Y-11056D01*
X12827Y-10698D01*
X12553Y-10423D01*
X12314Y-10325D01*
X24435Y-10325D01*
X24198Y-10422D01*
X23923Y-10696D01*
X23775Y-11055D01*
X23774Y-11443D01*
X23922Y-11801D01*
X24196Y-12076D01*
X24555Y-12224D01*
X24943Y-12225D01*
X25301Y-12077D01*
X25576Y-11803D01*
X25675Y-11564D01*
X25675Y-37000D01*
X25675Y-37500D01*
X25675Y-37675D01*
X25675Y-37675D01*
G37*
G54D24*
X25675Y-37675D02*
X25400Y-37675D01*
X25400Y-23500D01*
X25400Y-18750D01*
X25400Y-18250D01*
X25369Y-18096D01*
X25369Y-18096D01*
X25340Y-18053D01*
X25282Y-17967D01*
X25282Y-17967D01*
X25032Y-17717D01*
X24903Y-17630D01*
X24877Y-17625D01*
X24750Y-17600D01*
X22894Y-17600D01*
X22834Y-17575D01*
X22665Y-17574D01*
X22509Y-17639D01*
X22389Y-17758D01*
X22325Y-17915D01*
X22324Y-18084D01*
X22389Y-18240D01*
X22508Y-18360D01*
X22665Y-18424D01*
X22834Y-18425D01*
X22894Y-18400D01*
X23999Y-18400D01*
X23882Y-18448D01*
X23699Y-18631D01*
X23600Y-18870D01*
X23599Y-19128D01*
X23698Y-19367D01*
X23830Y-19500D01*
X23699Y-19631D01*
X23600Y-19870D01*
X23599Y-20128D01*
X23698Y-20367D01*
X23830Y-20500D01*
X23730Y-20600D01*
X23000Y-20600D01*
X22846Y-20630D01*
X22803Y-20659D01*
X22717Y-20717D01*
X22217Y-21217D01*
X22130Y-21346D01*
X22125Y-21372D01*
X22100Y-21500D01*
X22100Y-26105D01*
X22075Y-26165D01*
X22074Y-26334D01*
X22139Y-26490D01*
X22258Y-26610D01*
X22415Y-26674D01*
X22584Y-26675D01*
X22608Y-26665D01*
X22639Y-26740D01*
X22758Y-26860D01*
X22915Y-26924D01*
X23084Y-26925D01*
X23108Y-26915D01*
X23139Y-26990D01*
X23258Y-27110D01*
X23415Y-27174D01*
X23584Y-27175D01*
X23740Y-27110D01*
X23860Y-26991D01*
X23924Y-26834D01*
X23925Y-26665D01*
X23900Y-26605D01*
X23900Y-25558D01*
X24120Y-25649D01*
X24378Y-25650D01*
X24617Y-25551D01*
X24800Y-25368D01*
X24899Y-25129D01*
X24900Y-24871D01*
X24801Y-24632D01*
X24669Y-24499D01*
X24800Y-24368D01*
X24874Y-24191D01*
X25282Y-23782D01*
X25282Y-23782D01*
X25340Y-23696D01*
X25369Y-23653D01*
X25369Y-23653D01*
X25399Y-23500D01*
X25400Y-23500D01*
X25400Y-37675D01*
X24147Y-37675D01*
X24147Y-36104D01*
X24147Y-34104D01*
X24138Y-33848D01*
X24058Y-33655D01*
X23953Y-33617D01*
X23570Y-34000D01*
X23953Y-34382D01*
X24058Y-34344D01*
X24147Y-34104D01*
X24147Y-36104D01*
X24143Y-35991D01*
X24143Y-34872D01*
X24045Y-34635D01*
X23877Y-34467D01*
X23882Y-34453D01*
X23500Y-34070D01*
X23429Y-34141D01*
X23429Y-34000D01*
X23046Y-33617D01*
X22941Y-33655D01*
X22852Y-33895D01*
X22861Y-34151D01*
X22941Y-34344D01*
X23046Y-34382D01*
X23429Y-34000D01*
X23429Y-34141D01*
X23117Y-34453D01*
X23122Y-34467D01*
X22954Y-34635D01*
X22856Y-34871D01*
X22856Y-35127D01*
X22954Y-35364D01*
X23122Y-35532D01*
X23117Y-35546D01*
X23500Y-35929D01*
X23882Y-35546D01*
X23877Y-35532D01*
X24045Y-35364D01*
X24143Y-35128D01*
X24143Y-34872D01*
X24143Y-35991D01*
X24138Y-35848D01*
X24058Y-35655D01*
X23953Y-35617D01*
X23570Y-36000D01*
X23953Y-36382D01*
X24058Y-36344D01*
X24147Y-36104D01*
X24147Y-37675D01*
X24143Y-37675D01*
X24143Y-36872D01*
X24045Y-36635D01*
X23877Y-36467D01*
X23882Y-36453D01*
X23500Y-36070D01*
X23429Y-36141D01*
X23429Y-36000D01*
X23046Y-35617D01*
X22941Y-35655D01*
X22852Y-35895D01*
X22861Y-36151D01*
X22941Y-36344D01*
X23046Y-36382D01*
X23429Y-36000D01*
X23429Y-36141D01*
X23117Y-36453D01*
X23122Y-36467D01*
X22954Y-36635D01*
X22856Y-36871D01*
X22856Y-37127D01*
X22954Y-37364D01*
X23135Y-37545D01*
X23371Y-37643D01*
X23627Y-37643D01*
X23864Y-37545D01*
X24045Y-37364D01*
X24143Y-37128D01*
X24143Y-36872D01*
X24143Y-37675D01*
X22064Y-37675D01*
X22301Y-37577D01*
X22576Y-37303D01*
X22724Y-36944D01*
X22725Y-36556D01*
X22619Y-36301D01*
X22619Y-33440D01*
X22250Y-33070D01*
X22179Y-33141D01*
X22179Y-33000D01*
X21809Y-32630D01*
X21706Y-32667D01*
X21620Y-32900D01*
X21630Y-33148D01*
X21706Y-33332D01*
X21809Y-33369D01*
X22179Y-33000D01*
X22179Y-33141D01*
X21880Y-33440D01*
X21917Y-33543D01*
X22150Y-33629D01*
X22398Y-33619D01*
X22582Y-33543D01*
X22619Y-33440D01*
X22619Y-36301D01*
X22577Y-36198D01*
X22303Y-35923D01*
X21944Y-35775D01*
X21576Y-35774D01*
X21610Y-35741D01*
X21674Y-35584D01*
X21675Y-35415D01*
X21650Y-35355D01*
X21650Y-33500D01*
X21649Y-33499D01*
X21619Y-33346D01*
X21619Y-33346D01*
X21532Y-33217D01*
X21532Y-33217D01*
X20810Y-32494D01*
X20810Y-32200D01*
X20772Y-32108D01*
X20701Y-32038D01*
X20609Y-32000D01*
X20510Y-31999D01*
X20315Y-31999D01*
X20215Y-31900D01*
X20900Y-31900D01*
X20934Y-31900D01*
X21317Y-32282D01*
X21317Y-32282D01*
X21403Y-32340D01*
X21446Y-32369D01*
X21446Y-32369D01*
X21600Y-32400D01*
X22053Y-32400D01*
X21917Y-32456D01*
X21880Y-32559D01*
X22250Y-32929D01*
X22619Y-32559D01*
X22582Y-32456D01*
X22429Y-32400D01*
X22990Y-32400D01*
X23089Y-32500D01*
X22954Y-32635D01*
X22867Y-32845D01*
X22793Y-32667D01*
X22690Y-32630D01*
X22320Y-33000D01*
X22690Y-33369D01*
X22793Y-33332D01*
X22863Y-33143D01*
X22954Y-33364D01*
X23122Y-33532D01*
X23117Y-33546D01*
X23500Y-33929D01*
X23882Y-33546D01*
X23877Y-33532D01*
X24045Y-33364D01*
X24112Y-33203D01*
X24782Y-32532D01*
X24782Y-32532D01*
X24840Y-32446D01*
X24869Y-32403D01*
X24869Y-32403D01*
X24899Y-32250D01*
X24900Y-32250D01*
X24900Y-30500D01*
X24869Y-30346D01*
X24869Y-30346D01*
X24840Y-30303D01*
X24782Y-30217D01*
X24782Y-30217D01*
X24582Y-30017D01*
X24582Y-30017D01*
X24582Y-30017D01*
X24282Y-29717D01*
X24153Y-29630D01*
X24127Y-29625D01*
X24000Y-29600D01*
X23500Y-29600D01*
X23610Y-29491D01*
X23674Y-29334D01*
X23675Y-29165D01*
X23610Y-29009D01*
X23491Y-28889D01*
X23430Y-28864D01*
X21900Y-27334D01*
X21900Y-24871D01*
X21801Y-24632D01*
X21669Y-24499D01*
X21800Y-24368D01*
X21899Y-24129D01*
X21900Y-23871D01*
X21801Y-23632D01*
X21669Y-23499D01*
X21800Y-23368D01*
X21899Y-23129D01*
X21900Y-22871D01*
X21801Y-22632D01*
X21669Y-22499D01*
X21800Y-22368D01*
X21899Y-22129D01*
X21900Y-21871D01*
X21801Y-21632D01*
X21669Y-21499D01*
X21800Y-21368D01*
X21899Y-21129D01*
X21900Y-20871D01*
X21801Y-20632D01*
X21669Y-20499D01*
X21800Y-20368D01*
X21899Y-20129D01*
X21900Y-19871D01*
X21801Y-19632D01*
X21669Y-19499D01*
X21800Y-19368D01*
X21899Y-19129D01*
X21900Y-18871D01*
X21801Y-18632D01*
X21618Y-18449D01*
X21379Y-18350D01*
X21121Y-18349D01*
X20882Y-18448D01*
X20699Y-18631D01*
X20600Y-18870D01*
X20599Y-19128D01*
X20698Y-19367D01*
X20830Y-19500D01*
X20699Y-19631D01*
X20600Y-19870D01*
X20599Y-20128D01*
X20698Y-20367D01*
X20830Y-20500D01*
X20699Y-20631D01*
X20600Y-20870D01*
X20599Y-21128D01*
X20698Y-21367D01*
X20830Y-21500D01*
X20699Y-21631D01*
X20600Y-21870D01*
X20599Y-22128D01*
X20698Y-22367D01*
X20830Y-22500D01*
X20699Y-22631D01*
X20600Y-22870D01*
X20599Y-23128D01*
X20698Y-23367D01*
X20830Y-23500D01*
X20699Y-23631D01*
X20600Y-23870D01*
X20599Y-24128D01*
X20698Y-24367D01*
X20830Y-24500D01*
X20699Y-24631D01*
X20600Y-24870D01*
X20599Y-25128D01*
X20698Y-25367D01*
X20881Y-25550D01*
X21120Y-25649D01*
X21378Y-25650D01*
X21617Y-25551D01*
X21800Y-25368D01*
X21899Y-25129D01*
X21900Y-24871D01*
X21900Y-27334D01*
X21532Y-26967D01*
X21403Y-26880D01*
X21377Y-26875D01*
X21250Y-26850D01*
X19665Y-26850D01*
X19150Y-26334D01*
X19150Y-26095D01*
X19250Y-26245D01*
X19431Y-26367D01*
X19646Y-26410D01*
X19953Y-26410D01*
X20168Y-26367D01*
X20349Y-26245D01*
X20471Y-26064D01*
X20513Y-25850D01*
X20471Y-25635D01*
X20349Y-25454D01*
X20194Y-25350D01*
X20349Y-25245D01*
X20471Y-25064D01*
X20513Y-24850D01*
X20471Y-24635D01*
X20349Y-24454D01*
X20194Y-24350D01*
X20349Y-24245D01*
X20471Y-24064D01*
X20513Y-23850D01*
X20471Y-23635D01*
X20349Y-23454D01*
X20194Y-23350D01*
X20349Y-23245D01*
X20471Y-23064D01*
X20513Y-22850D01*
X20471Y-22635D01*
X20349Y-22454D01*
X20194Y-22350D01*
X20349Y-22245D01*
X20471Y-22064D01*
X20513Y-21850D01*
X20471Y-21635D01*
X20349Y-21454D01*
X20194Y-21350D01*
X20349Y-21245D01*
X20471Y-21064D01*
X20513Y-20850D01*
X20471Y-20635D01*
X20349Y-20454D01*
X20194Y-20350D01*
X20349Y-20245D01*
X20471Y-20064D01*
X20513Y-19850D01*
X20471Y-19635D01*
X20349Y-19454D01*
X20194Y-19350D01*
X20349Y-19245D01*
X20471Y-19064D01*
X20513Y-18850D01*
X20471Y-18635D01*
X20349Y-18454D01*
X20168Y-18332D01*
X19953Y-18290D01*
X19646Y-18290D01*
X19495Y-18319D01*
X21532Y-16282D01*
X21532Y-16282D01*
X21619Y-16153D01*
X21619Y-16153D01*
X21624Y-16127D01*
X21649Y-16000D01*
X21650Y-16000D01*
X21650Y-12000D01*
X21619Y-11846D01*
X21619Y-11846D01*
X21590Y-11803D01*
X21532Y-11717D01*
X21532Y-11717D01*
X21282Y-11467D01*
X21153Y-11380D01*
X21127Y-11375D01*
X21000Y-11350D01*
X18500Y-11350D01*
X18346Y-11380D01*
X18303Y-11409D01*
X18217Y-11467D01*
X17967Y-11717D01*
X17880Y-11846D01*
X17875Y-11872D01*
X17850Y-12000D01*
X17850Y-12056D01*
X17750Y-12205D01*
X17645Y-12050D01*
X17464Y-11928D01*
X17250Y-11886D01*
X17035Y-11928D01*
X16854Y-12050D01*
X16750Y-12205D01*
X16645Y-12050D01*
X16464Y-11928D01*
X16250Y-11886D01*
X16035Y-11928D01*
X15854Y-12050D01*
X15732Y-12231D01*
X15719Y-12299D01*
X15618Y-12199D01*
X15379Y-12100D01*
X15121Y-12099D01*
X14882Y-12198D01*
X14699Y-12381D01*
X14600Y-12620D01*
X14599Y-12878D01*
X14698Y-13117D01*
X14850Y-13269D01*
X14850Y-14500D01*
X14875Y-14627D01*
X14880Y-14653D01*
X14967Y-14782D01*
X15217Y-15032D01*
X15217Y-15032D01*
X15303Y-15090D01*
X15346Y-15119D01*
X15346Y-15119D01*
X15500Y-15150D01*
X18000Y-15150D01*
X18000Y-15149D01*
X18127Y-15124D01*
X18153Y-15119D01*
X18153Y-15119D01*
X18282Y-15032D01*
X18350Y-14965D01*
X18350Y-15754D01*
X18332Y-15706D01*
X18099Y-15620D01*
X17851Y-15630D01*
X17667Y-15706D01*
X17630Y-15809D01*
X18000Y-16179D01*
X18005Y-16173D01*
X18076Y-16244D01*
X18070Y-16250D01*
X18076Y-16255D01*
X18005Y-16326D01*
X18000Y-16320D01*
X17929Y-16391D01*
X17929Y-16250D01*
X17559Y-15880D01*
X17456Y-15917D01*
X17370Y-16150D01*
X17380Y-16398D01*
X17456Y-16582D01*
X17559Y-16619D01*
X17929Y-16250D01*
X17929Y-16391D01*
X17630Y-16690D01*
X17667Y-16793D01*
X17900Y-16879D01*
X18148Y-16869D01*
X18332Y-16793D01*
X18350Y-16745D01*
X18350Y-17105D01*
X18325Y-17165D01*
X18324Y-17334D01*
X18389Y-17490D01*
X18508Y-17610D01*
X18665Y-17674D01*
X18834Y-17675D01*
X18990Y-17610D01*
X19110Y-17491D01*
X19174Y-17334D01*
X19175Y-17165D01*
X19150Y-17105D01*
X19150Y-17000D01*
X19258Y-17110D01*
X19415Y-17174D01*
X19509Y-17175D01*
X18467Y-18217D01*
X18380Y-18346D01*
X18375Y-18372D01*
X18350Y-18500D01*
X18350Y-26500D01*
X18375Y-26627D01*
X18380Y-26653D01*
X18467Y-26782D01*
X19217Y-27532D01*
X19217Y-27532D01*
X19303Y-27590D01*
X19346Y-27619D01*
X19346Y-27619D01*
X19499Y-27649D01*
X19500Y-27650D01*
X21084Y-27650D01*
X22864Y-29430D01*
X22889Y-29490D01*
X22998Y-29600D01*
X21900Y-29600D01*
X21746Y-29630D01*
X21703Y-29659D01*
X21617Y-29717D01*
X21234Y-30100D01*
X20950Y-30100D01*
X17513Y-30100D01*
X17513Y-24850D01*
X17471Y-24635D01*
X17349Y-24454D01*
X17194Y-24350D01*
X17349Y-24245D01*
X17471Y-24064D01*
X17513Y-23850D01*
X17471Y-23635D01*
X17349Y-23454D01*
X17194Y-23350D01*
X17349Y-23245D01*
X17471Y-23064D01*
X17513Y-22850D01*
X17471Y-22635D01*
X17349Y-22454D01*
X17194Y-22350D01*
X17349Y-22245D01*
X17471Y-22064D01*
X17513Y-21850D01*
X17471Y-21635D01*
X17349Y-21454D01*
X17194Y-21350D01*
X17349Y-21245D01*
X17471Y-21064D01*
X17513Y-20850D01*
X17471Y-20635D01*
X17349Y-20454D01*
X17194Y-20350D01*
X17349Y-20245D01*
X17471Y-20064D01*
X17513Y-19850D01*
X17471Y-19635D01*
X17349Y-19454D01*
X17283Y-19410D01*
X17299Y-19410D01*
X17391Y-19372D01*
X17461Y-19301D01*
X17499Y-19209D01*
X17500Y-19110D01*
X17500Y-18490D01*
X17462Y-18398D01*
X17391Y-18328D01*
X17299Y-18290D01*
X17200Y-18289D01*
X16300Y-18289D01*
X16208Y-18327D01*
X16138Y-18398D01*
X16100Y-18490D01*
X16099Y-18589D01*
X16099Y-19209D01*
X16137Y-19301D01*
X16208Y-19371D01*
X16300Y-19409D01*
X16316Y-19409D01*
X16250Y-19454D01*
X16128Y-19635D01*
X16086Y-19850D01*
X16128Y-20064D01*
X16250Y-20245D01*
X16405Y-20350D01*
X16250Y-20454D01*
X16128Y-20635D01*
X16086Y-20850D01*
X16128Y-21064D01*
X16250Y-21245D01*
X16405Y-21350D01*
X16250Y-21454D01*
X16128Y-21635D01*
X16086Y-21850D01*
X16128Y-22064D01*
X16250Y-22245D01*
X16405Y-22350D01*
X16250Y-22454D01*
X16128Y-22635D01*
X16086Y-22850D01*
X16128Y-23064D01*
X16250Y-23245D01*
X16405Y-23350D01*
X16250Y-23454D01*
X16128Y-23635D01*
X16086Y-23850D01*
X16128Y-24064D01*
X16250Y-24245D01*
X16405Y-24350D01*
X16250Y-24454D01*
X16128Y-24635D01*
X16086Y-24850D01*
X16128Y-25064D01*
X16250Y-25245D01*
X16405Y-25349D01*
X16399Y-25351D01*
X16228Y-25489D01*
X16123Y-25681D01*
X16116Y-25713D01*
X16165Y-25800D01*
X16750Y-25800D01*
X16750Y-25792D01*
X16850Y-25792D01*
X16850Y-25800D01*
X17434Y-25800D01*
X17483Y-25713D01*
X17476Y-25681D01*
X17371Y-25489D01*
X17200Y-25351D01*
X17194Y-25349D01*
X17349Y-25245D01*
X17471Y-25064D01*
X17513Y-24850D01*
X17513Y-30100D01*
X17483Y-30100D01*
X17483Y-25986D01*
X17434Y-25900D01*
X16850Y-25900D01*
X16850Y-26410D01*
X16990Y-26410D01*
X17200Y-26348D01*
X17371Y-26210D01*
X17476Y-26018D01*
X17483Y-25986D01*
X17483Y-30100D01*
X17415Y-30100D01*
X16900Y-29584D01*
X16900Y-27500D01*
X16874Y-27372D01*
X16869Y-27346D01*
X16869Y-27346D01*
X16782Y-27217D01*
X16782Y-27217D01*
X16750Y-27184D01*
X16750Y-26410D01*
X16750Y-25900D01*
X16165Y-25900D01*
X16116Y-25986D01*
X16123Y-26018D01*
X16228Y-26210D01*
X16399Y-26348D01*
X16610Y-26410D01*
X16750Y-26410D01*
X16750Y-27184D01*
X14975Y-25410D01*
X15799Y-25410D01*
X15891Y-25372D01*
X15961Y-25301D01*
X15999Y-25209D01*
X16000Y-25110D01*
X16000Y-24490D01*
X15962Y-24398D01*
X15891Y-24328D01*
X15799Y-24290D01*
X15783Y-24290D01*
X15849Y-24245D01*
X15971Y-24064D01*
X16013Y-23850D01*
X15971Y-23635D01*
X15849Y-23454D01*
X15694Y-23350D01*
X15849Y-23245D01*
X15971Y-23064D01*
X16013Y-22850D01*
X15971Y-22635D01*
X15849Y-22454D01*
X15694Y-22350D01*
X15849Y-22245D01*
X15971Y-22064D01*
X16013Y-21850D01*
X15971Y-21635D01*
X15849Y-21454D01*
X15694Y-21350D01*
X15849Y-21245D01*
X15971Y-21064D01*
X16013Y-20850D01*
X15971Y-20635D01*
X15849Y-20454D01*
X15694Y-20350D01*
X15849Y-20245D01*
X15971Y-20064D01*
X16013Y-19850D01*
X15971Y-19635D01*
X15849Y-19454D01*
X15694Y-19350D01*
X15849Y-19245D01*
X15971Y-19064D01*
X16013Y-18850D01*
X15971Y-18635D01*
X15849Y-18454D01*
X15694Y-18350D01*
X15700Y-18348D01*
X15871Y-18210D01*
X15976Y-18018D01*
X15983Y-17986D01*
X15934Y-17900D01*
X15350Y-17900D01*
X15350Y-17907D01*
X15250Y-17907D01*
X15250Y-17900D01*
X14665Y-17900D01*
X14616Y-17986D01*
X14623Y-18018D01*
X14728Y-18210D01*
X14899Y-18348D01*
X14905Y-18350D01*
X14750Y-18454D01*
X14628Y-18635D01*
X14586Y-18850D01*
X14628Y-19064D01*
X14750Y-19245D01*
X14905Y-19350D01*
X14750Y-19454D01*
X14628Y-19635D01*
X14586Y-19850D01*
X14628Y-20064D01*
X14750Y-20245D01*
X14905Y-20350D01*
X14750Y-20454D01*
X14628Y-20635D01*
X14586Y-20850D01*
X14628Y-21064D01*
X14750Y-21245D01*
X14905Y-21350D01*
X14750Y-21454D01*
X14628Y-21635D01*
X14586Y-21850D01*
X14628Y-22064D01*
X14750Y-22245D01*
X14905Y-22350D01*
X14750Y-22454D01*
X14628Y-22635D01*
X14586Y-22850D01*
X14628Y-23064D01*
X14750Y-23245D01*
X14905Y-23350D01*
X14750Y-23454D01*
X14628Y-23635D01*
X14586Y-23850D01*
X14628Y-24064D01*
X14750Y-24245D01*
X14816Y-24289D01*
X14800Y-24289D01*
X14708Y-24327D01*
X14638Y-24398D01*
X14600Y-24490D01*
X14599Y-24589D01*
X14599Y-25034D01*
X14400Y-24834D01*
X14400Y-18500D01*
X14369Y-18346D01*
X14369Y-18346D01*
X14340Y-18303D01*
X14282Y-18217D01*
X14282Y-18217D01*
X13715Y-17650D01*
X14640Y-17650D01*
X14623Y-17681D01*
X14616Y-17713D01*
X14665Y-17800D01*
X15250Y-17800D01*
X15250Y-17792D01*
X15350Y-17792D01*
X15350Y-17800D01*
X15934Y-17800D01*
X15983Y-17713D01*
X15976Y-17681D01*
X15871Y-17489D01*
X15700Y-17351D01*
X15517Y-17298D01*
X15940Y-16874D01*
X16123Y-16875D01*
X16353Y-16780D01*
X16529Y-16604D01*
X16624Y-16374D01*
X16625Y-16126D01*
X16530Y-15896D01*
X16354Y-15720D01*
X16124Y-15625D01*
X15876Y-15624D01*
X15646Y-15719D01*
X15470Y-15895D01*
X15375Y-16125D01*
X15374Y-16309D01*
X14834Y-16850D01*
X14625Y-16850D01*
X14625Y-16174D01*
X14625Y-15862D01*
X14562Y-15800D01*
X14050Y-15800D01*
X14050Y-16312D01*
X14112Y-16375D01*
X14325Y-16375D01*
X14424Y-16374D01*
X14516Y-16336D01*
X14587Y-16266D01*
X14625Y-16174D01*
X14625Y-16850D01*
X13950Y-16850D01*
X13950Y-16312D01*
X13950Y-15800D01*
X13437Y-15800D01*
X13375Y-15862D01*
X13374Y-16174D01*
X13412Y-16266D01*
X13483Y-16336D01*
X13575Y-16374D01*
X13674Y-16375D01*
X13887Y-16375D01*
X13950Y-16312D01*
X13950Y-16850D01*
X12308Y-16850D01*
X12399Y-16629D01*
X12400Y-16371D01*
X12301Y-16132D01*
X12118Y-15949D01*
X11879Y-15850D01*
X11621Y-15849D01*
X11382Y-15948D01*
X11199Y-16131D01*
X11100Y-16370D01*
X11099Y-16628D01*
X11198Y-16867D01*
X11381Y-17050D01*
X11382Y-17051D01*
X11217Y-17217D01*
X11130Y-17346D01*
X11125Y-17372D01*
X11100Y-17500D01*
X11100Y-18500D01*
X11125Y-18627D01*
X11130Y-18653D01*
X11217Y-18782D01*
X11567Y-19132D01*
X11567Y-19132D01*
X11696Y-19219D01*
X11696Y-19219D01*
X11738Y-19227D01*
X11750Y-19245D01*
X11905Y-19350D01*
X11756Y-19450D01*
X11650Y-19450D01*
X11496Y-19480D01*
X11453Y-19509D01*
X11367Y-19567D01*
X10825Y-20109D01*
X10825Y-10325D01*
X11685Y-10325D01*
X11448Y-10422D01*
X11173Y-10696D01*
X11025Y-11055D01*
X11024Y-11443D01*
X11172Y-11801D01*
X11446Y-12076D01*
X11805Y-12224D01*
X11856Y-12224D01*
X11699Y-12381D01*
X11600Y-12620D01*
X11599Y-12858D01*
X11382Y-12948D01*
X11199Y-13131D01*
X11100Y-13370D01*
X11099Y-13628D01*
X11198Y-13867D01*
X11381Y-14050D01*
X11620Y-14149D01*
X11878Y-14150D01*
X12117Y-14051D01*
X12269Y-13900D01*
X13334Y-13900D01*
X13600Y-14165D01*
X13600Y-14266D01*
X13499Y-14366D01*
X13354Y-14220D01*
X13124Y-14125D01*
X12876Y-14124D01*
X12646Y-14219D01*
X12470Y-14395D01*
X12375Y-14625D01*
X12374Y-14873D01*
X12469Y-15103D01*
X12645Y-15279D01*
X12875Y-15374D01*
X13123Y-15375D01*
X13353Y-15280D01*
X13500Y-15133D01*
X13515Y-15149D01*
X13483Y-15163D01*
X13412Y-15233D01*
X13374Y-15325D01*
X13375Y-15637D01*
X13437Y-15700D01*
X13950Y-15700D01*
X13950Y-15692D01*
X14050Y-15692D01*
X14050Y-15700D01*
X14562Y-15700D01*
X14625Y-15637D01*
X14625Y-15325D01*
X14587Y-15233D01*
X14516Y-15163D01*
X14484Y-15149D01*
X14529Y-15104D01*
X14624Y-14874D01*
X14625Y-14626D01*
X14530Y-14396D01*
X14400Y-14266D01*
X14400Y-14000D01*
X14369Y-13846D01*
X14369Y-13846D01*
X14340Y-13803D01*
X14282Y-13717D01*
X14282Y-13717D01*
X13782Y-13217D01*
X13653Y-13130D01*
X13627Y-13125D01*
X13500Y-13100D01*
X12808Y-13100D01*
X12899Y-12879D01*
X12900Y-12621D01*
X12801Y-12382D01*
X12618Y-12199D01*
X12437Y-12124D01*
X12551Y-12077D01*
X12826Y-11803D01*
X12974Y-11444D01*
X12975Y-11056D01*
X12827Y-10698D01*
X12553Y-10423D01*
X12314Y-10325D01*
X24435Y-10325D01*
X24198Y-10422D01*
X23923Y-10696D01*
X23775Y-11055D01*
X23774Y-11443D01*
X23922Y-11801D01*
X24196Y-12076D01*
X24555Y-12224D01*
X24943Y-12225D01*
X25301Y-12077D01*
X25576Y-11803D01*
X25675Y-11564D01*
X25675Y-37000D01*
X25675Y-37500D01*
X25675Y-37675D01*
M02*
