G04 (created by PCBNEW-RS274X (2011-12-21 BZR 3253)-stable) date 15/03/2013 12:04:59*
G01*
G70*
G90*
%MOIN*%
G04 Gerber Fmt 3.4, Leading zero omitted, Abs format*
%FSLAX34Y34*%
G04 APERTURE LIST*
%ADD10C,0.006000*%
%ADD11C,0.000100*%
%ADD12R,0.078700X0.078700*%
%ADD13C,0.078700*%
%ADD14R,0.062000X0.090000*%
%ADD15O,0.062000X0.090000*%
%ADD16R,0.090000X0.062000*%
%ADD17O,0.090000X0.062000*%
%ADD18R,0.075000X0.075000*%
%ADD19C,0.075000*%
%ADD20C,0.080000*%
%ADD21R,0.080000X0.080000*%
%ADD22C,0.137800*%
%ADD23C,0.035000*%
%ADD24C,0.030000*%
G04 APERTURE END LIST*
G54D10*
G54D11*
G36*
X20192Y-28171D02*
X20192Y-28391D01*
X20192Y-28425D01*
X20192Y-28456D01*
X20192Y-28483D01*
X20192Y-28507D01*
X20192Y-28528D01*
X20192Y-28547D01*
X20192Y-28563D01*
X20192Y-28577D01*
X20191Y-28588D01*
X20191Y-28597D01*
X20191Y-28604D01*
X20191Y-28610D01*
X20190Y-28614D01*
X20190Y-28616D01*
X20190Y-28617D01*
X20185Y-28624D01*
X20178Y-28629D01*
X20170Y-28632D01*
X20167Y-28633D01*
X20161Y-28634D01*
X20152Y-28635D01*
X20140Y-28638D01*
X20126Y-28640D01*
X20109Y-28644D01*
X20090Y-28647D01*
X20070Y-28651D01*
X20047Y-28655D01*
X20024Y-28660D01*
X19999Y-28664D01*
X19973Y-28669D01*
X19961Y-28671D01*
X19930Y-28677D01*
X19902Y-28682D01*
X19877Y-28687D01*
X19855Y-28691D01*
X19836Y-28695D01*
X19819Y-28698D01*
X19804Y-28701D01*
X19792Y-28703D01*
X19782Y-28705D01*
X19773Y-28707D01*
X19766Y-28709D01*
X19761Y-28711D01*
X19756Y-28712D01*
X19753Y-28713D01*
X19751Y-28715D01*
X19749Y-28716D01*
X19747Y-28717D01*
X19746Y-28719D01*
X19745Y-28720D01*
X19745Y-28721D01*
X19744Y-28723D01*
X19742Y-28728D01*
X19738Y-28737D01*
X19734Y-28747D01*
X19729Y-28760D01*
X19722Y-28775D01*
X19715Y-28793D01*
X19708Y-28811D01*
X19700Y-28832D01*
X19691Y-28853D01*
X19682Y-28876D01*
X19677Y-28889D01*
X19666Y-28916D01*
X19656Y-28941D01*
X19647Y-28962D01*
X19640Y-28981D01*
X19633Y-28998D01*
X19628Y-29012D01*
X19623Y-29024D01*
X19619Y-29034D01*
X19617Y-29042D01*
X19614Y-29049D01*
X19613Y-29055D01*
X19612Y-29059D01*
X19611Y-29063D01*
X19611Y-29066D01*
X19611Y-29068D01*
X19612Y-29070D01*
X19613Y-29072D01*
X19613Y-29074D01*
X19614Y-29076D01*
X19618Y-29081D01*
X19623Y-29088D01*
X19629Y-29098D01*
X19637Y-29110D01*
X19646Y-29124D01*
X19657Y-29139D01*
X19669Y-29156D01*
X19681Y-29175D01*
X19695Y-29195D01*
X19709Y-29216D01*
X19724Y-29237D01*
X19731Y-29248D01*
X19746Y-29270D01*
X19761Y-29291D01*
X19775Y-29312D01*
X19788Y-29331D01*
X19800Y-29349D01*
X19811Y-29365D01*
X19821Y-29379D01*
X19830Y-29392D01*
X19837Y-29403D01*
X19843Y-29411D01*
X19847Y-29417D01*
X19849Y-29420D01*
X19849Y-29421D01*
X19851Y-29428D01*
X19850Y-29436D01*
X19849Y-29439D01*
X19848Y-29441D01*
X19844Y-29446D01*
X19837Y-29452D01*
X19829Y-29461D01*
X19819Y-29472D01*
X19806Y-29484D01*
X19792Y-29499D01*
X19776Y-29515D01*
X19759Y-29532D01*
X19740Y-29551D01*
X19720Y-29571D01*
X19699Y-29592D01*
X19690Y-29601D01*
X19667Y-29624D01*
X19646Y-29645D01*
X19627Y-29664D01*
X19611Y-29680D01*
X19596Y-29695D01*
X19583Y-29707D01*
X19572Y-29718D01*
X19563Y-29728D01*
X19554Y-29735D01*
X19547Y-29742D01*
X19542Y-29747D01*
X19537Y-29751D01*
X19533Y-29754D01*
X19530Y-29756D01*
X19527Y-29758D01*
X19525Y-29758D01*
X19523Y-29759D01*
X19521Y-29758D01*
X19519Y-29758D01*
X19518Y-29757D01*
X19517Y-29757D01*
X19515Y-29756D01*
X19510Y-29753D01*
X19502Y-29748D01*
X19493Y-29742D01*
X19481Y-29734D01*
X19467Y-29724D01*
X19451Y-29714D01*
X19434Y-29703D01*
X19416Y-29690D01*
X19397Y-29677D01*
X19377Y-29663D01*
X19362Y-29653D01*
X19334Y-29634D01*
X19310Y-29617D01*
X19288Y-29602D01*
X19268Y-29588D01*
X19251Y-29577D01*
X19236Y-29566D01*
X19222Y-29557D01*
X19211Y-29550D01*
X19202Y-29543D01*
X19194Y-29538D01*
X19187Y-29533D01*
X19182Y-29530D01*
X19177Y-29527D01*
X19174Y-29525D01*
X19171Y-29524D01*
X19169Y-29523D01*
X19168Y-29523D01*
X19167Y-29523D01*
X19166Y-29523D01*
X19164Y-29523D01*
X19163Y-29523D01*
X19162Y-29523D01*
X19160Y-29523D01*
X19157Y-29523D01*
X19155Y-29524D01*
X19151Y-29525D01*
X19148Y-29526D01*
X19142Y-29529D01*
X19136Y-29532D01*
X19127Y-29536D01*
X19117Y-29542D01*
X19105Y-29548D01*
X19089Y-29556D01*
X19075Y-29564D01*
X19056Y-29574D01*
X19041Y-29582D01*
X19027Y-29589D01*
X19017Y-29595D01*
X19008Y-29599D01*
X19001Y-29602D01*
X18995Y-29604D01*
X18991Y-29605D01*
X18988Y-29605D01*
X18985Y-29605D01*
X18983Y-29603D01*
X18981Y-29602D01*
X18980Y-29600D01*
X18979Y-29598D01*
X18976Y-29593D01*
X18973Y-29585D01*
X18968Y-29574D01*
X18962Y-29561D01*
X18956Y-29545D01*
X18948Y-29527D01*
X18940Y-29507D01*
X18930Y-29485D01*
X18921Y-29462D01*
X18910Y-29437D01*
X18899Y-29410D01*
X18888Y-29383D01*
X18876Y-29355D01*
X18864Y-29326D01*
X18852Y-29296D01*
X18839Y-29266D01*
X18827Y-29236D01*
X18814Y-29205D01*
X18801Y-29175D01*
X18789Y-29145D01*
X18777Y-29116D01*
X18765Y-29087D01*
X18754Y-29059D01*
X18743Y-29033D01*
X18732Y-29007D01*
X18722Y-28983D01*
X18713Y-28960D01*
X18705Y-28940D01*
X18697Y-28921D01*
X18690Y-28904D01*
X18684Y-28889D01*
X18680Y-28877D01*
X18676Y-28868D01*
X18673Y-28862D01*
X18672Y-28858D01*
X18672Y-28858D01*
X18672Y-28853D01*
X18673Y-28849D01*
X18676Y-28844D01*
X18680Y-28840D01*
X18687Y-28834D01*
X18697Y-28828D01*
X18705Y-28822D01*
X18714Y-28816D01*
X18724Y-28810D01*
X18732Y-28804D01*
X18739Y-28799D01*
X18742Y-28798D01*
X18748Y-28793D01*
X18755Y-28787D01*
X18764Y-28781D01*
X18773Y-28774D01*
X18775Y-28773D01*
X18796Y-28756D01*
X18817Y-28737D01*
X18837Y-28715D01*
X18857Y-28693D01*
X18874Y-28670D01*
X18885Y-28655D01*
X18905Y-28620D01*
X18922Y-28584D01*
X18936Y-28547D01*
X18948Y-28509D01*
X18955Y-28470D01*
X18960Y-28431D01*
X18961Y-28391D01*
X18959Y-28352D01*
X18954Y-28313D01*
X18946Y-28274D01*
X18934Y-28236D01*
X18929Y-28222D01*
X18912Y-28184D01*
X18892Y-28148D01*
X18870Y-28114D01*
X18845Y-28083D01*
X18817Y-28054D01*
X18787Y-28027D01*
X18754Y-28003D01*
X18720Y-27981D01*
X18696Y-27969D01*
X18660Y-27953D01*
X18625Y-27940D01*
X18590Y-27931D01*
X18553Y-27925D01*
X18516Y-27921D01*
X18486Y-27920D01*
X18468Y-27921D01*
X18452Y-27921D01*
X18438Y-27922D01*
X18424Y-27924D01*
X18408Y-27926D01*
X18397Y-27928D01*
X18360Y-27937D01*
X18323Y-27949D01*
X18287Y-27964D01*
X18252Y-27981D01*
X18219Y-28002D01*
X18188Y-28025D01*
X18158Y-28050D01*
X18134Y-28075D01*
X18108Y-28107D01*
X18084Y-28140D01*
X18064Y-28175D01*
X18047Y-28212D01*
X18033Y-28250D01*
X18022Y-28290D01*
X18014Y-28332D01*
X18013Y-28338D01*
X18012Y-28349D01*
X18011Y-28362D01*
X18011Y-28377D01*
X18011Y-28393D01*
X18011Y-28410D01*
X18012Y-28426D01*
X18013Y-28440D01*
X18014Y-28453D01*
X18014Y-28457D01*
X18021Y-28498D01*
X18032Y-28538D01*
X18046Y-28576D01*
X18063Y-28613D01*
X18083Y-28648D01*
X18107Y-28683D01*
X18111Y-28689D01*
X18122Y-28702D01*
X18135Y-28716D01*
X18149Y-28730D01*
X18164Y-28745D01*
X18178Y-28758D01*
X18192Y-28769D01*
X18197Y-28773D01*
X18205Y-28779D01*
X18214Y-28786D01*
X18223Y-28792D01*
X18229Y-28797D01*
X18230Y-28798D01*
X18236Y-28802D01*
X18244Y-28807D01*
X18253Y-28813D01*
X18262Y-28819D01*
X18267Y-28822D01*
X18278Y-28830D01*
X18287Y-28836D01*
X18293Y-28841D01*
X18297Y-28846D01*
X18299Y-28850D01*
X18300Y-28854D01*
X18300Y-28858D01*
X18299Y-28860D01*
X18297Y-28866D01*
X18293Y-28874D01*
X18289Y-28885D01*
X18284Y-28899D01*
X18277Y-28915D01*
X18270Y-28933D01*
X18262Y-28953D01*
X18253Y-28975D01*
X18243Y-28999D01*
X18233Y-29024D01*
X18222Y-29050D01*
X18210Y-29078D01*
X18199Y-29106D01*
X18187Y-29135D01*
X18174Y-29165D01*
X18162Y-29195D01*
X18149Y-29225D01*
X18137Y-29256D01*
X18124Y-29286D01*
X18112Y-29316D01*
X18100Y-29345D01*
X18088Y-29374D01*
X18076Y-29401D01*
X18065Y-29428D01*
X18055Y-29453D01*
X18044Y-29477D01*
X18035Y-29500D01*
X18026Y-29520D01*
X18019Y-29539D01*
X18011Y-29556D01*
X18005Y-29570D01*
X18000Y-29582D01*
X17996Y-29591D01*
X17994Y-29597D01*
X17992Y-29600D01*
X17992Y-29600D01*
X17990Y-29602D01*
X17988Y-29604D01*
X17986Y-29605D01*
X17983Y-29605D01*
X17979Y-29605D01*
X17975Y-29603D01*
X17969Y-29601D01*
X17961Y-29597D01*
X17951Y-29593D01*
X17940Y-29587D01*
X17926Y-29579D01*
X17909Y-29570D01*
X17897Y-29564D01*
X17879Y-29555D01*
X17865Y-29547D01*
X17852Y-29540D01*
X17843Y-29535D01*
X17835Y-29531D01*
X17828Y-29528D01*
X17823Y-29526D01*
X17820Y-29525D01*
X17817Y-29524D01*
X17814Y-29523D01*
X17812Y-29523D01*
X17810Y-29523D01*
X17808Y-29523D01*
X17807Y-29523D01*
X17806Y-29523D01*
X17805Y-29523D01*
X17804Y-29523D01*
X17802Y-29523D01*
X17800Y-29524D01*
X17797Y-29526D01*
X17793Y-29528D01*
X17789Y-29531D01*
X17783Y-29534D01*
X17776Y-29539D01*
X17767Y-29545D01*
X17757Y-29552D01*
X17745Y-29560D01*
X17731Y-29570D01*
X17715Y-29581D01*
X17697Y-29593D01*
X17676Y-29607D01*
X17653Y-29624D01*
X17628Y-29641D01*
X17607Y-29655D01*
X17587Y-29669D01*
X17567Y-29682D01*
X17549Y-29695D01*
X17532Y-29706D01*
X17516Y-29717D01*
X17502Y-29726D01*
X17491Y-29735D01*
X17481Y-29741D01*
X17473Y-29746D01*
X17469Y-29749D01*
X17467Y-29751D01*
X17458Y-29756D01*
X17450Y-29758D01*
X17442Y-29758D01*
X17442Y-29758D01*
X17440Y-29757D01*
X17436Y-29753D01*
X17429Y-29747D01*
X17420Y-29738D01*
X17409Y-29727D01*
X17395Y-29714D01*
X17379Y-29698D01*
X17360Y-29679D01*
X17339Y-29659D01*
X17316Y-29635D01*
X17290Y-29609D01*
X17280Y-29599D01*
X17257Y-29576D01*
X17236Y-29555D01*
X17217Y-29536D01*
X17201Y-29520D01*
X17186Y-29505D01*
X17173Y-29493D01*
X17163Y-29481D01*
X17153Y-29472D01*
X17145Y-29464D01*
X17139Y-29457D01*
X17134Y-29452D01*
X17130Y-29447D01*
X17126Y-29443D01*
X17124Y-29440D01*
X17123Y-29438D01*
X17122Y-29437D01*
X17121Y-29435D01*
X17121Y-29435D01*
X17120Y-29429D01*
X17121Y-29424D01*
X17121Y-29423D01*
X17123Y-29421D01*
X17126Y-29416D01*
X17130Y-29409D01*
X17137Y-29399D01*
X17145Y-29388D01*
X17154Y-29374D01*
X17165Y-29358D01*
X17176Y-29341D01*
X17189Y-29322D01*
X17203Y-29303D01*
X17217Y-29282D01*
X17232Y-29260D01*
X17239Y-29250D01*
X17254Y-29228D01*
X17268Y-29207D01*
X17282Y-29187D01*
X17295Y-29167D01*
X17308Y-29150D01*
X17319Y-29133D01*
X17329Y-29118D01*
X17338Y-29105D01*
X17345Y-29095D01*
X17351Y-29086D01*
X17355Y-29080D01*
X17357Y-29076D01*
X17357Y-29076D01*
X17358Y-29074D01*
X17359Y-29072D01*
X17360Y-29069D01*
X17361Y-29067D01*
X17361Y-29064D01*
X17360Y-29060D01*
X17359Y-29056D01*
X17358Y-29051D01*
X17356Y-29044D01*
X17353Y-29036D01*
X17349Y-29026D01*
X17345Y-29014D01*
X17339Y-29000D01*
X17333Y-28984D01*
X17326Y-28966D01*
X17317Y-28944D01*
X17308Y-28920D01*
X17297Y-28893D01*
X17295Y-28889D01*
X17286Y-28866D01*
X17277Y-28844D01*
X17268Y-28823D01*
X17261Y-28803D01*
X17253Y-28785D01*
X17247Y-28769D01*
X17241Y-28754D01*
X17236Y-28742D01*
X17232Y-28733D01*
X17229Y-28726D01*
X17227Y-28722D01*
X17227Y-28721D01*
X17226Y-28719D01*
X17225Y-28718D01*
X17224Y-28717D01*
X17222Y-28715D01*
X17220Y-28714D01*
X17217Y-28713D01*
X17213Y-28711D01*
X17208Y-28710D01*
X17202Y-28708D01*
X17194Y-28706D01*
X17184Y-28704D01*
X17173Y-28702D01*
X17159Y-28699D01*
X17143Y-28696D01*
X17125Y-28693D01*
X17104Y-28689D01*
X17081Y-28684D01*
X17054Y-28679D01*
X17024Y-28674D01*
X17010Y-28671D01*
X16984Y-28666D01*
X16959Y-28662D01*
X16934Y-28657D01*
X16911Y-28653D01*
X16890Y-28649D01*
X16870Y-28645D01*
X16852Y-28642D01*
X16837Y-28639D01*
X16824Y-28636D01*
X16814Y-28634D01*
X16806Y-28633D01*
X16802Y-28632D01*
X16801Y-28632D01*
X16793Y-28628D01*
X16786Y-28622D01*
X16781Y-28615D01*
X16781Y-28613D01*
X16780Y-28610D01*
X16780Y-28605D01*
X16780Y-28597D01*
X16779Y-28587D01*
X16779Y-28573D01*
X16779Y-28556D01*
X16779Y-28536D01*
X16779Y-28514D01*
X16779Y-28487D01*
X16779Y-28458D01*
X16779Y-28425D01*
X16779Y-28389D01*
X16779Y-28388D01*
X16780Y-28171D01*
X16785Y-28164D01*
X16789Y-28160D01*
X16793Y-28157D01*
X16794Y-28156D01*
X16797Y-28155D01*
X16802Y-28154D01*
X16811Y-28153D01*
X16822Y-28150D01*
X16836Y-28148D01*
X16853Y-28145D01*
X16871Y-28141D01*
X16892Y-28137D01*
X16914Y-28133D01*
X16938Y-28128D01*
X16963Y-28124D01*
X16989Y-28119D01*
X17009Y-28115D01*
X17042Y-28109D01*
X17074Y-28103D01*
X17102Y-28098D01*
X17128Y-28093D01*
X17151Y-28088D01*
X17171Y-28085D01*
X17188Y-28081D01*
X17202Y-28078D01*
X17213Y-28076D01*
X17220Y-28074D01*
X17225Y-28073D01*
X17225Y-28073D01*
X17231Y-28069D01*
X17236Y-28064D01*
X17237Y-28063D01*
X17238Y-28060D01*
X17241Y-28054D01*
X17245Y-28046D01*
X17250Y-28035D01*
X17256Y-28022D01*
X17262Y-28008D01*
X17269Y-27991D01*
X17277Y-27974D01*
X17285Y-27955D01*
X17293Y-27936D01*
X17301Y-27916D01*
X17310Y-27896D01*
X17318Y-27877D01*
X17327Y-27857D01*
X17335Y-27838D01*
X17342Y-27821D01*
X17349Y-27804D01*
X17355Y-27789D01*
X17361Y-27776D01*
X17365Y-27764D01*
X17369Y-27756D01*
X17371Y-27749D01*
X17373Y-27746D01*
X17373Y-27746D01*
X17373Y-27739D01*
X17371Y-27733D01*
X17371Y-27732D01*
X17370Y-27730D01*
X17367Y-27725D01*
X17362Y-27717D01*
X17355Y-27707D01*
X17347Y-27695D01*
X17338Y-27681D01*
X17327Y-27665D01*
X17315Y-27648D01*
X17302Y-27629D01*
X17289Y-27609D01*
X17274Y-27588D01*
X17259Y-27565D01*
X17247Y-27548D01*
X17232Y-27525D01*
X17217Y-27503D01*
X17202Y-27482D01*
X17189Y-27462D01*
X17176Y-27444D01*
X17164Y-27427D01*
X17154Y-27412D01*
X17145Y-27398D01*
X17137Y-27387D01*
X17131Y-27377D01*
X17126Y-27370D01*
X17123Y-27366D01*
X17122Y-27365D01*
X17121Y-27359D01*
X17121Y-27352D01*
X17121Y-27350D01*
X17122Y-27349D01*
X17122Y-27348D01*
X17123Y-27346D01*
X17125Y-27344D01*
X17127Y-27341D01*
X17130Y-27337D01*
X17134Y-27333D01*
X17139Y-27327D01*
X17145Y-27321D01*
X17153Y-27313D01*
X17162Y-27304D01*
X17172Y-27293D01*
X17185Y-27281D01*
X17199Y-27267D01*
X17215Y-27251D01*
X17233Y-27232D01*
X17253Y-27212D01*
X17276Y-27189D01*
X17279Y-27186D01*
X17302Y-27163D01*
X17323Y-27142D01*
X17342Y-27124D01*
X17358Y-27107D01*
X17373Y-27093D01*
X17386Y-27080D01*
X17397Y-27069D01*
X17406Y-27060D01*
X17414Y-27052D01*
X17421Y-27046D01*
X17426Y-27041D01*
X17431Y-27037D01*
X17434Y-27034D01*
X17437Y-27031D01*
X17439Y-27030D01*
X17441Y-27029D01*
X17442Y-27028D01*
X17443Y-27028D01*
X17449Y-27028D01*
X17455Y-27029D01*
X17455Y-27029D01*
X17457Y-27030D01*
X17462Y-27033D01*
X17470Y-27038D01*
X17479Y-27044D01*
X17491Y-27052D01*
X17505Y-27062D01*
X17521Y-27072D01*
X17538Y-27084D01*
X17557Y-27097D01*
X17577Y-27111D01*
X17598Y-27125D01*
X17621Y-27140D01*
X17639Y-27153D01*
X17662Y-27169D01*
X17684Y-27184D01*
X17705Y-27198D01*
X17725Y-27212D01*
X17744Y-27225D01*
X17761Y-27237D01*
X17777Y-27247D01*
X17791Y-27257D01*
X17803Y-27265D01*
X17812Y-27271D01*
X17819Y-27276D01*
X17824Y-27279D01*
X17826Y-27280D01*
X17828Y-27282D01*
X17830Y-27283D01*
X17833Y-27283D01*
X17835Y-27284D01*
X17838Y-27284D01*
X17842Y-27284D01*
X17847Y-27283D01*
X17853Y-27281D01*
X17860Y-27279D01*
X17869Y-27276D01*
X17879Y-27272D01*
X17891Y-27267D01*
X17906Y-27261D01*
X17923Y-27254D01*
X17942Y-27246D01*
X17964Y-27237D01*
X17989Y-27227D01*
X18003Y-27222D01*
X18032Y-27210D01*
X18057Y-27199D01*
X18080Y-27190D01*
X18099Y-27182D01*
X18115Y-27175D01*
X18129Y-27169D01*
X18140Y-27164D01*
X18148Y-27160D01*
X18154Y-27158D01*
X18157Y-27156D01*
X18157Y-27156D01*
X18161Y-27151D01*
X18164Y-27145D01*
X18165Y-27144D01*
X18165Y-27141D01*
X18167Y-27135D01*
X18168Y-27126D01*
X18171Y-27114D01*
X18173Y-27100D01*
X18177Y-27083D01*
X18180Y-27064D01*
X18184Y-27043D01*
X18189Y-27021D01*
X18193Y-26997D01*
X18198Y-26971D01*
X18203Y-26945D01*
X18207Y-26920D01*
X18212Y-26893D01*
X18217Y-26867D01*
X18222Y-26842D01*
X18227Y-26818D01*
X18231Y-26796D01*
X18235Y-26775D01*
X18238Y-26757D01*
X18241Y-26741D01*
X18244Y-26727D01*
X18246Y-26716D01*
X18248Y-26707D01*
X18249Y-26702D01*
X18250Y-26700D01*
X18253Y-26696D01*
X18257Y-26692D01*
X18258Y-26691D01*
X18264Y-26687D01*
X18486Y-26687D01*
X18708Y-26687D01*
X18714Y-26692D01*
X18719Y-26696D01*
X18722Y-26700D01*
X18723Y-26701D01*
X18723Y-26704D01*
X18724Y-26709D01*
X18726Y-26718D01*
X18728Y-26730D01*
X18731Y-26744D01*
X18734Y-26760D01*
X18738Y-26779D01*
X18742Y-26800D01*
X18746Y-26822D01*
X18751Y-26846D01*
X18755Y-26871D01*
X18760Y-26898D01*
X18765Y-26925D01*
X18771Y-26957D01*
X18777Y-26987D01*
X18782Y-27013D01*
X18786Y-27037D01*
X18790Y-27057D01*
X18794Y-27075D01*
X18797Y-27091D01*
X18799Y-27104D01*
X18802Y-27116D01*
X18804Y-27125D01*
X18806Y-27133D01*
X18807Y-27139D01*
X18809Y-27145D01*
X18810Y-27149D01*
X18811Y-27152D01*
X18813Y-27154D01*
X18814Y-27155D01*
X18815Y-27157D01*
X18817Y-27158D01*
X18818Y-27159D01*
X18819Y-27159D01*
X18821Y-27160D01*
X18826Y-27163D01*
X18834Y-27166D01*
X18845Y-27170D01*
X18858Y-27176D01*
X18873Y-27182D01*
X18890Y-27189D01*
X18908Y-27197D01*
X18928Y-27205D01*
X18949Y-27213D01*
X18971Y-27222D01*
X18971Y-27222D01*
X18997Y-27233D01*
X19021Y-27243D01*
X19041Y-27251D01*
X19059Y-27259D01*
X19075Y-27265D01*
X19088Y-27270D01*
X19099Y-27274D01*
X19109Y-27278D01*
X19117Y-27280D01*
X19123Y-27282D01*
X19129Y-27283D01*
X19133Y-27284D01*
X19136Y-27284D01*
X19139Y-27283D01*
X19142Y-27283D01*
X19144Y-27281D01*
X19147Y-27280D01*
X19149Y-27278D01*
X19152Y-27277D01*
X19157Y-27273D01*
X19165Y-27268D01*
X19176Y-27261D01*
X19188Y-27252D01*
X19202Y-27242D01*
X19219Y-27231D01*
X19236Y-27219D01*
X19256Y-27206D01*
X19276Y-27192D01*
X19297Y-27177D01*
X19319Y-27162D01*
X19335Y-27151D01*
X19358Y-27136D01*
X19379Y-27121D01*
X19400Y-27107D01*
X19420Y-27093D01*
X19438Y-27081D01*
X19455Y-27069D01*
X19471Y-27059D01*
X19484Y-27050D01*
X19495Y-27043D01*
X19504Y-27036D01*
X19511Y-27032D01*
X19515Y-27030D01*
X19517Y-27029D01*
X19522Y-27028D01*
X19528Y-27028D01*
X19529Y-27028D01*
X19530Y-27029D01*
X19532Y-27029D01*
X19534Y-27031D01*
X19536Y-27033D01*
X19540Y-27036D01*
X19544Y-27039D01*
X19549Y-27044D01*
X19555Y-27050D01*
X19563Y-27057D01*
X19572Y-27066D01*
X19582Y-27076D01*
X19594Y-27088D01*
X19608Y-27102D01*
X19624Y-27118D01*
X19642Y-27135D01*
X19662Y-27155D01*
X19684Y-27178D01*
X19693Y-27186D01*
X19716Y-27209D01*
X19736Y-27230D01*
X19755Y-27249D01*
X19771Y-27265D01*
X19786Y-27279D01*
X19798Y-27292D01*
X19809Y-27303D01*
X19818Y-27312D01*
X19826Y-27320D01*
X19832Y-27327D01*
X19837Y-27332D01*
X19841Y-27337D01*
X19844Y-27340D01*
X19847Y-27343D01*
X19848Y-27346D01*
X19849Y-27347D01*
X19850Y-27349D01*
X19851Y-27350D01*
X19851Y-27351D01*
X19851Y-27352D01*
X19851Y-27359D01*
X19849Y-27365D01*
X19848Y-27367D01*
X19845Y-27372D01*
X19840Y-27379D01*
X19833Y-27389D01*
X19825Y-27401D01*
X19816Y-27415D01*
X19805Y-27431D01*
X19793Y-27448D01*
X19780Y-27467D01*
X19767Y-27487D01*
X19752Y-27508D01*
X19737Y-27530D01*
X19726Y-27546D01*
X19710Y-27569D01*
X19695Y-27590D01*
X19681Y-27611D01*
X19668Y-27631D01*
X19655Y-27650D01*
X19643Y-27667D01*
X19633Y-27682D01*
X19624Y-27696D01*
X19616Y-27708D01*
X19610Y-27717D01*
X19605Y-27724D01*
X19603Y-27728D01*
X19602Y-27730D01*
X19599Y-27739D01*
X19599Y-27745D01*
X19600Y-27747D01*
X19602Y-27753D01*
X19605Y-27761D01*
X19610Y-27772D01*
X19615Y-27785D01*
X19621Y-27800D01*
X19628Y-27816D01*
X19635Y-27833D01*
X19643Y-27852D01*
X19651Y-27871D01*
X19660Y-27891D01*
X19668Y-27911D01*
X19676Y-27931D01*
X19685Y-27950D01*
X19693Y-27969D01*
X19701Y-27987D01*
X19708Y-28004D01*
X19715Y-28019D01*
X19720Y-28032D01*
X19726Y-28044D01*
X19730Y-28053D01*
X19733Y-28059D01*
X19734Y-28063D01*
X19735Y-28063D01*
X19739Y-28068D01*
X19745Y-28072D01*
X19746Y-28073D01*
X19749Y-28074D01*
X19756Y-28075D01*
X19765Y-28077D01*
X19778Y-28080D01*
X19794Y-28083D01*
X19813Y-28087D01*
X19835Y-28091D01*
X19860Y-28096D01*
X19887Y-28101D01*
X19918Y-28107D01*
X19950Y-28113D01*
X19960Y-28115D01*
X19987Y-28120D01*
X20013Y-28124D01*
X20038Y-28129D01*
X20061Y-28133D01*
X20083Y-28137D01*
X20103Y-28141D01*
X20121Y-28145D01*
X20137Y-28148D01*
X20150Y-28150D01*
X20161Y-28152D01*
X20168Y-28154D01*
X20173Y-28155D01*
X20174Y-28155D01*
X20181Y-28159D01*
X20187Y-28164D01*
X20192Y-28171D01*
X20192Y-28171D01*
X20192Y-28171D01*
G37*
G54D12*
X12750Y-31000D03*
G54D13*
X12750Y-32000D03*
X12750Y-33000D03*
X12750Y-34000D03*
X12750Y-35000D03*
X12750Y-36000D03*
X12750Y-37000D03*
G54D14*
X20250Y-32700D03*
G54D15*
X19250Y-32700D03*
X18250Y-32700D03*
X17250Y-32700D03*
X16250Y-32700D03*
X16250Y-13800D03*
X17250Y-13800D03*
X18250Y-13800D03*
X19250Y-13800D03*
X20250Y-13800D03*
G54D12*
X23500Y-31000D03*
G54D13*
X23500Y-32000D03*
X23500Y-33000D03*
X23500Y-34000D03*
X23500Y-35000D03*
X23500Y-36000D03*
X23500Y-37000D03*
G54D16*
X15300Y-24850D03*
G54D17*
X15300Y-23850D03*
X15300Y-22850D03*
X15300Y-21850D03*
X15300Y-20850D03*
X15300Y-19850D03*
X15300Y-18850D03*
X15300Y-17850D03*
X12300Y-17850D03*
X12300Y-18850D03*
X12300Y-19850D03*
X12300Y-20850D03*
X12300Y-21850D03*
X12300Y-22850D03*
X12300Y-23850D03*
X12300Y-24850D03*
G54D18*
X14000Y-15750D03*
G54D19*
X14000Y-14750D03*
X13000Y-14750D03*
G54D20*
X11750Y-16500D03*
X11750Y-13500D03*
X15250Y-12750D03*
X12250Y-12750D03*
G54D21*
X14700Y-29250D03*
G54D20*
X14700Y-27250D03*
G54D19*
X16000Y-16250D03*
X18000Y-16250D03*
G54D16*
X16800Y-18850D03*
G54D17*
X16800Y-19850D03*
X16800Y-20850D03*
X16800Y-21850D03*
X16800Y-22850D03*
X16800Y-23850D03*
X16800Y-24850D03*
X16800Y-25850D03*
X19800Y-25850D03*
X19800Y-24850D03*
X19800Y-23850D03*
X19800Y-22850D03*
X19800Y-21850D03*
X19800Y-20850D03*
X19800Y-19850D03*
X19800Y-18850D03*
G54D22*
X24750Y-11250D03*
X12000Y-11250D03*
X14500Y-36750D03*
X21750Y-36750D03*
G54D20*
X21250Y-19000D03*
X24250Y-19000D03*
X21250Y-20000D03*
X24250Y-20000D03*
X21250Y-21000D03*
X24250Y-21000D03*
X21250Y-22000D03*
X24250Y-22000D03*
X21250Y-23000D03*
X24250Y-23000D03*
X21250Y-24000D03*
X24250Y-24000D03*
X21250Y-25000D03*
X24250Y-25000D03*
G54D14*
X20250Y-36200D03*
G54D15*
X19250Y-36200D03*
X18250Y-36200D03*
X17250Y-36200D03*
X16250Y-36200D03*
X16250Y-12600D03*
X17250Y-12600D03*
X18250Y-12600D03*
X19250Y-12600D03*
X20250Y-12600D03*
G54D23*
X13320Y-22570D03*
X11000Y-20500D03*
X13250Y-29750D03*
X15250Y-33750D03*
X23250Y-29250D03*
X21250Y-35500D03*
X23000Y-26500D03*
X19500Y-16750D03*
X22750Y-18000D03*
X15750Y-32000D03*
X18750Y-17250D03*
X23500Y-26750D03*
X22500Y-26250D03*
G54D24*
X14700Y-29250D02*
X14700Y-29100D01*
X22750Y-34250D02*
X23500Y-35000D01*
X13500Y-34250D02*
X13750Y-34250D01*
X14700Y-29100D02*
X13900Y-28300D01*
X12750Y-35000D02*
X13500Y-34250D01*
X12300Y-24850D02*
X13900Y-24850D01*
X13750Y-34250D02*
X14500Y-34250D01*
X14700Y-29250D02*
X14700Y-34250D01*
X22000Y-34250D02*
X22750Y-34250D01*
X13900Y-28300D02*
X13900Y-24850D01*
X22750Y-34250D02*
X23500Y-35000D01*
X14500Y-34250D02*
X22000Y-34250D01*
X14700Y-34250D02*
X14500Y-34250D01*
X13900Y-23150D02*
X13320Y-22570D01*
X13900Y-24250D02*
X13900Y-23150D01*
X13900Y-24850D02*
X13900Y-24250D01*
X13900Y-23150D02*
X13320Y-22570D01*
X11500Y-25250D02*
X11000Y-24750D01*
X12250Y-32000D02*
X11500Y-31250D01*
X11500Y-31250D02*
X11500Y-25250D01*
X11000Y-24750D02*
X11000Y-20500D01*
X12750Y-32000D02*
X12250Y-32000D01*
X13500Y-29750D02*
X13250Y-29750D01*
X14000Y-31750D02*
X14000Y-30250D01*
X14000Y-30250D02*
X13500Y-29750D01*
X12750Y-33000D02*
X14000Y-31750D01*
X14450Y-20900D02*
X14450Y-18700D01*
X17250Y-15500D02*
X18000Y-16250D01*
X15250Y-27250D02*
X15400Y-27250D01*
X14598Y-34750D02*
X14000Y-34750D01*
X15750Y-27750D02*
X15250Y-27250D01*
X22250Y-34750D02*
X14598Y-34750D01*
X18000Y-17750D02*
X18000Y-16250D01*
X18000Y-17850D02*
X18000Y-17750D01*
X15750Y-29750D02*
X15750Y-27750D01*
X14450Y-18700D02*
X15300Y-17850D01*
X15250Y-15500D02*
X17250Y-15500D01*
X14700Y-27250D02*
X15250Y-27250D01*
X17400Y-25850D02*
X18000Y-25250D01*
X14850Y-25850D02*
X14450Y-25450D01*
X15250Y-33750D02*
X15250Y-31750D01*
X18000Y-25250D02*
X18000Y-17750D01*
X15400Y-27250D02*
X16800Y-25850D01*
X15250Y-31750D02*
X15250Y-30250D01*
X15250Y-30250D02*
X15750Y-29750D01*
X16750Y-17850D02*
X15300Y-17850D01*
X16800Y-25850D02*
X14850Y-25850D01*
X14000Y-34750D02*
X12750Y-36000D01*
X12300Y-21850D02*
X14450Y-21850D01*
X16800Y-25850D02*
X17400Y-25850D01*
X14000Y-15750D02*
X15000Y-15750D01*
X14450Y-21850D02*
X14450Y-20900D01*
X16750Y-17850D02*
X18000Y-17850D01*
X23500Y-36000D02*
X22250Y-34750D01*
X15000Y-15750D02*
X15250Y-15500D01*
X14450Y-25450D02*
X14450Y-21850D01*
X11500Y-16750D02*
X11750Y-16500D01*
X12300Y-23850D02*
X11850Y-23850D01*
X11850Y-23850D02*
X11500Y-23500D01*
X11500Y-23500D02*
X11500Y-16750D01*
X15300Y-18850D02*
X16800Y-18850D01*
X15300Y-20850D02*
X16800Y-20850D01*
X15300Y-22850D02*
X16800Y-22850D01*
X23400Y-37000D02*
X22900Y-36500D01*
X21250Y-35250D02*
X21750Y-35250D01*
X23500Y-37000D02*
X23750Y-37000D01*
X22900Y-36500D02*
X22900Y-36300D01*
X22900Y-36300D02*
X21850Y-35250D01*
X21850Y-35250D02*
X21750Y-35250D01*
X23500Y-37000D02*
X23400Y-37000D01*
X13500Y-36250D02*
X13500Y-36000D01*
X12750Y-37000D02*
X13500Y-36250D01*
X21250Y-35500D02*
X21250Y-35250D01*
X14250Y-35250D02*
X18250Y-35250D01*
X18250Y-35250D02*
X20250Y-35250D01*
X13500Y-36000D02*
X14250Y-35250D01*
X20250Y-35250D02*
X21250Y-35250D01*
X23750Y-37000D02*
X24500Y-36250D01*
X24500Y-30500D02*
X23250Y-29250D01*
X24500Y-36250D02*
X24500Y-30500D01*
X18250Y-36200D02*
X18250Y-35250D01*
X17250Y-13800D02*
X17250Y-12600D01*
X17250Y-13800D02*
X17250Y-14000D01*
X24250Y-15500D02*
X24250Y-19000D01*
X17250Y-14000D02*
X18000Y-14750D01*
X23500Y-14750D02*
X24250Y-15500D01*
X18000Y-14750D02*
X23500Y-14750D01*
X23750Y-20000D02*
X23500Y-19750D01*
X23250Y-15250D02*
X17700Y-15250D01*
X17700Y-15250D02*
X16250Y-13800D01*
X23500Y-19750D02*
X23500Y-15500D01*
X23500Y-15500D02*
X23250Y-15250D01*
X24250Y-20000D02*
X23750Y-20000D01*
X16250Y-13800D02*
X16250Y-12600D01*
X20250Y-13800D02*
X20250Y-12600D01*
X24250Y-25000D02*
X24500Y-25000D01*
X23550Y-13800D02*
X24250Y-14500D01*
X24500Y-25000D02*
X25000Y-24500D01*
X20250Y-13800D02*
X23550Y-13800D01*
X25000Y-15250D02*
X24250Y-14500D01*
X25000Y-24500D02*
X25000Y-15250D01*
X23000Y-27750D02*
X23000Y-26500D01*
X18250Y-32700D02*
X18250Y-32500D01*
X18250Y-32500D02*
X23000Y-27750D01*
X19250Y-13800D02*
X19250Y-12600D01*
X20750Y-18000D02*
X22750Y-18000D01*
X19500Y-16750D02*
X20750Y-18000D01*
X15300Y-24850D02*
X16800Y-24850D01*
X15300Y-19850D02*
X16800Y-19850D01*
X15300Y-21850D02*
X16800Y-21850D01*
X21100Y-24850D02*
X21250Y-25000D01*
X19800Y-24850D02*
X21100Y-24850D01*
X21100Y-23850D02*
X21250Y-24000D01*
X19800Y-23850D02*
X21100Y-23850D01*
X19800Y-22850D02*
X21100Y-22850D01*
X21100Y-22850D02*
X21250Y-23000D01*
X21100Y-21850D02*
X21250Y-22000D01*
X19800Y-21850D02*
X21100Y-21850D01*
X19800Y-20850D02*
X21100Y-20850D01*
X21100Y-20850D02*
X21250Y-21000D01*
X21100Y-19850D02*
X21250Y-20000D01*
X19800Y-19850D02*
X21100Y-19850D01*
X19800Y-18850D02*
X21100Y-18850D01*
X21100Y-18850D02*
X21250Y-19000D01*
X15750Y-32000D02*
X15750Y-30500D01*
X16250Y-30000D02*
X16250Y-27750D01*
X15750Y-30500D02*
X16250Y-30000D01*
X16250Y-27750D02*
X18750Y-25250D01*
X18750Y-25250D02*
X18750Y-17250D01*
X13000Y-14750D02*
X13000Y-13500D01*
X13000Y-13500D02*
X12250Y-12750D01*
X19250Y-32250D02*
X23500Y-28000D01*
X23500Y-27750D02*
X23500Y-26750D01*
X19250Y-32700D02*
X19250Y-32250D01*
X23500Y-28000D02*
X23500Y-27750D01*
X22500Y-27500D02*
X22500Y-26250D01*
X17250Y-32700D02*
X17300Y-32700D01*
X17300Y-32700D02*
X22500Y-27500D01*
X15300Y-23850D02*
X16800Y-23850D01*
M02*
