G04 (created by PCBNEW-RS274X (2011-12-21 BZR 3253)-stable) date 15/03/2013 12:04:59*
G01*
G70*
G90*
%MOIN*%
G04 Gerber Fmt 3.4, Leading zero omitted, Abs format*
%FSLAX34Y34*%
G04 APERTURE LIST*
%ADD10C,0.006000*%
%ADD11R,0.078700X0.078700*%
%ADD12C,0.078700*%
%ADD13R,0.062000X0.090000*%
%ADD14O,0.062000X0.090000*%
%ADD15R,0.090000X0.062000*%
%ADD16O,0.090000X0.062000*%
%ADD17R,0.075000X0.075000*%
%ADD18C,0.075000*%
%ADD19C,0.080000*%
%ADD20R,0.080000X0.080000*%
%ADD21C,0.137800*%
%ADD22C,0.035000*%
%ADD23C,0.030000*%
G04 APERTURE END LIST*
G54D10*
G54D11*
X12750Y-31000D03*
G54D12*
X12750Y-32000D03*
X12750Y-33000D03*
X12750Y-34000D03*
X12750Y-35000D03*
X12750Y-36000D03*
X12750Y-37000D03*
G54D13*
X20250Y-32700D03*
G54D14*
X19250Y-32700D03*
X18250Y-32700D03*
X17250Y-32700D03*
X16250Y-32700D03*
X16250Y-13800D03*
X17250Y-13800D03*
X18250Y-13800D03*
X19250Y-13800D03*
X20250Y-13800D03*
G54D11*
X23500Y-31000D03*
G54D12*
X23500Y-32000D03*
X23500Y-33000D03*
X23500Y-34000D03*
X23500Y-35000D03*
X23500Y-36000D03*
X23500Y-37000D03*
G54D15*
X15300Y-24850D03*
G54D16*
X15300Y-23850D03*
X15300Y-22850D03*
X15300Y-21850D03*
X15300Y-20850D03*
X15300Y-19850D03*
X15300Y-18850D03*
X15300Y-17850D03*
X12300Y-17850D03*
X12300Y-18850D03*
X12300Y-19850D03*
X12300Y-20850D03*
X12300Y-21850D03*
X12300Y-22850D03*
X12300Y-23850D03*
X12300Y-24850D03*
G54D17*
X14000Y-15750D03*
G54D18*
X14000Y-14750D03*
X13000Y-14750D03*
G54D19*
X11750Y-16500D03*
X11750Y-13500D03*
X15250Y-12750D03*
X12250Y-12750D03*
G54D20*
X14700Y-29250D03*
G54D19*
X14700Y-27250D03*
G54D18*
X16000Y-16250D03*
X18000Y-16250D03*
G54D15*
X16800Y-18850D03*
G54D16*
X16800Y-19850D03*
X16800Y-20850D03*
X16800Y-21850D03*
X16800Y-22850D03*
X16800Y-23850D03*
X16800Y-24850D03*
X16800Y-25850D03*
X19800Y-25850D03*
X19800Y-24850D03*
X19800Y-23850D03*
X19800Y-22850D03*
X19800Y-21850D03*
X19800Y-20850D03*
X19800Y-19850D03*
X19800Y-18850D03*
G54D21*
X24750Y-11250D03*
X12000Y-11250D03*
X14500Y-36750D03*
X21750Y-36750D03*
G54D19*
X21250Y-19000D03*
X24250Y-19000D03*
X21250Y-20000D03*
X24250Y-20000D03*
X21250Y-21000D03*
X24250Y-21000D03*
X21250Y-22000D03*
X24250Y-22000D03*
X21250Y-23000D03*
X24250Y-23000D03*
X21250Y-24000D03*
X24250Y-24000D03*
X21250Y-25000D03*
X24250Y-25000D03*
G54D13*
X20250Y-36200D03*
G54D14*
X19250Y-36200D03*
X18250Y-36200D03*
X17250Y-36200D03*
X16250Y-36200D03*
X16250Y-12600D03*
X17250Y-12600D03*
X18250Y-12600D03*
X19250Y-12600D03*
X20250Y-12600D03*
G54D22*
X13320Y-22570D03*
X11000Y-20500D03*
X13250Y-29750D03*
X15250Y-33750D03*
X23250Y-29250D03*
X21250Y-35500D03*
X23000Y-26500D03*
X19500Y-16750D03*
X22750Y-18000D03*
X15750Y-32000D03*
X18750Y-17250D03*
X23500Y-26750D03*
X22500Y-26250D03*
G54D23*
X13320Y-22570D02*
X13250Y-22500D01*
X13250Y-22500D02*
X13250Y-19250D01*
X11850Y-18850D02*
X11500Y-18500D01*
X11500Y-18500D02*
X11500Y-17500D01*
X11500Y-17500D02*
X11750Y-17250D01*
X12300Y-18850D02*
X11850Y-18850D01*
X11750Y-17250D02*
X15000Y-17250D01*
X13250Y-19250D02*
X12850Y-18850D01*
X12850Y-18850D02*
X12300Y-18850D01*
X15000Y-17250D02*
X16000Y-16250D01*
X11000Y-20500D02*
X11650Y-19850D01*
X22500Y-32000D02*
X22000Y-31500D01*
X22000Y-31500D02*
X14000Y-31500D01*
X11650Y-19850D02*
X12300Y-19850D01*
X13500Y-32000D02*
X12750Y-32000D01*
X23500Y-32000D02*
X22500Y-32000D01*
X14000Y-31500D02*
X13500Y-32000D01*
X13250Y-23500D02*
X13250Y-28750D01*
X13250Y-28750D02*
X13250Y-29250D01*
X12600Y-22850D02*
X13250Y-23500D01*
X12300Y-22850D02*
X12600Y-22850D01*
X13250Y-29750D02*
X13250Y-28750D01*
X13500Y-34250D02*
X13250Y-34000D01*
X23500Y-34000D02*
X23250Y-34000D01*
X13500Y-35250D02*
X13500Y-34250D01*
X13250Y-34000D02*
X12750Y-34000D01*
X23250Y-34000D02*
X22750Y-34500D01*
X12750Y-34000D02*
X15000Y-34000D01*
X23500Y-36000D02*
X22750Y-35250D01*
X15000Y-34000D02*
X15250Y-33750D01*
X12750Y-36000D02*
X13500Y-35250D01*
X22750Y-35250D02*
X22750Y-34500D01*
X12750Y-31000D02*
X12750Y-26750D01*
X12750Y-26750D02*
X11500Y-25500D01*
X11500Y-21650D02*
X12300Y-20850D01*
X11500Y-25500D02*
X11500Y-21650D01*
X12750Y-31000D02*
X23500Y-31000D01*
X17250Y-30500D02*
X21750Y-30500D01*
X12300Y-17850D02*
X13350Y-17850D01*
X13350Y-17850D02*
X14000Y-18500D01*
X23750Y-33000D02*
X24500Y-32250D01*
X24500Y-30500D02*
X24000Y-30000D01*
X24000Y-30000D02*
X22500Y-30000D01*
X14000Y-25000D02*
X16500Y-27500D01*
X16500Y-27500D02*
X16500Y-29750D01*
X23500Y-33000D02*
X23750Y-33000D01*
X14000Y-18500D02*
X14000Y-25000D01*
X22500Y-30000D02*
X22000Y-30500D01*
X16500Y-29750D02*
X17250Y-30500D01*
X24500Y-32250D02*
X24500Y-30500D01*
X22000Y-30500D02*
X21750Y-30500D01*
X21250Y-33500D02*
X21250Y-35500D01*
X20250Y-32500D02*
X20250Y-32700D01*
X16250Y-32500D02*
X16848Y-31902D01*
X19652Y-31902D02*
X20250Y-32500D01*
X16848Y-31902D02*
X19652Y-31902D01*
X16250Y-32700D02*
X16250Y-32500D01*
X21250Y-16000D02*
X21250Y-12000D01*
X23250Y-29250D02*
X21250Y-27250D01*
X20450Y-32700D02*
X21250Y-33500D01*
X19500Y-27250D02*
X18750Y-26500D01*
X18750Y-26500D02*
X18750Y-18500D01*
X21250Y-27250D02*
X19500Y-27250D01*
X18750Y-18500D02*
X21250Y-16000D01*
X18250Y-12000D02*
X18250Y-12600D01*
X18500Y-11750D02*
X18250Y-12000D01*
X21250Y-12000D02*
X21000Y-11750D01*
X21000Y-11750D02*
X18500Y-11750D01*
X20250Y-32700D02*
X20450Y-32700D01*
X19250Y-36200D02*
X19250Y-34750D01*
X18250Y-33750D02*
X18250Y-32700D01*
X19250Y-34750D02*
X18250Y-33750D01*
X23000Y-22500D02*
X23500Y-22000D01*
X23500Y-22000D02*
X24250Y-22000D01*
X23000Y-26500D02*
X23000Y-22500D01*
X24500Y-24000D02*
X25000Y-23500D01*
X24250Y-24000D02*
X24500Y-24000D01*
X19250Y-16500D02*
X19500Y-16750D01*
X22750Y-18000D02*
X24750Y-18000D01*
X24750Y-18000D02*
X25000Y-18250D01*
X19250Y-13800D02*
X19250Y-16500D01*
X25000Y-18250D02*
X25000Y-18750D01*
X25000Y-23500D02*
X25000Y-18750D01*
X15250Y-14500D02*
X15500Y-14750D01*
X15500Y-14750D02*
X18000Y-14750D01*
X18000Y-14750D02*
X18250Y-14500D01*
X18250Y-14500D02*
X18250Y-13800D01*
X15250Y-12750D02*
X15250Y-14500D01*
X15500Y-33000D02*
X15500Y-32250D01*
X15500Y-32250D02*
X15750Y-32000D01*
X16250Y-33750D02*
X15500Y-33000D01*
X18750Y-14750D02*
X18250Y-14250D01*
X18250Y-14250D02*
X18250Y-13800D01*
X16250Y-36200D02*
X16250Y-33750D01*
X18750Y-17250D02*
X18750Y-14750D01*
X11750Y-13500D02*
X13500Y-13500D01*
X14000Y-14000D02*
X14000Y-14750D01*
X13500Y-13500D02*
X14000Y-14000D01*
X23500Y-26750D02*
X23500Y-23250D01*
X23500Y-23250D02*
X23750Y-23000D01*
X23750Y-23000D02*
X24250Y-23000D01*
X19250Y-33500D02*
X19250Y-32700D01*
X20250Y-36200D02*
X20250Y-34500D01*
X20250Y-34500D02*
X19250Y-33500D01*
X17250Y-36200D02*
X17250Y-32700D01*
X23000Y-21000D02*
X24250Y-21000D01*
X22500Y-21500D02*
X23000Y-21000D01*
X22500Y-26250D02*
X22500Y-21500D01*
M02*
