M48
INCH,TZ
T1C0.020
T2C0.025
T3C0.032
T4C0.032
T5C0.118
%
G90
G05
T1
X01470Y-02725
T2
X01100Y-02050
X01325Y-02975
X01332Y-02257
X01525Y-03375
X01575Y-03200
X01875Y-01725
X01950Y-01675
X02125Y-03550
X02250Y-02625
X02275Y-01800
X02300Y-02650
X02325Y-02925
X02350Y-02675
T3
X01175Y-01350
X01175Y-01650
X01225Y-01275
X01300Y-01475
X01400Y-01475
X01400Y-01575
X01525Y-01275
X01600Y-01625
X01800Y-01625
X02125Y-01900
X02125Y-02000
X02125Y-02100
X02125Y-02200
X02125Y-02300
X02125Y-02400
X02125Y-02500
X02425Y-01900
X02425Y-02000
X02425Y-02100
X02425Y-02200
X02425Y-02300
X02425Y-02400
X02425Y-02500
T4
X01230Y-01785
X01230Y-01885
X01230Y-01985
X01230Y-02085
X01230Y-02185
X01230Y-02285
X01230Y-02385
X01230Y-02485
X01275Y-03100
X01275Y-03200
X01275Y-03300
X01275Y-03400
X01275Y-03500
X01275Y-03600
X01275Y-03700
X01470Y-02925
X01530Y-01785
X01530Y-01885
X01530Y-01985
X01530Y-02085
X01530Y-02185
X01530Y-02285
X01530Y-02385
X01530Y-02485
X01625Y-01260
X01625Y-01380
X01625Y-03270
X01625Y-03620
X01680Y-01885
X01680Y-01985
X01680Y-02085
X01680Y-02185
X01680Y-02285
X01680Y-02385
X01680Y-02485
X01680Y-02585
X01725Y-01260
X01725Y-01380
X01725Y-03270
X01725Y-03620
X01825Y-01260
X01825Y-01380
X01825Y-03270
X01825Y-03620
X01925Y-01260
X01925Y-01380
X01925Y-03270
X01925Y-03620
X01980Y-01885
X01980Y-01985
X01980Y-02085
X01980Y-02185
X01980Y-02285
X01980Y-02385
X01980Y-02485
X01980Y-02585
X02025Y-01260
X02025Y-01380
X02025Y-03270
X02025Y-03620
X02350Y-03100
X02350Y-03200
X02350Y-03300
X02350Y-03400
X02350Y-03500
X02350Y-03600
X02350Y-03700
T5
X01200Y-01125
X01450Y-03675
X02175Y-03675
X02475Y-01125
T0
M30
